<mxfile host="app.diagrams.net" agent="Mozilla/5.0 (Windows NT 10.0; Win64; x64) AppleWebKit/537.36 (KHTML, like Gecko) Chrome/138.0.0.0 Safari/537.36" version="28.0.6">
  <diagram name="페이지-1" id="nuZYo6SZEVJgdiiYlFyg">
    <mxGraphModel dx="2431" dy="1307" grid="1" gridSize="10" guides="1" tooltips="1" connect="1" arrows="1" fold="1" page="1" pageScale="1" pageWidth="827" pageHeight="1169" math="0" shadow="0">
      <root>
        <mxCell id="0" />
        <mxCell id="1" parent="0" />
        <mxCell id="pn5O1WWvvQ2LyJvcuWW_-2" value="" style="shape=image;verticalLabelPosition=bottom;labelBackgroundColor=default;verticalAlign=top;aspect=fixed;imageAspect=0;image=data:image/png,iVBORw0KGgoAAAANSUhEUgAABx4AAAPvCAYAAAD9LWsAAAAAAXNSR0IArs4c6QAAAARnQU1BAACxjwv8YQUAAAAJcEhZcwAADsMAAA7DAcdvqGQAAP+lSURBVHhe7J0LvFRVof/NxHvRfKCiIhdfaL5TE1MTI/9KGFniA/BRaBqFmfhKNK/pVdOrqFfzBRlliiEJGKKBQoaPIEUSRQERFQKFA/L0AQXm+vtbc9a4Z2bNzN4zs8+ZPfv7/Xy+cs6ePXv2jGfmzNnfWWtvtGr1R2blqg/NytW5rtK/qz4ocMXK9z9V/37m8k+X5fveijXN6utPl+nf5Z9+X8Rl7602y5aH8dN1w6jtISIiIiIiIiIiIiIiItaLvqblVeuW8dPt+Zqb07a5rJ8u+1Rf08vvfmqBvkZo22G+q9QUP7KXyY2iRcdc83csbGz0Pjh2ebP5/xMQERERERERERERERERMbepeZqbr82FiZD5HdDXCsvFx43cQgAAAAAAAAAAAAAAAACAsOTHR8IjAAAAAAAAAAAAAAAAAEQmGx6b46MNjxr6CAAAAAAAAAAAAAAAAAAQlvypVzdy53MEAAAAAAAAAAAAAAAAAAhL/nkfN3IngwQAAAAAAAAAAAAAAAAACIvrjC4+Eh4BAAAAAAAAAAAAAAAAIDLB8CgJjwAAAAAAAAAAAAAAAAAQGdcZXXy04XHFyvebLwYAAAAAAAAAAAAAAAAAKI8aYzA+NodHRjwCAAAAAAAAAAAAAAAAQHjUGHPCoxYQHgEAAAAAAAAAAAAAAAAgCq4zEh4BAAAAAAAAAAAAAAAAoGJcZ3Tx0YbH5ZzjEQAAAAAAAAAAAAAAAAAioMb4WXx832ykBYRHAAAAAAAAAAAAAAAAAIiC64wuPhIeAQAAAAAAAAAAAAAAACAy3vD43oo1zRcDAAAAAAAAAAAAAAAAAJRHjTEYHzfSgvdWMOIRAAAAAAAAAAAAAAAAAMKjxpiNj59+bcOjvgAAAAAAAAAAAAAAAAAACIsaY3DU40a2RC5nqlUAAAAAAAAAAAAAAAAACI8aY3DU40Z2AeERAAAAAAAAAAAAAAAAACLgOqPiYzY8Llu+uvliAAAAAAAAAAAAAAAAAIDyqDG68KhRj4RHAAAAAAAAAAAAAAAAAIiMC4/uXI+ERwAAAAAAAAAAAAAAAACITHbEY/Oox420YNl7hEcAAAAAAAAAAAAAAAAACI8aY3DUI+ERAAAAAAAAAAAAAAAAACITDI9yo2Wf/ofwCAAAAAAAAAAAAAAAAABRyITHzGkdM+Hx0wVL31vVfDEAAAAAAAAAAAAAAAAAQHnUGIOjHgmPAAAAAAAAAAAAAAAAABAZwiMAAAAAAAAAAAAAAAAAVM1n4TEz3aoNj8sIjwAAAAAAAAAAAAAAAAAQATXGTGvMjHrcSCWSEY8AAAAAAAAAAAAAAAAAEAXXGQmPAAAAAAAAAAAAAAAAAFAxhEcAAAAAAAAAAAAAAAAAqJrc8LhG53gkPAIAAAAAAAAAAAAAAABANDLR8bPzPNoRj03LVjZfDAAAAAAAAAAAAAAAAABQHjXG4KhHwiMAAAAAAAAAAAAAAAAARIbwCAAAAAAAAAAAAAAAAABVQ3gEAAAAAAAAAAAAAAAAgKrxhsclSwmPAAAAAAAAAAAAAAAAABAeNUbCIwAAAAAAAAAAAAAAAABUhQuPy1x41BBIwiMAAAAAAAAAAAAAAAAAREGNMTPdaiZANofHVc0XAwAAAAAAAAAAAAAAAACUR40xeJ5HwiMAAAAAAAAAAAAAAAAARIbwCAAAAAAAAAAAAAAAAABVQ3gEAAAAAAAAAAAAAAAAgKohPAIAAAAAAAAAAAAAAABA1fjD4zLCIwAAAAAAAAAAAAAAAACER42xIDwuXrqy+WIAAAAAAAAAAAAAAAAAgPKoMRIeAQAAAAAAAAAAAAAAAKAqCI8AAAAAAAAAAAAAAAAAUDWERwAAAAAAAAAAAAAAAAComoLwuOTTBYRHAAAAAAAAAAAAAAAAAIiCGqNaI+ERAAAAAAAAAAAAAAAAACqG8AgAAAAAAAAAAAAAAAAAVRMMj8sIjwAAAAAAAAAAAAAAAABQCYRHAAAAAAAAAAAAAAAAAKgawiMAAAAAAAAAAAAAAAAAVA3hEQAAAAAAAAAAAAAAAACqxoXHpmUrCY8AAAAAAAAAAAAAAAAAUBmERwAAAAAAAAAAAAAAAACoGsIjAAAAAAAAAAAAAAAAAFQN4REAAAAAAAAAAAAAAAAAqobwCAAAAAAAAAAAAAAAAABVQ3gEAAAAAAAAAAAAAAAAgKohPAIAAAAAAAAAAAAAAABA1RAeAQAAAAAAAAAAAAAAAKBqcsLjcsIjANSYVatWmcWLF5t169Y1LwEAAAAAAAAAAAAAgEaE8AgAsdKvXz+z0UYbmXHjxjUvAQAAAAAAAAAAAACARoTwCACxQngEAAAAAAAAAAAAAEgHhEcAqIobb7zRhsVq3Hnnne10rAAAAAAAAAAAAAAAkFwIjwBQFePHjzf9+/evyssuu8yeCxIAAAAAAAAAAAAAAJIL4REAasrHH39s3nzzTTNq1Chz6aWX5gTGm266yTz55JNm+fLlzWsDAAAAAAAAAAAAAECjQHgEgJqwfv16c8stt5i2bdtmp1Bt166d6dSpU9Y2bdpkLzv00EPNrFmzmq8NAAAAAAAAAAAAAABJh/AIADVhyJAhNijuvvvu5umnn7Yh0sfq1avNDTfcYDbeeGPTsWNH8/bbbzdfAgAAAAAAAAAAAAAASYbwCAA1oV+/fjY83nXXXc1LivP++++brl272vV1jkgAAAAAAAAAAAAAAEg+hEcAqAluxKOmVB0zZoxZt25d8yW5NDU1mcsuu8yuu8cee5iFCxc2XwIAAAAAAAAAAAAAAEmG8AgANeHjjz82I0aMMO3bt7dRUbrpVBUjg8vl4YcfbubOndt8bQAAAAAAAAAAAAAASDqERwCoKZ988ol59913zbhx48zdd99tdt11Vxsae/fubR566CHzwgsvmA8++KB5bQAAAAAAAAAAAAAAaBQIjwAQK+7cjwqRAAAAAAAAAAAAAADQuBAeAaBidF5HTaNayjZt2tjw2K5dO+/lzgMOOMDMnDmzecsAAAAAAAAAAAAAAJA0CI8AUDFhwmNYCY8AAAAAAAAAAAAAAMmG8AgAAAAAAAAAAAAAAAAAVUN4BICqWbVqlbnssstM//79Izts2LDmrQAAAAAAAAAAAAAAQJIhPAJA1SxevNjsvPPO9lyOUe3Xr1/zVgAAAAAAAAAAAAAAIMkQHgGgalx47Natm/nggw+al5Zm+vTpZrPNNiM8AgAAAAAAAAAAAAA0CIRHAKgawiMAAAAAAAAAAAAAABAeAaBqCI8AAAAAAAAAAAAAAEB4BICq4RyPAAAAAAAAAAAAAABAeASAqlm1apW57LLLTP/+/SM7bNiw5q0AAAAAAAAAAAAAAECSITwCAAAAAAAAAAAAAAAAQNUQHgEAAKDumTlzpjnggANM3759zYcffti8tJCLLrrIdOrUyUyaNKl5SW0YMmSI3a7+rRXaR21T+1xrwj5eAFC/xPV6BgAAAAAAABAnhEcAAACoe6ZPn24222wz061bN/PBBx80Ly1E543V+WPHjRvXvKSQTz75xDz//PM2ynXo0MGu365dO3PYYYeZ3//+92bt2rXNa37GjTfeaNfTv7VC+xjmXLfa31mzZtkIceCBB5rdd9/dnH766fb669evb14rl7CPF0AS+fjjj83SpUvtOaajqunhWws9l5cvX273o6mpqejz1xHm9QwgTYT5wI4+bKPf7/rwjT6EU0ta+sMAep3r2rWrVV8DAAAAACQFwiMAAADUFQoD+bHgiSeeMG3btjWHH364mTdvXsHlLq6VO1CvA/0DBgyw67Rp08accMIJ9nyzffr0MVtvvbVd3qVLF7No0aLma2QoFR43bNhgJk+ebEaNGlXSsWPHmhUrVjRfK1x41AHUs846y67nc++99zazZ89uXvszCI/QyOg5v/POO3ufE+Us9XybMWNGwbmowzp+/PjmrRSiUDpixAjTvn37nH3ZeOONzfnnn2/WrFnTvGYuhEeAXML83tTvPP3u0+9A/S4shp6Xjz/+uOnRo4d9bn7uc5+z/+p7Ldfl+VTynNT7Dn3QIP99SzGDv7P1vV7rpL72ofXzr1eOSq4DAAAAABAFwiM0LBs+QcSwAtQT7sBeFF0QLHdQcNiwYfby3r17Fxzs18HBq6++2l5+3nnn2dFJjlLhUQfudJBTl5eyY8eOOUGz3AFU7Y+ChtY59NBDzSuvvJLdJ42aOvfcc+1lio/5oZTwCI2MRiUr9PkCfzH13N1kk01KBgv3nKxE32uDCD6P9WGH733ve+bBBx80V1xxRTae7rfffmbBggXN1/iMSiIHQCMQHB0c9P7777fPiVNOOaXgMrlu3brs7+RS4XH16tXmuOOOs9vSh4704SM9T/VhJD1P3W1ovSCVPCfd72NdL4zB1xLdp3LhsdT7k2JUch0AAIC08Oyzz9q/sadMmdK8BAAqgfAIDcuStca8sQYRyzmfJgF1hqZB9YWDUrpRf+UOCupyjZycNm1a85JcFPAUCPfdd1/z3nvvNS8tfZCu2AFS58svv2x22mmnggOH5cLj1KlTzaabbmqjhG+KNd3uBRdcYLehYBqE8AiQi3tOFHu+CUWL/OdvOa+88sqSB/Afeughe/mee+5pR2sHUUA955xz7OWnnnqqHT0dpJLIAdAIhP1AT756roQJjxdffLFd/7//+78LplfXTAPf/e537eV33nln89IMlTwnNdOBZjwIvmcZNGiQ3c5RRx2Vs1wGZzHQawzhEaA+iXPq5VqdW95NTS/dKG7td62noo7jXPgiru1CeZL42NdynzUjicKjZiyIi7Q/xrXCvc4F/z4La2uegiMtEB6hYSE8IoaT8Aj1jnszqelMX3311ZJvEMsdFNRBfk2nNmHChOYlubzxxht2qjWdT+n9999vXlrdQTodRNxmm20KImC58Dh06FB7+fXXX9+8pJDnnnvOjuLq2bOnjSYOwiNALmHCYyWUem3Qc1LPzVKvOTqgoQMbeo3InzaZ8AhpJewU5vm+8847ZcOjuzx/FoIg+nCSPqSU/7u1Vs9J9/tf52sOzq6Qjw6KER4B6pNKXg/0+hPmfXmtnqO+1xDtd6kPZgRp6f3NJ67tpokoH+jVbCLuwzhhHvtyH74tpa5X6vef0O/fF154we7bH//4R/Pmm296p0F31OrnZeXKlfbUKzrdSbl9FEl+jPVhq4cfftj88Ic/NAceeKCd+eGWW24xCxcubF4jl2oeYx3P0TEWhcuoljq3t+6rXuO0X1Gt9d+FUAjhERoWwiNiOAmPUK9oikK98dXBv/w3iTpQ//TTTzev+RnlDgJMnDjRnldNb2D1dfCPl7ffftuOPtD1dbtBqnmTrT8wdF1FzyDuwGOxN7xhbrNYYCQ8QiNTySdb3Xlia/0HZqnnqW63XDQQ7nUr/zyR5V7PANKE3hMoLP75z3+2HxIq9rtNy0uFRx1kO+aYY+wUq/owk4+//OUv9kM9+WGwVs9J98EiHdjUAU6H7mPwfJDFZkwI4l6DtK++g5w+ta6uU+r9BUBa0O9ed77mUlb6O1rvWfLP86yvtaxYRCn13iIKvvch2u9S4bHW+6vTXPgez2IGH+daPQ5pxv2chjH4cxLmsXe/b/O3E8ZSf6MqzN10003Zqc+Ddu7c2Tz11FPeoFarnxd9sFezDj366KPNS0qTxMdY6Lm25ZZb2nX1WOv4SLt27bLX1+wMel8SpJrH2L0e6bHV+xDf8z/f7t2729vTY1wM/bzovvje7xTTzTxRartQGwiP0LAQHhHDSXiEekSjHQYMGGDfEOoPjN/97nf2HGg6SKhzo+nNsQLi6NGjm6+Rwb3xL3YQQH+k6BxR7g8ZbUOjHoJ/2NT6TbamatF1dV63IOXCo/7Y0eW+KRgdw4cPt+vkR03CIzQy7g9X/exHtdZ/YJZ6bXD7GTzI4KPY61a51zOANKBQqGnF9fvaPY+dhx9+uJk7d27zmhncQbpSB9Y1RZiuf9BBB+WcP1n/zpgxw+y+++729vIPOtbiOanf5yeffLLdjg6+aVp1h/vd7e6fs9RriHsNqsRK3tMANBphn0P5z5cwrwf6e8L9PaPXlO985ztW93p2ySWXFPzNIdw+5d9msdeIfN37f9/7EO13sdfHWu+vcI9TWIPbKLVdCIdmCtL/e3dqAP2r76X7UJ5+l+p0AMEpecM89pXMTnDvvffaD/4U+xtVP18KTrpt/dzefffd9sNGGvmov6mLHQMQtfp50fV33HFH89ZbbzUvKU3SHmOhx1PrbLfddnZWluCHCoIfxlYADkbeah5jPR75r0flKHe8pFLi2i4UQniEhoXwiBhOwiPUI+4P60MPPdROE5KPpjTR5YcddphZvXp189LwBwV1IFPr6A8Y/XFz7rnn2ohX7DwOlb7JdtMoKm7qTXyQcm949YeJzu+oP67uu+++gk92alpGd3BUozeDuMeP8AiNiPvDVX8w649r3x/dxdRrRy1xrw0awZSPG1mluPDss882L81Fr28HH3wwU60CeNDvL/dpd70f0HNB06PqgNkPfvADu1yvA/reoeuUC486sHndddfZ60sdyNTvaXdwXd/rYGf+791aPCfd72fdnl4bevfunT2Qn38+SHfwsNRBOvcaFDzQWU53cLSSA4cAjUa59/jFLg/zejBmzBg73Xr+eZ71tZbpNcc3qqrYbc6fP98MHDgw+7p4yCGH2L9jNCWkAoIbSTR48ODseavzD/Rrv4u9PtZ6f4sRdv2o24Xi+B7LUn8vxvXYu5/JYn+junOjH3300fZ3Yj5//etfs79D8/+2rsU+u/cQ+oBQsQ/+FsN3+/X4GAsdA9FzXc95H3rOd+jQwey7777mvffea15a3T77Xo/KUe54iWDEY31DeISGhfCIGE7CI9Qj7k1msfMb6vyLOkdA/hvXWhwUdJ9a1IFMFwIqfZN955132uudd955BQcw3X0Mmn8gwH0aUZdpZIYOhGrkZJ8+fbIHSPM/iShK/ZEDkHQq+cM1Lsq95riRVb4DKPp08Q033GAvP/7447PnfHHU4vUMIMm4kf/BOBdk5MiR9sBZcGYAd9Aw//epD4V/fehIHz7SwXsdiNPzLfiBpiDVPie1XX0YQb+/H3/8cRsLtD29DvimMAzzWlfJ+5NK39MANCLlng/FLi/3euBei4p9+Mid/qFHjx4Fv//L7ZNuM3i5u6381wrfa4j22/f6GOf+5hN2/ajbheL4HsswUSyofnaqxf1M+m7TzQhQ6tzo+pvX/e7Mj2a1+HnR7Er629v3gcJyJOExFu6DkaXeJ7nXAz0WM2fObF5a3WPsez0qh3utK/W4uO0GH8ew1uLxhtIQHqFhITwihpPwCPXIpEmTCg4mBtF5nnbZZRc74i84SlFvHvUmMv8ggA5eBk9QHjR4LoN83ZvRSt5ku08KFntT795I77rrrvaAp9SnmPVp5iCaRu64447L2S+pKWg1zUx+dBSl/sgBSDqV/OEaF8VecxzBKaN0HhWNstInbXXOI32YQMs1ikBTSedTbtsAjY773VvsE/ka/ahRD8Hfde5gWakDauXQ71VFSb2+aIozvecQ1TwndaDvu9/9rr2+XhP02qDnvZ7/WvbjH//YrhMkzGtdJe9PKrkOQKNS7vlQ7PJyrwfl3ou71yrfjAfl9sn9DeEud9vKf63wvYZov32vj3Hubz5h14+6XSiO77Es9f/cre9G1Uq9dw0S/F0ZVnfuYt9tup+xcr+/i/1cFFseBQVH3894GHy3X2+PsUOnaSkVeN2sTfnHWqp5jLVvei3Svmkf8/fbp06Ro9vT61YxtF7+6xzUD4RHaFgIj4jhJDxCPaI32JpWTZ+s1UiA4ME4Taui843oTajO+xQMb8UOAujNraYKyY+O7du3t+treiJ9elKjHTSi8Mknn7QHGt0Ii6hvst2oBl1HU5r54qA7aFDqjXQQ7Yve+OsNdbE/Ihz6ZOIBBxxg+vbtW3AgEyDpuD8wo/zh6tRzyDdyqhLCHiDRyACNTA6eS9Z54okn2njio9xBTYBGRwcA9Ry4+uqrm5fk4g7o6fet+11X6nl5yy23FLwPcG6++eY5z82g7nd/pc/JWbNmZT9ooH0NjqjUwU0d2NNl+nDCr3/9a/PPf/7TXqbXrHIH0yo5CFjJdQAalXLPh2KXl3s90AcmdLnOTV8M/d3h20a5fXJ/Q7jL3ete/muF7zVE++17fYxzf/NR9AizftTtQnF8j2WYKFbqsXc/d1ovqr7b1PTAPXv2NJtssol57rnnmpcWop9RbSN/VGKYfS6Fu33fvoXBd/v19hg73Ahmvf/Qua6D6HQvJ510kt1G/rGWMPtcDPd6FNzHsJY6XuJ7nYP6gfAIDQvhETGchEeoV3QwTp+0c284FQmDBwYVCvOjWtSDgqX+GAgS5U12cIRT/gHGIO6gQak30gBQSDV/uPoOtlWKznmiDzSE/WS0Dmho+mSNeNSHG/QBi1JEfT0DaDSCMwdoSlT3oQEdBNOBMhfzNKWxwx2k8z3X9cl+X3R0Mx+4GQguvfRSe54pjXbUATg3DWolz8n/+Z//sdeRmjLWd86qNWvWmJ/85Cd29IHiqCPMwTT3/kTvj3z3zad7L1XJgUOARqPce/xil7vXA43I0fNT6ve6O0hfbrui2Drlruv+hnCXu9c9vVboA5o6x6Ney3S+R02dGnwN0X77Xh/L3aYotk6Y6zrcdJpaXyGzFFG2C6XxPZbu7+DDDz/cvPbaa/bn6pFHHrE/T2Eee/dzp1Co9YLn0Cunfr/6ZjVypynR3/m+DwpqZiDFMk0BqmlRg4TZ51K89dZbZscdd6z4+r7br8fHWOh1Sq9d7kOReh+k9wd6z6XvpT7AnH8cI8w+F6PUuRiPOuoou12de9F3ealz9Lv3Srq+9j//PU8p9UHt4FSyUHsIj9CwEB4Rw0l4hHpGf3DoAL2mXNUBOY1MvPzyy+30o75RhFEPCro/BoLhMfjmNd9yb7IVQt1UasWmT3S4gwba53L49rMUUdcHSBLV/OE6duxY74H/SnAHKPKnIaoVlUQOgEbjqaeesr/79VyQOqgUHD2s6YuDByfdQTr9DtTvwjCE/X1cyXNy4cKF5oQTTrCvPb7zOAbRa1Pw3Gnu/UgwGuSj6Oo7mBY8eFjsQFww2AKklXIH0otd7l4Pggbfd7vrlXq9KLbtYssd7jXLXe5e9/Ra8cYbb9ivdbkz+Bqi/fa9PrrbjGN/g7jTZWj9ww47rOgHNEWU7UIh06ZNM23btrWPYVjdz0qYx76S37fl0Id99ttvP3vbmhVEH0DS3/z6Pf/EE0/YU43osvyReKLanxd94EiP19SpU5uXlCeJj3EQfVji9ttvt89FvS/Ya6+97KlfdFu+Yy3VPsbFqOZvHv3MdO3ateA9jswPq/kSHuOH8AgNC+ERMZyER0gCevMbJqRFfdPq264vaugTw+XeZCuGutEXChHlRkC5gwba53KEvf+OqOsDNArV/OEaFU0DpU8gB6d5LIXO26IRCDNmzGheUpqWvC8A9YyeXw8//LD55je/aZ8TGpmokYGKevlUcpDO9/vY/R7V8nxr+ZzUwVQ3jboMjrDUv/o+uCws2pYObgaDAwAUUu5AerHL3e/o7t2729/tUiMNNbuBKLdd4da59dZbm5dkKHdd95rlLneve3q+K+y5c8K5c70FXwe0377Xx3K3Kdw6Ufc3iOKO1tXIa43GfPbZZ5svKSTKdqEQ/Rzog3ju5zPfq666Kvu3rkYPBn/XhHnsK/l9GwadguCII46wt+9T98k3GrKanxdFNo2y7NKli1m5MnwTSepjXCnVPMaliOtvHv6Wan0Ij9CwEB4Rw0l4hCTgDgDqjbcONOqPZ6kpRPQH7P/+7/+aVatWhXpz6f5Y17rB7ZYKdKXeZOefv00RYsmSJc2XFie4H+Vw+6lPIWq6OfcHTDG1nwoi5e4XQKPR0n9g6vml154wRN23lr4vAPVOmN+blRyk821Xow81SjH4u9WNqK72Oan3LxdffLHZfvvt7fZ86ve9ppwL86EGH7oNwiNAecodSC92ebnf0e51pdR0ou5ch/rAY5By++S27S53r3v5z3ff64D22/f6GOf+OvQ3U48ePew0mRpxrfB4/PHH54z0DhJ2u1B79AFa/d4r9UFa93OnEX8ajaifsSi6SO9DcU7Ta2rqcxfxin3gyFHNz4sbiVvqHKe1pjUeY93P4PuaoDqe4R7rs88+2xx44IF2VKCOcWhE4fvvv1/RY1xsZoag5UYmOqOOUORvqdaH8AgNC+ERMZyER6gn9MZb50vTG8QoahoxTWsa5s2l+8M6eICxHPoDW2/C8//Q1h9F5513nt2e3jDrk86+T2D6iLIfLjxq/SgSHiFt1PMfmPzxC1Ad7vfm9773veyIHo2M0JTsDz74oLnjjjvsuVfDhMfgwbOwv49r8RweM2ZM9gCb4qIOcgYP/OnDVJrmTOe11jo60BZ2lHQQPTaER4DylDuQXuzycq8H7m+aYtOJalSVRlf5zhNdbp/ca5a7vBbhMc79dejDk1pPp9BQbHQhs9i0z2G3C+XR7xEXlaKY/7dvEPdzp/9HlVjN71If1fy86BzQ+t08adKk5iXRScJjrPun09f41s1Xx1cUHxUh77vvPvucreQxDhMewxoMj60ZNCE8hEdoWAiPiOEkPEI9oQOJxx57bPZNoA7K6Q/k4JtzfRpPB+f0RlqxMTjaKMxBQffHutatBZoyRcEx6oG9KPvhwqNOTK9zXei2SqlPROqTkYRHaCR0oCt4gN5nuXM8OoPnenR/RNfCUrEjzOsTAEQ7MBZUB8wVIqOGx7BEnS45n7ffftt07NjRjvbR72nf+ZMc+mDTDTfcYPdRI4SKjQgqht4LEB4BylPutaDY5eV+p+s5q9F8ei3TBw7yGTlypL1MEW7Dhg3NSzOU2yf3N4S7vBbhMc79FS+88IJ97ZMvvfSSXaa/adx5e323GWa7EA73MxPVUo+9fg40+5DvfbY7TYn+9V0uNfouLPpgr85f+sc//jFnG7r9sDOPlEIjfffee++qztmehMc4f3p355VXXll2X0Q9PSfjCppQWwiP0LAQHhHDSXiERiLMgX33R0GY4BcnUfbDhcewITHq+gBJwP2xWwuDB91a6g/XMK9PAJA5Z/LBBx+cfV65T9wHP4R0991324NqGu2o2Oh+17kD8HGEx2pxv/d1kLBUdHS4EUb5MUFTp+kDT8HHI1/dhqYxlPrat44zeF46gLThXgt04D3/YLwsdkA+zO90nb9Qz0G9jk2bNq15qTFTpkyxAa7YOQ6LvT7p9U37dP/99+fs8+uvv27PM69t6vl87rnn2g9I6LKw4VHUen8dCox77rmnXUcfIA2+/o0ePdpsvPHGNj7+5je/yZ7/TpTbLsRHtY99rf7f6fe7fv/rZ0TbK2bnzp3NH/7wh5yfn7C437U6x2OY3821ol4eYxF2W7W8TUgHhEdoWAiPiOEkPEIjEeYggDvwd8opp9g/wqMYPCF8tbj9IDwChMMdcKuF+rRv2GmRa4V7fdIBQ98+FbOWrzsAjU49h0c3kjPsCEY3Gmj33XfPGYXh7qP2vxbyXgHSjHstKGf+a0WYvzkUMXReOrcNTaHsplFWSNF5XH2ho9jr06233prdVim1bX0oQ+8hooTHWu+v1p04caLZbrvt7OX6oEP+ey+t8/DDD2enRNTMFXrfI4ptF+Kn2se+Fv/v3ChZbefrX/+6napXsx0F3yNrHc1ysuWWW9r1fD9j5XjuuedsVH/00Uebl7QM9fAYO3zbcscqfFZym6W2V85Sx0sqneJWaiYLiBfCIzQshEfEcBIeoZEIcxCgmje9+aMOqsHtR6k30g4XEvP3p5wcTASoH9zrU1Rr+boD0OhEDY/FRjmVUtPC+w6+l0P71r17d3u7J554og2Lvu3ogwYaYaQRTFr3ggsuyFlPX7tzXNbCSu8PQCMQZhp3mX9ewzB/cwg9t5555hl7ugStr4B35JFH2mXFnne+CCCCB9jdqG+nAoyez8H3/fo+SngUtdxfRSI30vGiiy4q+YELjbDUqDW9JrvbKbZdiI5m49CsHG4mgXJuvvnmVT321f6/08+KPqSjbehnvdjPnmPJkiV2unV9uEfna4zC1VdfbXbccUfz1ltvNS+pjKQ9xkF82/IFvUMOOaTi26wkELr3TKWOl8QVNKE2EB6hYSE8IoaT8AiNhP6o1Rv5UieG17kOgn+oR1Enfw8zSiEM2kftq/a5HPPnzzcDBw70viEvJdOnAdQPzz//vPd1pZy1fN0BaHSihsdKrOZDPTo4qujotqVRPsEDkToHpA70u8t/+tOf8vwHqEPChsdK8EWASqgkPFZCqf3VyMunnnqqbDgSWoepVuPBfYhVo081pajv70afeg+aT5i/pcOcf9DpO9ej72e3HJX8vLj3DCeffHLBuUujkrTHOEjYx66Sx7gaonxQOwru/xXhMX4Ij9CwpCU8rv83hvHN9/2PHxIeAQAAAKAx+PDDD03fvn1Lnm9VhB3l5HPy5MlVH6BcuHChndLwhBNOyAmPmlZVBxE1pZxGIgJAfUJ4/Iy4YkRc200jLrTUYjacakaY+fQ9h9x5F4udVzQfTa+q2KftDR06tHlpedzjEuU6xUjaYxwk7HOtpZ+T7nEgPCYXwiM0LGkJjx+X/+AYfEprhce5qz8xc1Z+bF56Z435zSNPmHN/+t+m+7dPNEce3d10+0ZPc0b/88zN9w43f339XTNnxQa7vm87cUp4TA7//vT5/s+PETGsScV3XxDR74Z/Nz9xAAAAWgjC42fEFSPi2m4aqWUU02w6+nmqlcVm5xkyZIj9/6/zN+rDOL71NEpW05a7mQT23ntvs2jRouZLy6PguM022xRMpVwJSXyMHWGfay39nCQ8Jh/CIzQshEcIEmd4XPDpe4rFn/685btg1T/NyMcmmlPPPNvs0GEns8kmm5jPf/7zdt55p6ZS0vItPn0zdXT348xtQ39r3lr+kXn3o0+82yylb9/CSHhMDgqPvv+HiFjoyn81P3ESyKpP9913nxCx0KSGRz3PEbH+BfCRhPC4dOlS07VrV6u+FoTHdOJCix7PqMbxMx4GTbt75513mrZt22b3pV27dkWnJj/iiCPs6UnCohjXs2fPmoRCkcTH2BH2udbSz0nCY/IhPELDQniEIHGHxyD//ve/zUcffWTOPfdc84UvfMEGRveGQgbDY3C5/I//+A/7KS194krbCcuKf/r3LYyEx+RAeEQML+ERMR0mNTy+V8V7N0RsGfP/zgNwhDmvfKVopJe2rX9rjfa73FTUUYlrf+N8HNKGgtzAgQO95xgs54wZM5q30jooEE6YMMH8+Mc/NgceeKD9mXBqunJNW677F+Y8okHeeusts+OOO9YsoiX5MVZ41cjIcgG2pZ+Ten3V7el1q5a4/1fDhg1rXgJxQXiEhoXwCEFaMjxqqodvfOMbOZ++kgqNmiZCYfGggw4y++67r9l+++29YXKPPfawJ5kOnly9FITHdEB4RAwv4RExHRIeETEuCY8AAI2JYp8GC9RimlUA8EN4hIaF8AhBWio8vvvuu2b//fe3U6q6kKgA2blzZ/PLX/7SvP766/aTRE1NTfbff/zjH+bxxx+3059oylUXIfWvppHQ1AJhPrlFeEwHhEfE8BIeEdMh4RER45LwCAAAAFAZhEdoWAiPEKQlwqOmJejTp092pKPiYfv27c3FF19slixZYqdO9UVELfvXv/5lT5it0ZDB63/pS1+ygbIchMd0QHhEDC/hETEdEh4RMS4JjwAAAACVQXiEhoXwCEHiDo+Khw8//LDZfPPNsyMdt9pqK/PQQw+ZDRs2NO9FabQNTfPQoUOH7MhHRcijjz7arF+/vnktP4THdEB4RAwv4RExHRIeETEuCY9+/vkxIkaxNfDtByL6/VdC/56odwiP0LAQHiFI3OFx5cqVZtddd80Gw//4j/8w//d//xf6HI0Oxcd33nnH7LLLLtltbbrppubJJ5/0jpZ0EB7TAeERMbyER8R0SHhExLgkPPrRQVrf44WIhX5Q+jPksfH+p7fr2x9ELJTwGA+ER2hYCI8QJM7w+Paaf5t77703e15HjVI87bTT7PSplaBYedNNN+VsTye9LhUxCY/pgPCIGF7CI2I6JDwiYlwSHv0QHhHDS3hErH8Jj/FAeISGhfAIQeIMj7OaPjAnnXRS9tyMW265pZk4caI9p2MlaGTjmjVrzNZbb21HPco99tjDrFu3rnmNQgiP6YDwiBhewiNiOiQ8ImJcEh79EB4Rw0t4RKx/CY/xQHiEhoXwCEHiDI/PzHzTHHTQQdmpUffaay879Wq1nHXWWdmYqW3Pmzev6HSrhMd0QHhEDC/hETEdEh4RMS4Jj34Ij4jhJTwi1r+Ex3ggPELDQniEIHGGx8eenW46duyYHZ14wgknNN9qdcyZM8e0adMmGx4nTJhAeEw5hEfE8BIeEdMh4RER45Lw6IfwiBhewiNi/Ut4jAfCIzQstQiPM5vWhtJ33ZaS8BiOOMPjqInP2elVg+djrAUffvih2XzzzbPh8Ve/+lXR6VsJj+mA8IgYXsIjYjokPLaec1ZsMKOeej7U30PPzXnHTJg223sZYr1KePRDeEQML+ERsf4lPMYD4REallqEx6nzmsx22+9QUv2x7btuS0l4DEec4fHhJ581W2yxRTY8/uQnP2m+1epQePzCF76QDY933XUX4THlEB4Rw0t4REyHhMeW8eXFH5hep/UzU+YuLrrs+juHmT5n9s9x0LWDzatL15mhI8eZn15zY/a6iEmQ8OiH8IgYXsIjYv1LeIwHwiM0LEy1CkHiDI+PPv2C2X777bOBsG/fvs23Wh0LFy40m266aXa748aNIzymHMIjYngJj4jpMG3h8fyf/Y99b3jjPfd5L4/LF95+z3z58CPNI89MN5NfnW/6DRhoTjrjLPOlQ76SDY/TF66yXw8eer857oRT7NfT5i83c1d/QnjEREp49EN4RAwv4RGx/iU8xgPhERoWwiMEiTM8/uWl182+++5r46AOBB1wwAFm3bp1zbdcOVdccYUdQenC46uvvso5HlMO4RExvIRHxHSYlvCo2HdY16/b94VS3/vWi8u7Hhxj2u+wo/nJZVeZ15b9084MM2nGPNPzpL45oyClAuOBXQ4zf1+02lxz2xDToWMns9XW7QiPmDgJj34Ij4jhJTwi1r+Ex3ggPELDUqupVie+9EZZfddtKVs6PI4fP97079/fqy5zzJ4924waNcrr888/37xWyxFneHxl0UrTs2fPbCTcdtttzZQpU4pGwnLoemvXrjU77bSTDY5SX3/00UfNaxRCeEwHhEfE8BIeEdNhGsLjVTffmQ2O+37pYHPnA6PMyCf/GlrfNsOq0Yq/eeQJO9pRf/ec+v0fmdPPOdf+neSbfnXyawvMN759kul95g/MpdfcZK+v5Yx4xCRKePRDeEQML+ERsf4lPMYD4REallqFx/0POqSkaTvH4wcffGAWL15c4P33329uvPHG5rWKh0et86Mf/ah5rZYjzvD49pp/mxtuuMFssskm9oDQ5z//eXPJJZeYjz/+9C+yCtB0qr/5zW+y21PQPPPMM82GDRua1yiE8JgOCI+I4SU8IqbDRg+PGtnoomMlasShb7th/cOkqabbN3pmR1jOWfmxuWfEWPPY1FdywqMC4wOPPWX/Prr34cftaMdv9upt1XSrhEdMooRHP4RHbARfX/Vv8/jfXjXX/fJX5upb7vrMW++2v7PcB2eqlfCIWP8SHuOB8AgNC1OtxkPY8FiM6dOnm5/85CfN37UccYZH/UG6YMECs91222UP8myxxRbmiSeeKHpOxlKsXLnSfOUrX8lO3dqmTRszYsSIktsiPKYDwiNieAmPiOkwDSMe99rvS9n3mDqnoqY3DWu14dF5/Z3DTJ8z+xf4wwsvs+d21DrDRo83T05/PXsdHbTVBzn17+8enVSzfUFsKQmPfgiP2Ai+9M4a+8Ga/Q/uYg7/2v8zR3Q7xv7b5atHma232db87c2l3utFlfCIWP8SHuOB8AgNC+ExHhQXTz/9dO9oRo1yLMe0adPMeeed1/xdyxF3eFQUvO2227KjFKWmR9W0smHjo6ZYff/9902XLl2y07bq3z322KPkNKuC8JgOCI+I4SU8IqbDtJzj8fyf/Y/puPOu9v2hvm7pczwqLmpkY1DfOR4VGe8cPtoc8OVDzc67dTYdO+1i9jngIPPzwXeYmU1rc7aJWO8SHv0QHrER1NTg+v2kD83oQzJO/X7dpE0bM/xPk73XiyrhEbH+JTzGA+ERGpZaTbV65U2/LGnaplpVeAwzstGhEZInnHCCHekoxo0bZ/r162e/bkniDo/ivffeM1//+tez0VAjFvfaay8bZVevXl00QCo4rl+/3kbKb3zjG3aqVhcvd9xxRzNr1qzmNYtDeEwHhEfE8BIeEdNhWsKj1EFQFx9vvOc+7zpxqdGKiolf6dot66FHfs2OEAmOCtHUrEcd08O8uGBFdpmmZ73wyuvMz66/NbsMMQkSHv0QHjFJ6gMxmvL7wT89bf76+rv2d5KWj33uJbPnPvuZcVNeLrhOp113t1Ouuu9fW/ZPGySfmb3QTtEaXLechEfE+pfwGA+ER2hYahUef3zplSVNY3jcfPPNTadOnQrs27ev+fDDD5vXzJAfHocOHRopXNaKlgiPCogzZsww2267bXaaVKnHq3v37mb8+PF25KLO/agIqX913sbXX3/dnH322Wb77bfPuZ7U9K1z58612y4F4TEdEB4Rw0t4REyHaQqPUgc+NeLRd1mc6vyMOueV77Kgjzwz3YbHZ+csyi7TSMfvn3eRna41uC5ivUt49EN4xCSpcw6f/N3v25io6cp/dNHl5o4HRtkP0Gia1adn/aPgOjo/8a57fNHcOuz39kM/3zr5VBspD+v6dTvaP3/9UhIeEetfwmM8EB6hYWGq1fgJM/oxPzz+/e9/N++88479uiVpifAoFAj/9re/mb333jsbEfWv1EhIjWA89thjTe/evc23vvUt88UvftGOcHSjJPPV9XbYYQfzyiuvlIyPhMd0QHhEDC/hETEdpi08tpYa8dihYyevOn+jW08jS34//hkbHzVC8qBDD7dT2Q3+1QNm9vL1OdtErHcJj34Ij5gUNbpxzORpZtfOe5ohDz1qbrjrN+bLhx9po2Kv0/qZ8S/MMrPe+1fB9TQNqwKlZhnQusedcIr59ag/2ev2PeuH5pWmjwquU0zCI2L9S3iMB8IjNCyEx9qzatUqs3jx4qxXXnmlNbhM6+hcj+68j8OHDzcHH3ywDZRumZw8ebId7ddStFR4FBrJqOlRe/ToYc/5GBzFGIyQMniZVITcbLPNcpZrvcMOO8ysXLmyaHwkPKYDwiNieAmPiOmQ8IiIcUl49EN4xKSo8xMrFiocavS9IuPzby2zU6bqMk2bquUTX3rDBspH/zrDvPD2e/a6ryz50EyYNtuOcNS6uu59YyeaznvtY0ZMeLbgtopJeESsfwmP8UB4hIaF8Fh7hg0bZvr3719SrRMMj8Vs5PAoFAg17eztt99uDjroILPFFltkRza6qOgipJa3bdvW7LHHHub88883CxcuNF/+8pdzRkFqvSOPPNJe5ouPhMd0QHhEDC/hETEdEh4RMS4Jj34Ij5gENcpeU6p27LSLd3pUjYbUCH2Nzm+/w45ml933sKP42+/YwZx9/iV2ilaN4pfuOi/+Y6X5du/TzTe+fZI9b2Rwe8UkPCLWv4THeCA8QsNCeIQgLR0eHYqES5YsMRMnTrSjQ3Wux86dO5v27dubnXfe2RxxxBHmJz/5iXn44YfNvHnzbIzVdWbOnFlwrkiFyD59+ph169Y1b/0zCI/pgPCIGF7CI2I6JDwiYlwSHv0QHjEJamSjzun4gwsutZExeJm+v2nI72yU7N3vHDPx73PNiwtW2Jh4228fstOrfvmwr9rQGLyeIuRDTzxnz/d45/DROZcVk/CIWP8SHuOB8AgNC+ERgrRWeHQoJv773/+207Dmq+W6PDiSUV/PnTvXdOrUKRsepUZHnnvuuXY0ZRDCYzogPCKGl/CImA4Jj4gYl4RHP4RHTIKKiIcc0dXsf9AhBSMeNa2q4uEV/3ubnVI1OKpRUXLKG0vMbnvuZfqc2T/nejPefd8MvOIas9N/7WzuGTE257JiEh4R61/CYzwQHqFhITxCkNYOj5WgIDl27FjzhS98IRseNQJS5428/PLLzfr1n72DJTymA8IjYngJj4jpkPCIiHFJePRDeMQkqJg4Ze5i89WvH2tD4W//+KRdPmfFBjuV6td7fMtMnddUcD3n7x6dZDb/whbmLzPftt/r3I/f6XOGnY719vtGFoyiLCbhEbH+JTzGA+ERGhbCIwSJOzwu/fTnLQ4Xf/CxuXf4H8wWW26ZnXZV/7Zp08b83z2/Nu+s/ld2Xd++hZHwmBwIj4jhJTwipkPCIyLGJeHRD+ERk+T0havMCX2/a7p89Sjz8uIPzN/eXGq6/r9vmKtvvdu8vurf3uvIWe/9y3TadXc7slGRcdiYCTZgaqpV3/rFJDwi1r+Ex3ggPELDQniEIHGGx7jVm9zLf3GL2aRNm+zIR7npf/yHuf6OX5d8sxxGwmNyIDwihpfwiJgOCY+IGJeERz+ER0ySrzR9ZH508c/syMfZy9eb5+a8Yw498mvm1mG/967v1Lr7H9zF3HjPfXb05Kinnjd77L2veWb2Qu/6xSQ8Ita/hMd4IDxCw0J4hCBJDo9ScfGsH19oY6MLjxr5uPU225qJL73hvU5YCY/JgfCIGF7CI2I6JDwiYlwSHv0QHjEp6kPck19bYL7StZv52rHHmZlNa+25H//fN79tBl072I5q9F1P6tyPmlb1N488kRnxOHq8+a9ddjM33zvcxszgeSFLSXhErH8Jj/FAeISGhfAIQZIeHqU+cXdG//PM5zfZJBsf9fWFV17nXT+shMfkQHhEDC/hETEdEh4RMS4Jj34Ij5gEdS7HcVNeNvsccJA54MuHmgnTZmeWr/zYXPDf15ovH/ZVM/nV+d6AqA9+a6Tjtu23N1PeWGKXvfTOGhsrd96ts/nBBZeaF/+xsuB6PgmPiPUv4TEeCI/QsBAeIUgjhEepT+h9+fAjzec//3mz8cYbmzabbmrfEPvWDSvhMTkQHhHDS3hETIeER0SMS8KjH8IjJkEFQ0VHnc9x6rymnMv+/PKb5qBDDzf9Bgy0U68qUrrLNJpx9F9esKMdL73mppzrvbp0nRk6cpw91+PPbvi/nMuKSXhErH8Jj/FAeISGhfAIQRolPMoZ775v3yBrupD+Fw6yb4x964WV8JgcCI+I4SU8IqZDwiMixiXh0Q/hEZPgiwtWmCOP7m56fOfkgmMmGtH4wON/MfsfdIg5/KijzZ3DR5s/TJpqHvzT0+bcn/636bTr7qZ3v3O811OU3Gu/L5n/+82InMuKSXhErH8Jj/FAeISGhfAIQRopPGoqEJ1v4K+vv2v/DXtugWISHpMD4RExvIRHxHRIeETEuCQ8+iE8YhLUlKojJ06xEVFBMXiZjqHo8ienv276nvVDO/pRoyP3/dLBdoTk/979WzvblNZTbHTXm75wlV3/G98+ybzw9ns52ywm4RGx/iU8xgPhERoWwiMEaaTwWGsJj8mB8IgYXsIjYjokPCJiXBIe/RAeMSm+vPgDc+LpZ5pDjuhqnn9rmR0FOfxPk83Vt9xl/vT8a+a1Zf80s977l5kyd7GZ+Pe55qlX3rLnctR1FRlvv2+kuf7OYWbSjHl2Ww889pTZe/8D7b9hPwBOeESsfwmP8UB4hIaF8AhBCI/FJTwmB8IjYngJj4jpkPCIiHFJePRDeMSkqNGKE196w3Teax9z1o8vNMefcpoNhxrZeGCXw+x5Gv++aHXB9cY+95LpeWIfs9uee5n9D+5iDvjyofZ0N0d0O8ac+v0f2QiZf51iEh4R61/CYzwQHqFhITxCEMJjcQmPyYHwiBhewiNiOiQ8ImJcEh79EB4xSWrKVI1aPPgrR5gfXHCpHfE4Ydpsc9HPf2GD5BMvzim4zhn9z7PB8aEnnjN/fvlNc9OQ35ljv3WCVaMf89cvJeERsf4lPMYD4REaFsIjBCE8FpfwmBwIj4jhJTwipkPCIyLGJeHRD+ERk6bi45Q3lphXlnyYXaagqNGPo556vmDa1C8f9lVz3qCfZ7/X+SA1TavO66ivg+uWk/CIWP8SHuOB8AgNC+ERghAei0t4TA6ER8TwEh4R02Gjhcevdf+mndoNEVtWRYn85yPh0Q/hERtBhUQFxp8PvsOOYvzLzLezbrnV1vb8jr7rRZXwiFj/Eh7jgfAIDUtawqPexGB5CY/FJTwmB8IjYngJj4jpsNHC4+5f3Ns8N+cdM2XuYkRsIffcZz/zzOyFBc9HwqMfwiM2gnNWbDAnnXGW2b7DTmbHnf7LdOjYKet22+9gnp71D+/1oqrjUa0B4RExvITHeCA8QsOSlvCIWK2Ex+RAeEQML+ERMR02anj0XYaI8Uh4jAbhERvF599aZkb/5QXzh0lTcxz/wizz+qp/e68TVcIjYv1LeIwHwiM0LIRHxHASHpMD4RExvIRHxHRIeETEaiU8RoPwiBhewiNi/Ut4jAfCIzQshEfEcBIekwPhETG8hEfEdEh4RMRqJTxGg/CIGF7CI2L9S3iMB8IjNCyER8RwEh6TA+ERMbyER8R0SHhExGolPEaD8IgYXsIjYv1LeIwHwiM0LIRHxHASHpMD4RExvIRHxHRIeETEaiU8RoPwiBhewiNi/Ut4jAfCIzQshEfEcBIekwPhETG8hEfEdEh4RMRqJTxGg/CIGF7CY3jnr1pmli8ZY9Ys/pX5aOEvrOv/caH9V8ualj1jFi2f7b0uYjUSHuOB8AgNC+ERMZyEx+RAeEQM74p/Nj9xEgjhETG8hEdErFbCYzQIj4jhJTyWd3nTaLN+wUBj3j4tlFpX1/FtC7ESCY/xQHiEhoXwiBhOwmNyIDwihpfwiJgOCY/FffSvM8wPL7zMTF+4Kme5vp8yd3FJX178Qc514vDVpevMoGsH2/30XR7FYaPH221pm77LEUtJeIwG4RExvITH4jYte9obFsNKgMRaSXiMB8IjtDoLFy6Mxb+/sdD+8YCIpZ06x/8ciiK0DNWEx4UfGrPh0+sj1rOaHtX381uJaQ+Pazf4H2PEenLZOv/PbxTTHh71Xu6e3//R/H78M2b28vU5lw0dOc7s9F8725AYXP798y4yHTp2KuombdqYn15zY8518tVtzXrvX97LfM5ZscEM/9Nkc8cDo7LefO9ws9uee5n+Fw7KWX7PiLHmxQUrste95rYh3v3U/XDraH+/0rVbTjB9ZcmHpudJfb3XDfq7Rydlr4PplPAYDcIjYngJj4VqStW1C6/zxsRK1La0Td9tIYaR8BgPhEdodf74xz+ajTbaCBET6k033dT8bIa4qTY8AtQ7hMcMtQqPAPUO4bHQsOFx7upPzOW/uMVGwq7/7xtm+w47mf0P7mKenbMou06x8FjOXqf1KxkeNarw2ON7mY6ddjGTX1vgXSdfN7qxz5n9y9pvwEAz+dX52esqJgZHY/719XdN92+faL73o/Oz6/jCo77WssFD78+5fr6MkkTCYzQIj4jhJTzmWuvo6NToR+IjVirhMR4Ij9DqEB4Rky3hseUgPEKjQ3jMQHiEtEB4LDRseHzkmel2tN6op5633yuydftGT3PmuRfYKKllcY14VKg77oRTzL5fOtj87c2l3nWKOWflx2bkxCmm71k/tKMd3W0e0e0YG1Lz99XnX2a+bTrtursZNmZCdlmp8KjHwS1D9El4jAbhETG8hMfPjCs6OomPWKmEx3ggPEKrQ3hETLaEx5aD8AiNDuExA+ER0gLhsdCw4XHAJVeYHt852U5h6pZpylBdf+q8Jvt9sfBYbkRjnCouaqTkXQ+OMdPmL7eRVCFz4ktv2NGOe+y9b86ozXxnNq01vfudY44+7nj7tVteKjzmT+Wa74Rps7PXwXRKeIwG4RExvITHz4wzOjp1G77bRiwl4TEeCI/Q6ig8nnLKKTX3+BNPsZ/ERcTSfrOX/zkUVsJjy0F4hEaH8JiB8AhpgfBYaNjw6IuHT73ylum81z52NKS+LxUe9z/okIIpToNqWtQ4piDV9KiHHNG1YKSkAuT//WaEab9jh6Ih8Mnpr5tDj/xawZSy0hce86d3PemMs0y7bbczRx7dPee+Dhs9PmdbmD4Jj9EgPCKGl/CYsWnZ095QGIfLm0Z79wGxmITHeCA8QsOyZK3/xQQRc53PH9SJgfAIjQ7hMQPhEdIC4bHQMOFR05X2PLFPQXhUYNx7/wPLhkdNz+ob+Rd0+J8m54ymrJUvvbPGjkDccqutzVZbt7PTrO6wU0c7ves+BxxkHnjsqexUsfKVJR+aG+76jb1s0//4D3tdLQtuU/rCY75MvYrFJDxGg/CIGF7CY0ZfIIxLTbnq2wfEYhIe44HwCA0L4RExnITH5EB4hEaH8JiB8AhpgfBYaJQRj5puNbhMIwV37bynGTflZft9fnjUdn2RsZj3jBhrXlywIuc2ammYEPj3RavN939ysfnl/Q97g6NT9z0YS6+5bUj2/JFOBc6NN944GzyD+kZhYnokPEaD8IgYXsJjy452dOo2ffuC6JPwGA+ER2hYCI+I4SQ8JgfCIzQ6hMcMhEdIC4THQsOGx2tvH2oO7HKYDXNu2Y333JezLD88PvrXGTlTjJaz34CBZvKr87Pbr8ZqQ6C+1rL89YL2PKlvNk4qaup+h1Xb10hSd3uYLgmP0SA8IoaX8Ngy53bMt7XO9ajp2/Onq9dMDjqvte/9R9BKprj33V5rG+f9jUvCYzwQHqFhITwihpPwmBwIj9DoEB4zEB4hLRAeCw0bHnWOwz323tf85LKrzCtNH9mouPNunW3gc+sUm2o1TJQrNWWp1DpRomS1IVBfa5lvXfnjS68sOtXqpBnz7ON0RLdjbKDstOvu5tu9T7ejOmc2rS1YH9Mn4TEahEfE8BIeP90ZTxhsCRetmOXdn2pUVJv497n2PYSmts//0JJv6nd9KEofjsr/wJTTfRDLNwNEJbeXr96v6cNkvg+ZBc0PmJpFQrNJuJkwipl/bu5q7m9rSXiMB8IjNCyER8RwEh6TA+ERGh3CYwbCI6QFwmOhYcOj1IGeL+53gNloo43sORJ1wGj28vXZy4uFRx2k0vq+g0FSl+WfPzKoDigp4m3VbpuCg03lfOHt9+zUqdt32Mnut1O3qRGNw8ZMyDnHo1OBUJ/q9x3wkgqJ+QfetJ3Lf3GL3c8Lr7zOjP7LC/axULTVY3Pk0d3NXvt9yUx+bUHObWH6JDxGg/CIGN60h8dKp1n919y+Zv0bfXOWfTSrj/l43qk5y0q5vGm0d58qVe+xTjt7gGm72ebmqGN62PNVH3fCKTmzT4QJgflqXV0nP8TV6vY0bb6mz3fvmX5xx712W+5DWM7883srQuq9pS9SypPOOMu023a7ku8ZfRa7v60p4TEeCI/QsBAeEcNJeEwOhEdodAiPGQiPkBYIj4VGCY/lLBUedY7I4LKguqzUQSQdlDpv0M/tAacoB9YUD48+7nh7oGvqvKacy3Rw7d6HHzftd9jR3Dd2Ys5lUveh81772P0KHiQLmn/ATJFTo0Jv+fWDOdtyznj3fRs7NW2t73JMj4THaBAeEcOb9vAYdZrVqaO7m5kTvmkmjzjGTB/Xwzz38LFmwBl7mJt/drC557ouZvHzvbzX87l+wUDvPlXqXQ+Ose/T3IwPU95YYj8AFpxtwhcCKx0BWOntlXPEhGdNm003te/Jqpn5wQXE/PeMjHgEB+ERGhbCI2I4CY/JgfAIjQ7hMQPhEdIC4bHQJITHStUn9HUOynN/+t/eA10aPbnL7nuYIQ89WnCZ7sPe+x9opxnLv6yY+qT+scf3sgfWgueLlJqqTCMoFToVLIOXYfokPEaD8Fhavb6VGkmt1yYdsC+3Xj2p/SwVKNz0jBpZVU3IaEQJj9HC45P3H22mje1hJj5wtBl241fM2jl9zKAf7WNmPH6c+f3tX2218KgPNvX4zslmwCVX5CzXh5c0C4Rim773hUAX6KKEtmpur5Safl7vNc8+/xI768P5l1+dM1tGUO1DqalWb753uNltz70K3jO6+zt46P32/Vsxg9O6traEx3ggPELDQnhEDCfhMTkQHqHRITxmIDxCWiA8FtpS4TE4zanPOMKj1HmKun2jp51atf2OHbKfftc0Ypp+9aqb7/QeANN90H3x7WvQ/IN6L72zxpx57gX29nQb7pP2n//8521seuCxp7xTu2K6JDxGg/BYqF63Lr3mJnPJ//yveeiJ5+yocH3gwR2019SGWj5t/nJz+30j7YgjvV7dOuz33u3Vg78f/4y5acjvzD2//6ONHZoKW/dTI9b1mnz3g4+YR55+0cYFvZbecNdvzB+f/XvB75y0S3gMHx5Xv3KKHdWo4Dj+t1/PjnhcOOUE8+KjPczQXxzaauGxWDzU81ozMrif+1LhUVO8+6YsdV5/57CC61Ryez712jPwimvMf7Zta6ef13NZIyn3P7iL2eeAg8z94/5c8P4r7H7rg1y+6/W/cFBBrAw66qnnc67XmhIe44HwCA0L4RExnITH5EB4hEaH8JiB8AhpgfBYaC3Doz5JrgPfGt3nu7y1nb5wlT1wpoPYvthYa1v69jA5Eh6jQXgsVCP9Tj/nXHsOW0U6BUUdfL/6lruyB9n12q7XHsWFK2/6pY129Rwe/+83I8z5P/sfG1EVLPT6qVHnF191vb0/Omecfscoqo6cOMVOa014LJTwGD48Nk070Xz4Wm+zZuYp5rFhX7PhUaFRIx11edRzPNYyPLpZG/JDoJ4TmpGhVAgsN3LQGQxx1dxevj8ffIed2lQjKJ+c/nrOZRqhrA8P7LxbZ/vhrKdn/SN7mQuI+ftQTr3/LHVuSGcwtLa2hMd4IDxCw0J4RAwn4TE5EB6h0SE8ZiA8QlogPBZay/CIiOEkPEaD8OhX05EqLvzqD4+ZX4/6kz34rgip6at/eOFldqTS43971fzggkvtQXnFgP+9+7febdWDry37p/nDpKn2PilC6sMbGiGlEPmtk0+1Izz/+vq79sMtGh35y/sftgHylaaPvNtLq4THaFOtOpe+eKJZ8dLJNjTqawVIhcn1b/T1ru8zjhGP+eeN/t2jk+x7N3fu6vwQqGnkfZGxmBo9qBhY6e351HM0zOwO+etVEh51HUXRsNbLB+QIj/FAeISGhfCIGE7CY3IgPEKjQ3jMQHiEtEB4LJTwiNjyEh6jQXj0+9s/PmmnHFVgnPjSG+aJF+eYC/772mx4/O8bbzcz3n3fjljStIaPT51pBv/qAe+26kEFARcTdZ8UQ+56cEw2POq+6XvdD913XUffK07mbyvNEh4rC4+1sJbhUX7vR+fbn32NYNT3inSaTjS4LD8EKiT6RvsVU68VivyV3l6+19w2JDutfRgPOaKrfe7rui48+qa2Dxq8/WpurzUlPMYD4REaFsIjYjgJj8mB8AiNDuExA+ER0gLhsVDCI2LLS3iMBuHRb3BkU6lzl2m61Vnv/cuGPI2S9K1TD2r/FE10fzStqqaT9a2nGKLz92q9STPmeddJs2kPj2veHeKNgi2hbtu3T5U69rmXTPsddrRThOp5rOeHvr9v7MTsOsVCoJvuvZQaJR28TjW35/SNuLz53uFmtz338p6D0Y249G2rkSU8xkOLhcenn37aXHjhhRiTTzzxRPMjXTv+/Oc/e28rKZ438EJz7vn169gn/ux9sYvqTy68xLt9rN6BF19q3n7f/7g3koTH5EB4hEaH8JiB8AhpgfBYKOERseUlPEaD8IgY3rSHx0UrZnmjYEuo2/btUzVqVPP2HXayI/2+sMWW5vb7RuZMT1osBGrkc9vNNveO+tthp472HIy+KU0rvb1Sal1dJ+q5G8OqiLrTf+2cMyrSp/bdd/3WkPAYDy0WHm+77TbvDxnWxmuuuab5ka4dN910k/e2sDb+zy/+1/tiF9VNN93Uu32s3s022yy28Pj68n+aUU88XRc+8uTT9sMhjeSLL77Y/ErWWBAeodEhPGYgPEJaIDwWSnhEbHkJj9EgPCKGN+3hUbbWdKu+fYnbUuGxWGirJgTGFR6rmSJW52zU9Kn5IzqdGhl90KGHEx5TAOGxQSQ8Jk/CY/0bZ3ic+voi721ibdx///2bX8kaC8IjNDqExwyER0gLhMdCCY+ILS/hMRqER8TwEh6NWd402hsG47TW06yGtVHCo2+K1lJGmaLV3T7hsfEhPDaIhMfkSXisfwmPyZXwWCjhEZIA4TED4RHSAuGxUMIjYstLeIwG4RExvIRHY+avWuaNg3Gq2/TtS9yWCo++Y1dB6yk8xinhMT0QHhtEwmPyJDzWv4TH5Ep4LJTwCEmA8JiB8AhpgfBYKOERseUlPEaD8PiZOoA+/E+TzSNPv2hmL19fcPmrS9fZyzV6SNMP5l/+90Wrzf3j/mwmvzo/57xtraX28c8vv2lHL02d11RwufZR+6p91r7nX67r677qPuu+51+eRgmPGVty1KOmdvXtQ0uo14Rp85e32PO5ktvTurpOaz1H3e1r332Xt4aEx3ho1fA4fvx4M2vWLKzAz33uczmPZUuFxz//+c/e/cHy5j+WcYXHbt26eW8fy3v55ZfnPJaEx+RKeCyU8AhJgPCYgfAIaYHwWCjhEbHlJTxGg/CYOXB+9a13m82/sIU5+CtHmO077GR27bynmfzaguw6j/51hum4867mkCO6mp1362y+duxxObHu3ocfN1u128Z0/X/fMNu2396cdvYAb7xsKZ+dsyh7X/Tv5z//eXPpNTdlg4b27ezzL7H7qn3Wfb/rwTHZ6+u+HXfCKfa+6j6332FHG2Td5WmV8JhRIxBb4lyPrRkdMbkSHuOh1cMjVEZrhkeIzvr16wseyzjDI1RGa4fH73//++b666/HCuzTp0/OY0l4LJTwCEmA8JiB8AhpgfBYKOERseUlPEaD8JiJbD+66HIzacY8+72i3Dd79TYnnXGWDXVzVmww3zr5VPPjS6+032t9TS14zW2Z887pe8W9m+8dbr/XKMI99t7X3Dd2YvY2WlqNcrzq5juzIzNHTHjWtN+xg3nkmen2+z9Mmmp223Ov7H2+/b6RZt8vHWz+9uZS+/1tv33IHNjlsOzoq0uuvsEcfdzxoc/71qgSHj9T8XH9goHeYFgLtW3f7SKWk/AYD4THhEJ4TBaEx2RQD+ERKoPwWF7CIyQBwmMGwiOkBcJjoYRHxJaX8BgNwqPfW379YPZca0+98pbpvNc+2Wgnr719qOn2jZ52esOHnnjOhsbg6/33fnS+1X3f2r74j5Vm/4O7ZM8DN+CSK7JhVd+/8PZ7Zp8DDjK/e3SSDa09vnNyzjnbNOWq7qP+dcvSKOEx1zjP97hoxSzvbSKWk/AYD4THhEJ4TBaEx2RAeEwuhMfyEh4hCRAeMxAeIS0QHgslPCK2vITHaBAe/V581fU5YVHhccrcxdnLFej0Gq9zJwYjpbtcYfKIbseYV5Z8mF3Wmmrq1U677l40LOp+6v7+7PpbCyKlVJjUc0sjKd2yNEp4LLTWIx+1LaIjViPhMR4IjwmF8JgsCI/JgPCYXAiP5SU8QhIgPGYgPEJaIDwWSnhEbHkJj9EgPBaq6UU1zaibSlUBTuc5nPHu+9l1NPpx7/0PtDFSAe/bvU/Pjh5018mPka2ppoHda78v2alUtU/at+A5HWWv0/rZ+6L79MX9DjBjJk/LXuauE4yRaZTw6FfxcXnTaG9IjCLndMRaSHiMB8JjQiE8JgvCYzIgPCYXwmN5CY+QBAiPGQiPkBYIj4XWMjw++tcZ5ocXXmamL1zlvbyYlV4vqrqdQdcOtqNmfJcXU6NnKrkeYjEJj9EgPOaqeHjpNTdlz2+oZYptmmZUo/7cevnh0Y2OdJfXU3ic/NoC+/vInYPSRUSNygyuFwyPu+y+hx0d6S4jPGYkPJa2adnTNh76omIpNcpR1/VtEzGqhMd4IDwmFMJjsiA8JgPCY3IhPJaX8AhJgPCYgfAIaYHwWGjU8Kgp+Xqe1Dc7yiaoDvbu9F8750z1p/W+f95FOevp++Ay3/Xynb18vZn13r+8l8nHp860o330r+9y6TvIrq91uz51QF8H+HWQu14OzmNjSHiMBuEx1zuHjzbtd9jRjP7LC9llGvmnEYB67XLL9JrnYqRGDua/jvliZGv490Wr7ZSvfc7sb1/rtUyvvRqhqX1067mwqBipkZ16zQ9GRt33/BiZRgmP4XQjIEtFSMVGraN1fdtArFTCYzwQHhMK4TFZEB6TAeExuRAey0t4hCRAeMxAeIS0QHgsNGp4dAd+gweDnb6AqPU0QiW4nr7vuPOu9iCzPPLo7iXDow6KH3t8L9Ox0y52VIxvHY3s6dCxk/3Xd7n0hUftX/A9XVC3rtbJvx5iNRIeo0F4/MyRE6fY6Kj4GFyu13FFRp3r0S3Ta5fOk6jzJeq1UeeAfOqVt+xlCnsnnXGWGXDJFdn1W8OZTWtN737n2PCoABm8LLj/+j54H337n38f0yrhsTLnrf6X9a1V/K7H+CU8xgPhMaEQHpMF4TEZEB6TC+GxvHGExyFDhphOnTrZf6thxYoVZuzYsWby5Mlmw4YN5sMPPzR9+/Y1BxxwgJk5c2bzWtWjbWmb2rZuA+oPwmOGeguPcT53li5darp27WrV17Uiru1CbSE8Fho1PLpRJhdfdb39fvKr802/AQOLBsRiYa/LV48ydzwwytr/wkFlw+NxJ5xi9v3SwfbcX751wobH3fbcy07lN/xPk7MHs4OX+wIj4RFrLeExGoTHjBrJp+h4+30jbXgLXqbvz+h/no1xGjXopi697bcP2csV+I46poe55Oob7LoaLanXzD9MmpqznZZUI+hP6Ptdc/hRR5sXF6wouPzxv71qOu26uxn11PN2nzW97MFfOSIbKIeNmWDvo34P6T7r99C3Tj614LU9bRIeEetfwmM8EB4TCuExWRAekwHhMbkQHssbJTx+8MEH1nLceGPm4KX+rYbp06fb55tev9xt62st02U+1qxZY39P7bLLLtn/75tvvrn5wQ9+YBYtWtS8Vi75twP1B+ExQ0uGxzDP90qeOx9//LFZvny5/bcUixcvNjvvvLNVX9eKuLYLtYXwWGjU8Kiw17btZuaALx9qpyLVweJ7RowtGhAV7XwjHoPLfCMloxo2PLbbdjt7YN53zkbCI7aUhMdoEB4//Xt+XpONcO7vkKB67dI6z85ZZMNc2802N2023dScff4l2alLpc5zu/Nunc2WW21t/rNtW3PVzXcWBMyW9GfX3+q9P+71Vvt29a13233daut2dtS77oO7vu6bfu9s0qaNvU/7H9zFPgbB20ijhEfE+pfwGA+Ex4RCeEwWhMdkQHhMLoTH8pYLj4oDI0aMMO3bt88+jvpay4qFg1LhUXFCB/uLuWrVquY1o4fHGTNm2JGWum3FxhNOOMH+DGy//fZ2WZtP/9gdM2ZM89qfQXisfwiPGeIOj3pO33vvvQXP95EjR5pPPvn0hSaPKM8dhf/evXtntyv1fbEPBOj1oFQgnDRpkn2+lzN/NGa57UJ9QHgsNEp41EHeb/bqbU7+7vfttHg/vvTKnIPavoBYLDwGn7MyjvCog9aKoxrZo/tYLCw6dd4wdz604HLCI9ZawmM0CI/hda97xV6v5qz82I4cb+3zOkZR+6p91r77Ltd9defk9V2eNgmPiPUv4TEeCI8JhfCYLAiPyYDwmFwIj+UtFR71GjVgwAD72G288cbmO9/5jlVfa9kll1xi18mnVHh0lxWzX79+zWtGC48aQXXooYfabVx11VVm7dq1zZcYG0weffRRe73tttvOvPbaa82XZCA81j+Exwxxhkff8/3oo4/OPt/1/i8/PoZ97rz44ov2uaftdO7c2T7P9a++VxzUhwbyKRcIx40bZ69fzvx9IzwmA8JjoWHD40vvrLHBUGFOI0o06kSjT7p/+0QzacY8e8C3WHj0PYfiGPG4+Re2MNts196OjHG3o5E/e+9/oL28VHjU1Hyaok+jhPKnHgzeh2r3E1ESHqNBeEQML+ERsf4lPMYD4TGhEB6TBeExGRAekwvhsbylwqNGB+r3yp577mnmzZvXvNTYr7VMQUJBL58w4fH++++3B/2dTzzxhGnbtm3F4VH7oe1qBJUvhoqrr77au1+Ex/qH8JghzvBY7Pk+e/Zss/vuu9v3Fc8++2zz0gxhnjvueavn3g033JAdKa1/9b2Wd+/eveD65QKhC4++15lSlNsu1AeEx0LDhMcnXpxjdtipo53CT+fScssVIHue2Mf84o577feVBkRFzB9eeJmZvnCV9/IwauSlpiLUbUtfXCwVHnUuMT0Wx37rBNO73zk55whjxCPWWsJjNAiPiOElPCLWv4THeCA8JhTCY7IgPCYDwmNyITyWt1h4dLHAFxvExIkTbXjs0aNHzuhCESY8KhoEcQGj0vBY6jYdzz33nNlkk01ybkMQHusfwmOGuMKjnsN6Lhd7vrsoeeqpp5oNGz7bQJjnTqkPBeh2jz/+eLvtCRMmNC/NQHhMN4THQsOER41m/Ovr7xad5s5ZLCC+suRD0/OkvnYq1GIeckRXO5Ve8Hq1VtP1+abjU7TUeR8VHBVZdR61O4ePzl5OeMRaS3iMBuERMbyER8T6l/AYD4THhEJ4TBaEx2RAeEwuhMfyFguP5YKCi4DbbLONHREVpFQEdJfVOjwOHTrUbvf6669vXlKICyDnnHNO85IMYeIJtC6ExwxxhceXX37ZbLHFFkWfAytXrjRdunQxO+64o3nrrbeal5Z/7mhq1rPOOss+73yjo4V7Xp5//vnNSzIQHtMN4bHQKOd4lDOb1pqfD77D7LxbZlpjp6Zd1XJdnn8dd84xNxox38FD7y87UlKXBUdb+lQYVCAM7le++QFRMfWSq2+wj8Pk1xbYZYqOW7Xbxgx56FG774RHrLWEx2gQHhHDS3hErH8Jj/FAeEwohMdkQXhMBoTH5EJ4LG+x8KgRTnrMrrjiiuYlhSgUaJ38iNga4XHq1Kn2dU/TRC5YsKB56WdoZNXJJ59sb/uhhx5qXpqB8Fj/EB4zxBUeXcQr9XzXc1MjhjVy2FHuufP++++brl27FgTLIPrggj7AkL8NwmO6ITwWGiU8amTg8aecZqdcfXzqzOwISP2r77X8m7162/WC19O0pcP/NNnc8cAor/0vHFQyPGrE5BHdjrExcMK02d51pAuPCoW+y/OnWn2l6SNz4uln2nNCjv7LC9n1FBuvvvVuu0/jprxMeMSaS3iMBuERMbyER8T6l/AYD4THhEJ4TBaEx2RAeEwuhMfyFguPpeKho9g6pa7rLisWHnfddVfTv39/a69evezvNRckSoVHTf84YMAAu+3OnTvbaRvXrVtnzyM3c+ZM07NnT3vZMcccY1avXt18rQyEx/qH8JghrvBY6jnr0Gji/Oeue+4cfvjh9ryQCnlSzz0RJvIVW6fcdQmPjQ3hsdAo4VFh8Iv7HWDGTJ7mvVzLdXl+QHRBcP+DDjF9zuzvtdQ5HhUuzxv0czsdaqn4FzU8yj+//KY9V2VwPees9/7FiEeMRcJjNAiPiOElPCLWv4THeCA8JhTCY7IgPCYDwmNyITyWt1x4zA+EQYrFimLLRbHtuoChy/INEx6FXlMHDRrk3YY88cQTzZIlS5rX/gzCY/1DeMwQd3gM83z3hcfg8yy4jot8pZ5bxUJguUCo29Bt+V5nSlFuu1AfEB4LjRIeFd6OPLq7+Xbv0+3UqcHL9L2W6/L8QFcuCNbKcrfjC49hJDxirSU8RoPwiBhewiNi/Ut4jAfCY0IhPCYLwmMyIDwmF8JjeWsx4vHWW29tXpKh1HXdZcXCY6VTrQZZvny5GT58uDn33HPtyEmd/3H+/Pn2fHM+CI/1D+ExQ1zhUc/hcs/3UiMet9tuO3suRzdaecaMGfbyMJHPrbP77rubpqam5qWEx7RDeCw06jkep7yxxPQ+8wdmkzZtTNvNNjcdOnay/2688cbmlO+dbS/Pv44LgnpulbLaMBnmdgiPWA8SHqNBeEQML+ERsf4lPMYD4TGhEB6TBeExGRAekwvhsbzFwqM7qK/zOBbjnHPOsevk/95u7fAYFb0WK3goWBaLk9C6EB4zxBUe9Rwu9XzX8+L00083bdu2NdOmTWteWj7au+eszuGoczn6ePnll80WW2xhp0H+8MPPXpAIj+mG8Fho1PAYVFOjalrVYlOkNooKjhrRqWlXfZcjRpXwGA3CI2J4CY+I9S/hMR4IjwmF8JgsCI/JgPCYXAiP5S0WHhUJFAsOO+ywgnMiipUrV5ouXbp4g0Jrh0eNbhw4cGB29FVYBw8enD03HdQXhMcMcYXHcs93hfm9997b7LLLLuadd95pXlo+PArFTD3nH3rooeYluTz44IP28vzoSXhMN4THQqsJj4hYmYTHaBAeEcNLeAzn/FXLzKIVs8zyptFm7cLrzPoFA415+zSrvpZr3h1impY97b0+YjUSHuOB8JhQCI/JgvCYDAiPyYXwWN5i4XHt2rXm+OOPt79XxowZ07z0M0aOHGkvO/XUU82GDbklo7XDo7te8P99GEvFE2hdCI8Z4gqPCu69evUq+nzX1MV6jpx33nk5o4LDhMeJEyfaqR196yhyHnXUUfY9y9SpU5uXZiA8phvCY6GER8SWl/AYDcIjYngJj6VVcFRsdJExjC5C6rq+bSJGlfAYD4THhEJ4TBaEx2RAeEwuhMfyFguP4tlnn7WvJZ06dcqZXnHKlClm6623tpdpnXzChMfu3bvnjDZ00aM1ploNE0+gdSE8ZogrPAoXCIPPd0XGJ554wj7f5UsvvWSXO8I8d/Rep3fv3vZ5f9FFF9kPNQj966Zr1uVaL0jY8HjllVfay4MuWLDAXq7RlBpJqWlcddtClxMe6x/CY6GER8SWl/AYDcIjYngJj8WNGhzzVYDUNnzbRowi4TEeCI8JhfCYLAiPyYDwmFwIj+UtFR4VHW655Zbs49e+fXurvlaguPPOO73nRAwTHotJeAQfhMcMcYbHcs/30aNHN6/5GWGfOwqB++23n91WmzZtbNzUv/peUzYvWrSoec3PKBcIXXgM6ymnnGI++ugjwmNCIDwWSnhEbHkJj9EgPCKGl/BYqEYqajpVX0ysRAVIRj9iNRIe44HwmFAIj8mC8JgMCI/JhfBY3lLhUShGPPPMM+bwww+3j6ECxJFHHmmX+aKjKBUeo1BpeJw5c6Y54IADbNwIo4srhMf6hfCYIc7wKHzP9549e5pZs2Y1r5FLlGi/Zs0aM2jQIDtyUtvefvvt7fda7qNcIJwxY0bOqOlzzz3XDBs2zIwaNcqqMKnguXz58pzXKsJjMiA8Fkp4RGx5CY/RIDwihpfwmKsCoS8eVivxEauR8BgPhMeEQnhMFoTHZEB4TC6Ex/KWC4+V0Nrh0V1vu+22M2eddVZOnCjl4MGD7bnuoP4gPGaIOzxGJUp4jEpcgZDwmAwIj4USHhFbXsJjNAiPiOElPH5mXNHRSXzESiU8xgPhMaEQHpMF4TEZEB6TC+GxvI0cHuOIIdA6EB4zEB6rh/CYDAiPhRIeEVtewmM0CI+I4SU8fmYtp1ctpuKj77YRS0l4jAfCY0IhPCYLwmMyIDwmF8JjeQmPkAQIjxkIj9VDeEwG7xEeCyQ8Ira8hMdoEB4Rw0t4zLi8abQ3FMbhmneHePcBsZiEx3ggPCYUwmOyIDwmA8JjciE8lreew6M7V2Pfvn3Nhx9+GDk8Bv/fh7XafYZ4IDxmIDxWD+ExGRAeCyU8Ira8hMdoEB4Rw0t4zOgLhHG6aMUs734g+iQ8xgPhMaEQHpMF4TEZEB6TC+GxvHGExyFDhphOnTrZf2uJ4qMipGKkomQx5s+fbwYOHOg9j2M5eQ9SnxAeM9RbeMz/cEAtWbp0qenatatVX9eKuLYLtYXwWCjhEbHlJTxGg/CIGF7CozFNy572xsE41QhL374g+iQ8xgPhMaEQHpMF4TEZEB6TC+GxvHGER4BaQ3jMUG/hESAuCI+FEh4RW17CYzQIj4jhJTy2zLkd822tcz0OGz3eDLp2sHl16brssrmrPzHT5i83U+YuLmnwOmH13V5rG+f9jUvCYzwQHhMK4TFZEB6TAeExuRAey0t4hCRAeMxAeIS0QHgslPCI2PISHqNBeEQMb9rD4/xVy7xhsCWMY7pVRbWJf59r7nhglHnkmelmzsqPcy7/6TU3mq907WZeXvxBdtkrSz40PU/qazp07OR1h506mo033tgMHTkuZ1uyktvLd/Kr802/AQNNnzP7lzQ/YM5ZscEM/9Nke9ulnDBtds7tVXN/W0vCYzwQHhMK4TFZEB6TAeExuRAey0t4hCRAeMxAeIS0QHgslPCI2PISHqNBeEQMb9rD45p3h3ijYDn/NbevWf9G35xlH83qYz6ed2rOslLqtn37VKmzl683p509wLTdbHNz1DE9zJZbbW2OO+EU8/dFq7PrhAmB+WpdXSc/xNXq9l5csMLcM2JsNhT+4o577ba+3fv0nICoyKjY6K6nCKkY6YuU8qQzzjLttt3O7kPw9spZ7P62poTHeCA8JhTCY7IgPCYDwmNyITyWl/AISYDwmIHwCGmB8FhoLcPjo3+dYX544WVm+sJV3svz1YEgresONOn6vvWKWY/TfSGGkfAYDcIjYnjTHh6jTrM6dXR3M3PCN83kEceY6eN6mOcePtYMOGMPc/PPDjb3XNfFLH6+l/d6Pms93epdD46x79M0glDfT3ljifnifgeYa277LHDWcsRjpbdXzhETnjVtNt3UHH3c8WZm01rvOmF0ATE/PDLiERyEx4RCeEwWhMdkQHhMLoTH8hIeIQkQHjMQHiEtEB4LjRoeFUvu+f0fze/HP2M/GR+8TAd0dvqvne15dILLi6kDR71O6+f9JLoOIili/mfbtva9lj4pf/kvbsm5zTAHv7T+rPf+5b1Mahqxtm03i+VgVNTHox7V4/eTy64y//N/99jp19z/K/1/862P4SQ8RoPwiBhewmO08Pjk/UebaWN7mIkPHG2G3fgVs3ZOHzPoR/uYGY8fZ35/+1dbLTxqJGCP75xsBlxyRc7ya28fao7odox9n6Tvfe+FfO+rylnN7ZVy0ox59r3m2edfYvba70vm/MuvLnj/6Cw31erN9w43u+25V0F4dPd38ND7c87pmC/neGx8CI8JhfCYLAiPyYDwmFwIj+UlPEISIDxmIDxCWiA8Fho2PCo6Kfxt0qaN6fr/vmG277CT2f/gLubZOYuy6+SHNncgKPieSboDRvrXFx514ElTfXX56lH2gJXOL6TRkDvv1tnug7u9cge/dIDp2ON7mY6ddjGTX1vgXae1wqPu070PP26nMttq63b2k/i77L6HjXwvvbOmYP3Wctr85fZAoR5HPZ7u/xXhsToJj9EgPCKGl/AYPjyufuUUO6pRwXH8b7+eHfG4cMoJ5sVHe5ihvzi01cJj/nsj50NPPGc677VP9r2F772Qu+6RR3f3TlnqvP7OYQXXqeT2fOr9w8ArrrEfILvwyutsbNRISr133OeAg8z94/5cECDD7rdmvPBdr/+Fg7zB0jnqqedzrteaEh7jgfCYUAiPyYLwmAwIj8mF8FhewiMkAcJjBsIjpAXCY6Fhw6MCnaarcgdtdJCn2zd6mjPPvcBGSS3LD23uQJALjVLByn2vf33h8alX3rKRUQe73PWkpgDTAasX/7Eye/1SB78UynRuon2/dLD525tLveu0RnjUgbcvH36kOabnd8zjU2faCKnlU+c12YN0HXfe1Tzy9Is516kX3f8rwmN1Eh6jQXhEDC/hMXx4bJp2ovnwtd5mzcxTzGPDvmbDo0KjRjrq8qjneKxleNR5FQ/scljB+xO9b9l7/wNLhsByIwedwRBXze3l+/PBd9gPVGkE5ZPTX8+5TFOtamSi3ufpfeXTs/6RvSz//WBY9X6v1LkhncHQ2toSHuOB8JhQCI/JgvCYDAiPyYXwWF7CIyQBwmMGwiOkBcJjoWHDo6be0gEkHcxyy3736CR7fQUzfZ8f2twBJBcaZdjwqKm0xkyelr2eVHjcY+99zQtvv5e9frmDX+UMhkd9Ol///vaPT2anFAsavFwjPXU/FTRdONS/2p4O5mmkZv7jITXyUiH0l/c/nA22+d45fLQdDRAcTap1J/59rt326L+8YLcp3fk0ddBN+6f13HS42he3b27ZuCkvF9yu1pkwbbbddv5917rarrsd9/8qTHh0j5d7bIOXaZSD4qpuU7ft9lO629R90nqa1je4jeCyehodGkXCYzQIj4jhJTxGm2rVufTFE82Kl062oVFfK0AqTK5/o693fZ9xjHi85dcP5izPf++V/17I/T4Pq0YPKgZWens+9Ts9/72Gz/z13D7o93twvVLqOu49URiD79taU8JjPBAeEwrhMVkQHpMB4TG5EB7LS3iEJEB4zEB4hLRAeCw0bHgMBkOnAqGm31Lg0vc6UBQmPH679+n2YJf+9YVHxc3e/c6xU626+DbxpTfsaMcfX3pl9iBVrcLjDjt1tNvdtv32dgpZfUo/f5SkoqemC/t6j29Z9f5PU6QeckRXu96LC1bYKWh1XW1v8y9sYadODT4eOrCnUY7X3DYku11FNB3M031Q3FNs0/07o/959rxKbh1NPavzXOrxUrTS7bffsYP5/nkX2XX02GlK2R9ddLlpt+12Zpvt2tu/4S/5n/+1Iw+Cy4LT1SpiatRB2802tyMP9K+mVnWPu/t/40Jj/vc+tf9X33q32fQ//sPepvZT2/3NI0/YyxVfdR/cbbrpe/UY6nJ3G/0GDLSjL3R9rbNr5z3NyCf/mrNMP7/BQJsUCY/RIDwihpfwWFl4rIW1DI/yez8633zr5FOzH/rS71dNJxpclv9eSCHRN9qvmDqftvtwUSW3l6/e4+h3e1jd+yhd1/3+d8fZihm8/WpurzUlPMYD4TGhEB6TBeExGRAekwvhsbyER0gChMcMhEdIC4THQsOER30yvOeJfQrCo4Kapt+KGh73P+gQe7BL//rCo9SoO03jqpCn91qKfppGS/HOrVOr8KgRj4qcU95YYpeNmPCsvT13DiGNsNRIy6tuvtN+rwNxl1x9Q/a8hzoYpzCoMKaRjlpH+3nuT/875/HQtGfaX01npu913kpNq6qQ1mnX3e3XGpGoy3TbJ51xlv1aow0URR//26v2e11f2wlOGabHTo/Tqd//kb1t7aNiqpYpTrplOoAYHDWqUYQ6z5L79L+mgdW+uOjp/t9ECY/3jZ1oH9Pb7xtpb1PLFNkUUHV9nbvpiG7HZB8HhUg9dnoM9Vi621As/cOkqXYdPa6KjTpo6EbCKkYrbLp9TZKEx2gQHhHDm/bwuLxptDcKtoRr3v3sg0W1cOxzL5n2O+xof9/rd6jeG+h7/Z516xR7L6SYqPcfpdR7mOB1qrk9p2/E5c33DrczWfjOwajbCL63S4uEx3ho9fC4fPlyrMDWDI++/cHy5j+WcYZH3+1jeQmPyYXwWF7CIyQBwmMGwiOkBcJjoVFGPGq61eAyHVxSMHKxLGx4dN/r32LhMYw6WKUYmX/gLIouPAZvW/uv++H2UzFOB8xcBJPB+6qRnzow58Kkbx19r5EEbh0FP8VOTauq7xXTDjr08GwQ1H4d+60T7GNz228fspe5UCf1uAXjn25L98NF4FLLgvuUr27/sK5fz27b/b8p9n2+CoeakveoY3p4DyTqvJ0auZl//k5N7abHUI+l7zZKLQv+fCVFwmM0CI/YKCrmaHS3PpSh36HBc+zVyrSHx/mrlnmjYEu4aMUs7z5V4wOPPWVnY9Bxpy9ssWXOh3qkfgfqd6F+Jwavp9+XbmaBfDUzgz7YpfcEwevISm+vlO73te/2aqF73xY8Rueznt4vEB7joVXDI9bOlgqPWDvjCo9YOwmPyYHwWN44wuOQIUNMp06d7L+1JK7tzpw50xxwwAGmb9++5sMPoz0gK1asMGPHjjWTJ082GzZQdOKC8JihHsPj0qVLTdeuXa36ulbU63aff/55M2rUKPPOO+80L4E4IDwWGjY8alSZRuYF49eN99yXsyw/avnCkA6Eue/1r74vdkBKU2FpSizfQTNnz5P6es/HGNYw4VH3T/czGBZ1mTvwpm1oRGJ+TAs+HoqjGiGp0Yu6TP9q5J87cKeI+s1evbNTmWlbvU79nv1ewVPbcSMefY+rbqvS8Dj+hVn2cdQoTzeFqQt87raKfZ+vu/ziq673Xq7b1wHP/OlRFV61XPvqu41Sy4KPQ1IkPEaD8IitqV5r3FSUQRVj9MEUjRoP/m4spV7j3IdK3O9A33rVmPbwKFtjulXdpm9f4jb4fiS4XD9bxX4/ut+f+p3su7yUxW6vlGFuT++D8qeBLWVwiljN2qD3jHpv41OzJugDXPX0foHwGA+ExwaR8Jg8CY/1b0uHx6997WtYhcHHkvBYaBzh8cYbb7SPt/7NZ/78+WbgwIGmf//+Jb3sssvMqlWrmq+VodR2165da2dMkPo6n1KBcPr06fZ5rZHhH3wQ7UhSNdeF8BAeM9RjeFy8eLHZeeedrfo6n2HDhnmf4/nmn2qh1Hb1HNZzWc9pPbfzKfV6UG5/y9GvXz/7OjRu3LjmJRAHhMdCw4ZHhSJN0fmTy64yrzR9ZKcJ1bkBg+crzI9a7kCTm1pVajpRd+BH/+rAWLEDUuUOJGkq0XIHv7SeDgz7LpM6CFwuPMp7Roy15yx053jUKAB3zkJto1x41D7qYLOLgO6+u3X1fXBEqSLn+Zdfbb/WCBmd81G3qesoWn3pkK/Y7br1dVuVhEeNuNyq3TZ2GjTdjpbpNty+uf83xb7P112ePzrWqdt3IxuDy/XY6THUvvpuo9Sy4P+npEh4jAbhEVtDjUZ05+7Nf83T6+XZ519iX7e0js7rq3MBu8t9553TB070Gkd4jN+mZU9742Cc6jZ9+xK3+jnS70L9TAWX62er2O9H9/tTv5N9l5ey2O2VMszt+aZoLWWUKVrd7dfT+wXCYzwQHhtEwmPyJDzWvy0dHrF2Eh4LLRYe3cH5YkFNy3SZng+Kb0FKBUIX6vL/3+TriwKltlsuJpQKhITH+ofwmCHO8OieX8WCmpbrcoW3IOWeey7UlTP/eV1qu6Vef0Sp65a6LAyEx5aB8Fho2PAodVDoi/sdYH9WNSpO05y6WCXzo5ZG+Wmd4CfUpQ4W6XJ30LXYASkdUNK6vgNO8tu9Ty958EsjIXUuQYU17btvHR0ELhce3Tkc/+f/7rHnafztH5/MGWWpx69jp11KTrWaP+JR06dq3zVKRp/E15S1bpSgpq5VrHXni1T0Pfyoo+25J7VN7bM7J6NTy6OGR+1Tt2/0LIiE+n/iDoa7/zfFvnfL3KgDjQDSuSnzR8c6tS9bbd3ODBszIWe5Hjs9hnosi91GsWX1dCAxrITHaBAesTV0IUTTYgdfe6RGomsKbvc6reko9/3SwfbDMvper096nZVutJV7/SY8xm9rTLeq2/TtS9zq50i/C/UzFVyun63g30Q+9TMZvE4Yi91eKd3v60purxa626+n9wuEx3ggPDaIhMfkSXisf3Wgk/CYTAmPhbZWeCy23VJRoNR2y8WEUrdb6jKNutToS98ILdmrVy97fuXtttvOnHXWWd51pEZ9QeUQHjMkOTwW226x53Wp7ZZ6/RGlrlvqMqFRkr7nsHPXXXe1+9u9e3fv5VKjujW6GyqH8FholPBYzmDU8l2erzvoWuyAlLbTea997Hr50dGpEOimJ81Xy88b9HMbwoodINNB4HLhUec9VCjS1LLB8xw5XZjstOvu5rGpr9h1NCJU3wcfD53j0W1TUU7Tm+p5f/BXjrAxU1ONajSgRpZq6lG3fcVKRbknXpyTXZav9j9qeHSRUOdkVORVzLzhrt+UnGrVxdz877Xvf5n5tl2mQKppWzU61m1XI4EeefpFG6oVnxVan5z+ut0HjXZUjLz0mpvs9/m36duP4LJ6OpAYVsJjNAiP2JrqdSf42iP1gQ29frrfCfo9sc8BB2U/XBJUl2nacH2ohPDYci5vGu0NhHGo2/LtQ0uonyWdN9r9LMZtJbendXWdas7JXY3u9rXvvstbQ8JjPLRYeHzmmWfMJZdcgjE5ceLE5ke6dvzlL3/x3lZSvODiS8z5F9Wvjz35lPfFLqoX/nSQd/tYvRcPupzwmFAJj4USHktf5rYb/DmqxPxYA9EgPGYgPGYo9fojSl231GXC7U81FtsvCA/hsdB6D497739gTjirtWHCo9S0efpAUPA5ueVWW9tRkDqgNeWNJTbAucs0De2VN/3SjhB1j4dGyGjUixsRk6+inA5Q549m1NS2Gi0ZvG2peKXAqXWKRcZS4VHfKwa223a77DYVR7/7w59kD4a7/zfBg+OaAlbrKiYqun7/Jxeb4044JXtAT4/Hr/7wmJ0a1m1Xj8eDf8pMQ6foqtGq7jJNY/ijiy7Pjp713WapZYTHxofwiK2pXneCrz163dMHNoKvPW4E+c+uvzW7zKkR3ho1qdc+vR5rRLimt9brYHC7tZLw+JktER9b69yOmGwJj/HQYuERoKVZstb/YoJYD77w5hKz++67Y0wed9xxza8EjQXh8bPrabT36aefXjACyY1M9N1uuX2C1ofwmIHwmMG9/ug5red2/vNdrwF6LfBdt9z+Qn1AeCy0NcOjprHTObRcQArGP+kCoJ7Lpcy/Xq2d/NoC8+XDj7T7qk/Ma7/kRT//hY12wWlcNeWowmJ+PJQKcmeee4E9H9iLC1YUXF5MnYdRB7QVJafOa7K3/eeX37TTr2p5tSMIFPy0XRcOy6n7pvtY7nbdesVGRuj2dF9aawREa0p4jAbhEVvT/PDofmcFz+no1sv/IIReX7/Zq3d2Km6FR4341mhJTalNeIxXTX+qMOgLhrWQ6IiVSniMB8IjNCyER8RwzucP6sRAePzsesEDnD71af2OHTuaTp06ZW3fvr29LGx4/OSTT8y7775rQ4qmH1foOPfcc+10qpMnTw61DYgG4TED4TGDe/3R9crZoUOHnOe7vtfyYvvrY926deaFF14wDz74oDn//PPtc/6qq64yf/zjH82bb75pPv744+Y1oVYQHgutZXhUQCoW3UrppsCq1wClsKlp8ma8+37Oco1iURh96pW3cpaXUgehL7zyOrP5F7awEdJNGavRkfsf3CVndKJTB6bd+R+deszO6H+eHXVTbKpZrF8Jj9EgPGJrWiw8Xnv70IL1guFRr9OaQlojHPU7Tsv0Gs9Uqy2r4uP6BQO94bAatU3f7SGGkfAYD4RHaFgIj4jhJDwmhzjD4+GHH27mzZtnvw+qZbqs3sJjsZjgbtfFCJ/lwqPiwogRI7KhspQaXTt37tzma0K1EB4ztER4vP/+++1zKF8t1+X1FB59rz/CXVfbLWax/Q2yaNEi07t3b+/1g+o14c477zTr17fSEaQGhPBYaC3DY6M69rmX7MjGH154mR39+OycRfZ8jzqv4eW/uMU7mq+cOgitqfZOP+dce85DHcD2hSip29hmu/bm9t/9wY4QnPjSGzZa6vY1VarvOljfEh6jQXjE1jQ/POo1X9OkBiNjfozUB3Cuv3NYwes04bF1rHV81LYWrZjlvS3EMBIe44HwCA0L4RExnITH5BBnePQdZA9aaXjca6+9zPDhw82oUaNyvPfee83WW2/tjQKltuv2t1hMKBU8S13m0ChHjW7U7W+55Zbm+uuvN2+88YYdCeUuX758uZkwYYLp3r27XU/3Q6OkoHoIjxlaIjyWs9LwOGjQoILnu9S0qLo8/3ldarthw6PvuqUuC7JgwQKz55572n3Tc1rPbT3H9VwXeu7rNUCvBXpN0HoaCUl8rA2Ex0IJj+F8cvrrpt+AgWa3PfcynXbd3Zz6/R+Z8S/Mqig6RlUHsO99+HE7urFDx072vJeKkW4EDSZPwmM0CI/YmuaHR6loGBxxrt+je+y9r3noiefseXlPPP1M03mvfXKm4paEx9ZT8bEW53zUNnzbR4wi4TEeCI/QsBAeEcNJeEwOcYbHYoFQy3RZpeFRl5fSFwVKbbdcTKg2PM6ePdtss802dprGOXPmNC/1E4yUp556qtmwoUjpgdAQHjO0RHgsFgi1XJdXGh7Lmf+8LrXdlgiPmlJV+3X55ZeXnUrVRUqdV3Lq1KnNS6EaCI+FEh4RW17CYzQIj9ia+sLj43971X4IRef+dVOqHvyVI8zfF622l+s8vjOb1uZcRxIeW99KA6Suo+v6tokYVcJjPBAeoWEhPCKGk/CYHJJ0jkeNBmpqarLbL+XSpUsLDvaX2q6uUyomVBse3fnt+vbtG+p8bmG2CeEhPGZI4jkeV61aZZeXM/95omXFtlvq9UeUum6pyxxu+1FCogusxR4/iAbhsVDCI2LLS3iMBuERW1pNa61z+Oo9WFAXChUbr771bvOfbduarbZuZzp22sU8+tcZBdvJl/BYPyoiNi172qx5d4hZu/C6nMioqVSlYiMjHDEOCY/xQHiEhoXwiBhOwmNySFJ4rAaNOtTIK/2bj9vf/D868/XdnzCR0K2z++67m/nz5zcvLY5GhOr2evbsmZ2OFSqH8JghieGxUtauXWvGjx9v1ddB3OuPe14X07dPYfZXo5bPOussu40bbrghO71qMTQF66GHHmo+97nPmUmTJjUvhWogPBZKeERseQmP0SA8Yr366tJ15m9vLrVTYvsuz1cjIUc++Vc7RSvhETG9Eh7jgfAIDQvhETGchMfkkNTwqKCgc6JFVdfLR6OqLrvsMu/6QQcPHlwQAsOER43U1PV1vzp37mzGjBlTsK7ihKLkgAED7Hpt2rQhQtQIwmOGJIfHsM/RfHUdXTeInsN6LvvWD+q7btj91flZdZ5W3Wc9p998882C0c7aD70W6DVB65100kkFkRQqg/BYKOERseUlPEaD8IgYXsIjYv1LeIwHwiM0LIRHxHASHpNDUsOjWy+q5bYblTDhUSgo6NyNCorB/WnXrl3Bsr333ts8/fTTzdeEaiE8ZkhyeHTrBZ8nYSy33aiE3V8xa9YsO5IxuD8bb7yx2W677QqWXXDBBebDD4u8oEJkCI+FEh4RW17CYzQIj4jhJTwi1r+Ex3ggPELDQnhEDCfhMTmkZarVsNstNUWjj7Dh0aFRThrJeOmll5pevXrZ6RUVIjQ149ChQ+2ox3JTM0I0CI8Z0jTVatjtbtiwwUyePNmMHTvWrFixonlpcaLurxvJrOe2RlHuuuuu9nHo3r27fQ3QawHTKdeeZYTHAgmPiC0v4TEahEfE8BIeEetfwmM8EB6hYSE8IoaT8Jgc4gyPOsBeynoMj1HDQtTwGKSa60J4CI8ZWiI8lrPewmOpD0H4qHZ/df/1OBQLtFAbCI+FEh4RW17CYzQIj4jhJTwi1r+Ex3ggPELDQnhEDCfhMTnEER7Dno9t4MCBdjRQkLCBcMiQIaZTp06h3XzzzUNtN2pY0Pkbm5qazPLlyyOPVCQ8tgyExwxxhsew51wdNmxY8zUyhH2+LV261HTt2tX73PbZoUMH+3wvt92o4VHnadS+yPxzNoaB8NgyEB4LJTwitryEx2hUGx7ffB8xefp+lsNIeESsfwmP8UB4hBZn0aJFLeJL8xaZZ+cgYjn/9rr/OVRKaB3iCI/VEDY8uvUOOeQQb+AopgJJKaKGx2K4QKFtFPOJJ54wbdu2NYcffriZN2+edx2nYi5UBuExQ5zhsVL0sx3m+ebW23TTTc3pp5/ufW771AcgSj13oobHUmhb7vlazFNOOcW+bt1///3ey536MIM+1ACVQXgslPCI2PISHqNRbXh8+/3mDQEkhHc+8v8sh5HwiFj/Eh7jgfAILc6f/vQneyAHEZPptdde2/xshpYm6eGx3HpR0UH/WoRHt53gz3k15k9RCeEhPGZohPBY7fMyn1qGR/eaVAtrsT9phvBYKOERseUlPEaD8Ahpg/CI2NgSHuOB8AgtDuERMdkSHlsPwmMuLnDstNNO5uWXX7bfh3XdunXNWzFm7dq1dnTlqFGjauLzzz/fvGWICuExA+GxEBceNfJYI5C17bDqukFmz57tfe5W4tixY82KFSuatwxRITwWSnhEbHkJj9EgPELaIDwiNraEx3ggPEKLQ3hETLaEx9Yj6eExquVGEikoKG74rltOzttWnxAeMzRCePQ978pZarSwC4++65Wz1h96gNpBeCyU8IjY8hIeo0F4hLRBeERsbAmP8UB4hBZH4fHkk0+O3W/1Otn0+A4ilvObJ/ifQ8UkPLYe9RYehwwZYjp16mT/LYVGE/rO6VbOgQMHmvnz5zdvpZBqRiq+8847zVuBeoLwmKEew6POg9q1a1ervi6GztOo8zX6ntPlHDZsWPNWCtmwYYOZPHmy9/lcTo1whPqE8Fgo4bGxvfs3D5h999sPW8k3lq/z/n8hPEaD8Ahpg/CI2NgSHuOB8AgNy5K1/hcTRMx1Pn9QJ4Z6C48AtYbwmKEewyNAHBAeC61VeBw2erwZdO1g8+pSf2jxqXV1HV3Xd3kxw15v9vL15oW33zNzVn7svTwN/uLm28xVV11l/vGPf2ALe8QRR5jXl33k/f9CeIwG4RHSBuERsbElPMYD4REaFsIjYjgJj8mB8AiNDuExA+ER0gLhsdAw4XHUU89bg8smTJtthv9pspmzYoP9/qfX3Gi+0rWbeXnxB/b7v7251BxyRFfToWOnAn/36CS7jtbVdXRdt93pC1eZgVdcYya/Oj+7TF//8MLLsst81/P5yDPTzd77H2imzF3svTwNuvAILQ/hsXYQHiFtEB7jd/6qZWZ502jr+gUDP32hOC2rvpdr3h1impY97b0+YjUSHuOB8AgNC+ERMZyEx+RAeIRGh/CYgfAIaYHwWGiY8NjrtH7W4LL80Jj/vWLfF/c7wPzmkSfs13LSjHnmoEMPN0NHjrPr+AKi1lMsVDR0y/S1gqVb5rueomS/AQNNnzP7Zz32+F5m8y9sYb7d+/Sc5YqYCpzuuo0s4bH1IDzWDsIjpA3CY3y64BgMjeV0EXLRilnebSJGlfAYD4RHaFgIj4jhJDwmB8IjNDqExwyER0gLhMdC4wyP+QHRBcNy4TE/WOrrHXbqGDk8FpPwCC0B4bF2EB4hbRAe4zFqcPSpbfi2jRhFwmM8EB6hYSE8IoaT8JgcCI/Q6BAeMxAeIS0QHgutx/DYsdMuZpvt2menZtXXG2+8sR3BqHB40hlnmXbbbpdzvaCvLPnQ/PaPT5qfXHaVXf/Sa24yvx//jD3no2/9Rpbw2HoQHmsH4RHSBuGxtmqU49qF1xVExErVCEht03dbiGEkPMYD4REaFsIjYjgJj8mB8AiNDuExA+ER0gLhsdCw4XGTNm2yIVC23WzzsuGxllOtbtt+e7veHQ+MMjffO9zstude3vB414NjzH+2bWu3e/Wtd9v1FR73OeAgGzBHTHi24DqNLOGx9SA81g7CI6QNwmPtVCD0xcNqVXxk6lWsVMJjPBAeoWEhPCKGk/CYHAiP0OgQHjMQHiEtEB4LDRsejzvhlGxAlD++9MqS4fFvby41hxzRNSdWOn/36CS7TpTwqOu5Zb7ryanzmswuu+9hw2RwuZy7+hNzydU3mCO6HWNHROZf3qgSHlsPwmPtIDxC2iA81sa4oqOT+IiVSniMB8IjNCyER8RwEh6TA+ERGh3CYwbCI6QFwmOhcU21GsZXl64zg64dbIaNHp9dpvDom2p18y9sESo86v7cft/InOVS4fG/b7yd8AgtBuGxdhAeIW0QHmtjLadXLabio++2EUtJeIwHwiM0LIRHxHASHpMD4REaHcJjBsIjpAXCY6Fxh0eNbnQBsZjX3DYku/6clR/b0ZLB0ZVSUdGdo7FYeFRcvOrmO80XttjSntvxtt8+ZKdaveXXD9oRm1p+78OP51yn0SU8th6Ex9pBeIS0QXis3uVNowsiYVyuefez9zGIYSQ8xgPhERoWwiNiOAmPyYHwCI0O4TED4RHSAuGx0LimWnVqVGPwekHdOR/zA6LUPmkk5MymtQWXFQuPTm372tuHmmOP72VHSp54+pl2+tVp85d7129kCY+tB+GxdhAeIW0QHqvXFwjjlClXMYqEx3ggPELDQnhEDCfhMTkQHqHRITxmIDxCWiA8FhomPH7/vIu8IxV7ntQ3O21psfCobWvUoU/FwN323MsbEIeOHGd2+q+dbUTMv8w3RatPTc2q80X6tpEWCY+tB+GxdhAeIW0QHquzadnTBWEwbjXC0rcvcav3QnpPpPdGbplmgNCHrdwHvYoZvE5YfbfX2sZ5f+OS8BgPhEdoWAiPiOEkPCaHeguPQ4YMMZ06dbL/+vjkk0/M8uXLzeLFiyOr6+n6kC4IjxkIj5AWCI+FhgmPYSwWHhUQ2227nTnpjLPs9Kc+fQGxVHjMd86KDWb4nyYXhE3t0w47dTS/uOPegstGPfW8d1uNJuGx9SA81g7CI6QNwmN16ryLvjgYp3Gd61FRbeLf59r3LvpAlaakD17ue/+lD4Xpw2G+D41JvTfaeOON7Xut4LZkJbeX7+RX55t+AwZ63/MFzQ+Yxd7P5Tth2uyc26vm/raWhMd4IDxCw0J4RAwn4TE5tFR4/OCDD6zluPHGG81GG21k//WhbXTr1s2uE1VdL8w+QGNBeMxAeIS0QHgstCXCY7kDVD51ve077GTGTXm54BPrTn26XQfIdNBKB698B7WKef2dw7y322gSHlsPwmPtIDxC2iA8Vq6mPPWFwZaw1tOt6tzWp509wLTdbHNz1DE9zJZbbW2nvv/7otXZdcKEwHy1rq6TH+JqdXsvLlhh7hkxNhsK9QEwbevbvU/PCYiKjIqN7nrl3s/pQ2z6MJv2IXh75Sx2f1tTwmM8EB6hYSE8IoaT8Jgc4gyPH3/8sRkxYoRp3759Nv7pay3TZT7KhccNGzaYyZMnm1GjRoVW29pkk00IjymF8JiB8AhpgfBYaEuER/d7vpi+kY2/e3SS91PrQYNTvaJfwmPrQXisHYRHSBuEx8pd8+6QgiAYxn/N7WvWv9E3Z9lHs/qYj+edmrOslLpt3z5V6l0PjrHv0zSCUN9PeWOJ+eJ+B5hrbvvsdnzvvyodAVjp7ZVzxIRnTZtNNzVHH3e899zdYXUBMT88MuIRHIRHaFgIj4jhJDwmh7jC4/r1682AAQPswUa9AfzOd75j1ddadskll9h18ikXHith+vTpZrPNNiM8phTCYwbCI6QFwmOhtQqPOhjkRiD6LsfWUeHxu9/9LraChMfaQXiEtEF4rNy1C68rCIKlnDq6u5k54Ztm8ohjzPRxPcxzDx9rBpyxh7n5Zwebe67rYhY/38t7PZ+1nG5VIwF7fOdkM+CSK3KWX3v7UHNEt2OyH7zyhUAX6KKEtmpur5STZsyz7zXPPv8Ss9d+XzLnX361HVnpW7fcVKvFzg3u7u/gofcXzI4RlHM8Nj6ER2hYahke3/r0jTFivev72Q0j4TE5xBUex4wZYz73uc+ZPffc08ybN695qbFfa5kC5KOPPtq89DPKhcd169aZwYMHm/79+4e2V69edl8Ij+mE8JiB8AhpgfBYaK3CI9anL817xzzy5DPYSs5//9/e/y+Ex2gQHiFtEB4rN2p4fPL+o820sT3MxAeONsNu/IpZO6ePGfSjfcyMx48zv7/9q60WHovFw4eeeM503msfG9L0fanweOTR3b1TljqD085Xc3s+9WG0gVdcY/6zbVtz4ZXX2diokZT7H9zF7HPAQeb+cX8uCJBh9zv/3ODuev0vHOQNls56Or834TEeCI/QsNQyPBJmoN7Rz6jvZzeM/HwnhzjCozsP46abbmqeffbZ5qWfMXHiRBsee/ToYdau/fSFNUC58Oi2rXU0bWunTp1C27dvX/PhhxFOTAkNAeExA+ER0gLhsVDCI2LLS3iMBuER0gbhsXKjhMfVr5xiRzUqOI7/7dezIx4XTjnBvPhoDzP0F4e2WnjUeRUP7HJYQQh85JnpZu/9DywZAsuNHHQGQ1w1t5fvzwffkTmm852TzZPTX8+5TFOtamTizrt1ttOgPj3rH9nLXECMMlJThj3Xdz2d35vwGA+ER2hYCI+QJgiP6SCO8FhualMXD7fZZhsze/bs5qUZwoZHbV+3A1AOwmMGwiOkBcJjoYRHxJaX8BgNwiOkDcJj5UYJj03TTjQfvtbbrJl5inls2NdseFRo1EhHXR71HI9xjHi85dcP5izXObD13m3qvCb7fX4InDBttjcyFlOjBxUDK709n3NWfhxq6v389SoJj7qOomhY//bmUnu7vm21pITHeCA8QsNCeIQ0QXhMB3GER02zqnh4xRVXNC8p5Pzzz7frjBs3rnlJBsIj1BrCYwbCI6QFwmOhhEfElpfwGA3CI6QNwmPlRp1q1bn0xRPNipdOtqFRXytAKkyuf6Ovd32ftQyP8ns/Ot986+RT7QhGfa9Ip+lEg8vyQ6BCom+0XzF/eOFlZvrCVRXfXr7X3DbEjmQM6yFHdLUxUNd14VHHfEoZvP1qbq81JTzGA+ERGhbCI6QJwmM6iCM8louHotg65a4bnGq1EvNDJzQ+hMcMhEdIC4THQgmPiC0v4TEahEdIG4THyq00PNbCWofHsc+9ZNrvsKOdIlTnQ1RU1Pf3jZ2YXadYCFRM9I34C6opSoPXqeb2nL4RlzffO9zstude3nMwuhGXvm01soTHeCA8QsNCeIQ0QXhMB3GGx1KRr9LwuG7dOjN48GDTv3//ipwxY0bzliAtEB4zEB4hLRAeCyU8Ira8hMdo1CI8rv10G4hJkfBYucubRhcEwZZyzbtDvPtUjQ889pTZvsNO9jjIF7bY0tx+38ic6UmLhcBep/UzbTfb3Dvqb4edOtpzMPqmNK309kqpdXWdqOduDKsi6k7/tbPd51Jq333Xbw0Jj/FAeISGhfAIaYLwmA5ae8Tjrbfe2rwkQ5jrAkSB8JiB8AhpgfBYKOERseUlPEaj2vCImCbTHh7nr1rmjYItoW7bt09xWio8Fgtt1YTAuMJjNVPE6pyNmj41f0Snc9KMeeagQw8nPKYAwiM0LIRHSBOEx3QQR3jUSEfFQ53HsRjnnHOOXWf8+PHNSzIUC48aqegbwVipjHxMD4THDIRHSAuEx0IJj4gtL+ExGoRHxPCmPTzK1phuVbfp25e4bZTw6JuitZRRpmh1t094bHwIj9CwEB4hTRAe00Ec4XH27Nlmm222MYcddphZvXp189LPWLlypenSpYtdR+sGKRYeXcyslZzrMT0QHjMQHiEtEB4LJTwitryEx2gQHhHDS3g0pmnZ0944GKe6Td++xG2p8Og71hG0nsJjnBIe0wPhERoWwiOkCcJjOogjPK5du9Ycf/zx5nOf+5wZM2ZM89LPGDlypL3s1FNPNRs25JaMYuERoFIIjxkIj5AWCI+FEh4RW17CYzQIj4jhJTyaVplutTWmWZWKatPmL885D2OcVnJ7WlfXeXXpOu/lcetuP0osjVvCYzwQHqFhITxCmiA8poM4wqN49tlnzaabbmo6depkpk2b1rzUmClTppitt97aXqZ18iE8Qq0hPGYgPEJaIDwWSnhEbHkJj9EgPCKGl/CYcXnTaG8gjEPdlm8fEItJeIwHwiM0LIRHSBOEx3QQV3j85JNPzC233JKd4qN9+/ZWfb3xxhubO++8066TT5jw2K9f+SlFfHbr1s188AE/nGmD8JiB8AhpgfBYKOERseUlPEaD8IgYXsLjZ7ZEfGytcztisiU8xgPhERoWwiOkCcJjOogrPAqFxWeeecYcfvjhNvwpOB555JF2mS86iijhsXv37qZ///5l7dWrl53alfCYTgiPGQiPkBYIj4USHhvbP0+dbv7nf2/GVvKtVeu9/18Ij9EgPCKGl/D4mZr+VGHQFwxrIdERK5XwGA+ER2hYCI+QJgiP6SDO8FgJUcLjuHHjmpeUZvr06WazzTYjPKYUwmOGWoTHNesR61/CY6HVhsfgeXvkoGsHm0f/OsO7bjVq21PmLo7lPEba3x9eeJmZvnCV9/JiVnq9YaPH28ep1LmOanU+pF/cfJu56qqrzHXXXYct7BFHHGFeX/aR9/8L4TEahEfE8BIec1V8XL9goDccVqO26bs9xDASHuOB8AgNC+ER0gThMR0QHqHRITxmqEV4REyLaQ+PCmHB+Pfy4g/MV7p2M0NHjsv5Onid6+8cZvqc2b+kWid4HfnKkg9t2Ntyq63tzAg77NTRbLV1O/t7/qBDDzcjn/xrwXXynTBtthn+p8lmzooN2WW6v4p/M5vW2u+1vzv91842bLp1rrltiOnQsVOBPU/qa/er2PV0P7Rt972LscFlP73mRvs46fFyy/It9lhG1YVHaHkIj7WD8IgYXsJjobWOj9rWohWzvLeFGEbCYzwQHqFhITxCmiA8pgPCIzQ6hMcMhEfE8KY9PCqEBaNZLcJjx513Nb1O65dzndnL15tv9upt9jngIPPY1FdyRjkq/F150y9N27abmfvGTsy5Xr6+yJcfDPO/d9c77oRT7DLn4KH352zLdz3dD13Xfe8ek+Cy/H1ycTL4mJx0xlmm3bbbmSOP7p6zXEYZUUp4bD0Ij7Wj2vCoEe8fbkBMjr6f47ASHv0qPtbinI/ahm/7iFEkPMYD4REaFsIjpAnCYzpIcniMKuExnRAeMxAeEcNLeIweHsupWJcfHhXzFPWKbcsX9HzmRz6ZHwzzv3fXy98nrRfclu96us6PL73SLpOTZsyzozOjhsdSEh6TAeGxdtQiPAIkhY8Ij7FaaYDUdXRd3zYRo0p4jAfCIzQshEdIE4THdFBv4XHIkCGmU6dO9t9iDBs2zPTv3z+ygwcPNuvWrWveCqQFwmMGwiNieAmP0cPjqKeeN3c8MKqoXb56VEHk07Y02u/bvU83L72zJucyjX78zSNPmG3bb2/uenBMzmX5tkZ4bLvZ5tmpWTU9rKaJ3f+gQ7LhUF/n75NzzsqPzSPPTDdX33q3XfcHF1xq7n7wETu9bf66YSQ8th6Ex9pBeIQ0QXhsGRURm5Y9bda8O8SsXXhdzlSs+loqNjLCEeOQ8BgPhEdoWAiPkCYIj+mg3sIjQK0hPGYgPCKGN+3h8WfX32r22Htf88Lb79nvg7Ex+HXwOopxwfDm03eOxylvLLHTrSrctd+xQzbmKex9YYstze33jcyZgtWnAqI7P6S7vs4TGSY81nKqVQVUF1r1tS88Tn5tgQ1SO+/W2Qy45Aq7rh6Xb3z7JLNJmzbm4quuzzlXZRgJj60H4bF2EB4hTRAeERtfwmM8EB6hYSE8QpogPKYDwiM0OoTHDIRHxPCmOTwq8uncgzq3okblaZkLa8Hpy33hMRjjoqqpSBXltN3Rf3nB/O3NpXZkoG/dfHW7mupUU54GA2K58HjNbUOyoTJoz5P62nNMFrtesfAYXKavfeGxd79zbGjV+S2Dy6VGjXbstIsZN+XlgstKSXhsPQiPtYPwCGmC8IjY+BIe44HwCA0L4RHSBOExHRAeodEhPGYgPCKGN83h8S8z3zb7HHCQDXk6j6FCpAtrinDBr4PXU4wLnvfQZzAmDhs93jsqspg/vPAyM33hqpzbdPoiX34w9AXEMOpci/m3rfvqm2o1bHhU2PWFR93WLrvvQXhMEITH2kF4hDRBeERsfAmP8UB4hIaF8AhpgvCYDgiP0OgQHjMQHhHDm9bwqMioePitk081IyY8a6OaRh+GCY/fP++ibIiTmjY0GOfkIUd0tfFR60+YNjs7Lanz5nuHm9323CtnylKnQuXMprU5t+msJjxqZKNGOAb3M9/gfktFSG0n3+DtFwuPiosa1XhY16/bKVbd/et/4SCz5VZbm7PPv8QbJUtJeGw9CI+1g/AIaYLwiNj4Eh7jgfAIDQvhEdIE4TEdEB6h0SE8ZiA8IoY3jeFR0fHGe+4z7XfY0Yx97iX7/ZnnXmDD2wOPPVU2POYbZupV3ca0+cvtNKv63m273PXy1fqVTLUq3T646+Wbvx2nIqhiaLHHtVh4lLrur/7wmDnt7AGm3bbbmSOP7m4uveYmM/Hvc+3+5K9fTsJj60F4rB2ER0gThEfExpfwGA+ER2hYCI+QJgiP6YDwCI0O4TED4RExvGkMj5reU4HtrgfHZJdp5N3FV11vHnj8L7GEx/xtVRoei52rMThSsVh4nLNigxn+p8k5oyuDaiSi73r6XsuLPQ6KkoOuHZyNqj7DPpblJDy2HoTH2kF4hDRBeERsfAmP8UB4hIaF8AhpgvCYDgiP0OgQHjMQHhHDm9apVotFsmAgy49lmjrUd07GjjvvavY/6JCC5f0GDDSTX51fsF1970Yfarm77Vqp2/AFRLcPGnWYv69O3/kly4XHfEtNLau4mX9Zqall8yU8th6Ex9pBeIQ0QXhEbHwJj/FAeISGhfAIaYLwmA4Ij9DoEB4zEB4Rw5vW8FjMUuFR282PZqW8Z8RY8+KCFTnb1XSmCnnFzI9+lVguPIYNiE5tR9srte9T5zVlz9eokOiLmsX0xc5iEh5bD8Jj7SA8QpogPCI2voTHeCA8QsNCeIQ0QXhMB4RHaHQIjxkIj4jhJTzm6qYj1TYqDXU+X1nyoel5Ul/vNKlBv3/eRd7rR7FceNxoo41Kmj/9q6Zw1VSuvv11fnG/A8zjU2fmXC8OCY+tB+GxdhAeIU0QHhEbX8JjPBAeoWEhPEKaIDymA8IjNDqExwyER8TwEh6L66ZDLXXuwnpU+6tYOGflx97Lk6wLjxMnTsQWlvBYOwiPkCYIj4iNL+ExHgiP0LAQHiFNEB7TAeERGh3CYwbCI2J4CY+YJEc9PtF898zvYyv55qdvNHz/XwiP0SA8QpogPCI2voTHeCA8QsNCeIQ0QXhMB/UWHocMGWI6depk/60lcW23FBdddJG9zUmTJjUvqQ2VbvfGG280O++8s1m8eHHzkviI676LqNsmPGYgPCKGl/CIiNVKeIwG4RHSBOGxdZ23OnP+ZcQ4JTzGA+ERGpZah8f31iHWr4THdNAS4XHdunVm8ODBZuDAgWb+/PnNS/0ojulcSvo3H4UmBSeFJx+l4mKp7UZh/fr1ZsWKFeaTTz594MrQr18/e5vjxo1rXlKcVatWmcsuu8yqr0sRZbtBKgmPlQbbqPsY5/0nPGYgPCKGl/CIiNVKeIwG4RHSBOGx5Wxa9rRZ8+4Qs37BQGPePi1HLVu78Dq7zvxVy7zXR6xUwmM8EB6hYalleERsZAmPyaElwuMHH3xgunXrZjbbbDMzffr05qV+SgVChSZdpvDko9R1S10WhlmzZpnDDz/cbkNuvPHG5oILLjAfflj8QYgSyBQDFQXDhMGWDI+VPm5R9zHO+094zEB4RAwv4RERq5XwGA3CI6QJwmO8Lloxy8bG/NBYTkVIAiTWSsJjPBAeoWEhPCKGk/CYHBoxPG6++eZ2lF5QLSu23XI88cQTdt91/YMOOsj06dPHbL311vb7Y445xqxevbp5zVwIj4THeoLwiBhewiMiVivhMRqER0gThMf4VDz0RcUoKloSILFaCY/xQHiEhoXwiBhOwmNyaInw+P7775uuXbuatm3bmmnTpjUvzUxb2tTUZEOT88orrywaulx4bNOmTUFYDMbFWobHpUuXmv3228+OcBw5cmR2itW1a9eac845x25T++ybejVKIFu0aJHp2LGjVV87NE1t8PGRp5xySujtBqnn8Bjn/Sc8ZiA8IoaX8IiI1Up4jAbhEdIE4bH2apRjLaKjU9OwEh+xGgmP8UB4hIaF8IgYTsJjcmiJ8PjWW2+ZHXfc0caiBx98sHmpsaMf3UjCfKsJj77rVhrQhg4daq933nnnFcTFhQsXmj322MNeXsowgey5554zm2yyiVVfO9x99hk2vDl031s6PLZr1y77/6fUeSLjvP+ExwyER8TwEh4RsVoJj9EgPEKaIDzWVkVHXzyshcRHrFTCYzwQHqFhITwihpPwmBxaIjzed9992VjUo0cPO1pQrFixwowdO9aMGjUq6+mnn27X84UuF6EUtXyUimSVBDSNtuvZs2dBDAtyxRVX2O1qKtn+/fvnuOuuu9rLygUyBc1BgwbZdWUwcr7zzjs5j4886qijQm03H933egyPcd9/wmMGwiNieAmPiFithMdoEB4hTRAea6fCoC8Y1lLiI1Yi4TEeCI/QsBAeEcNJeEwOcYfH5cuXm0MPPdR06NDBng9RwWj48OHNlxZSKnSFDY+1mmpV08DuvvvuVn3tw+2TAmQ+YacbnTdvnn189t13X3PIIYeYTTfd1Dz77LPNlxYSdrv56L7X41Srcd9/wmMGwiNieAmPiFithMdoEB4hTRAea6emRPXFwlrKtKtYiYTHeCA8QsNCeEQMJ+ExOcQZHnUOR438UyTSeRDfeOMNG5i23nprM2nSpOa1cikVulzka6nwqECnUKfRjB984P+h1jkrde5K3z6FCWSrV6/OCbIKbgpvip2zZ89uXiuXqOHNoftey/Dozr84efJkc9NNN9nRqi+//LK9LOw+tsT9JzxmIDwihpfwiIjVSniMBuER0gThsTYubxrtDYVxqNvy7QNiMQmP8UB4hIaF8IgYTsJjcogrPGo61YsuusgGov32288sXbrULh89erTZeOON7XkaFavctKuOUqHLhcdy+q5barvFUETbYostSoZHd57KSsKjppo96aST7DrHH3+8fSw0xageFy3bcsstzYgRI8zHH3/cfI0MrREeXcxt3769/b6Y48ePt9cLs48tdf8JjxkIj4jhJTwiYrUSHqNBeIQ0QXis3paYYjVfRj1iFAmP8UB4hIaF8IgYTsJjcqh1eFQkmjJlip1eVXHIN3JNcUpRSZd37NjRvPLKK82XlA6EM2bMKDiPok8Xv4KU2m4x4hrxqJGgf/zjH03nzp3t5Tpn4ZIlS5ovzZzz8O6777ZxVpfrsXz33XebL23Z8KjzMuaPHj3wwAPN2Wefbc4991wzbNgw8+STT9ptBgNhqX1s6ftPeMxAeEQML+EREauV8BgNwiOkCcJj9bbkaEdna416HDZ6vBl07WDz6tJ12WVzV39ips1fbqbMXVzS4HXC6ru91jbO+xuXhMd4IDxCw0J4RAwn4TE51Do8zp8/38ZGhSFNoblo0aLmS3LR8rPOOssMGDDAhihHJYEwDIqRxaJkMd577z173sFSsW7MmDF2fwcNGmTXCXrKKad4A9nzzz9vR0nqMkW0NWs+fTA9zJo1y/To0cMMHjzYxjhHS4bHSim1jy19/wmPGQiPiOElPCJitRIeo0F4hDRBeKzelji3Y75rF17n3ZdqVVSb+Pe55o4HRplHnplu5qz8OOfyn15zo/lK127m5cUfZJe9suRD0/OkvqZDx05ed9ipo51paujIcTnbkpXcXr6TX51v+g0YaPqc2b+k+QFzzooNZvifJtvbLuWEabNzbq+a+9taEh7jgfAIDQvhETGchMfkEMdUq08//bR56qmnCqbIDEPY8KhRlKNGjYpssfMG+tiwYYM5+eSTzec+9znvOSkVw8477zy7v6XMD2S6nvZFIz2DQS0sSQiPiou6j++8807zks9o6ftPeMxAeEQML+EREauV8BiNasPj258+rohJ0vdzHNa0h8fWmGbVWevpVmcvX29OO3uAabvZ5uaoY3qYLbfa2hx3winm74tWZ9cJEwLz1bq6Tn6Iq9XtvbhghblnxNhsKPzFHffabX279+k5AVGRUbHRXU8RUjHSFynlSWecZdptu53dh+DtlbPY/W1NCY/xQHiEhoXwiBhOwmNyiOscj8XQlKUa7ajpORWfJk+ebJqamnJGPYbBBcqolgua+Tz00EP2er179y7Yx3nz5pkOHTqY7bbbzo7ezJ/yddddd7XXjRoIV61aZRYsWGCvp8fohRdesOfIrCTkBqkmPCogal+i6guP5aj1/Sc8ZiA8IoaX8IiI1Up4jEa14RExTaY9PFY6zeq/5vY169/om7Pso1l9zMfzTs1ZVspaT7d614Nj7Ps0jSDU91PeWGK+uN8B5prbhmTXqeWIx0pvr5wjJjxr2my6qTn6uOPNzKa13nXC6AJifnhkxCM4CI/QsNQ6POoAJmI96/u5DSPhMTm0RHhcu3atueOOO8xOO+2UEwHz1bn8Hn/88VCBSQHTTWkaxiuvvNLeRtTwuHr1ansOQl33hhtuyO6bzknolus8iD6ijMzTdKOarnXrrbe21ynmcccdZ0cTVjJSsJrwqPvg259yho2ucd5/wmMGwiNieAmPiFithMdoEB4Rw5v28KgpT31RsJhTR3c3Myd800wecYyZPq6Hee7hY82AM/YwN//sYHPPdV3M4ud7ea/nU1O8+vapEjUSsMd3TjYDLrkiZ/m1tw81R3Q7xsY2fe8LgZWM8Kvm9ko5acY8+17z7PMvMXvt9yVz/uVX25GVvnXLTbV6873DzW577lUQHt39HTz0fu+5HZ2c47HxITxCw1Lr8Li2ssEbAC0C4TEdxB0eNbqxS5cuNhq1b9/exiXFKI1oUwB744037KjCPn362E+oab388z7WAjdCMmp4FDNmzDCdOnWy1998881Nx46ZT9Ppe41sLLavYcNjcPudO3c2119/vR0RqsdOj9Grr75qhg0bZo499li7jrzlllsix8dahEedt1LXL2ex81v6iPv+Ex4zEB4Rw0t4RMRqJTxGg/CIGF7CY7Tw+OT9R5tpY3uYiQ8cbYbd+BWzdk4fM+hH+5gZjx9nfn/7V1stPBaLhw898ZzpvNc+NqTp+1Lh8ciju3unLHVef+ewgutUcns+p81fbgZecY35z7ZtzYVXXmdjo0ZS7n9wF7PPAQeZ+8f9uSBAht3vYaPHe6/X/8JB3mDpHPXU8znXa00Jj/FAeISGhfAIaYLwmA7iDo8XX3yxDUXnnHOOHflYCo0iPOyww+z6ipGl0DkXFavCqmCo7VYSHoUi2A9+8APTpk0bu51ddtnFjBgxouTozDDhcd26daZXr152veCIymK89tprNh5uuummZurUqc1Lw1GL8Kj7FIaw0bUl7j/hMQPhsb78/nkX2WmBfvfoJO/lYdUf5b4/zoM+PnWmnUJJ0xO5TzLXyr+9udQcckRXq772rZNECY+IWK2Ex2gQHhHDS3gMHx5Xv3KKHdWo4Dj+t1/PjnhcOOUE8+KjPczQXxzaauFR51U8sMthBSHwkWemm733P7BkCCw3ctAZDHHV3F6+Px98h/0wtkZQPjn99ZzLNNWqRibuvFtn+/fO07P+kb3MBcQoIzVluXNDOoOhtbUlPMYD4REaFsIjpAnCYzqIMzxqOtRu3bqZzTbbzEyfPr15aWkefPBBG6HKBUIXwhQUfaGxmMWmRY2DMPFNEVAhLUoQvOKKK0JFvXzqMTy2xP0nPGZISnics/JjG7D0h29Upy9c5d1mSzh39Sf2U7/aj6nzmopOL+TsdVrmORL1j+58dWBA29G/vsulDia0bbtZ2QMIlaj7u9N/7WzV1751kijhERGrlfAYDcIjYngJj+HDY9O0E82Hr/U2a2aeYh4b9jUbHhUaNdJRl0c9x2McIx5v+fWDOcv1wUS9d9PfFPo+PwROmDbbGxmLqQ8oKgZWens+9Teb/v7xXRY0fz23D1H+BtJ13N97YdTfkrpd37ZaUsJjPBAeoWEhPEKaIDymgzjD44YNG8zJJ59sPve5z5mRI0c2Ly2Ops5052K89dZbm5f6cSGs0hGMLUGY+LZy5Uo7Fa3irM5dWA5N69q7d2+73fHjxzcvDUc9hseWuP+ExwxJCY/6Y1ERS/+Po6qY59umfPSvM7yfig1jqdGE+qP2/34zwmyzXfucfdEngL/3o/PNS++s8V6v3sJj2AMY+dMXuf9fhMf6gPCIWD8SHqNBeEQML+Ex2lSrzqUvnmhWvHSyDY36WgFSYXL9G3296/usZXiU+nvhWyefakcw6ntFOk0nGlyWHwLdjCdh/eGFl2U/oFnJ7eV7zW1D7EjGsAZnRnHhMfh3k8/g7Vdze60p4TEeCI/QsBAeIU0QHtNB3FOtPvroo/YAvMLSvffea1avXt18SS5NTU3mJz/5iX2T2aFDBzNv3rzmS/w0SngUOl+h1tOIzDFjxtjpR/NRlNVjcuKJJ9p1Dz30ULN8+fLmS8NRj+FRxH3/axketa2kkpTwqE/j6o9pX/Qqpv44/vwmm5QMjwp8+tmpxGJRT6Ma9ce81tmkTRvT69Tv2U8QD7jkimw81YHnya8tKLhu1PBY7HH5du/T7Xb0b/5lmn5JBxDChEfdR22nnBdfdX3O9QiP9QXhEbF+JDxGg/CIGF7CY2XhsRbWOjyOfe4l036HHe0UofrbQu/39f19Yydm1ykWAhUT9f67lJqiNHidam7P6fvA4s33Dje77bmX9xyMug39LePbViNLeIwHwiM0LIRHSBOEx3QQd3hUMHrsscfMlltumT1w3a5du5zpT915E6WC0ty5c5uvXRwXwioxTAyrBWHjm85r+Mtf/jLncWjfvn328enYsaONt+4yxTedDzMqtQiPUQ3zWMd9/wmPGRr5HI8urJUKj/qj2/fHeCl/fGlmBHax8Hjbbx+yl+/aeU8zaca8nMv0x3XvfufYy4OfIHZGDY/aHxczw+oOGIQJj1qef/+DFnssdBnhsX4gPCLWj4THaBAeEcOb9vC4vGm0Nwq2hLpt3z5V4wOPPWW277CTfa/9hS22NLffNzJnetJiIVB/T7TdbHPvqL8ddsr8De37W6PS2yul1tV1qp3NpZjubw73d04xi/3d1hoSHuOB8AgNC+ER0gThMR3EHR4dmiLzb3/7m7n00kvNYYcdlo1K8oQTTjA33XSTDY4KlWGYMWOG6d+/f0Xqui3BRRddZO/fpEmTmpeURiP9JkyYYH784x+bAw88MPv47L777qZPnz5m6NChZuHChc1rR6ea8Fjp4x3lsY7r/hMeM6Q9PFai/nAt9gesQma3b/S0U0kPGzOh4HKp86Qo+GzVbhv7yeDgZVHDYyXnvtQ5J3UQIUx4LKemZdL+3vXgmJzluh3CY/1AeESsHwmP0ag2PC5bh5gsfT/HYU17eFy0YpY3CraE81ct8+5TnJYKj8VCWzUhsNjtlTLM7WnkY/40sKUMThFb7m8hfQj0oEMPL/p4tIaEx3ggPELDQniENEF4TActFR6h9akmPCYZwmOGpITHSgLbbx55wvxn27YtGh51u2GCmwuM+kPbtzyuTwUHrTY8vrLkQ3NEt2PsNrSt4GVhH4ekSXhExGolPEaj2vC4ppVCDEAlfLTB/3Mc1rSHR6kpT31hME5rPc1qWIuFwKSFx7DnlHdGmaLV3X6xx6M1JDzGA+ERGhbCI6QJwmM6IDymB8Jj9RIe49eFLEW5qNZzeMz/I7za8Kjb/P5PLs5Ok7TV1u3MSWecZZ6c/nrButWGRx0k0KjN/Q/uYl78x8qcy8I+DkmT8IiI1Up4jAbhEdIE4bF6W2O61TimWQ1jsRDo/p4oZT2FxzglPKYHwiM0LIRHSBOEx3RAeEwPhMfqJTzGrwtZW261tfnFHfd6P/1azFFPPe/dZqW68Hjt7UMLLnOjANtsuqkZMeHZgsulpjrd90sH12Sq1aC/e3SSfXx0fQVHncdF/+r7Tdq0KZgOtdrweNXNd9pta7rV/MsIj/UF4RGxfiQ8RoPwCGmC8FgbW3rUo28fWkK9f3enUPBdXmsruT2tq+vodBS+y+PW3X4lf+vEJeExHgiP0LAQHiFNEB7TAeExPRAeq5fwGL/1FLLKxcFrbhtiLz/8qKPNiwtW5FymKWMvufoGe/nRxx1fME1QpeFR5y9pv2MHGxh/ef/D2QMC+ldTzipIyrHPvZS9jguPG2+8sdlhp442VEoFTLdOMTXtrQ6eK7D+YdLUgssJj/UF4RGxfiQ8RoPwCGmC8FgbW3LUY2uNdsTkSniMB8IjNCyER0gThMd0QHhMD+PHjzeXXXaZWbVqVfOSdEB4zEB4jG65ODh7+XrT58z+dp0vbLGlufDK6+zIy+vvHGb2OeAgu3zXznuaya8tKLhupeHRjcL88aVXej+FfPO9w+3lwdGJlYZHbV+3o+317neOmbNiQ8E6hMf6gvCIWD8SHqNBeIQ0QXisnS0RH9e8O8R724ilJDzGA+ERGhbCI6QJwmM6IDxCo0N4zJC08KhzF46b8rL9PqxT5zXZGOjbblTdeUIU7BTufOtIjWS89Jqb7AhEBbqg3b99onl2ziLv9SoNj7ref7Zta8ZMnua93J2PMTitaqVTrd45fLSNle223c786fnXvOvocSc81g+ER8T6kfAYDcIjpAnCY22Nc8rVtQuv894mYjkJj/FAeISGhfAIaYLwmA4Ij9DoEB4zJC085ke8MJaLhFF84e33zB577+s9P6NPnc9k9F9esCMef/vHJ+05RnzrOes9POq+aMpWhUcFSN86kvBYXxAeEetHwmM0CI+QJgiPtTeO+Kht+m4LMYyEx3ggPELDQniENEF4TAeER2h0CI8ZkhIeNYJw2OjxNuDl2+WrR9lY1//CQd7L7xkxtuBci5X61CtvmfY77Gg67bq7HUnpW6caq51q9aqb7/RefttvH7KX+6ZaDRse7334cbu+tqPRnL4pXZ2Ex/qC8IhYPxIeo0F4hDRBeKy981ctq2l81EjHRStmeW8LMYyEx3ggPELDQniENEF4TAeER2h0CI8ZkhIeS1lprKvEh554znx+k03MEd2OMa8s+dC7TlCd11Hne3z0rzO8l+db6X3RlKea+lSjEUdOnJJz2WNTX7GhtM2mm5oRE57NLg8bHhV9B15xjd0vFx3nrPzYu66T8FhfEB4R60fCYzQIj5AmCI/xqXM+VhsgtQ3fthGjSHiMB8IjNCyER0gThMd0QHiERofwmIHwGF1FuukLV3kvyzfqvlVzX9y5F3X93fbcy5zyvbPN/gd3sd/Ly39xS84oxXLhUes+8NhTZufdOtvra12NnCw10tFJeKwvCI+I9SPhMRqER0gThMd41ejHNe8OiRwgdR1d17dNxKgSHuOB8AgNC+ER0gThMR0QHqHRITxmIDzGa0vv2/gXZplu3+iZDZD699Ajv2ZGPfV8QTAsFx61z5/73OfsdjTC89k5iwrWKSbhsb4gPCLWj4THaBAeIU0QHltOTZeqEYyaOlUh0sVI/atlio1Ny572XhexGgmP8UB4hIaF8AhpgvCYDgiP0OgQHjPUe3icMG2297yNQcud49EZPNejOydiLVS8U8TL33dZz1G0XHicvXy9ueC/r7WjHsOMcgxKeKwvCI+I9SPhMRqER0gThEfExpfwGA+ER2hYCI+QJgiP6YDwCI0O4TFDvYfHuALhNbcNMR06dqqJX9zvAPP41JkF+y6THB6rkfBYXxAeEetHwmM0CI+QJgiPiI0v4TEeCI/QsBAeIU0QHtMB4REaHcJjhnoPjwpiCle1cOq8JjuKz3c7cenC4+Ch93v3qZh/e3OpmbPyY+82ayXhMbqER0SsVsJjNAiPkCYIj4iNL+ExHgiP0LAQHiFNEB7TAeERGh3CY4ZGOMdjPevCY1RbItgRHqNLeETEaiU8RoPwCGmC8IjY+BIe44HwCA0L4RHSBOExHRAeodEhPGao5/CoIJJ0f/WHx8x1t/8qsjf/arj584w3vduslfc/+mcbno755nfMpJfe8K5TqeP++rL50iFfseprt3z6wlXe/9dJkfCIiNVKeIwG4RHSBOERsfElPMYD4REaFsIjpAnCYzogPEKjQ3jMUM/h8Yv77u8dDYjJlfDYOhAeEetHwmM0CI+QJgiPiI0v4TEeCI/QsBAeIU0QHtMB4REaHcJjhnoOjwd2OQwbTMJj60B4RKwfCY/RIDxCmiA8Ija+hMd4IDxCw0J4hDRBeEwHhEdodAiPGTjHI2J4CY+IWK2Ex2gQHiFNEB4RG1/CYzwQHqFhITxCmiA8pgPCIzQ6hMcMhEfE8BIeEbFaCY/RIDxCmiA8Ija+hMd4IDxCw0J4hDRBeEwHhEdodAiPGQiPiOElPCJitRIeo0F4hDRBeERsfAmP8UB4hIaF8AhpgvCYDgiP0OgQHjMQHhHDS3hExGolPEaD8AhpgvCI2PgSHuOB8AgNS63D4zzEOtf3cxtGwmNyIDxCo0N4zEB4RAwv4RERq5XwGA3CI6QJwmPrOm/1eu9yxFpKeIwHwiM0LLUOj4iNKuExORAeodEhPGYgPCKGl/CIiNVKeIwG4RHSBOGx5Wxa9rRZ8+4Qs37BQGPePi1HLVu78DqzvGm0mb9qmff6iJVKeIwHwiM0LIRHxHASHpMD4REaHcJjBsIjYngJj4hYrYTHaBAeIU0QHuN10YpZNijmh8Zy6jq6rm+biFElPMYD4REaFsIjYjgJj8mB8AiNDuExA+ERMbyER0SsVsJjNKoNj01rEZOl7+c4rITH4lYSHPPVCElGQGK1Eh7jgfAIDQvhETGchMfkQHiERofwmIHwiBhewiMiVivhMRrVhkfENEl4LFQjFX3TqVaqtkV8xGokPMYD4REaFsIjYjgJj8mB8AiNDuExA+ERMbyER0SsVsJjNAiPiOElPOaq6OiLh7WQ+IiVSniMB8IjNCyER8RwEh6TQ7XhUQcJEOtZwmMGwiNieAmPiFithMdo6D1b/mOFiH4Jj5+pMOgLhrWU+IiVSHiMB8IjNCyER8RwEh6TQzXhETFtEh4R0yHhERGrlfAYDcIjYngJj59Zy+lVi8m0q1iJhMd4IDxCw0J4RAwn4TE5EB4Rw0t4REyHhEdErFbCYzQIj4jhJTxmXN402hsK41C35dsHxGISHuOB8AgNC+ERMZyEx+RAeEQML+ERMR0SHhGxWgmP0SA8IoaX8NgyU6zmy6hHjCLhMR4Ij9CwEB4Rw0l4TA6ER8TwEh4R0yHhERGrlfAYDcIjYngJjy072tHZWqMeh40ebwZdO9i8unRddtnc1Z+YafOXmylzF5c0eJ2w+m6vtY3z/sYl4TEeCI/QsBAeEcNJeEwOhEfE8BIeEdMh4RERq5XwGA3CI2J4CY8tc27HfNcuvM67L9WqqDbx73PNHQ+MMo88M93MWflxzuU/veZG85Wu3czLiz/ILntlyYem50l9TYeOnbzusFNHs/HGG5uhI8flbEtWcnv5Tn51vuk3YKDpc2b/kuYHzDkrNpjhf5psb7uUE6bNzrm9au5va0l4jAfCIzQshEfEcBIekwPhETG8hEfEdEh4RMRqJTxGg/CIGN60h8fWmGbVWevpVmcvX29OO3uAabvZ5uaoY3qYLbfa2hx3winm74tWZ9cJEwLz1bq6Tn6Iq9XtvbhghblnxNhsKPzFHffabX279+k5AVGRUbHRXU8RUjHSFynlSWecZdptu53dh+DtlbPY/W1NCY/xQHiEhoXwiBhOwmNyIDwihpfwiJgOCY+IWK2Ex2gQHhHDm/bwWOk0q/+a29esf6NvzrKPZvUxH887NWdZKWs93epdD46x79M0glDfT3ljifnifgeYa24bkl2nliMeK729co6Y8Kxps+mm5ujjjjczm9Z61wmjC4j54ZERj+AgPELDUsvwuOKfxqz79M01Yr2qn1Hfz24YCY/JgfCIGF7CI2I6JDwiYrUSHqNRbXjUezTEJOn7OQ5r2sOjpjz1RcFiTh3d3cyc8E0zecQxZvq4Hua5h481A87Yw9z8s4PNPdd1MYuf7+W9nk9N8erbp0rUSMAe3znZDLjkipzl194+1BzR7Rgb2/S9LwRWMsKvmtsr5aQZ8+x7zbPPv8Tstd+XzPmXX21HVvrWLTfV6s33Dje77blXQXh093fw0Pu953Z0co7HxofwCA1LrcMjQD1DeEwHhEfE8OogQVIhPCKGl/CIiNVKeIxGteFxTSuFGIBK+GiD/+c4rITHaOHxyfuPNtPG9jATHzjaDLvxK2btnD5m0I/2MTMeP878/vavtlp4LBYPH3riOdN5r31sSNP3pcLjkUd3905Z6rz+zmEF16nk9nxOm7/cDLziGvOfbduaC6+8zsZGjaTc/+AuZp8DDjL3j/tzQYAMu9/DRo/3Xq//hYO8wdI56qnnc67XmhIe44HwCA0L4RHSBOExHRAeEcNLeERMh4RHRKxWwmM0CI+QJgiP1RklPK5+5RQ7qlHBcfxvv54d8bhwygnmxUd7mKG/OLTVwqPOq3hgl8MKQuAjz0w3e+9/YMkQWG7koDMY4qq5vXx/PvgOO7WpRlA+Of31nMs01apGJu68W2c7DerTs/6RvcwFxCgjNWW5c0M6g6G1tSU8xgPhERoWwiOkCcJjOiA8IoaX8IiYDgmPiFithMdoEB4hTRAeqzNKeGyadqL58LXeZs3MU8xjw75mw6NCo0Y66vKo53iMY8TjLb9+MGf57x6dZN+7TZ3XZL/PD4ETps32RsZiavSgYmClt+dzzsqPzdzVn3gvC5q/XiXhUddRFA3r395cam/Xt62WlPAYD4RHaFgIj5AmCI/pgPCIGF7CI2I6JDwiYrUSHqNBeIQ0QXiszqhTrTqXvniiWfHSyTY06msFSIXJ9W/09a7vs5bhUX7vR+ebb518qh3BqO8V6TSdaHBZfghUSPSN9ivmDy+8zExfuKri28v3mtuG2JGMYT3kiK42Buq6LjxutNFGJQ3efjW315oSHuOB8AgNC+ER0gThMR0QHhHDS3hETIeER0SsVsJjNAiPkCYIj9VZaXishbUOj2Ofe8m032FHO0WozoeoqKjv7xs7MbtOsRComOgb8RdUU5QGr1PN7Tl9Iy5vvne42W3PvbznYHQjLn3bamQJj/FAeISGhfAIaYLwmA4Ij4jhJTwipkPCIyJWK+ExGoRHSBOEx+pc3jTaGwVbQt22b5+q8YHHnjLbd9jJjvT7whZbmtvvG5kzPWmxENjrtH6m7Wabe0f97bBTR3sORt+UppXeXim1rq4T9dyNYVVE3em/ds4ZFelT++67fmtIeIwHwiM0LIRHSBOEx3RAeEQML+ERMR0SHhGxWgmP0SA8QpogPFbn/FXLvFGwJdRt+/YpTkuFx2KhrZoQGFd4rGaKWJ2zUdOn5o/odE6aMc8cdOjhhMcUQHiEhoXwCGmC8JgOCI+I4SU8IqZDwiMiVivhMRqER0gThMfq1ZSnvjAYp7WeZjWsjRIefVO0ljLKFK3u9gmPjQ/hERoWwiOkCcJjOiA8IoaX8IiYDhs1PM5671+I2EISHqNBeIQ0QXis3qZlT3vjYJzGMc1qGEuFR990o0HrKTzGKeExPRAeoWEhPEKaIDymA8IjYngJj4jpsNHC48FfOcK023Y7RGxhfSONCY9+CI+QJgiPtbGlRz369qElVFSbNn95znkY47SS29O6us6rS9d5L49bd/tRYun/Z+9M4KUc9weOP+7F5eLKRbeQUkolW5aImzU7ESFrpBRZihBFJNmiRQptSptKJSVRSptWlURFadGqUlS33//8ns4zvfOeZ2be2TpzZr5fn69zZuadd7Z35pze73meN90SHtMD4RGyFsIj5BKEx9yA8IgYXMIjYm6YbeERETNHwqMbwiPkEoTH1KgjEF2BMB3qCEvXfUCMJOExPRAeIWshPEIuQXjMDQiPiMElPCLmhoRHREyXhEc3hEfIJQiPqXNPxMfff+3kvG3EaBIe0wPhEbIWwiPkEoTH3IDwiBhcwiNibkh4RMR0SXh0Q3iEXILwmFq3/PK8MximQl236zYRY0l4TA+ER8haCI+QSxAecwPCI2JwCY+IuSHhERHTJeHRDeERcgnCY+pNx/EedZ2u20IMIuExPRAeIWshPEIuQXjMDQiPiMElPCLmhoRHREyXhEc3hEfIJQiPqXfx+t9SOvJR16XrdN0WYhAJj+mB8AhZC+ERcgnCY25AeEQMLuERMTckPCJiuiQ8uiE8Qi5BeEyfeszHZEc/6jpc60aMR8JjeiA8QtZCeIRcgvCYGxAeEYNLeETMDQmPiJguCY9uCI+QSxAe0+/vv3aKO0BqcGSUI6ZKwmN6IDxC1kJ4hFyC8JgbEB4Rg0t4RMwNCY+ImC4Jj24Ij5BLEB73nEvXzjVBUadO1RBpY6R+1Tip6jKu6yImI+ExPRAeIWshPEIuQXjMDQiPiMElPCLmhoRHREyXhEc3hEfIJQiPiNkv4TE9EB4hayE8Qi5BeMwNCI+IwSU8IuaGhEdETJeERzeER8glCI+I2S/hMT0QHiFrITxCLkF4zA0Ij4jBJTwi5oaER0RMl4RHN4RHyCUIj4jZL+ExPRAeIWshPEIuQXjMDQiPiMElPCLmhoRHREyXhEc3hEfIJQiPiNkv4TE9EB4hayE8Qi5BeMwNCI+IwSU8IuaGhEdETJeERzeER8glCI+I2S/hMT0QHiFrITxCLkF4zA0Ij4jBJTwi5oaERyxMuw4YIU1btZU5q7Y6L3c57Zf10rh5Sxk7Z7HzcswcCY9uCI+QSxAeEbNfwmN6IDxC1kJ4hFyC8JgbEB4Rg0t4RMwNCY+YDuev2yHf/LhKJixY7tSGxsdatpEzq1WXmcs3mdMaE+vWbyw33VGvgHq+Xq7XL3dyZRn01bSw28TMk/DohvAIuQThETH7JTymB8IjZC2ER8glCI+5AeERMbiER8TckPCI6VDj4DH/KSl77bWX0859h5rlooXHq26sIwf942C56MprCY9FVMKjm2TD47I/EIuWru04qIRHxMyX8JgeCI+QtRAeIZcgPOYGhEfE4BIeEXNDwiOmWxshbWz06g+PXsfM+klKHn+C9Bk5Pux8wmPRkfDoJtnwiJhLEh4RM1/CY3ogPELWQniEXILwmBsQHhGDS3hEzA0Jj5huEw2PXQd+Knvvvbc0euLZsPO9oykPOOBAAmQGS3h0Q3hEDC7hETHzJTymB8IjZC2pDo/6IYSYqRIecwPCI2JwCY+IuSHhEdPtuPlL5d/HFJd27/Yyp4d8PSN03MaTTznNGR6/XbpBzq5eQy69+gY5ungJGfDF5NBljHgsOhIe3RAeEYNLeETMfHW/KqQewiNkLakMj4jZLOGx6EB4RAwu4THzvathE7ND/oMho52Xq8MmzpYTK1SUmtfXllkrNjuXScRvflwlp51dzajfu5ZJpfoY9bHqY3Zdnozpeo6KioRHTLd25OIVN9ws89dujxke9X14Te3bTHic+vM6ebzly3L4EcXk7V4DZf66HYTHIiTh0Q3hETG4hEfEzJfwmB4Ij5C1EB4Rg0l4LDoQHhGDS3jMfK+9pa6ZatA1faFVd8zrVISRpjK0Tl/2uzzxQjuzM/+AAw+SffbZR4qXPE5uvut++Wza9wWWt1Mdqvq9//JUq49RH6s+Ztfl1gUbdsqIyXNNoNTHUuK4UnLVjXXM9eet2ea8TtDnKFslPGI61dCowfHGO+41gd8fC/1TrfYa/qX8q9iRUuXMs81IST1P39dvvN/X/PHB+4NHER6LkIRHN4RHxOASHhEzX8JjeiA8QtZCeEQMJuGx6JDr4TGdI4biHf3UdcAIM9JBv7ouV9M5CmlPj9YqihIeM0cNZhMXrjQ7271edk0tE+Padu5e4DLdrnVkUJCoNujLqXLYv44w6zq+TFmpdfvdu0YiVTndnKcRssUrb5md//Y6ehuJhEeNED2Hj5X2PfpHteOHg2XqkrWh6wUJj/o5cf2td5rlXJY6sZx8OmVegesRHvPfOEUMwmPR8K2eA6Tk8SfImFk/SYPHnzajGHUaVXu5PzzqZX1GjjefX3YZv/r5dv7Fl5vfE1yXY+ZIeHRDeEQMLuERMfMlPKYHwiNkLYRHxGASHosOuR4eg44YUr+a94s89FQrqXx6VRMrL7riGnmlS8+IATDeCKE7GvW+6FfX5Wo6Y0Ci0SSXJDxmjva94I1osbTbdqz30ZTFa6RshUpmGZ0O0RsXVQ11OmrwkH8eKsO+mRM6P9H3kN4HvS+u++xVjwdnRzupsT6/NM5qLNVlKp56hnwycVbosehjrHPPA+YyjY/e9aqEx/w3ThGD8Jj59h01Qf556GHS8vVO5rQ9buMlV10f+sMCf3j0qqOtddS1fgbp7yKqjnTU0dk6Stu/PGaehEc3hEfE4BIeETNfwmN6IDxC1kJ4RAwm4bHokC3hMZ0jhnTn/cNPP2+Wc6mjonp8MqbA9eKNEKkKjxpFXI/db/8xk8Kul2g0ySUJj5mjvo/1/ezatiOpo4lnr9wS831kL9fpSP3R0fpIi9bm/drqjc6h8xJ9D+ltaAjU67gcOmGmHHn0MQXWG+vz66PRE2W//feXMidVcI5i1tu944GHzDoaPfFs2GWEx/w3ThGD8JjZdhs00ryv9P3mneZYw79Oo3prvYZmVGOk8NipzxD5x8GHSOPmLWXsd0vCPiNq1LxaSpcrX+CPCDDzJDy6ITwiBpfwiJj5Eh7TA+ERshbCI2IwCY9Fh2wJj7pzTnfS6Q70aMY7Ykh3zD/e8mWzjE6LpsdRslOd6UjHR5990Uy5qCOfBo+fHnZd3RnoihAaPjSA+KOIRg69Hf3qv0yjqsbVIDHABsxYajjxXi/S/cXdEh4zW31PjJr+g3Qf+rmMn78s4eMX6k78g/5xsJxX41LzfvVfrp8L9R5uat5Hb/caGDo/Xe8h/WOCfx52eIH7G+vzS6Oo673uVadv/L9995Xql9SUOau2hs4nPOa/cYoYhMfMVj+Txs5Z7PyDBj3P/n4RKTzqez3S+13/eEFHPurngutyzBwJj24Ij4jBJTwiZr6Ex/RAeISshfCIGEzCY9EhW8Kj7rBLx4ihL2YvMrFSRzUOn/SdcxmdLk3XccUNN5s4aM/X23FFCHu+XieodgdkkBig5+ttRFKPJ6Xr9I+s1Mtc9xd3S3jMTEd9u0BOOeOsAu8b/aMAHdHnnw451vtIY+OFl11p1qHTkepni71Mw8EL7buYdfunKE3Xe0j/UEHvy4117wk7P9bnl/0jBP973Wuk54LwmP/GKWIQHrPDSOFRf9/QP4Ia8vWMsHhpP5d02tVIv6tg5kh4dEN4RAwu4REx8yU8pgfCI2QthEfEYBIeiw65cozHREcMfTBktOy9995Rp1wcM+snKfbvo8wUZ5MXrQ6dHylC6IgGnfZQzwuqhg+9/VTEgNvvb2Qes3eklqq3k45okk0SHjNPHWmsI45NmLvjXhnwxWQTA/W9rcc11PP1+Gl6HDV7nSDvowk/rDDX0+ureky2w48oFjptd/6HXSdN7yH7nm33bq+w82N9fum0jHq5/48ivOpxanUZf9QkPOa/cYoYhMfsMFJ41N8fNDDqH1LpHz/oH0bp55L+nqJ/fNH3s6/DlsfMlPDohvCIGNzCDI8/bUTEIBIe0wPhEbIWwiNiMAmPRYdcCY+JjhiKdbkaKTakI0IkGwN05JfGFF2Hrst7WTrub7ZJeMwsNcZff+ud5j2qAc1/uY4Cspe//l6f0PlB30e6fh1NqdMt33RHPeODzVrIoC+nOqdxTcd7aOLClWZkpQYGHYHtvSzW55P+gYMe31EDRZuO7xf44wn9g4wSx5Uyl+s00t7LCI/5b5wiBuExO9T3nP2DI9flqk6NrJ8z+j63U7Ri0ZDw6IbwiBjcwgqPAACFDeERshbCI+5JNd5pFMpEf9vqvs9WwmPRQV9P12uYbSY6YsjufK98etWwEVNeP/x0nOy3//4m6HmndAwaIfSyux58xIxg0PuiI6s0lnw27fsCyyYbA+zIz5OrnC5Tf14XdlnQ+5vLEh4zS30P6HvBf+xWrzqyV99X3ulGUxHVNDxqFBz73RJzTEmdnjUd76EWr7xl7v+t9RoWiBD288urPi59fHYZHQFqR4SeVPEUefbVDuZzsOZ1N5ngqOdrWPWvm/CY/8YpYhAeETNfwqObZMPj79tENm9HLDq6tuOgEh4BIFchPELWQngs2v64MbP1399MjneEx+whF8JjMiOGvMd6a/TEswVGOel0jKefc565XI+9FHZZgAihU7naKKDBUY/PpF/19L777VdgOtRkY4CNGBpi/ZelI5pkm4THzFJH/FS/pKYJ/x+Nnuhcxh7n8MnWr4bOi/Q+mr7sd7noymvN+9Cvfn7YUOfXxr5Uv4dGz1goxY46ukBMtNrPr+IljwuNyKxbv7GMnbM4bDkdtXn+RZcVuN86XexbPQc4R1URHvPfOEUMwiNi5kt4dJOK8AhQVPiD8AgAkBCER8haCI9F20z+R94qR8gjPMKeIBfCY7IjhnRE03EnlDGX6Y76R1q0NtM23nzX/fL3Aw4w5+sO/wJRMkaEsFFBA+Ob3fuF7pt+7TZopAmSqh7Dzl7HxgB7bCcbRTRg2mUiaaddjBRpUh1NslHCY+Zpj1Goo/k+mTgr9D7S96Nepu+Xw/51hAyf9F3oOpGiml5Xw503OFr1faq3c+6FF5v3u44SbN+jvwz7Zo5M+2W9uX4q30M6wtoeY7LB408X+OxSY/3hhF87SlPvW6yYOGzibDmxQkWpeX3tsJHcuSLhERHTJeHRDeERcgnCIwBAYhAeIWtJJjxu+19mqgeHdt1fr4vy/nHkum4mGM8OFsJj6iA8Zg/ZHh5TNWJIRzbWuv3uAiOeDj+imAmb/uhorhMjQtiRWJGigg0q3tGJiYZHXb/ejq5Pj3M5f+32AsukMppkq4THzFPfew8//XzoPamBUN/z9rRGxx6fjAm7TqTwGE2Ne7o+/cxwXa6m6j2kj0k/i/T2ND5GmuY53vCIwSU8ImK6JDy6ITxCLkF4BABIDMIjZC3JhEfduZ+JBA2PmQrhsXAgPGYP2Rwe0zFiaP66HWbkoEYFO8opkrrcaWdXM+r3/sv1NnXE5MCxUwpcptrjMXrjSCLBRNXpFDVW+kd+eSU8xpbwmLl+Ne8XeeKFduaPCPQ9ff7Fl5uRxK7ReqkKj/aPB/wm8x7S+3tN7dvMenSktY64di2nxvP5Fe9jTvSzJlskPCJiuiQ8uiE8Qi5BeAQASAzCI2QthMfMg/CYt9zixdKsWTPzNV5GjBghbdu2la1b8+5AHBAes4dsDY9FYcTQngqPA76YbKZs1fCoAdK1jEp4jC3hMfN1BUK/qQqP+h7V6VatL7TvYt5rib6H9FiMOmWs3k6J40qZ9buWsxIe0yfhERHTJeHRDeERcgnCIwBAYhAeIWshPGYe2R4ed+7cKWvWrJHly5cX0MbCadOmSYkSJcxXP3r9BQsWSP/+/c3lO3bk/YvOQ5s2baR69eqyaVN8Tw7hMXvIxvCYrhFD8Ya5WMvb0VI6Vav/MlWPI6mXu6ZaDRoDuvQbZpbX9egx6VyjPq3xPr5clPCY+dpAqJHdHs9w1PQfpGPvj+XZVztI1wEjAr2P9Hy9XJfT5YMEzUTfQ7NXbjHvT3scSf1jCZ3e2bWs10TC4/FlypppnL3B1KV+Pv3fvvsSHosYhMfMcOqStdL3s6/DpjXvP2aSjJ+/LGw5l/oHB7H+6MCvfobo+l3TqPt13TfcsxIe3RAeIZcgPAIAJAbhEbIWwmPmka7wmOhIwESJFB41CGoYPOyww0xcVIsXL25GLg0dOtRcN1J43LZtm9SvX18OOuggufTSS+XQQw+VWrVqyYYNG/KXIDxC9oXHdI4YijcqxFpepzzVqU91hFTfURPCLvtk4ixz//fbf3/58NNxofODhkfdCdm4eUvz2FSNGjpNrGtZa7yPLxclPGaOGuTt9h2PjZ54NqHw6FrGr06/fN/DzYyxpmK26vvy1noNzX3T8Ni0VVvnMWNdJhIevc9FEAmPRQvCY+Gpf9gzZfEa8/Oz26CRUu2/l5jjTOvpOXm/6Ov71P7hgi774tvdzB8CFC9xrFQ+vaoM+XqGuUyjv+pdt/Wuhk2k4qlnmPelWvP62qHb1PXb96pGxZ7Dxxb4gwL9nUg/Cy664pqcfF9nioRHN4RHyCUIjwAAiUF4hKwlk8Lj7Nmz5fLLL5dVq1bln5MYqQyP69evN1N+zpgxI/+cYOj1WrZsmdBUoekKj64gt3nzZqldu3YoAEZy9OjR+dcITqzwaCOj4j8vUngcOHCglCtXLvS8rlixQipWrCidOnUypxXCI2RLeNwTI4ZsmNNQqFMq+nfo+Q0y7aI99qLeB90BWev2u+XkKqeHdvrrMeu8oxRjBRNdtscnY6Tk8SeY6+uyOnIy2khHq318hMfIEh4zx7bv9JCji5cIqe95nV7ZqmGy3bu9zHtRpxvW0Y826KUrPCaqHgNWg2O877tEwuMpZ5wViiHR1HCiU0FHe46yWcIjxqvGRX0fez+HrBoVveFx6ISZcsUNN5vfXfT0sG/mSM3rbjIzNkQLj951eNX3rEZIfW/r/dD3rB7nVtfj/b2E8JgZEh7dEB4hlyA8AgAkBuERspbCCo9r166VwYMHm+kyrRqMdORbly5dws4fO3asbN+e91tMQBIJj7p+vZ1ly5bln7MLnf6zZMmSYZEsWqyzgU6vV7ly5QLhLAiJhMe6dXdNl+ZXn1OLK8jZ4Ne9e/ewKU+tCxculLPOOivs8Qcl1eFRX6MbbrhBmjdvnn/OLjp37iw1atQwr4tCeIRsCI97asSQ7tjTKOf93AhirJA3YvJcqX5JzVCA1K9nnHu+mTbNHwxjBRN9PHvvvbdZj4aYcfOXFlgmkvbxER4jS3jMDjMtPCZqIuExaEiMd/lsk/CIiarTmJ5X41Iza0G9h5vK9GW/m/O90fCreb/IuRdebH7O69Snrd7oLNfVucOMVIwVHv956GGhP7jQ2KixUn9mVzrtTLn+1jtN5NT3rCs86lSv+t4mPBauhEc3hEfIJQiPAACJQXiErKWwwqOOWGvcuLHUq1cvpvFOD5pIeHTFMEXjmz88uo5ROHPmTDnmmGNCy+l5ezI8+rGPp1evXvnnRA+P/sdtiXV5NFIdHiPdl/Hjx8tJJ51knnOF8AjZEB7VPTFiyIa5I4/O+/yaMNOcjqYuo8umMuTFigEaXB96qpUZ9RhklKNXvY+Ex+gSHrPDIFFNz9fLddSfjv6z7+ug7omd+oTH9El4xET8YvYiqVHzahk7Z7H5Gfxatw/l7kaPmsu84VHVzwn9ea0jIl/t2js0+jFWeGzbuXvoc0aPYa1TtWvI1Mvse1W/XnjZlQU+u3Q0JOGx8CU8uiE8Qi5BeAQASAzCI2QthT3V6u+//y5vvPGGGbHmHTmop3v37i1btuTdwThJd3h04V+usMPjypUrzZSk3ilSi1p4PPDA3cdt0vP1OI5Vq1YtcF90WX2uCY9gyZbwmKiJhMegYS7e5YOYzhiQjvubbRIes8N4wqP92RqvkcJBKk0kPPrvZywJj0ULwmPhqlOZXlP7tlBE7DHsC6lzzwMmQtrwqCMgGzz+dGgaVo2AOnqx3MmV5YHHnooaHlu/1TV0PfXehx6XD4aMdoZHplrNXAmPbgiPkEsQHgEAEoPwCFlLYYZHDUMXX3yx3HTTTfLDDz/Itm27ftPQ0Y06gvDss8+Wm2++Oa5pVpVEwuPq1aulfPnyBaKWKzzaSObamWWXs9fT8zSgxRMg4w2POj2sTknbp08fefzxx80o0WuvvVbKlCkTNnVstPDYtGnTsOltrT179pSyZcsWeF6CkK4Rj95RnIrGVY2sGlsVwiMQHgmP1nTc32yT8JgdDps4W06sUDE0TaFrGZ3ysOfwsWE77eNRd/C71ptKNThosLirYRPn5V51BFbd+o3DokUQdSS5jpJyrTObJTxiImpgfO61jmaaVX1vVq12gYz6doG5zIZHXWbK4jXm56xOtW6DoX5m6GfHVTfWifqHC/746Hqvej+/Tj/nPDPlq/1cIjwWvoRHN4RHyCUIjwAAiUF4hKylMMOjTldaqVIladWqVSg6WvR4fbfffrsJaPFMs6okEh5/+uknOeqoo6R169b55+wiWnjUwBWJPTniUSPtNddcY4JjixYtTIA85ZRTpGHDhvLSSy+FhVF/kNPnVqey9U5t63LGjBn51whOqsOj0qhRo7AYrdPeajT1nkd4BMJj/OHR+zkRRMJj9kh4zAxPrXoOFpKu1yMbJTxiMnrjnh6HesavG0Ph0S6jEXDg2Clxh8dpv6w3P6O96tTuej3X7wX2dvV6eozHXsO/JDwWsoRHN4RHyCUIjwAAiUF4hKylsKda/fHHH+XOO++Ugw46SA477DATm+z39957r6xYsSJ/yeAkEh6HDBkie++9t1x++eVh07t6Ry6qGrW84XH9+vVmGXXJkiUmnI0ZM2aPhkc/48aNk6OPPrrAbSca5BIlVnj0jrL0j6yMFB6nT59uAnHXrl1NrB4xYoQ5PWrUqPwlCI9Q9MPjF7MXySMtWidsrdvuloMP+aecdta5zsu9Nmz6jJxx7vlS8dQz4lKvo9d1rTNedcTSEUf+W8pWqCiNnnzWuUyi1n+0uRQveaxRv7fn605T13OfixIeM8ND/nloWNzHPaN+9rhej2yU8IjxOnnRavNHQTrSUUdUFy9xrPleI5+OUvSHR42L3tNWDZCq/3yrjnDW9XotdtTRcnb1GqGY2PL1TmGXVz69qhkV+eSLr8l7H39GeCxkCY9uCI+QSxAeAQASg/AIWUthh0cvGpm8x+pLlHjDo4bGK6+8Upo3b25GCmqEtNjw6BqdZ3da7bPPPlK8eHETynTk4dtvvy1Lly4tlPC4cOFCM+3oyy+/bEYDevEHOY12rtGNkWzWrJkJrUGJFB51NGvt2rXN8+XXHpMyUnhUNOwec8wx5rk/5JBDpG/fvmGPlfAI2RAe7ecLpkfC424Jj5nhl3N/xkLS9Xpko4RHTLWu8Ni2c/cCoxdVHZ3ova5X/3rilalWC1/CoxvCI+QShEcAgMQgPELWUhjh0R/ugli3bt38a8cm3vDYqVMnczzEX375xXyv4U5HLyqu8BgEDXQtW7aUxYsX558TnETD45QpU0ys00jon7pW8Qe5efPmhUYc6ujDQw89VLp06RI6r06dOmYUoo5G1NMaKr2jQWMRKTwGIVp4jAXhEbIhPOrxlDB9Eh53S3hEzA0Jj5hqdaSiHpfVnu46YESB4zRadYSk97peXSMeVR1lqcevdV3Hqy6jtxHp+LaYfgmPbgiPkEsQHgEAEoPwCFlLJo14TBVBw6OOktPRcgceeKAMGDDAXFeDnYY7jY+zZs2KGh5jjRhs3LjxHgmPv//+uzz33HOy3377mYDoio5KtCCnj08fp3e0aaIBz0J4hMKiqIdHxD0p4RExNyQ8ImK6JDy6ITxCLkF4BABIDMIjZC2FGR41Kmn0c41wtOrl8canoOFx7NixcuSRR0r37t3DpurUqUDvuusu6dChgyxbtixieNTA5R0R6FVHDpYqVSqhcBZveNS4WatWLfnqq68KTK/qhfAYHcJj9kB4RAwu4RExNyQ8ImK6JDy6ITxCLkF4BABIDMIjZC2FHR6jHdMx0fgUz4hHjYzRiDbiMVrg0usVxjEeo1GUwqOO2ly1alXE0ZvR0Pu7Zs2aqBHWBeExeyA8IgaX8IiYGxIeETFdEh7dEB4hlyA8AgAkBuERspZcDo9BIDwWTngsDAiP2QPhETG4hEfE3JDwiIjpkvDohvAIuQThEQAgMQiPkLXk8lSrQYgVHl332ZrIfVfSFR6jjQTcunWrGWG4Y0fev47ySXTkoIXwCIUF4RExuIRHxNyQ8IiI6ZLw6IbwCLkE4REAIDEIj5C1FGZ4TBepDI8a4jTIaZjbU6yOEcC8ZvI/8giPUFgQHhGDS3hEzA0Jj4iYLgmPbgiPkEsQHgEAEoPwCFkL4THzIDwWDoTH7IHwiBhcwiNibkh4RMR0SXh0Q3iEXILwCACQGIRHyFoIj5kH4bFwIDxmD4RHxOASHhFzQ8IjIqZLwqMbwiPkEoRHAIDEIDxC1kJ4zDwIj4UD4TF7IDwiBpfwiJgbEh4RMV0SHt0QHiGXIDwCACQG4RGyFsJj5pHr4XH9+vUhmzVrJjNmzMi/JBgjRoyQtm3bxn1czj6DR0jTVm1lTt4d99/voPcdMgPCI2JwCY+IuSHhERHTJeHRTbLhcdFGxKKlazsOKuERAHIVwiNkLYTHzCPXw2PdunWNy5cvl5IlS8rQoUPzL9nFzp07ZcGCBdK/f3+ZNm2a7NiR9y86D23atJHq1avLpk27bkwvX7VqlVmfSw2cyjMvtJEzq1WXmcs3FbjfQe87ZAaER8TgEh4Rc0PCIyKmS8Kjm2TDI2IuSXgEgFyF8AhZC+Ex8yiM8KijA3WUoI4WjIdooxIjhcfRo0dLiRIlClitWjUTCKOFx23btkn9+vXloIMOkksvvVQOPfRQqVWrlmzYsCF/iYLh0a5nr732cqq3pRAeswfCI2JwCY+IuSHhERHTJeHRDeERMbiERwDIVQiPkLUQHpNjy5YtMmrUKFm7dm3+ObtYvHixCXL6NV76xpjy02uQf+TpCME1a9ZEnXpUI53GOo12lmgjBe0oQf3eNSpRiRQe9X6MHDlSTjrpJJk5c6Z0795dzjrrLFm0aJG5zWjhceDAgVKuXLnQ87pixQqpWLGidOrUyZxW/OHRi+txWgiP2QPhETG4hEfE3JDwiIjpkvDohvCIGFzCIwDkKoRHyFoIjyJdu3aVevXqRTXSSECNY5UrVzZTfnrR0zqKz39+EGIFMK9B/pFnY5srDlpcQU4f27HHHivFihUrMDqxSZMmoWXiDY+KPi/6vOn19breUBgpPG7fvl1uuOEGad68uTlt6dy5s9SoUUM2b95sThMegfCIGFzCI2JuSHhExHRJeHRDeEQMLuERAHIVwiNkLYRHkUmTJpnjBbrs2bOnlC1bNixUzZs3L3R5ly5dpHjx4uZye56uL1J41KDmmu7TG8oyKTy6oqqXVIbHyZMnm+fvvPPOc4bHSI9j/PjxZvSkLq9EC48bN240U7q2bt06/5zdEB6zB/1s0vc4Isa2qIdH12NCxIISHhExXRIe3RAeEYNLeASAXIXwCFkL4TE6riCn03r6RwB61dGAkcKjC41gGtosuRoeX375ZfOc7bfffs7wqMdxrFq1aoHb8q5LiRYeNRoffvjh5viQOk2uF8IjAAAAQGah4fHHjYiYyRIe3RAeEYNLeASAXIXwCFkL4TE6riDnZdu2bbJy5coCx08MGh7t9KHe9WdSeNSRhHqeHc2pDh48OHRMy1SGRxsKNTpGG/HYq1cvc9oyevRoc9xHfR2UaOFRL9MRj3rb48aNyz93F4RHAAAAAAAASAWER8TgEh4BIFchPELWQniMTqRot2PHDnnzzTflb3/7mxx22GGyzz77yD333BM6zmDQ8Lho0SIzlatOF2rJpPBYunRpufbaa8OOd9m4cWNZvHhxaJk9FR6VRo0ayc0332yCrbJz505p2rRp2HmRwuN3331nXpNRo0aZUasaK5csWZJ/KeERAAAAAAAAUgPhETG4hEcAyFUIj5C1EB6js3Tp0gJhUOnTp4+ccMIJMmvWLHNaRwBeeOGF8tBDD5kYpmHt4IMPlmLFipnYpaPy/OhyTz/9dIFIlknhUeNgtHiaSHjU2xo5cqQZTanPi4ZDfY5btmwpM2bMiBoep0+fLkcddZR07drVjDYdMWKEOa0x0eIKj/o6nn766VK/fn0TKHWa1dtvv92cZyMq4REAAAAAAABSAeERMbiERwDIVQiPkLXkcnjU6KVRMJoaDvfee2/ztWLFijJ79mxzGxrG9NiMXgYOHGhC1rp160ysK168uAlsGtD8U7EqkydPLhDNlGwPj/5jZF5zzTVmJKUe43HZsmVRw6MyZswYOeaYY2SvvfaSQw45RPr27WsirsUfHr/88ks59NBDpVatWuY4kRYdnXrnnXeax7hixQrCIwAAAAAAAKQEwiNicAmPAJCrEB4ha8nl8KgxUOOWXw1UOhLRf74eQ1BH2SlBwqNGtUjRTkf2HXvssSa2eaOZkq7wqCML9RiNLVq0MKGvRo0aJqief/75Jvi5wqPGVhtPrWPHjjXHWdQAqKfjDY+xiBUeY+EPj/qaffXVV6HXzos+93/99Zf5nvAIAAAAAAAAqYDwiBhcwiMA5CqER8hamGq1IBq9vAHOhUZGPf7hzJkzzWmdyvO8884zwdJOteoKj3psyN69e8tBBx0kjz76qDOGpTo8amBt27Zt2HEaNT5qhJwzZ4653DXicdWqVVKtWrWw0YmqjhC877775IsvvigS4TEohEcAAAAAAABIBYRHxOASHgEgVyE8QtZCeCxIkPCoAfGtt96SAw44wEz5qTZq1MhM36m4wqOGPI2TBx54oDlGpH+koyXV4TEIrvAYhHSEx0mTJhkJjwAAAAAAAFAUITwiBpfwCAC5CuERshbCY0GChEeLxsO1a9cWGLnoCo+6zIABA2TNmjX557jJ9fBo0birsdZ1fMxo6GPR5zhS2I3E4tWbZMriNbJgw84C9zve+w4AAAAAAAC5C+ERMbiERwDIVQiPkLUQHgsST3iMhCs8BiXbw6Pe50zVf3+9Eh4BAAAAAAAgCIRHxOASHgEgVyE8QtZCeCxILoZHHR2oowTjnZ402qhEV3gsyhIeAQAAAAAAIAiER8TgEh4BIFchPELWQngsyPr16+MOcH50WlUNcv4pWIOwJMaUn15/3JjZuu5zUZXwCAAAAAAAAEEgPCIGl/AIALkK4RGylmTC4y+bM1fX/fWq4dF1vUzRdZ+xcCU8AgAAAAAAQBAIj4jBJTwCQK5CeISsJZnwiJhLEh4BAAAAAAAgCIRHxOASHgEgVyE8QtZCeEQMJuERAAAAAAAAgkB4RAwu4REAchXCI2QthEfEYBIeAQAAAAAAIAiER8TgEh4BIFchPELWQnhEDCbhEQAAAAAAAIJAeEQMLuERAHIVwiNkLYRHxGASHgEAAAAAACAIhEfE4BIeASBXITxC1kJ4RAwm4REAAAAAAACCQHhEDC7hEQByFcIjZC2ER8RgEh4BAAAAAAAgCIRHxOASHgEgVyE8QtZCeEQMJuERAAAAAAAAgkB4RAwu4REAchXCI2Qt2/6HiEEFAAAAAAAAiAXhETG4hEcAyFUIjwAAAAAAAAAAABATwiNicAmPAJCrEB4BAAAAAAAAAAAgJoRHxOASHgEgVyE8AgAAAAAAAAAAQEwIj4jBJTwCQK5CeAQAAAAAAAAAAICYEB4Rg0t4BIBchfAIAAAAAAAAAAAAMSE8IgaX8AgAuQrhEQAAAAAAAAAAAGJCeEQMLuERAHIVwiMAAAAAAAAAAADEhPCIGFzCIwDkKoRHAAAAAAAAAAAAiAnhETG4hEcAyFUIjwAAAAAAAAAAABATwiNicAmPAJCrEB4BAAAAAAAAAAAgJoRHxOASHgEgVyE8AgAAAAAAAAAAQEwIj4jBJTwCQK5CeAQAAAAAAAAAAICYEB4Rg0t4BIBchfAIAAAAAAAAAAAAMSE8IgaX8AgAuQrhEQAAAAAAAAAAAGJCeEQMLuERAHIVwiMAAAAAAAAAAADEhPCIGFzCIwDkKoRHAAAAAAAAAAAAiAnhETG4hEcAyFUIjwAAAAAAAAAAABATwiNicAmPAJCrEB4BAAAAAAAAAAAgJoRHxOASHgEgVyE8AgAAAAAAAAAAQEwIj4jBJTwCQK5CeAQAAAAAAAAAAICYEB4Rg0t4BIBchfAIAAAAAAAAAAAAMSE8IgaX8AgAuQrhEQAAAAAAAAAAAGJCeEQMLuERAHIVwiMAAAAAAAAAAADEhPCIGFzCIwDkKoRHAAAAAAAAAAAAiAnhETG4hEcAyFUIjwAAAAAAAAAAABATwiNicAmPAJCrEB4BAAAAAAAAAAAgJv/biYjxCACQixAeAQAAAAAAAAAAAAAAACBpCI8AAAAAAAAAAAAAAAAAkDSERwAAAAAAAAAAAAAAAABIGsIjAAAAAAAAAAAAAAAAACQN4REAAAAAAAAAAAAAAAAAkobwCAAAAAAAAAAAAAAAAABJQ3gEAAAAAAAAAAAAAAAAgKQhPAIAAAAAAAAAAAAAAABA0hAeAQAAAAAAAAAAAAAAACBpCI8AAAAAAAAAAAAAAAAAkDSERwAAAAAAAACAHGbSpEnSv39/WbZsmTm9adMmqV69uhx44IEybdo0c16q0PXpenX9ejsQm+XLl0vJkiXT8noAAAAApBrCIwAAAAAAAABADlO3bl3Za6+9ZOjQoeZ0YYdHu4zep0S0jyNetm/fLmPHjg2LsEHYsmWLjBgxQgYPHixr167NPzd1EB4BAACgKEF4BAAAAAAAAADIYZINj3b5INEvSHhcvHixNG7cWOrVqxeXxx13XFLhMZ7H4SVIGJwxY4bzPrvUZb0QHgEAAKAoQXgEAAAAAAAAAMgiNJppPItmmzZt8pfOvPCYKP7HES/pDI9BXhOr/7YJjwAAAFCUIDwCAAAAAAAAAGQR0UbXuUYFEh53kc7wuHXrVrNcJBcuXChnnXWW7L333jJ69Oj8a+1CLyc8AgAAQFGB8AgAAAAAAAAAkAPoMQxvuOEGE9b0mISWbAiPmzdvlho1aqQsPHbv3r1AHIzkzJkz5ZhjjkkqDK5evVrKly8vBx98sFmfF70NwiMAAAAUFQiPAAAAAAAAAAA5gI1bhx9+uMybNy//3OwIjxs3bpRq1arJvvvuK+PHj88/Nz68jyMRkwmDGhs1Ourro6+TF8IjAAAAFCUIjwAAAAAAAAAAOYCNfqeffrqsW7d730+y4XHlypVSqlSpsHVEIl3hcenSpVK8ePECUTUevOGxadOm0r9//0B26dJFDj300KTCYK9evczt6ohUHZnqhfAIAAAARQnCIwAAAAAAAABADvDWW2+ZuNWwYUPZuXNn/rnJh0cNfRr8dB3NmzfPP9dNtPA4adIkZ9gLYps2bcxoR53y9L333jPnDR48WNauXZu/9th4w2OsgOol2TC4ZcsWufTSS83taoD0Q3gEAACAogThEQAAAAAAAAAgy9mwYYNUrVrVxC2Na/Xq1Qt53HHHJRUe7Wg9u25/UPQSLTzaAJoq4w11hRUeJ06cKPvvv78Zsblo0aL8c3dDeAQAAICiBOERAAAAACAO1q9fL6tWrZIdO3bkn5MYW7duNTsS9SsAhDNixAhp3LixLF68OP+cxOnatWvK1rUn0MeuIWjGjBn55ySHfsa0bdvWyOdNbtOzZ88CYc5vIuHRjtbbe++9Zb/99jMBTUNaJKKFR/0Zqz8bU6VOAbtt27b8tcemMMKjPn9XXnmluc1nn302/9xwklk/AAAAwJ6G8AgAAAAAEAWNFs2aNTM7QxUdjaE7/3QnYDLoDs1IOzb12E5jx44tMI1cNHV5/zGhoqE7OjVwuNYVSZ0Cz4UNG97RM7EkgoAXnSLRu0PdfzoZ9D0baV2bN2+W2rVrS4kSJQJbrVo188cHQdDgoeHDRpBIeuOIPvag0UOnkNSpJCO9NxUbUlyRB3IHPf5huXLlzLalAdJPMlOtjhs3zsRGHU3ZoUMHs54bb7wxYvDT9el6M3Gb9IbHPXWMx3bt2pnbK126tPzyyy/554ajnxOERwAAACgqEB4BAGCPYHfsVaxYUWbPnp1/bmpo0qSJ2RE4evTo/HMKBx1JoSMqou1MT+fzoGTKcxGLVD8P+nzrDhm780p3COuO4Xh2DhcmReV1y1X8oTFIeNRIqbFSo2UkooVH747PoMa7A9fuxHStK5L62F3EE290Grl99tknI3c4Q+qxn88u/bHNu0M9aHgMsly08BhvNNfpKOP5wwO9Tb1t1/vJq/+x63lBwqNdf6T3pmI/T3jP5S76PtPtV7crHVmnf3jiR7ch73Znt5tY7y/vaD09fqT+3lWhQgXzOT9gwID8pcKx2220bXLZsmXOwBdUPeZkItjHrY8nEWM9X370dz8NltGeL0U/cwiPAAAAUFQgPAIAwB4hyM4L3UHv38Hn1zVVmn9HiYtERvZYg+64CLITJehOnEQJ8lxkAql+HvTx6uPWnbWK3TkTz87hwqSovG7ZhkZvjd+uOOaN1vr6eLcl/2kXdhvUZSNht9tkX3f7for22eMiyH20xLNsLBK9v1A0sdu5S+/PgMIKj/ES5P3vxT/iceHChXLWWWcZ9Xt7fqIjHvUx6WOL9t7kPZfb6Hal03fqNlWmTBlZsmRJ/iXh6Dbk3e7sdhPtvbNz5055+eWXzfU0Ntqfm3379jXTrmpQmzx5sjnPi91uo22T0T47gmh/J4yXaDMO6EjRsmXLyr777mvW71pGRyDrSOQg2Oio91efR30+I6GfE/rZk6rPMgAAAIB0QngEAICkCbLzIMjOC7vDI5qu6/t3lLiw/1j3ry+IQXdcpOp5sNOmuXZmeNWQ6v+L9SDPRaqxI7tcodird+RXkOch1jF+vKNK7c4p+1rp5fp6R9o5rMfNct3HIEYa0ao7j1wBy6+ObvRTGK8b7B6l7H+N/SOa9PWJdtqF3QZ12UjY7TbZ133dunVy+umnR/3scRHkPlpiLRvP1LB2x2289xeKJpFGLZ133nlh7yP9/Pb+TPCfjkSQ5XS7DbKuWGgUqFOnTsz3fzQ2btxo/rChfPnysnr16vxzw9HHFPSzQR+TPraaNWuGfjb5fy7feeedcsQRR/Cey0H090T9vUO3p0gR0KLvE+92F+R3NR2hpyP1/KP1vCMsS5UqVeCP+Ox2G22bjDZaOpq1atUyt2t/J0wlQZ6TIOhnSffu3c3xMPW+6nNl//AgEvrY9LMnFZ9lAAAAAOmG8AgAAEkTZOdBsv9Qj3Z9/44SFzt27DB/he3fORHNp59+OuKOCz2Wkn8nqi6nfwGtO9R1x7r3MvvXz0GeB/t86m1HU3dc6g5ML0Gei1Sjz5XuCPHfP7/eYBHkebCPJZLex6jf63n2tbL3KdLOYbt8IkbazmOFx8MOO8xc3/s8WArjdQM3GtBuuOEGE/I06Cn6+ni3Jf9pF3YbdL3eFrsdJvu629vSIBJttISfIPfREmtZ+56275MgRnovQfajQUFDmfd9pp/f3p8J/tORCLKcbrdB1hULu53Hev9H46effpKjjjrKRKA5c+bknxuOPiZ9j1x88cUmSLhme7D06tXLLKtTGC9atMicZ9+v3vebynsut9BjOtaoUcO89rq9xZrOXd8nuqz9mWS3d9d7R3+vfuONN0xw1Os0bNiwwDGGN2zYELp9XUfv3r3N9RRdn56Xjm3SPg77O2EqifacBEVfl+uuu87cR/XRRx+NGR0V+75OxWcZAAAAQLohPAIAQNIE2XmQ7D/Uo13fv6MkVdgdf64dF/Y2g2rvd5DnQXc+eKdl8zty5Eg54IADnM93up6LZLBxpXnz5vnnBNse9LFEm8pKR9FY7G3Y10qfJ905k8zOYT96P/X+up73INj7qI/LTya+brmKjkDSkUgaH+1OVH19vNuS/7QL3bGoISBaDLTbRLKvuw0Z99xzT/45wbDvEx155nqPee3SpYvZce3afhX7nk70/QG5hX5+H3vssWHvM/389v5M8J+ORKNGjcz7SGcBiIRut0HWFQv7+ZDMdq7HwNP7q+ofOLk+H/Sx22XUSPfdvu9s/HnxxRed6+P9mXto1D788MPNdlGuXLlAhw3w/y5itxv/9vfHH3/ItddeG9o+69evHzGc6R/dXXLJJWY5HfloA7quT9cbbZuM9ftwJDN1xKMeC/mll14KjXLUrzrqMegfDOlj05/ZqfgsAwAAAEg3hEcAAEiaIDsPgvxDXZfx7zyw2mMiua5vd5ToP97t8pHuRzzYHX+uHRexpgH1a4/dlMwOC4v+xboeN8cVNPw7jTIB+zy++uqr+ecE2x7i2VFsA459rfQ5150zseJQPOj90PsTbTuPhr2P+rj8ZOLrlquMHz8+FLwt+vp4tyX/aRdTpkwxfyDgGplssduE93VPZHR2v379zGeCRgw9rde3o0qiocvq49D7EFTX9qvY97T/uHXR9B7TDnKLTz/91GyznTt3zj8nsfBoR07qtuldlx/dbv3rCjqtudf27dub9XhjvfePYGKh0UXjy6WXXio333xzxKkv7c/NaD8T9Oe/HhNOn0cdeXbjjTcWmO7SYt+fif78gqKHfrZqEHzwwQfl999/zz83Ov7fRaL9rjZq1Cg55JBD5M0334z580Yv/+ijj8L+OCDI71R2GfvzJ169P8dTRbTnJBYzZ840Ux7rfdMRj/oHSvGgPzf1Z3Yitw0AAACwpyE8AgBA0gTZeRDkH+p2R1s0Xde3O0q8pmJng70/qdxxkcwOC4sGvEj3y7/TKBPQUVh6n7w7nII8D64dxZGwAcc+J3bnTKw4FA96P/T+eI+jFQ/2Purj8pOJr1suojvydbq4//u//5PWrVuHwoL/WHT6esXatjSC6GsabTpFu014X3e77er5iZrsdq/vo3g/o+x72nV/IpnM5yAUXXSEo0Y33QZ0Cmo7HfVBBx0Utk0E2Q51alEdWazr8o6e9OP6eaLf63nebTIRg35ur1ixwnyW6G3qdO1LliyRMmXKmBAxZsyY/KV2oY892rr1s6pv374mNOpUljqlpV2fjqLq1q1bWAyy709Vvwdw4f9dJNrvaroN/vXXX/mn4se+/6Jtk3YZ1yEMghhklKeXSMd99mqPl6rBX0d9upbx6j2+uTJo0CDz/vf/4WAQ7O8HrtcDAAAAINMgPAIAQNJoUNIdFd5jNfmJtvPCYne06Ug+1w4E1R4r0YvdUdK0adPQcvHubHCh4UHXq8dPisaWLVvMaMuKFSuanYC6009HOQ0bNqzAX4EHeR6iYUd36IgsHZnlJ5MClu5U0SkgTznlFDPdl/c1CfI8uHYUR0Ifrz7udIZHu53r/UoEex9d18+k1y2X0ZF6Rx99tHkt/Hq3JX29om1b+pmgI5p0+9XPBLtd+rHbhPd118+MeEc8+g064jESQYKPH32/r1mzpsB90c9GfYzeEelWRjzmJuPGjZP999/fhEbvcXATCY86bakGgEqVKkWN/PH8PEk1+l7U0WH6GPXzQO+zjQ5Tp04NjYDSoGFHQNnfh1w/E/S9o0FDL9fQqMHRop9hFSpUMJfp1++//96cb3/mRos8AP7fRZL9nTUauj5db7RtMsgyqcTenj4HqdL1O1+i6Huf8AgAAABFBcIjAAAkjd1B5o9LXoLsvLDr0a/xkK5oE2S9dgSDLqfBUXcsesOF/7g3ye7E0Z2qunNVjzGlx5ryk67nIhL2r8OrVq0a2nlsj13j1b/TKMjzoI8l0jEedWo7DYH2L8ovvvhiczt227E7Z1IZHvU51duItBMp1l/K2/vouv6eft2gIPo+1R3/GkQ0jHjR1yee8KiRQQODToN45ZVXhh3Xyovdpvb06x5rWz3ttNNijuZo27ZtoJG/hfUYITPRkXn6M1N/jk2fPj3/3F3o57f3Z4L/tB8N7BrX9OeP/iGOrlPfw66Yre/ZRH/uJkvHjh3Ne0Cnpfzkk08KjHTS2KjTpOpxWr/77jtznj521/tGH5u+//QynapRfwfxo3/4oO9PPfalfS7sz1z/z2IAL/7fRZL9nTUauj5db7RtMsgyuQThEQAAAIoShEcAAEgKO7JHd1So+pf8LuzOC7ucVXdyWOyONhuPIqE70jQ82WPW+HeUpILNmzeb6cui/eNe74fuLNTbvv/++81zYdEdiTZItmvXLv/c8OehWLFioVjXpEmT/CUiozsrH3roIXPdZ599Nv/ccNLxXERDRyxpVNHb1NCiU97plFh6PzS66vd6mX+7CLI92MfiUh+f3V682m0nkfCoEUV31mqQiRaJvPfRi91B5r9Pfl3Xt491T71uEI6+tzQS6mugx0n0hwF9fYKGRx31d8YZZ0jp0qXll19+CY3u0ljgDyJ2m3K97hpVdOS0/YwIYu3atc1nVyxmz55tRmi71hFUe1ux7qdOpamP0Tulpl+9vq4HshtvNPP+XLTo57f3Z67/tBd9j+p7VdfVqVOn0M9HDeY6Bakffc9GWpf9eaHrCmq03w386M87PTZzrPemN+Tbn2+uzwb9oyN9D/s/p6Kht63v2aCfEZCb6O+i+pms26tif1eLZ3sPiq5P1xstKtpl/O+/oMbzO2BRwH5WpeP1AAAAAEg1hEcAAEiKiRMnmp3qlStXNiFNRx7oiAY/dueFfxSN99gndkebjraxl19zzTWhndMatTRu2R0KdodcOqKNhkO9PdVOfebH7hDRyKCxwY+dttE7OtEb3OINjzZg2KDhIt7nwnt//AZZh+74jLQTU0du6BRy+hzqcbi8BNke9LEccMABMnLkSLOzxat/pJXeV73PyYRHe58i7dCxx+yzt+EnyE60SKRjG4Zg6DSINjraY6X50dfHuy35T1u8YUVjiGKDiJ6nfzDgjY92u3W97vqHDDqq1z/a16Ue+0ojfyLbXrKsX79emjVrFnoPJ6JeX9cD2Yv+nLjtttvM9q6vuT/CK/7Q6D9t0ffU+++/b34f0JHkdpvXn9XlypUzo+779esXFub0PRvpsz2e95pqj9PoWldhoc+nTtuqn2Xe95aenjx5cqDRyQB+Yv1elAy6Pl1vtJ9byf6RTLb9UYv93TbTPn8AAAAAXBAeAQAgYbZv3y733HOPiUeffvqpNGzYMGyHu5cgOy9sePRrpzBVNUTq9GF63EV7XKNo0SbSOhPRf99tNNBjQbrQHX16PEbv9RLdiaOPVY/lpLfnen4t8QYsOwrCu6PGav/iPRF0J6gdDeoaQRbkeYi2o9iPfS1sFExHeLTH/Hz11VfzzwlHr6PXjbYTLRLxvm6QGnTUtH3uL7vsMmd0VHSZWOFRjz17/fXXm3X5w4quV9evl+n0iPaPGex2m+zrbrfdeLc9vc963FxXXInkpEmT8q8NEIwFCxaYY/3qtu6fHcBLkPCo123ZsqVZl//4hor3mIkPPvhg2MwIQX+exCLRddmfEXrfghrrs0H/cEJnFNA/0tHlvb8vqXbqc/2qI/pdwRcAAAAAACDVEB4BACBhhgwZYkYc2FGOdoSbHmdJ/8LeS5DQlCg2HLh20HmPAxjJ4447zlxfR064Lrf6p+C00SDd4VGfWx2Jpbel9yPajsNoz8WeQiOjHUEWaTRokOchnp279rVIV3jUx1SnTp2oz61eR68bb/xRMuF1yzX++OMPueKKK+1f+OYAAP/0SURBVMzzriOOI8UQRV+faOFRX+/zzz/frKtWrVrOgKmRX48/p8ctHTBggDnPbreu131PjHi026zeh6DqY3dh33Ou60QynvcnFE3WrVsnF110kQlfb775pgllkQgSHnUduu3oFN+RjiltQ6d3BHO0nyfxjtrV3xkirSsa8YT+WD9vLPqHSLqc/q4xd+7cAn/ko+iMA1dffbVZzjXFLQAAAAAAQKohPAIAQELoNKI62kDD46hRo8x53uDkH4kQJDQliu401J3XiU4llmj00cehj0ePcemKFrqzT6cZdU21GvR50JFRp59+url/kaaB9JLoY0kVug3ojk29D64AbQnyPETbUezHBpx0hceNGzeaKbui3R89Xy+PN/4ohf265SorVqwwI6RcO+u96Ovj3Zb8pxVdz8CBA6OGFb0dPS6qvT273bped7sN22OnekcxRTKdx2+z90cfu4tEQmk8708oumgI/PHHH/NPRSZIeNQ/vNFwb0cyRkKX++uvv/JPRf95Yrdt/2jBaOr0jzoNZLrQxx7rZ4K+1/X3gmOPPdYc9zoa+gdAVapUMb9PaAwGAAAAAABIJ4RHAACIGx1loKMNdKeYHrvMu9Ned/bpiAC9THfOTZkyxZwfT3DTKT79O/mCmOjUoIlGH93RfuWVV5rrvvjii2HBQXeK2hEL3qlGgz4PurwGXTtl3CWXXGJGS8Qi0ceSCvT50JFjevsaHaO9HsmERw3NGmQ/++wzE3sUG3DSFR5tVOnTp0/EY9HpdfS6/vCo24UeY0jvx5w5c0x40UB/0003yRdffGGWKczXDWKjr493W/KfThS73bped7sN+7enwsLeH33syWLfa6l4DiF7CBIeEyXSzxMlldt2qiA8AgAAAABAUYbwCAAAgdGA0rFjx9Axg/T4jq6RfjoqT6cb1GWOPvpo+eGHHwKFJovdGR909IG9P4lGG93ZmOj1vcde1NimMUmPQ2nvk/+4cUGeB41qehw4vb7aoEGDwKOYknksyaBTvOm0qnrbGksnTpyYf4mbIM+DfSzRtNPc2m0mXeExCHodva7/Pkbzgw8+MNctrNcNgqGvj3db8p9OFLvdul53uw3rNqnbZmFj748+9mSx77VUPIeQPRAedxMkPCp2qlWd6tk11aqe1hkqmGoVAAAAAAD2JIRHAACIC506U8PSY4895oyOFh35+Prrr4d2msUTdezO+KA7AXW5IDvoIpHs9XV0Y9OmTU141PWoOgKhW7duBZ6jWM+DjlqwIVOfZx316N+RGI1kH0u86FSV9913X+hx6+gLDaexCLI9dO3atcCxtdTHH3/cjDzUbdGOPrTbTGGGRz3+px4HNNp91tGOOupRR594X9c9/bpBfOi2qMeAs9ubvl6piGZ2u3W97nYbtu+toKZrG0plnCE8ggsdVe49lvKeDo+u91M0U/FeiETQ8Kh/EPbhhx/KIYccYpb3T81s/wjqgAMOMNEx2jGiAQAAAAAAUgXhEQAA4iaRYylmc3iMhyDPg96P1157LWrYjcSefCyK3kedblZ3eurOz2jHt/OSbOTzY7eZWOFRR4d4R8t61Z21utNW11OsWDHnMl5TeYyvPf26QXL4Q2SizJgxw4Rp/epH31tBj5noNdaUi4mij1Ufsz72ZNm+fbuMHTvWPL5EPucgN/CHyGTQ7TbSuhJ9r02aNCl/DalH70+kzwYXGhR16vEOHTqE/dGLTuut5xMcAQAAAABgT0J4BACAPQLhcRepDm5+CiNg/fXXX3Hv1MzE8BivhEcAAAAAAAAAAIBwCI8AALBHIDzuIhvDYyIUVnjMVAiPAJAsm7eL/LkDMTvcyCBNAAAAAIAiC+ERAAD2CImEx3hNNNoQHvc8qX4eRo8ebUYh6ohGhfCYOWzaJrJlO2LRtCjFj7/+J6JHjkXMBjU+AgAAAABA0YTwCAAAe4TNmzdL7dq1A01PaY97Fq9Bj4Xkp0mTJiZaabxKN/E8D4mwJx9LMqT7eVi1apVUq1bNqN9nOkXldUsEjTcARZWitP0SHjGbJDwCAAAAABRdCI8AAAAAkDYIj1CUITwiFo6ERwAAAACAogvhEQAAAADSBuERijJFNTzmfSs/bkQsWhal8PjrHyI//I6ILgEAAAAIjwAAAACQNvzhZtVWkZVbEDNXL0U5PLp2BiNmqoRHxOwRAAAAgPAIAAAAAGnDFR5dO6kQM8Flf+RvqPkQHhH3jIRHxOwRAAAAgPAIAAAAAGmD8IhFScIjYuFIeETMHgEAAAAIjwAAAACQNgiPhePsVVukc++P5bpat8ill18pDzVrIePnL5Xv1//PuXwmOnvzhj3uD1s35G+puyA8Iu4ZCY+I2SMAAAAA4REAAAAA0gbhsXBs+Up7qVj+ZClzfCkpfdzxUrZ0Gbn4kpry7S/ri0x8HLVjvAyWj/eoI/83Jn9L3QXhEaOp76WZyzflvd/ekiuvuk6uvf4meaNrb3Oea3mMLOERMXsEAAAAIDwCAAAAQNogPO5ZF2zYKTN/3SinVjlNSh9fSk449riQGiHbv9dH5q/Z5rxupkl4jA/C4553Tt4H2h33PCDlypwYivwVypWXBx5uKvNW/+W8DrolPCJmjwAAAACERwAAAABIG4TH9Kgjreau/ku+++3PAk74YbmcXP5kE0G84VFPt3qtg8wjPEaU8IhB1cg/bu4vUv7EcmHvNf2+yimnyhczfzLLuK6LBSU8ImaPAAAAAIRHAABIis3bRX7fhohB3a5FIIcgPKbe+Wu3y8gpc6XZcy/JY08/H2bTFq3l/YGfyvU33iInnlA6FER0NFaFkyqY62mwLArTrRIe44PwmB7nr9sh89dsN+87rxrw+38+sUDgVyudXEmGTZhJeIxDwiNi9ggAAABAeAQAgKTQ8Oj6ByciuiU8up8XDKYZZTXvFzn33PMLxA7riaXLyCPNn5PrbrjZfF+m1Aly+mlnyNsf9JOOPfrLY888LxMW/OpcfyZJeIwPwmPq1cCoAfHNbh/K6+/2MsdvtOr76bOp8+T0U08PH/F4fCk584yzZNKPq4rM8VQzQcIjYvYIAAAAQHgEAICkIDwixifh0f28YDA1ZmhQ1NChIxp1StXyZU8qMOrq5JMqyLt9h8hnU+fL4K+mybe/rJfOvT82y+rx6Nq/39e5/kwyUnh8+pOn5PUZr0n7OW9K++8c5p3fcvRz8s5PneXjnYOc64gk4RGtGvk/+uxrqVzpFBPw9f0W+mq+Ly1nnFFVHn6ihVSpXMW8B9VzzjlP3u33iXzw8WfS77PxRWZq48KW8IiYPQIAAAAQHgEAICkIj4jxSXh0Py8Y2zl5T96TLV+WsqXLSNkyZeS5tu1NiHz8mRfMVKre8HjCccdL5ZMryYfDxsrslX/IsImzpFLFyiaMnFLpFPl47BTnbWSSkcLjI72byKvT2sk7izoXsMvid8zXyxtcLtc8crU5HU98JDyiVWP9ZTWvNiOG9X1jvua9z7yRX8+79PIrzRTGHXsOMNMcfzX3ZzM6slKFilL1zLNk/PylzvVjuIRHxOwRAAAAgPAIAABJQXhEjE/Co/t5wejqlI9vvvehiYk6YvGe+o1l5q+bzDHmzFSPvvBoQkneeedVqy5vvf+RnHvOeeb8UypXMSOx9DiPrtvJJCOFx8f6PiofrHxfBu0YKK2/fEGaDWgqT378hBkJ+d6v3UxorN3iJhMg72h7h/T4rXvg+Eh4RFXfW3fWa2jeaxXLnyzPv9ZB2r/XV2rUuDQsPNogqe/H6ct+l9mrtki3AcPN+1Tffxf+92KZ+MMK521guIRHxOwRAAAAgPAIAABJQXhEjE/Co/t5wejqiCqdwlFHO2rM+HLOYvli5k/mWI8aPrwhREdaPdSshYkfOiWkXkcjSIVy5aVN+y5m5KTrNjLNWOHx4/8Nkk4LO8qr375qRkDq115re5rIePOztaX/n/3krbnt5bIHLpP3l79nlu+35SMZuH2A+d61bsIjzl+3Q9p362PeL+VOPFHqNXxYZvy60QTFk04sWyA8qieeUEaeaPmy9B05Ts4682zzftPpV/U6+kcDrtvBcAmPiNkjAAAAAOERAACSgvCIGJ+ER/fzgpHVY81detkVZvTV6aedIcMmzDIjsureXd+ERW8E0WWeeuEVmbViszR/vq051qNGEA0mzVu1LVLHm4sZHncOkhYjnpFG7z1ofLjHQ/Luki7m/DtfucOMglTvef1uuemZm2TAX/3lnjfukWsevUbenv+2c92Ex9xWo6NOQ6zxXoP+VdfWMtMZT/7pNznn7GphI4v1/aZR/7Qqp4XeY/b9Vr5ceRMvv1//P+ftYEEJj4jZIwAAAADhEQAAkoLwiBifhEf384KR1fB44823mxGMr3R8z0TFJ55rEzbSUdUIWfvWO80xHfU6Ou3jY0+1MhGl4SNPmNN6vus2MtEg4VFHMuqoxw7fv21i4ocbepvze67pIe/81Fk6/9jJXKbxsdvSrvLfOy6UyhdVljYTXnKum/CY2+p75LLLrzLxUI+JOuDzb2TKojVy/Y11wt5rqobGFi++tms0skbJ/JGQGv+bPtu6SEX+TJDwiJg9AgAAABAeAQAgKQiPiPFJeHQ/Lxhdnerxs6nz5Lvf/pQPh40100B6I4hGj/POu0DGz/sl7Hp6LMexs34qEsd09BskPHZf9YG8+3MX6frLuyYsdlvW1RznUYNkj9XdzZSqOtKxfsf75dL7L5WWo5+Tyxtcbs5zrZvwmNt+u3SDCfXlTywnHXsOkBnLNsoLr3eUE0uXCXu/afSvc8c9JlTqKMl+oydK5YqVTfy/t8HDRWY640yS8IiYPQIAAAAQHgEAICkIj4jxSXh0Py8YXR2pqNM2fjr5OzO14wn5o6usGiLfH/hpgakd9XpFaZSj1yDhsWn/x+Xu1+6Su17Ns92dZorVO9rusvH7jUx4HLhtgFzR6Aq598175cFuD8o7izpzjEd0On/NNnm7ez95rUsPmbl8k7z70VAz0tj7XtPIX736f+XL75aE3lt6vY+/mibt3+srUxevKbLvucKU8IiYPQIAAAAQHgEAICkIj4jxSXh0Py8Y2+nLfpdatW8tMMWqquddV+tms4zrukXRmOHxf4Ok7+Y+ZnrVMH/f5Ud/9DXL9NvazxzjUa+jx3jU0Y4aLV3rJjzmthoM56/dbhw7Z7HUuOjS0BSqVh0N+cHAkSY2eq+rIx9VomNiEh4Rs0cAAAAAwiMAACQF4RExPgmP7ucFo6tTOj7U9BlzXDmNHxpD/AFSL3vwkSfNNI/ZED+ChMf6nerL9c2ul+uaXme+Wm944noTGQduHyAdf+goD/d4yMTHdlNfiRgdVcIjqhrwr72+tpk61fseU3Uq1uHfzDaR0XVdTEzCI2L2CAAAAEB4BACApCA8IsYn4dH9vKCYaVL1WIwaDv2+23dIaMpHjY7lypwo9zd6VKqeeVYoQNrzW7z8hjkWZFGPj0GmWtVpVPv/2c+Mauy35SMzylFHQfbZ+KE5raMbL773Ynl2ZAu55pGrZdCOgYRHjKgZ8bhuhzz/agcpX/akUGwMG/WY9/2V19wgk35cxejGFEp4RMweAQAAAAiPAACQFIRHxPgkPLqfFxQZM+NHebhZC2nY5AkzcrHxY08ZGzzcVE4+qYKUOb6UCR8aF++670GZt/ovGTZxtpx5xlmhyzSQlC1dRnoO/bzIj8gKMuKx2YCmcs/rd5vRjfXa3yv3d7hPGrzzgDR8t4E8OfhJeXv+21L2rBPlv3f+V3r81j1qdFQJj7mtvmd6Dx8bFh31vXXGGVVDp+15t95ZT2av/MO5HoxfwiNi9ggAAABAeAQAgKQgPCLGJ+HR/bygyLU31HYev9GrBo//1rjYjLbS6+goyR5DP5cqlauEjcp65MnnzKhH/20UJYOEx/bfvSltJrwkL339krw4rrW0/vIFeWHs89JqTCtpO+lleWVyW6lyaRUz6lFHRrrW55XwmP3qKEWdunjiD8tDfvPDiryvK2Ts7EVy/vkXhkK+fr3y6utl3Nyf89534cd71D8AeODhx2We71iPmJiER8TsEQAAAIDwCAAASUF4RIxPwqP7eUGRy6+4JhQ8Inletery2dR5YdfTUVoduvcLG6X1WpeeRT6IBJlq9Z1FnaX9nDdNgHxrbnvptqxr2LK91/eS16a/Kg90rm+mZfVe5pLwmP1OXrRa7ry3gVQ793w5N89qee8p61lnni2l89+DGhnPOy/v/Tbte5mf917S4zpWzbvcvkf18orlT5ZPvp7BlKspkPCImD0CAAAAEB4BACApCI+I8Ul4dD8vKDJk3Ldy4823ydXX1crzRrnm+hvl2utvCln37voy+MupzilUpy5ZK+edd0EoiIycMteMhvQvV5QMMuLxwW4PSq0nbwipU696p1PV7/U4jzr1KuER1U++nimnVK4SivSR1OmN3+33iYmOej19P/UdOU5OPeXUUHwsX668DPh8UpF/r2WChEfE7BEAAACA8AgAAElBeESMT8Kj+3lBkflrt5spIGev2Cyzlm/apX6f75y8J0+XcV131LcL5JRKp5joWOWUKmZ513JFyUjh8dE+j8p7v3YzIVHVsKjTqKrmvO3h9tvykTToQnjEXY6dtUj+W+MSKX9iOSlf1m2lChWl5Stvmfec97oaGN8bOMJcV8OjjnjU9THiMXkJj4jZIwAAAADhEQAAkoLwiBifhEf384LJ2WPIaNGpVk8sdYJcc92NRf74jmqk8Nj4g8Zyz+t3y/0d7gtkvbfq7ZpqdTvhEXcF/lHTvpd3PhwsnXoPko69BkrHngPzTn8snfN8p89gM4ox0ntIjwNZ+eTKocg/e+UfzuUwPgmPiNkjAAAAAOERAACSgvCIGJ+ER/fzgomro63adugmZUqdYGz82FNF/viOaqTwmE4Jj7mhvmd09KJOW6xfXbqup3bsOcCMeNT32vU33uJcBuOX8IiYPQIAAAAQHgEAICkIj4jxSXh0Py+YuBoZH3r8aTP1Y9nSZeTVzt1Dx6UryhIe44PwuGe8v9GjcuIJpeWkE8vKC691dC6D8Ut4RMweAQAAAAiPAACQFIRHxPgkPLqfF0xcPRbk9TfWMeFRY0i/0RPNSC7XskVJwmN8EB7Tr0b+6hf8V8ocX0oqlCsvw76Z7VwO45fwiJg9AgAAABAeAQAgKQiPiPFJeHQ/L5i4k39aLVXPPNuER40helqnknQtW5QkPMYH4TH9frNwpZxW5TTzXtP33NTFa5zLYfwSHhGzRwAAAADCIwAAJAXhETE+CY/u5wUTd9AXU6RihYpmFNYFF16UFdFRJTzGB+Exver7avjEWVIp772m4fHSy6+S2Ss2O5fF+CU8ImaPAAAAAIRHAABICsIjYnwSHt3PCybuxAUr5Jyzq0n5sidJi5dedy5TFNXwOPx/n+1RCY8YSQ2P7w8cYd5npY87XurUvVvmr93uXBbjl/CImD0CAAAAEB4BACApCI+I8Ul4dD8vmLh63LkBn38jr77TQ6YtWetcBoO57I/8DTUfwiNav1//P3n+tY5SrsyJUqbUCfL4My84l8PEJDwiZo8AAAAAhEcAAEgKwiNifBIe3c8LYiZIeMRI6ojH3p+MkYrlT5bKFStL35HjnMthYhIeEbNHAAAAAMIjAAAkBeERMT4Jj+7nBTETJDxiNGev/EO69BkivT/5Qr777U/nMpiYhMfMdGG++vpgarXPrep67ouyAAAAAIRHAABICsIjYnwSHt3PC2ImSHhELBw1xBAe97xL8x7Hyi0iv2/b5bYc+x0l09CfOeqaP3e9Nos3uV+3TBcAAACA8AgAAElBeESMT8Kj+3lBzAQJj4iFI+Fxz6iR0YZGKDrozyJ93YpKiASA4Kxfv96orF27VoYPH26+AgAUdQiPAACQFIRHxPgkPLqfF8RMkPCIWDgSHtOnjpxjNGPRZ8NfIrPXiXyxXOTTZSIDfxYZvnSXrte9MAWA4NStW9eoTJs2TUqUKGG+elm1apVUq1bNXBbLJk2a5F8LAKBwITwCAEBSEB4R45Pw6H5eEDNBwiNi4Uh4TL06Qq4ofYZBQZbnvYZdF4qcNSK6V40ReXyaSLcf3NvCnhYAdtOmTRvZa6+9CmhjY5DwuGXLFhkxYoT0798/quedd15oXQAAhQ3hEQAAkoLwiBifhEf384KYCRIeEQtHwmPq1ODI6MaiTdDg6PLKMSJDCnkUJADsRsNjyZIlZfny5fnnhBMkPAZh69atUrNmTcIjAGQMhEcAAEgKwiNifBIe3c+LHrdodd5lm7bt2uGsEQUxlW7N26425m1fug3+tNG9HRIeEQtHwmPyrvkz/85BkUaj43VjCwbFM4f8Kad0+1HKtRohZZ7oK2VbDJZKHWfLmYM2F1hWR0C+/J17O9kTAsBugoRHHamoIxZ12SOPPDKh8Lhp0yapXr064REAMgbCIwAAJAXhETE+CY/hz4fubNbjFgHsadb+Gb4tqoRHxMKR8Ji4egxHRjhmB9+uDQ+I1jP6b5DjG7wth1S6UA4uf64cetqlckjF6nLwSedI8drNpUr3n+Ws4TsLXK+w4iMA7CZIeNxvv/3MSMdixYrJwQcfnFB4XL16tZQvX15at26dfw4AQOFCeAQAgKRIRXjUEU5bdiBmrvrX565tNxEJj7ufi182s7MU0sv0CTvk/Vf/ki4v/SXffF6wIur7e5Fn9CPhEbFwJDzGr84UUJQ+oyA6+rumPxyqVYf+JUdf+7D8o9xZUvrxXnJK14VyWu8VJjae9MJncujpl8vh514vp/Zc5rx+u7nu7SedAsBukplqVadPbdu2rdSrVy+mderUkf3339+MetTTekxIAIDChPAIAABJkarwCJDJEB4TJ1J4/HmzyA7duwyQBt5r95dcduImOXm/jQVs3+JP2bJ598angUOjh26XuRAe523cKoPlY8RCccHv/3Nul4TH+NRRjpBdNJhUMBqqOqXq34ufKBXbfytVh24Lv3z4/6TKe4vk0NMuk//c1lLOHLwl/PJ8e/7k3o7SJQDsRsPjMcccIzNnzjTx8YcffpCPP/5YWrRoIVOmTElZePRLeASAwobwCAAASUF4hFyA8Jg4kcJjpu9UhqLJt1/vkCvKb3YGR6/nHLlJxgzZvXFuyv9ZRnhETK+Ex+RllGP20XVhwVhoPbhCNSlxR2sTGV2X6xSrZZ8dKgeVOV1O67XcuYweM1KPAaqjZF3bVKoFgN1oeNxrr71CHnTQQSYu1qhRw8TBaOERAKAoQ3gEAICkIDxCLkB4TBxXeNRj6wGkg8vLFoyOl5R2h8jTDtkkK5fufkOuyHufEx4R0yvhMXGZWjV7ccVC9cxBm+X/DjhYKnWa47zcemr3X+SgE6pIpbdnOi9XNW7q9rMn4iMABKdr165GJVJ4nD17tlSsWNFcFsvatWvL5s2b868JAFB4EB4BACApCI+QCxAeE8cVHv+ne5UBUsw7L/4ZFhY7tNpduH9d8j8Z3H1b2OVqywa7l9m6g/CImG4Jj4nJ1KrZy7Cl7lContrzV/m/A/5hjufoutx6et/V5hiQJ734ufNyVUc9Knps7XTHRwCIjcZBjYRNmjTJPydyeFy7dq0MHjxY+vfvH9XzzjvPHONx06a8NzkAQCFDeAQAgKQgPEIuQHhMHH+4WfdX/jcAKcYbFDU6amzUr3dd9Ic8dc9Wc1r1Lqeu+00zxy70ve6F8IiYWgmP8Ut0zG40CLpCoarHbNz3kH/JyW9McV5urfLeT3JQ6VOlcue5zsutc9bvus10x0cAiM3GjRulWrVqUrNmTXMsx1SgU7YSHgEgUyA8AgBAUhAeIRcgPCaOP9xs5P0OaeCbz3eExURFY6P3PJ1yVdEQ6T2/f9fdNfw3334fwiNiaiU8xudK3x9DQPbhCoReDzvzSjnqmoek6tC/nJdXHbZDSj/WQw4+6Ww57cNVzmWsHy7Kv9F8NGq7trtkBYDYDBgwQPbZZx/Zf//9Zdy4cfnnulm+fLmULFky7FiRkSQ8AkCmQHgEAICkIDxCLkB4TBx/uNHPDIBU07HVX6GQqMFR8cZF65Qvd5hRkN7znrp7d21c4zv+KOERMbUSHoNLdMx+9DV2BUKvJ7/2jfz9mDJS9tmhUvWT7eGXD/+fVOowy0yzevyDnSPGSeuT3+bfsId0jHwEgMjs3LlTRo4cKYcddpi88MILcv/995vpVadMmZK/REFseOzevbv5Pppr1qwxtwEAUNgQHgEAICkIj5ALEB4Txx9u/iA8Qhpo1XD36EYd0ahTqvpHNqp6vn8k5P1X7N67v5bwiJhWCY/BZHrV3EC3e1cg9Fp16DY5rn572f+I/0jxW56Ryu/MlzMHbZZTey6TE5q8L38/+gQpdvGdcnq/dc7re3WFRyXV8REACrJjxw6ZPXu2XH311bL33nvL888/L9u2bZMtW7aY4zzqebfffrvMnTu3QDjUoKjhcejQofnnAABkPoRHAABICsJjZjFixAhp27Zt3MeJSPR6uQLhMXEY8Qh7gv5dt4VCok6pqoFxcPfd56kaIhW93Hv+G0/vro2MeERMr4TH2BIdc4eZa92B0GuZJ/vJ/sVKyL4HHy5/O6qU7L3v/nnuJ3v/376y32FHyd+OPNZcVvLOl+TMj/9wrsN6z8T8G/aR6mM+AkA4q1evllNOOcVMhXrZZZeZuOhFQ+OkSZPkvPPOM8ucf/75YdOl2vDonVI1kgceeKBMmzYt/5oAAIUH4REAAJKC8Lhn0L+QXLVqVdg0KurKlSvNX0pa2rRpU+C4DhoVu3btmn/Kjet6sBvCY+L4ww3HeIR08OuSnWEx0U63akc46vSqFn94nDx290bKMR4R0yvhMboafyB3iDbi8fT+6+WI/94u+x16pBzf4O1dIxqH/09O7f6LnPzGFKnc5XtzfMczB2+RE5/5WA44toIcUulCOa3Xcuf61EgjHpVUxkcAKMj69esD/ZGv/nvc/2/ySPsCXPr3DwAAFBaERwAASArC455B/6FRrVo1c/wH69FHHy2HHHJI2F80ugKinle3bt38U24Ij9EhPCaOP9ys+yv/G4AU0/CaLWFBUQOjHtNR46OGRxsg9bSNj9dV2Zx/7V3oe90L4RExtRIeo1uUPnMgeSId4/G0Pr/JoWdeYY7deMq7C5zL+D21569y+Lk3yIHHVZQq7y92LvP6vPwbjoCO+ndtl/EKAAAAQHgEAICkIDwWHvoXjZUrVyY87gEIj4nj34m6aqvIDt2rDJBiJo/dERYeXWpw1Phoj/84pOfuH0C6rS7zTXFIeERMrYTHyPqneobsZ1Pezxh/HNTpUo+56Qk5uEI1qdL95wKXR1NHRWp8PPS0y5zHfIwVHpVUxEcIzrq85xsRMRF1pDpAJkN4BACApCA8Fh6Exz0H4TFxXOFxdd4/lADSQZtH/iwQGyP5SO3w4Y3L/yA8IqZbwqNbjuuYuzSYFB4HK7T7Wg4qc7r5qlOrei8Loo58PPD4SlLq4W4FLvt8Rf6NxiDZKVchOKn8NwYi5paER8h0CI8AAJAUhMc9w/bt22Xs2LHSv3//kF26dJFSpUrJ5MmTQ8d8ePrpp+MKj3r8Bz1mBOExOoTHxHGFR30etmT4TmUouvTp9JczNHp958XwOX9/z/s5pNsl4RExvRIeC8pxHXObrgt3h8EzB22Wo697RP59xQNyxsCNYdEwHks17iL/KFtVTu+7Ouz8oCR7vEcIDuEREROV8AiZDuERAACSgvC4Z9AgqGHw4osvlnr16oVs3LixTJo0KXT8x4MOOsgZHo877rjQdTRCli1bVg477DA58MADzYhJwmN0CI+JEyk86g4t/rEE6WJ73s+Vvp23Sb3L/5AqB22SivtvlLoX/CHvtftL1q3WrLEbjeAL89+fhEfE9Ep4LChTrOY2+jumDYOndPtRDjn5fCn33DA5a/jOsGgYj6d9uFIOOqHKrlGT+ec9Pyv/BgOSzJSrEBzCIyImKv+WhkyH8AgAAElBeNwz2PA4dOjQ/HPcuALiiBEj5OWXXw4bLWlHSepoR4XwGB3CY+JECo+qxsetjHyEQkR/hi3cuHubJDwiplfCY7iMdgRFo6DGwfJtv5KDTzpHKr8zLxQME1FHS+pxHo9v2DF0nv4uGy+JjnqE4BAeETFRCY+Q6RAeAQAgKQiPe4ZkwqOfrVu3mmlZ1TVr1sjOnTtNnGzbtq25DApCeEycaOHRuvbPXTuaAfYU+j78zbEtEh4R0yvhMVx2GoKiv2deN1ak7HOfyCEVq8upPZaGhcR4PXPwFjny0nvlP3VamNM6nWsiJDrqEYJDeETEROV3CMh0CI8AAJAUhMc9gw2P3bt3D0VDVY/72LVrV5k9e7ZZLlp4/Prrr+WMM86QvffeW44++ujQ1KwHHHCAPPfcc7JlSwJ/Cp0jEB4TJ0h4VHWnsz7P6/4S2Zj3maCfLYjJ+ofnez2Oo+5E1bjo2gZVwiNieiU87pYpVsGL/g6k4VFHPFbqMEtO/2itnN53zS71e3vaf77jPA2XR1x4qwmPDSbl30CCJDLqEYJDeETERCU8QqZDeAQAgKTQnbmuX4LikfAYGxse99prLylWrJiJhmrlypXlvvvuk3nz5pnlIoXH7777zizfpUsX2bYt/AlftGiRnHfeefLQQw+Z0Y9QEMJj4gQNj4iZIOERMb0SHnfLDkPw885XC+Sfp14i/zylhhx+znW7Pff6KN4gh1ertetrvoeddbX8o+yZck3HsflrThz9ox3X9htNCA7hERETld8jINMhPAIAQFIQHjOLSOFRp2g966yzZMOGDfnnhMMxHqNDeEwcwiMWJQmPiOmV8LjLlXm/VwD40d/D+0+cKyc88oGUeuhdKdW4y66vD3WN7MPdCnhCk/fkus7jIv7eHy/xjnqE4BAeETFRCY+Q6RAeAQAgKQiPmUWsEY8vvviibN68Of9cMSMcZ8yYIaVKlZJnn302/1zwQ3hMHMIjFiUJj4jplfC4S3YWQjT0906dItV/7MYg6rEiEz2mYyTiHfUIwSE8ImKi8rsEZDqERwAASArCY2YRbeTi3LlzzZSqOl3rYYcdJsWLF5d99tnHTN361ltvFZiCFXZDeEwcwiMWJQmPyVu/U3256J6LpEL1CvLU0ObmvAe7NpRL6l1cwNdnvFbg+pjdEh53jR4DCMK3a4MHyHQERy/xjHqE4BAeETFRCY+Q6RAeAQAgKQiPmYUGxzVr1kQ9VqNepsssX75ctm7dmn8uRIPwmDiERyxKEh7j8/3l70mxksXMH7SYYxDnfX/FgzWl6jVnhoXHC+teKOXPKy9N+z9ubNClgRx06EGhyzF3JDyKrPkzfyUAAVmdt81M+E3k/R93+cp3u/xk6S4X5G1X6Ua3W9f27BKCQ3hExEQlPEKmQ3gEAICkIDxCLkB4TJzCDo8L8/1pIxY1Xa9nuiU8JmbdNrebuGi/JzxiJHM9PDLaEYoq+vPQtU27hOAQHhExUQmPkOkQHgEAICkIj5ALEB4TZ0+GR92hq3+Rr7fJP8SyA30dVX1N9RhTS5MYZRREwmNialg8reZpck6tc8zIR394tFOtnnJxZdl3/33l/DrnM9Vqjprr4ZHRjlCUCTrdKgSH8IiIicq/dyHTITwCAEBSEB4hFyA8Jk66w6ONjfzDK3fQ11oj5Mo07KwjPMZvr3U9pfTppeVfxf8l7yzqXGDEo/f4jv7wSHzMPXM9PCb6maLH4V65cqWZUn/s2LHG7duL0AcUZAVBp1uF4BAeETFR+fcvZDqERwAASArCI+QChMfESVd41JFv/GMLdBuI57hTsSQ8xufHOwfJHS/XlcoXVZbTrzzdhMQ6z9cJC49tJ70cmmLVZbdlXZ3rxuw018NjLHbs2CGrVq0yx+G2anCcOHGiHHjggdK7d2+pXr26USOkMnTo0NBxVl22adPGLAeQLPoz0bVd+4XgEB4RMVH5tzBkOoRHAABICsIj5AKEx8RJdXjUEY5FKQbBniFVAZLwGJ/tv3tT/nPSf+SVyW3l3SVd5Owbzjbx0Rse+27qY753BRGO8Zh75nJ41D+YiYWGxpIlS4a9TzQ4durUKWZ4bNq0qfTv3z+kBsd9992X8AgpJch0qxAcwiNi9jh7+UaZuez3tPjdqj8K3B7hETIdwiMAACRFqsLjjp2ImSvhMXFSER7n5P1q+l2e01eLzMCMc27ea7Nwg8jPm3bFr8JE/wGezHEgCY/x229rv7DT/qlWvZdZbYwkPOaeuRwe4zm+47Rp00xotNHQno4WHrt37x42UnLkyJFywAEHEB4hpQSZ5hyCQ3hEzB7HTJ4to76ZkRZnLt1Q4PYIj5DpEB4BACApUhEeEXNJwqP7eXG5YIPIt6tFpv2GRcXZa/P+gbE5/8UuJJIZ/Uh4TN63570lrca0kmq1q0nL0c85l+m7uU/UyzF7zeXwGM/niQ2NrVu3lkmTJoVGLzLVKhQ2eoxl1/btFYJDeETMHm14HJ1iCY9QVCE8AgBAUhAeEeOT8Oh+XvzO21AwamHRsbDjo5JIfCQ8IqbXXA6P8TBixAgTDevUqSMPP/ywFCtWzJx2hUcvNkLqV4B0oD8XXdu3VwgO4RExe0zPiMeZ5ivhEYoihEcAAEgKwiNifBIe3c+L35m+kY7jl2yWh557xXzV042fbSuj5q0KW0Ydu3C9tH1/YIHLJy7dKiPnLDfq+VNW7JDnO/aSvl/NlsnLt8s7H4+Vl7v1N34wcpK5nTr1mzhvw6v3fultqN7L7W14z1OHfrtYOg/6Iux+6nXHLd5kvg96+171Meny9nF6H6tdpuOA0Ub9Xu+X3j97WSrVkY8bM+D4vfoP8iDHo7ISHhHTa66Gx0UFG2FEdu7cKQ0bNjQBsXjx4rJo0aKIU602adJESpQoEfKwww4z19Ov3vNr164tmzdnwF+EQFawKO/96trOrRAcwiNi9kh4BAiH8AgAAElBeESMT8Kj+3nxOm99eMR65vWuct3t9ULq6XseedqEtYETv5dz/nuZ3FyvsZxT43J566OR5jJ7uV3Haz2HSsu3u4fFuGYvd5C3+30m3yz7S8YsWGMu+3DsTLmz8RMmAF5xU92wdWjUvKNRM3Mfqla/2KxTl7u7yVPmq55W7fLqk690kp6jp5nb1PXd++gzctM9D0qXIV+Zy+z97DRwjNx0d0O54Y76Jpz6b7/O/Q/LU692CcXRV3sMli8WrA27rQm/bJH2fUaEllFr1rrNrENDpz5H9jnU79t07Wfug3cdqXRB3uuYCcQTHwmPiOk1V8Pjii35VwzA9OnT5dBDD5XGjRub8FivXj2ZOHGiMzx27drVXB7Ltm3bytateT+AAVIA4TF1EB4Rs0dXeHy42dPS9q135JUO74bZ+vUO8lCzp+Tj0eMLXCdcwiMUXQiPAACQFIRHxPgkPLqfF68LfdOsfjJ9idS88Xap36yVXF/3Pvnyxw0mnl1Y8zoTDPt/Pc/EyOavdJY3PxweMTz6o+DjL7aXJi1fNQHPG/Z0xKMrPHq16wsaHnU9ep/s8jrC0obH4TN+kbsfbi6j5q6UL35YJ7c1eFQ++25F1PCogVFDo/e2XNrnYeqqnfJIq9ekwZMvSN0Hm8qLXfqa+3VihcryQqfezusmq456TCW6437hxl1Oz1u3nlY3BYiDuh26tjW/hEfE9Jqr4VGnfg7CDz/8IKVKlZJy5crJ0qVLpV27drL33nvLtdde6wyPik7L6oqNVr0cIJXE2v4hOIRHxOzRFR4ffPQJ6TdijHTu8ZG8+W4P6fD+h9J78KfS95PRcssd98jjz7SSIWO+ls8mTi9w3V0SHqHoQngEAICkIDwixifh0f28WJf+IfLr5vCApZFNRytqPGv41ItmVKI3LOpowQ79R8n9TVtK2YpVTJT0h0edXrTKWeeZ6HfLfQ/Ji+/0CUVBvVyX19GMV9e5W848/yJ5vdcnBcKjfn96tQtDowaffu1duermO+Wiq28MhUcdCWkvv73BY/Lwc+0KhEdd/tyLapoQqOd9PHlhKF7aMKnLe2/f/3iCqNO1mttctNFM46ojOXXkpYZaDZB6v9I54lFNlmFLRZ6fJXLWiOg2mCTybYzQ+fs29zbnlfCImF4Jj9HZsGGD3HLLLTJ16lRzetu2bTJkyBD5/PPP4w6PGis1WrZp08YsB5AqCI+pg/CImD26wuOjTz0rQ76YIG3e7CTPvNhOnnv5Nek+4BMZ/PnX0ujx5iZEPtI8b5kxX8uwryab80eMn+pZB+ERii6ERwAASArCI2J8Eh7dz4u6OP8YWD/nffXGK50Wte17A6TWnQ9I+76fmgBpj42o3zdo3lr6jZ9rIt/QaYtMbHOFuq6fjDejJq31HmthpiDVyzTM6TptNLz2tnuNOqLSXt/GQ3tataFQv3rP02V1BKNO/aq3Ya9rl/eOePx09q/mPL3veh09tuPn368OC48aMU+pWk1OPad6yG7Dvg7dpvc4la069pQLLr/WfNXTer5ePmLWMhNLX/lgkHz10+8yaNIPBUZoptpE0YioMdEVGaMZK0Dqzn/XtmclPCKm11wNj38k+VkS6RiP0bDXITxCqlkb42cpBIfwiJg9RgqPn4z9Rl56o6M83bqtiY8aHvU8HQ35fLv2cm/Dh8zlrV97W+6q/6D0HDTcsw7CIxRdCI8AAJAUhEfE+CQ8up8X1S67Om8Zf8DSQKcjEm001Cin4XHEzKVm9KKOeGzxRrdQ4FNttLPqSD87VamqIdOOeNSAaY/zqOooxEuurR22DnucRj1Go4a/ug0fN1OiesOjjszU29ZRmTpS8+pb7jL3UY8PqfdbR2U++sIbJhra8Ki38eEXM8zUsTWuqiU9Rk016/OPuAyqjZv2Pln1sepjto+/0TNtzHSzepmGV3XSr9vMSEl9PnSkpH71riMeF2/c9XrGS6QRjqf3Xy+V3p4p5duMlfIvfymVOs6WMwb87ly268JdO/P86D/QdVSta/tTCY+I6ZXwmBiLFy82x3wcN24c4REKHcJj6iA8ImaP0cJj/0/HyodDRsqHQz+TASO/NKMg9TxVQ+R9jR6RG2+9Qy64+FIzFevudRAeoehCeAQAgKQgPCLGJ+HR/bx4p6HTf0T5I5Y/JPpPj57/mznmoZ6nl/kvV5u93MGMQNTzVR1dqKFNL9NIp6MKNTiGLp+3yoy29K7Drz/yaVy0IxH1unoMyfdGTAy7jmqnOXXdT1XXZ8Nj2/cHhoKrVw2YGgdd140UHhu3eDn0+PS50OdEL9MAqeFWR5TqMSD1seuUsN4Rn/G6fHP+CxoHzlGOw/8nJ78xRYpddIf8o+yZHqvKv2vWl0qd5uQts7PA9XRdrvio26RrG1QJj4jpNVfDo74/9zQ6TevKlStjBkqAeCE8pg7CI2L2GC08Pt/uTXmi5YvSvFUbeeqFl83IRx3tOHzcZBn42ZdS85rrzbSrOvJRl9+9DsIjFF0IjwAAkBSER8T4JDy6nxc/Gq28EeuZ17uGpkFVdfSjjiL0LqNq7NMYp7HOf7mOQPSuQ9WRhnqZf6pV9eZ6jUNTsUZSr6e3pV/1tMbPFzr1NtevfW8j+WDkJOeoQTuy0HU/VV2fPmbXZbH03yerPhZ9TN7HqM+Jd5lUuWB9/gsZB5GmVj2p9Wg5oMRJ8u8rG5iRjlXe+0lO6fajnPTi5yZGHlT6NKn45lTndXXko4tIox4Jj4jplfAYGd2BuHGbyLo/834G5q1fP6cQC1OdgUK3ya2+9+OGv9zbuRWCQ3hEjO38tdul/5hJMnvllgKXde47VK69pW6B863f/LhK7mrYREZN/8EsN3P5JnP+vDXbpPeIr6R9j/4y6tsFsmDDTnN+rPVFM1J4HPrFROk77HPpMXCYGd1o1ZGNn3w5ST4a/rlce9MtUufOe80IyJETvvWsg/AIRRfCIwAAJAXhETE+CY8Fn5Pft+Vf6OGvHbum6nRFLcxsZ6/dtaMyHjQQusJhle4/ywEly0vJu9s6p1XV6VePvv5RObhCNTmt94oCl6uu+Kj/UPdvhyrhMT4/zftvrHwh0+Vb+ZH/su4/fV319XW99omaq+FRH1Mk9PNo6Wb39RAzxcWbdo10VAiPqYPwiBhbjYUaAycsWF7gMm8o1Mu9cdF7njc8qhdceoU0ePxp6TZopNSoebU0f+n1AuuL10jhUadVrf/wY1LnrnomLlrvvK+BDBnztbz81jvSvmsPM9px2FeTfesgPELRhfAIAABJQXhEjE/CY/jzoTuyouEf+YiZbSLHddSdbq5gqGpwPKRidTlz8Fbn5eppH640066Wfqyn83JVb8PPSsfOPsJjcOfJ/NDtYXa7Wf4wr7drO4hXwmM4+hnjWh4xU9WfnUy1mjoSDY86OmvK4jUyJ+8Xax0F1n3IaJm6ZK1z2XQ44IvJMnLqfOdlkfx6/jLpPeJLM3rNdXkQE7ldLPqmOjwO+mqa1LnngdAoxzGzfpIrbrjZXJaO8KjTqao6haqqIyCtH48eLzfccrvceX9DGTR6nG+0o0p4hKIL4REAAJKC8IgYn4TH8OfDNdrRz46du/wjb106kg4zz2QiwfOz3LGw6ifb5ZBKF8qx9V51Xm7VKHn0dY+Y4z1WHbbDuUzQUY+Ex9iOks/kN1kdui3MHTVA6uvv2i6CSnjcjeuPHxCLgj/lvV9d51shOLHCo0bF9wZ+Km/3HBBS493Un9fJudX/K10++kQmLlgulSqfKh+P+zZ0PT3/b/vuG9FDDz4kbHmv035ZLw0eeVLq3HV/Adu83c0sU+vWO6XZ820LXFftMfRzuebGOjJrxeaw8/U+6X32RqFI1mv0qLzw5jsFznfdri57bMnjIuq6L1i0dIVHje66rUYKj0O+niE33VFPrsp7/atfUjMsPH46ZZ5cU/u20NStOo3rlbVuMetMR3gc/PnX5piODzV7Sho3fcp8fbjZ0/J4i+fl3d4D5NQzz5K69R4w0676r094hKIM4REAAJKC8IgYn4TH8OeDfzDlNtFGO54xcJMZyXjiUwOdl1urDt0mxz3wlhxxQR05c/AW5zKqa9SjHsPKuz0SHmNLdMxtNT66tougEh53wUhHzGYhOLHCo0bFMmXKyuXX3BCKf0++0E4mL1odNTxGU5c/7YyzIo4c9MZOjXwlSh4rL73d1ZzWEYe6TLTwGCkwxhMeI63fdb7GJ31MLt//+DO55IprAt0mZq76+p1dvYYc85+SckretlviuFJyUd7r+my7t6VDr0HO8Giv6xrxqCMdn321g5Q7ubJcctX1Ur5SFRMqdfl0hEedPlWP56jHddTjPPb/9Av5bOJ0o0ZJnWr14SeekRHjphS4PuERijKERwAASArCI2J8Eh53Pxc62gNym0jHdlQ1KB5S+b/BRjxe/6j8+4oHzChJ1zLqsKX5N+phjW+6OMJjdJleFdVkpl0lPO5Cpxl3LYeYDUJwgoRHV1TUeKIR79V3esgnE2dJhZMrBQ6PGhw1POq6XZd71dGLJ5xQRsbPXxp2vgbAxs1amHXoKDHvZa917S3lTqog3yxcKZN+XCVnVatuRh4WO6JYoPCoU7Feed1Ncsf9jUwg0vtgRy8edMABEYOnS73uBRddFvM2sej6wZDRclfDJub7oOHRXjZvzTYzRbGdclXVANn6ra6h0/EY7RiPL77RQZq3aiNPPd/GHM/RTqmq8XHgZ1+a5QiPkG0QHgEAICkIj4jxSXjc/VwEmWYVspsGk9yR0FryrjZySKUL5MwhfzovV3cf47GH83Kr3pYf/3SrhMfIjpOvQuvH3FZHPX4pY53bSSwJj8GmWH2sZZsCIy50FMaZ1aoH2oFud5zqcax0RIfuePUvM3/dDvnmx1XmMq82IvhvT2NAz+FjpX2P/mHqFHV2nXqf9b7b0/Gq1/VeX++LHsfOu1PYazzPiddhE2ebKfgm/LDCjJrR58m1nN9Eby+aui7/a+BVR3O5rpfsNmKN5zXT9QZ5viA4yYZHjXnF/1NC/nXY4YHD46Avp8oZZ51rRk26Lrfq+07j3wH77y+vvtsr7DINj4ce8k8TAzXu2fN1tKSOMNT7o9fRzxmNj/o4NJIGCY/DJ30nxx9XSkqXPlE+n/mj+RzQ66tXXV87anj0j6rs2HuQnP/fS5hqNQvUn1ennV1Nji5eooDe8Hj+RZfJK116yuMtX5Yb77jXhEn9nPOHR90mdHpVHUGpn5vWiqeeEVpfvLrCo06h2q5jV3mtUzd5NU/9+lrn9+SNLh/I6++8b9QoqdOv6nEg/dcnPEJRhvAIAABJQXhEjE/C4+7nIpF/LP21Q2TFH7v8Yb3I9NW4J/0u758JSzbuev43pSAcuwKh11O7/yIHlDhJStzR2hkfdx3fsYkcXP5cOa33igKXe71ubP6N+vBOt0p4jOxUmRJaPyLhseBjiKY+JovrcrXl651CO1EPOPAg2Xe//cJ2qvqjkgap+x5uZgKa7mC132t01GV1B2u08KjnHVuqtFx05bXmelbvdHPe23OFx3oPNw2LX9EiVqSdxvq47TL+8BgrpMW6vOuAEWGPTZ8jfd70edGAps+BP6Tp4y95/Amy1157ma/2+VBdt6f3V5eNpPf5cem/j15PPuW0sOvHu43Y63ifY7/+18x7G9YTK1Q0sVbXS3hMLcmGR/9UqxpT9JiGdoSgS42VGhN1ClXXcRStHXoNNCMpX+3SUypWqhI2NatrylMNlU88/4pcePHl0vOTMXLiieXComSQqVa/XbpBqte41Ewnq+s65/wLZeIPK0KXR5qC1eq/DR0NqiMw/cth9qife/ZzUsO3fqbqz6dh38wxf7gyfv4yc7k/PEb6PPOuL15d4bH/p2Pl49Hjozpo9DgzKlJHP/qvT3iEogzhEQAAkoLwiBifhMfdz0U8aHCcvVZk2m+YSeprsnxz/ouUAK5AGObwnVL+5S9l30OOkGI16kqlt2fKGQM3yhn9N0jFN6fK4WdfK3/793HmfF3WuQ6PLrzTrRIeI/tj3n92/YgzZKZzO4llrodHfZ+6Lld1J6iGsHHzl8rQCXnP7/jp8uXcn815Gsv8UcnuYNX4d2Pde8z359W4VPqMHB/acRorPOplkSKSruP4MmXNyBE7qlHvh17P2rZz97AdtPq9N2LF0r+8fu897X/MfmNdrutq8PjT5r7qc6rhU7/Xx+wKjxpHT65yurzxfl8zUku/6mk9Xy933Z7eRqI7qWPpX7fdRr6YvUi6DRopHXt/bHam63mubcSuw/uc+nW9BpEej663wI76DeHLqBCcIOFRR/8dddTRoXCoIw0bNX3GGR41/mls0fOC6HrvaLxs2uplOfroY6Rr/+FmnTpasVixI8353/32Z4EAqFOx1ry2lhmlaANlr2FfSPHi/5H6TZqZP1yIFh71NnR5vf4Nde4w90GnwXy0RWsp9q8j5IPBo8xy3tvVbb7BI0+Gjn2p6rSq//73UXLT7XeHna/qZ4D3NjE71M+9aJ/B+vmolxdWeExewiMUXQiPAACQFIRHxPgkPO56HnSnbVA0bLmiF2aOGiA1DsfD/3a646DXyl2+l8PPvUH23uf/zMjH/Q49Uvb7ZzETIvc79N9yQMnyss/+f5cjL71XqnywxLkOry50yl/7/iQ8RnadrA+tH3GxLHFuJ7HM9fD4R4zfm3V0Xely5aVGzaul5nU3SfESx5qgqJfpztB99tlH/n1M8bBp4Nq928vEIt1xX+eeB8xOVLvjVL9PZXjUdZ574cVho/K8x8LSy6NFLr/+5fV772m9D8mGR7s+fby6rH7Vx+wKj536DJHLr73RRBI9rVM8XnjZleZ8Pe26PV3/ZdfUMutyGem+BdH/fKjvDx5lRmLqc6eWOK6UtHqjs7lM759/pKVrHV5dr4G9rt9IO+r9QnBihUfvVKWqfq/n2ZGNOqJQz/ePinxv4KcFwpvXuxs8LF/OWRx2W1aNiHXrNZRPp8wLO3/s7EXSb9QE870/PH753RIzQnH6st9D56l6Wu+ffh9rxKPe5/bd+5nH5z1f748+Xv3ee7v6xxd6nbd7Dgjk1/OXha0Xs0PvMR5d6naiP8N05KMuZ7cl/Vrz+toFRnir0dYXzd3hUUcupkrCIxRdCI8AAJAUhEfE+CQ87noegoRHRjkWLRMZ/eiKg2rVYTukzJP9ZP9/HWNGNZ7y7gIzovH0j9ZKhXZfy8mvfWNGPuqyFdtPk0Mq/1f+fkwZKd9mbN5y/yuwPqsL3Ubt+5PwGNlfZXlo/Yjz5XvndhLLXA+P6/9yX65q5Kp+SU1p0/H90Hk9hn0hZ5x7vkz9eZ2JSnosqtEzFpqRPnaZR1q0NvFRd+ZrJNORcHYkYqzwqFNo6vJjv1ti1q/T0z3YrIWJna7IpuvU8+1pHZE0ceFKcxw23bnrj1he9fE1bdU2LFoWL3mcNHnmhdAUrlfdWCfs+q77oOppNdLlVl2XXZ8+Xh29+EL7Lua88y++3JznDWl6vj6f3nXoabsO1+3pZfo4vI/Lqw3HiXj7/Y1Ct63abeTtXgND5w0cO8VsF3q8vkj3z7sOv/GGR7uN6euur79rOQhOrPAYyXqNHg1Nk6oxskbe6zL8mzmhy/W1srHSr04/qlOoxjompH7OuK5vjfS+088CDX0aL23ofOrF12TcvF+cy7vU9et17PV1XW/lfUbYaORXt8U+n46TVq93Mss/9ORzZpSkTt3qWh4xHaZnxOMuCY9QFCE8AgBAUqQrPGqcQMxk493paCU87noe9GssFqwvGLcws9X4uDGOYz/qcRf9cbDq0G0mOh5Qopyc0OR957Ed/WqELHHni2YEZIVXJzjjY6RjPBIegzkn7z+7fkSmWi34GKKpj0lZnf8z0KWOsrvihpvNCEIdvajnvaMjhC682Ozgd0UlDVF6HY1PGoLKV6oi1958u7lOrPCoUcEeF9Kqx4rU29F1uW5PR4H4R4ZUPr1q6NiJ0cKjrkdjn15ujxGp6pSyNkjqMQ2919f7YEd56m0dfkQx2XvvveWY/5SUF9/u5ryPXnVddn1Bw6P39v3nuW5PL4sU6pLRRka9TXuebhe31msoDz3VyoQWHRn2/JvvmBiosSfS/fM/Jq/xhkfdtvS4oHXrN5axEUbMQXASCY/6Wv83b9u44/5Goc8KvzrdqX/En/Wlt7vKCSeUiRkeNW56jw3p9aADDnAea1FHPp5U/mSpVecOMxpRRysOn/SdPP3S62aq1mdefrPAdfzqsSV1mledZtV8tuW9T3uP+FJuues+M3WrhlPv8h/nvX/1/Kuur22O52gf5wOPPGGOY6kxMtLzhJhKv5r1g3w5/fu0ONsR3QmPkOkQHgEAICnSFR51vQCZDOExGJHC49o/88+IwJq85VxhSx006Qd5b/gEub9pS+k0cIx8NG6ODJv+s7zcrb/xg5GT5MlXOsm4xZtC12nVoYdZ/rm3PjDXfefjsTLhly3Svs8Ic53+X88z5/UcPU0GTJgvQ79dHHabXyxYK6/2GGyWHTFrWYH1vzdiotRv1sqs77UeQ+S1nkPlm2V/mdvT89WGT70oYxeul/FLNkuTlq/KfY8/Kw8/104++26FWceoeaukXfePzX1p0Ly1uS9vfTTSLPfoC2/Ip7N/Nbdrb1OX18c1cs5yGTzlR2nxRjdzft+vZkud+x8O3W7XT8aHrrMn1PgYlALhcfhOc7zGg0qfKic0eS9QdLSeOWizlLijtbmua9rVSOFR/9Fu35+Ex8iOk69C60ecJN84t5NY5np41D/McF1u1eM7ajgq9u+jjGUrVDLTr+plrqg0ZtZPJgTpaDc9tqNO+anBSpeNFR5VjZ12tKFLvcxOO2rV9ev6XHboNUgGfDE5bHmr3u9Y03T6I5n3tvQ4i/4pGF3PiVfv+nQduqx+1fug90W/994nnbL0+lvvDEUK/aqjMHVEqZ6OFPaijXjUqKqPwy5vdU3zV+yoo01Y1cDqPV+PTWmPM6lTV97xwENmmcP+dYQJz7rd6GV7IjzGeg1VCE684VG3SZ3S9ORKp8iJJ5Yzkc61nEbB448/ITRi0G+0qVaD6J9q1aqB8crrbirwuaF27D0o6lSrqr4vzv/vJSYg+i/Tx37dzbcXuF29L48/91LYedZeeZ9h+lx9s3Cl83LEoizhETIdwiMAACQF4RFyFcJjMBIJjzrFqitoWTW0aZjTqHZn4yek3/jvQue/0Km3+d4fBr2nNejdct9DJuR5r2fDo/1qr+vVXu5dn35t2uZtmbpqp7Tq2FOat3vHhEe9TCOoDaJ3NGpmbqvjwM9NMNXLNZi++E4f8/3Aid/Lg0+/JOMWbZRXPhhkbkvvl15HY6eu+4EnnjfLqnq+3g/9+vHkhfJY6zfN+YUdHtXFG/NfzBh0XRgeBzU0HnbWNfLvmveHplKNx9P7rZNDz7xCjrz0ngKX6W1Fwr4/CY+R/UxGhtaPue1m+cO5jQQx18Ojvk9dlwdR49WUxWvColiDx5+WRk88a07rVxuQgoZHXad/+lOrBk1X1NPjaXmjmNd999svYuSKFK30ccxd/Zf5Xq/rur6O7nvv48/M1KOXXn2DOf6lTgk7dMJME13tc+LXu74g4VFHZumoS53OVk/r+nWU5BezF5nTrrCnx8FzRVurK95GUu9PtONuWu3xyvzn63n+2/M+Bzbkahx+rduHJlgGCY96PQ2fOm0l4TG1BA2PGt11KtXLrrpOqp57vhlJqNtn2XLl5fZ7G5iI6H0faJzTIOddRyqNFB67530+aBDVkcze+6OfXRoNr73p1qjvB73OPQ2byNU33Gyu4z1fH2/p0ifKm+/3DbvOw81bytnnXWCOQek9XyNm47zPiQsvvjxq7EQsqhIeIdMhPAIAQFIQHiFXITwGI1J43BBlOk6NVq6YZf3yxw0mstVt+LgZMTh02iJzfo9RU82oRg2Adz/cPBT0VB0ZeN/jz8nTr70r7ft+akYoarDTGOgf8dhl8JdS+95GYeFOz9fYaUc8etevt6cjG2+6u6FZpu17A0Lh0R9A1Um/bjPr0fuq90dHQH4yfYk0ePIF6TLkKxMX23TtZ25T7/eHY2eaUZ06ElPXZ9ej4fSpV7uY0ZCqxsqvfvo9bJSl2rjFy6HIuqcMOuXqt3nLeeOgHq/x78eUlsrvzAs7Px4rtv9W9jv031LlvUVh5+vOvUgszH9/Eh6jO12+Dd0G5q5fy3jn9hHEXA+P+juA63KvGn3+eehhBaKenueNXhrJqla7wMQjDWUazPQ8vSxoeNSd+bpzXy/3q8eJdIXHaPojllddj95f72g+fUwaK1u+3sks441k3utdcOkVUqPm1SZ66n3TY1K+3OkDOb5MWWn+0uthy3vV9XqfQztyMFJ41OejxStvyT8PO1zOq3Gp+dr2nR6h9bnCYyrV+xMkPOrzrK+Pfa2srtdMn8+99trLqCMq9XnQx6zhVkOl/zXT7/U10dfGXk+/P/Wsc2XYxNmExxQTJDxqqLuu9m0mMmp08x5bU+Nai7bt5T8lSpoAZ8/XKPi3ffeNqiscBjVSeNT3kB5r8Yy87UWnY9WpTg895J9m6tQGjzwZ8RiNXnUq2efavW0ek15X16Hr0uNS6ghPvQ3v8vp8tHy1gxx/XCn5x4EHmqlgi+V9zhT71xFSr/Fj5o8TvMsjZouER8h0CI8AAJAUhEfIVQiPwUgkPGq0csUs1Tt9qYZHjXca3TQGarB76d2PzHSlzV7uEBb8vFOlNnqmjXToPyo0YlCjnl6mwVBjn/f2rHq+hj1dVgPl4y+2D61fQ+KouSvNaEUdeagx0TviUW9Po6fehk6rau//JdfdLPc++kwoDOo0rBpE9avehq73ix/WmRip5+ntecPjmAVrzBSrOtpS46Q+nolLt5pAaaOjhtWWb3cPXWdPqtPlBsE73erR1zWRw8+5Tqp+sj0sGsajHiPy4JPOluMeeCt0XqRpVi32/Ul4jO0S+Tl0O5h76uvv2i6CmuvhUVm62b2MVUOQBi7/+a7oZafw1AinAc7ukA8aHnVduk4d3ega9eiaJlTXqVN82uMu+rUR0a8/cuoxIf3LuMKj3p4eR3LST7+Fna/2Gv6lCYTxhkBdpys8WvV+fjR6ohnh5z3f+xpoDIo2Ta3XrgNGmJjiXZdLvT9Bw6PrNYs0SjWa/vAYTV2v//l6qcN75pibo75dEDoPgpPIMR4REVXCI2Q6hEcAAEgKwiPkKoTHYEQKj9GmWnVFLK8aATXMec/T6Kaj/fR7jW/+kYZ6ucZCDY921OKUFTvMcRJV/V7X2W3Y13JzvcZy6jnVQ1a7+AoznavGRY19OsLRu34bHvU29Ksd8WgDoI6evOGO+ub7tu8PDN0n7zp0na/3+kSuvuUuMyLztgaPmljqj41e9fZ0KlYdLanHq7Tna1TV2Gkfq47m9F5vT7l8c/4LGgPvqMd/lK0qpR/rETqdqCXuaC2Hn3t96LTeRjTs+5PwGNtR8pnMk/mh28LcUV931zYRj4TH8OPKuownPEYy3vDour1I2mgXT9wKqis86ojOkyqeIi+07xI20kvjoB5/8Za76weeytRqH0Ok8BjJTAqPyW4j1mTDY5d+w+Ss8y4MHWdSheAQHhExUQmPkOkQHgEAICkIj5CrEB6DESk86lcXm7a5I5ZX7+jFSGFt0KQfZPLy7aHTGuba9xkR9ToaIHXd/vNd+tfvVaOm6rrMq3cdGi+Hz/jFxFO9b1///IcJinq5BlF7v/V7ex3/Y9LRlXq+3rY9z3v+nnbB+vwXNQDPz9oVCHWK1Artvg4Fw0Q98amBcuDxlcz3DSbl30gEdBu170/CY3A1QP4mq0O3idmrHtMxmelVvRIed/F73s8613LqXQ2bOEcSqjWvrx1oqkKdQlOPA6iBKFp41HXpOl23ZdXpTb3X0XUecMCBoWk4/erot0i3F0tXeFQ/n/mjXH/rnbLf/vubqVoPOPAg+VexI+W+h5sFej78Tl2yVvp+9rVM/XldwuHRdXmyBg2PqdhGrMmGR5cQHMIjIiYq4REyHcIjAAAkBeERchXCYzDiDY+/bXFHLCx66pS58aDToe57yBFyUuvRcsbAjfluivHVGn66dNMP5YCS5WNOsap4AwDhMX6HyzDjmLz/xvFfVv33mYx0vubJSHjcTawpVxGLqhAcwiNilrp2myxY9Yf7snjcsFO+X1ZwanKV8AiZDuERAACSgvAIuQrhMRiRwuMvEabhXP+XO2Jh0TQedOdbyUtuN9OtHnnpPfneK0deVm/3V5eX31fg+4NOqCJlb21u1hkLwiPinpPwuBvdYajTjruWR8xUF28SWZ3/u1wkITiER8QsVYPhdz/K99//7L48gAtWbZE5w0fIgjV/OS8nPEKmQ3gEAICkIDzuOUaMGCFdu3bNP7WLrVu3ypo1a2TLli3Stm1bmTFjRv4lkG4Ij8GIFB4Xbcw/w8fWHe6AhUXPeKZatcxaslIqN35LStR9Ybd3tI7snS86rd6ss/lsDMJKz04/wiNieiU8FkR3HGrMcV0PMZPUn5fKhr/cl1shOIRHxOx1weo/ZUaHV+W7ryaY713LRPL7n5bLjNdflPnzFzsvVwmPkOkQHgEAICkIj+lFw+Ly5cuNTz/9tNSqVSt0etOmTTJ06FCpXr26Oa1f9XQk1q9fL82aNSNOpgjCYzAihUfVFXW273RHLKs95mHtexvJU692Mcd61NN6bMY3Pxwub/f7TLoM/lIea/2mOd9er1WHHnJ/05by3FsfyHvDJ5jLhn67WG6u19io3+t5PUdPk/dGTJSxC9fLgAnzpU3XfqH1DJ7yozR6po00fOpF6T1memjd6HZxhLgcBD3mo06T6j92YxC7LsxfSUC8O/wJj4jplfDoRnce6uhrDTtMwYqZov581O1RR+Z6d3ATHlMH4RExu/1+yWqZ8sBNMvOdN2XBL2ucy4S5brt8N2asTK1/o8weOEAWrN/hXi5PwiNkOoRHAABICsJjehk9erSUKFHCaadOneIKj7pMyZIloy4DwSE8BiNaeFzzZ/6ZPlwRy2u/8d/JA088L8+83tVEwlvue0g+nf2rvPhOH+OTr3QygdAbHvW8cYs3me81Ltrr6Gld7uHn2skNd9Q3lz3RtqPc3uAxc1qvp5ePX7JZmrZ5W6as2GGu88oHg2TY9J9D68eCrsl7rZNBd8bFEyB12SBTq3rRf7B735+ER8T0SngMhve5QCwMo0F4TB2ER8Ts9/ufVsi0xrfLjHatZMGvG5zLqDoqclb3rvLNpSfL9Beby4LftjqXsxIeIdMhPAIAQFIQHtPPzp07ZdKkSdKoUSN54IEHZNiwYbJjx649cvGEx3nz5snhhx8uzZs3zz8HkoHwGIxo4XGpL/JYdIpOV8iytu78ofT4bIo88vzr8kbvYSYMTl21U1p17GnC48XX3CT1m7UKC4864vG+x5+Tp197V9r3/dQES42MDZq3NqMmP5m+xMREPU+X0dGUepmGx7MuuET6jZ8rDz33ihlN+eHYmWZdNmSi279SGA4WbhQZ+esu3/5e5MPFu9TTelmieI/vqBIeEdMr4RGg6EN4TB2ER8TccN6U6TK95eMyo0M7+X7RSnMMyLBl8qdlnXDOf2Ty7ZdFPK6jV8IjZDqERwAASArCY/rRkY1VqlSRcePGycyZM+Xss8+Wu+66S8477zzZa6+9AoVHjZc6Vethhx0m5cuXl8WLF+dfAolCeAxGtPCoU3i50GDlClnWr3/+w0yZqqFRI+SQqT8ZX3r3I2n+Smfp+sn4AiMedSpWDYwvd+tvLuvQf5SJjBobNTq+O3Sc+b7HqKlmVKOGSg2Mug67Hl3+tZ5DpeOA0WHrxoImM83qnsQ7zapKeERMr4RHgKIP4TF1EB4Rc8S122TuuAky8/0uMmf4CDMK0sbH739eIzNeaSUTqh0rk26+UObPW1Tw+g4Jj5DpEB4BACApCI/p5a+//pJrrrlGBg4cmH+OyJQpU+SKK64w8bB79+4xw6NGx/fff1+OOuoo+eabb6RevXpy4YUXytq1a/OXgEQgPAYjWnhUdcSZC52m0xW01JFzlssLnXqb7zUGagTUYz+OmrfKHKtRz/OHR73O4y+2N+FRHTFrmUz6dZuMmrvSqN/r8t1HTjZf23X/WAZN+sF8r+rxHvW4kjr9qv3a9v2BofXjbmcXoY8W77aoEh4R0yvhEaDoQ3hMHYRHxBxy7TaZ9+1smTv2S5k3aZrM/3GZLFi5SWa+85ZMuuFcmXTNmfJd3mU/rHf/ruSX8AiZDuERAACSgvCYfp599lm58cYbZc2aNbJ582Z54okn5Oabb5bt27fHnGpVr6PTs+pIRz1epLJhwwapVauWnHDCCTJq1KjQtK0QH4THYMQKj9FGPUaacnXCL1ukfZ8RYRHRe7lGRA2NGiIjXaf/1/PCrqPq8joy0nuenvauB2O7MUJMzjRWOnb2ER4R0yvhEaDoQ3hMHYRHxNxz3g+/yLzpc+S7cV/L7H59ZVrzB2XyLTVkzrBhzuUjSXiETIfwCAAASUF4TD9btmyR5557TkqVKiUlSpSQhx56SH7/Pe9JyiNSeNQoed9998nee+8t1113nSxdutScb9HY2KVLFznkkEPk6KOPlunTp+dfAkEhPAYjVnhUI4161Pioo+dccQszUx2pWhTQf6j7t0OV8IiYXgmPAEUfwmPqIDwi5qDrtsv8BT/Ld1+Nl5nvdZZvn3pQ5gz7xL1sFAmPkOkQHgEAICkIj3sGnS5VRy9qYHT566+/yuzZs2Xdut0/w/X8lStX5p9ys23bNnPcSP0K8UF4DEaQ8Bhp1KOi8XH5ZnfkwsxRA3FRGemoLI3w/iU8JmffzX2kWu1q0mxgM6lQvYI8NbS5Of/D33tLnVa3yHGVj5MjShwhlWpUkmYDmsqgHQMLrAOzW8JjYmzatMn8TvfHH3/I2LFjZdKkSfmX7EZ/l9Nl7O+GW7cWkb8EgSIH4TF1EB4Rc9C12+T7uQtlzsjPZMbrL8rUBjfL7A97upeNIuERMh3CIwAAJAXhcc+gO4/atm1rjs/osk6dOrL//vs7j/EI6YHwGIwg4VHVaS+joVGL0Y+ZqYbhooRuk65tUCU8xmffTX1MYKzb5vaw04/0bhIKj/229pOq11aVs68/Szr+0FHeX/6etBrTSoodW0we7NqwwDoxuyU8xmb9+vWyatWqsKnw27RpIwceeKCJjjrDRd26dfMv2TWFvv4euNdeexVQZ71YsWJF/pIAqYHwmDoIj4g55oad8v3cH0PTrM5o10om33i+fHNB6bzTfczlzus5JDxCpkN4BACApCA87jl0R5T9K3a/OmrxmGOOITzuQQiPwQgaHnXUY6x/POnoRw2QOp3n4o2RjwGJ6VPjr6qxUdXXpKgRabSjSniMzyDhceD2AXJZ/UulZIWSJjQ27f+43NLyFvnH4f+Q5kOeLLBOzG4Jj7HRqFiyZEnz+50lWnjUY4Hr1Po9evQIzWCh0XLYsGHmOvfcc485DyBVEB5TB+ERi4Jj5yyWHsO+CDtv/Pxl0r5H/5D9x0ySb35cJU1btTWXT160Wh56qpXUf7S5jJu/1JzX6IlnZdjE2WHrmbv6L1ngi21z8v7BOHHhSpm3ZlvYebr++et2mNN6mS6j59tlpv2yXiYsWF7gutaZyzfJlMVrzO3p9XRZq17mX16Xm7Vis/ne3p5dXm/Lv3wsF/y2VeZNmCTfDR8uc0aOlPmzf5AFy9bJ9FZNZUK14+SbSyvInBEj8v6Nu+sxxpLwCJkO4REAAJKC8Ljn0J1MBx10kDnOYyRHjx5tlu3UqZPz8khWq1bN/HU9BIfwGIyg4VGNNuUqQCrQkbWubc9KeIzPSOFRPeSIQ0JTrfbZ+KGcVO0kOeXiyvLfO/9rLrut9a1h68LckPAYm0TD4+uvv26O6W3/KK1z586yzz77SKNGjfKXBEgNhMfUQXjEouArXXpKzetuKhACNcDVrd9Yhk6YGYp+DR5/2lx2Z4OH5evvf5WpS9aa779dukFuu+9BGfTVtNA6NOpddk0tc317nobJWrffLc++2kEuvuo6Exs1XN5w213yWMs2cu9Dj8uXc3+W6+rcIa3f6ioXXHqFfDplngmHl197o1x/653mPmkstetUB4+fLjfdUc+E0GfatpchX88wp9WzzrvQrMu7/BezF5nz9Xb1tK5P16vLX3jZlVLv4aZhy8dyweo/TXCc0eFVM7JRj/FoRzd+//Mamd7maZlQ9SiZdP3ZMn/2ggLXd0l4hEyH8AgAAElBeNxz6E4m3fEUhHnz5kn//v0DO2LECNmyJcZclxAG4TEY8YRHNdaUqwCJotuia5vzSniMz0jh8YpGV0jxssVNeLy6ydXyr+L/kr332Vv+cdg/Qt///aC/m+M9thz9XIH1YvZKeIxNvOFx8+bNcv/99zunWr3vvvvk99/z7gBACiE8pg7CI2ayGgsfb/myPNishXTs/bGJeqNnLAyNUNTRg6eeda65rOuAEXLVjXWkzj0PmAh4xwMPmcv1e419rvDoUtdtRzU2f+l16Tl8rLz4djf5YMhoc9l9DzeTz2f+GFqmc9+h5nK9nQcee8o5clHV0Zc2UGoInfrzOnO+3ke9f7Pz/hHqv44Nqd7zNL7qeTr60Xt+LOd++ZVMe/BW+fb5J+T7n5YXXCbvsc3s8rZMOOc/MumGc02oLLCMT8IjZDqERwAASArC455DdzK5dip51Z1RmzYxbGxPQHgMRrzhUV3zZ/7CACkiSHRUCY/xaUPj+XXOlya9msitL9wqZc4oHTbVau/1vcxxHfX4js+ObCH1O9WXl795Wd79uYs5X48B6Vo3ZqeEx9hECo/e3/e84VHRqfb1/N69e5vrde/e3ZxmCn5IB4TH1EF4xExVI9/7g0eZ0GjPm77sd3nno09MRNTvNST2/exruevBR+T19/qY6VdtqBv17QIzWrD2nffJiMlzzXlBwqN1/trtJl5+Nu17afl6p9D1vN+rj7RobeKkjqzU0Y9X1rrFfNURinq+TgNr75eGRL2O9/s33u9r4qV+r9PF6vIaKPW0Kzx+NHqitHjlrbDzYjl/7k8y5fbLZHrrJ2XB0l3B0+mav2RW394y6cpT5dsWD8mCle6IaiU8QqZDeAQAgKQgPEKuQngMRiLhUadc/X3XYaoAkkb/Ue7azlwSHuOz7+Y+Uv226nLuTefKJfUuNuGx7Nllw8KjLnfP63fLAQcfEFru+FOOl6NOOEo6LuhQYJ2Y3RIeYxMpPO67777y3HPPSdmyZUPhMcgfpan8YRqkEsJj6iA8YqbqnVrUr45u1LCoUVADpU6H+snEWWb04Nu9Bprr67EbX+70gRlpaL2/yRMFpkCN5Fs9B8iTrV81648UHgd8MdlET//xHPU+PPFCO3N/NB7q1K+u8Kjr1uuPmfWTOd9OF2tHTbrCo96nPiPHh50Xze8XrZQpd9SUmV07yoKla53LhLluh8ydNFWmNrpVZn3YPe/0dvdyeRIeIdMhPAIAQFIQHiFXITwGI5HwqGp8ZOQjJEs80VElPCanHQHpD48X3XORXHD7BdJtaVczyrHNhJfMlKstRjxTYB2Y3RIeY6Mx8ZhjjpGZM2fKkiVL5PPPPzfHcXRNtTpp0iTnFPp+9Xrbt/PLNaQGwmPqIDxiUVBDnwY///kaH6+9+XZp924vM+Lxxrr3mGlX9TIdsWhHHFr12Ije0YoaBHVUo67Hnqf2HTXBHMvRTn/6WrcPpVOfIWadGkP1+Is6EvPmu+43Ix11GZ16VUOifq/hUQOhXZ+qx4fU29YpVnU6WB21OePXjeZ29Kt3Was/POr69diOesxJ73IRXf2XTH/1BZk/Y678sN79+08kv/817/698ZLMn7N7xKlfwiNkOoRHAABICsIj5CqEx2AkGh6txEdIFN32XNtUNAmPyTlw+wB5YezzZiRjtdrVQsdvfH/F+3J5g8vl36X+bY7reFzl4+ThHg/JwG0DCqwDs1vCY2z8oxiLFy8uDzzwQMRjPG7btk3eeustEyu91zvyyCOlbdu2HMMbUg7hMXUQHrEoGCk86sjHlzq8Fwp+Ou1qw6bPmO911OA9jR8zgVADnqrHRfSOTtTr6WhD7/EVdSrTw48oJjWvrx0aXakjKjVaXnzVdea4j7rOUieWM+fpMq3f6mpi5fkXXy61br9bLr36hgJxUKdPPbt6DbnoimtCozL1Pl17S13ncSHtMStPrFBRmrZqayKpLqfL6/X8y/tdsP5/Mn/2DzL/h1+clwdxwW9/ynejx8j3qwoef1IlPEKmQ3gEAICkIDxCrkJ4DEay4VFd6otBALHQYO3almJJeERMr4TH2Kxfv95Ms2rdunWrmWo1Unjs06eP7L333vLYY4+ZEZJ6Hf369NNPm/M7d+6cvyRAaiA8pg7CIxYFdXrUHsO+KHC+jjLs0m+YGUGoAfDVrr1DEVFDnQY7Oz2rdcjXMwqsJ4gaKXX6VtdlXvV2Xeeren/907KmywVr/pLvf3MHw7jMe9w6+tF1GeERMh3CIwAAJAXhEXIVwmMwUhEeVZ16tShFICgc9B/gGqpd21AQCY+I6ZXwmBhBwqOGxqVLl5rwqF9ff/11wiOkBcJj6iA8ImKiEh4h0yE8AgBAUhAeIVchPAYjVeHRunILARIKov/wTnSUo1fCI2J6JTwmxogRI6Rx48Yye/Zs51Sr7dq1k0MPPTRsqlU9zVSrkA4Ij6mD8IiIiUp4hEyH8AgAAElBeIRchfAYjFSHR1VHP2qA5B9boKQiOFoJj4jplfCYXnbs2CFr1qwxXwHSBeExdRAeETFR+bcwZDqERwAASIp0hUfd+YuY6bq23VgSHt3PSyLaAPn7tvyVQ86g21Uqg6NV39deCI+IqZXwGB/2+diR9z/dwYgYS91WEt3egkJ4TB2ER0RMVP3MB8hkCI8AAJAU6QqPiNkq4dH9vKRCDZEao/Q2+YdY9mB3puprq6HZ9dqnSsIjYnolPMZGP+/W5n3eLd3sXhdiENP5x1mEx9RBeETEROXfu5DpEB4BACApCI+I8Ul4dD8v6VJ3Zqs/5ak74bBoqK+Xvm6u1zSdEh4R0yvhMTI2OLquj5iM+nNVt61UQXhMHYRHRExUwiNkOoRHAABICsIjYnwSHt3PC2ImSHhETK+ERzc6Ks11PcRUqgEyFTuqCY+pg/CIiIlKeIRMh/AIAABJQXhEjE/Co/t5QcwECY+I6ZXwWBBGOeKeVONjstOvEh5TB+EREROV8AiZDuERAACSgvCIGJ+ER/fzkk51h7a6aJPIkjx/2YyZqL42qr5O+nq5Xst0S3hETK+Ex3A4jiMWhhofk/n5RnhMHYRHRExUwiNkOoRHAABICsIjYnwSHt3PS6rUnWlr/tx1u/xjrOijr6Gqr+nSOHf0JyLhETG9Eh53w0hHLEyTmXaV8Jg6CI+ImKj8WxcyHcIjAAAkBeERMT4Jj+7nJRm9sRGyG/0Htk4Rl64ISXhETK+Ex13oZ4trOcQ9qf7+lAiEx9RBeCxcF2zYGfL79f8zzl+3Y7drtxvnrdkWcu7qv4zf/fZnyDl5/8BRZ6/cEnLWyj92uWJzyJnLNxln/Lox5PRlvxu/Xboh5LRf1hun/rxut0vWGqcsXhNy8qLVxkk//Rbymx9XhZy4cKVxwg8rdrtgufHr738NOX7+MuO4+UtDfjXvF+OXc38OOfa7JbucszjkF7MXGcfM+ink5zN/NI6esTDkqOk/7PLbBSE/m/a9ceTU+SE/nTLPOGLy3JDDJ31nHPbNnN1OnG38ZOKskEMnzDQO+XpGyMHjp4f8eNy3xkFfTdvtl1ONA8dOCTngi8nG/mMmhez3+TfGj0ZPDNl31IRdfvZ1yD4jxxs//HRcyN4jvjL2Gv5lyJ7Dxxp7DPtit5+MCdl96OfGD4aMDvn+4FHG9z7+zPjT4p/zP0kAMhPCIwAAJAXhETE+CY/u5yURdYcZsTF30Qi5MsU77AiPiOmV8LgLpljFTDGR4z0SHlOHDY/3N3lCjjuhjBxbqrSx5PEnhCxxXCnjf449PmTxksfttsSxxmP+UzLk0cVLGI865j8h/31MceORRx8TsthRR+/y30eFPOLIfxv/VezIkIcfUcx42L+OCHno4f8y/vOww3d76GHGQ/55aMiDD/mn8R8HHxLyoH8cbDzwoH+EPODAg3Z5wIEh/37AAca//f3vIff/299C7rf//sZ999sv5P/tu+8u/+//Qu6zzz7GvffeO+Ree+2FWKQlPEKmQ3gEAICkIDwixifh0f28BHVBnnoMwNV/hu+kxsKzsNEAmaoRkIRHxPRKeNwVelzLIBaGiYx6JDymDm94dIUFRMRIEh4h0yE8AgBAUhAeEeOT8Oh+XiK5YIPInLUiM1eLTPsNM9XZea/R4o0iGxMYOZEqdGe+7kB1bUdBJTym36EyBDNY12uWSgmPqR+pjZis8f6sIzymjlB4fORJM1rPjuBT7ag+72g/OwLQOyrQjhT0jh60Iwq9owztyEPvaEQ7QtGYP2rRjmRU7ehGO+JRtaMg7chINTRi0o6gzNOOqrQjLVU7+tKOyFTtKE07ctOYP5rTO8rTjvz0jga1I0RVHTFqLH1iyOPLlDWWOrFcyBPKnmQsXa58yDInVTCeWP7k3VaoaCxboVLIcidXNp5U8ZSQ5StVMVaofGrIk085bZdVTg9Z8dQzjJVOOzNk5dOrGk8546yQVc4823hq1XN2e9a5IU87u5rx9HPOC3nGuecbz6xWPWTVahcYzzrvwt2e/1/j2dVrhDzngouM5154cchq/73EeF6NS0Oef9Flu7z48pDVL6lpvODSK0JeeNmVxv9eflXIGjWvNl50xTW7vfLakBdfdZ3xkquuD3np1TcYL7umVsjLr73RWPO6m3Z7fW3jFTfcHPLKWrcYr7qxTsirb7rVeE3t20Jee/Ptu7ylbsjr6txhvP7WO0PecNtdIWvdfrfxxrr37PaOe4033VEvZO077zPefNf9IW+5u76xzj0PhLz13ga7rNcw5G33PWi8/f5GIevWb2y844GHQv64aEn+JwlAZkJ4BACApCA8IsYn4dH9vLict8EduTBz1QC5fHP+i10I6OhHPd6na3sKIuExtU6Xb2WJ/GzcLH+E7h9mrr/Japkn8+VrGS+j5DPn65qMhEf35YiFqU79Gw+Ex9TBMR4RMVH13z0AmQzhEQAAkoLwiBifhEf38+KX6Fi01dGPhUmi8ZHwmBo1WhEas0ONx67XOFFzPTz+we/NmIHGO90q4TF1EB4RMVEJj5DpEB4BACApCI+I8Ul4dD8vfr/1Ta06fslmeei5V8xXPd342bYyat6qsGXUsQvXS9v3B0a8XHVdNnHpVhk5Z3mYui7vMtbOg76Qod8uNt93HDDaaC/T9ejt61c9/eQrncIuV79YsFY+nrwwdHrCL1ukz5ezQqc/GDlJXu7WP+SrPQab69jL1SkrdpjH4L2/elrPt8t471vfr2bL8x17hS7zqs9pnfpNIj5fiagjHwtz2lUlkeOoER6TV0c32vuB2aGOgkzV6MdcD4/6uei6HLGw3Wk30gAQHlMH4RERE5XwCJkO4REAAJKC8IgYn4RH9/Pidd768Ij1zOtd5brb64XU0/c88rSJbQMnfi/n/PcyubleYzmnxuXy1kcjzWX2crsODYEaHPX6x5YuKxdcfq35/sMvZpjLR8xaFhb7nnq1i9S5/+HQ9VVdVq9T6fSzzfXvaNRMWr7dXV7rOTS0zBc/rJPr695nvurpRs+0Cbtc7Tl6mpx5/kWhx3PZDXWk1p0PhC7333eXGivb9xkRdp9r1rrNXE+jqD4fdv36fZuu/UwE1ev61z9u8Sa54qa6MW8zXhfkvY6Fjf6DPJ7jPhIeE1fDFKMcs1sdyep67eMx18Pj+hjBBrGwtNtoEAiPqYPwiIiJSniETIfwCAAASZGK8Kh//Y2YyWqMcG27iUh4dD8vXnW0nDdgfTJ9idS88Xap36yViXpf/rjBBLULa14nYxaskf5fzzMxsvkrneXND4c7w6Oq8bFVx55y7W33GodOWxR2uVe9rq7Df/6kX7dJlyFfmXioows1KnrDoga+S6+/Rdq+N0CmrtoZMTzaCKj6b+v2Bo/JKVWryannVA/ZbdjXocsjaR+z3u4jrV6TBk++IHUfbCovdulrbvPECpXlhU69Czw36QqP+jqmkhl5/0T5cqXI4F92qd/reevz3qPR0H+Uu7Yzl4THxNVRcfb2MTvVsJzsyEfCo/tyxMLWbqNBIDymDsIjIiYq4REyHcIjAAAkRSrC46YYO40BChvCY+KkYsSjjuzTkYUa1Bo+9aJ8OHZmWDzrNHCMdOg/Su5v2lLKVqxioqQ/run3zdu9I8Nn/GJO6/SiGgR1hKRdxqveRtM2b4edN3n5dmnQvLW8/+k3JuA9/mJ7s47jTzzJnK/r1/s3cdmfJkDqqElXeNRpU3X6VO9oRZ1eVS/TaVo1sPp99IU3ZNyijWHr8aqPRx+zLqOB9c7GT5ipUzXKaoD0xs49FR7VZOm6UOS6sSJnjYhug0kiw5bu2oHnIui0q4THxNTjANrbxux2nsx3bgNBzfXwuDrgdOOIe1q7jQaB8Jg6CI+ImKiER8h0CI8AAJAUhEfIBQiPiRNveFya91z/ujk8XunIQh1BqNORtu/7qQmQ9jiN+r1Gv37j58rDz7Uzoxg1rPnjmne61tInVTTTm+r3Ol2qXseGQA2FOhrSBkENd3YdGugeeOJ5M83piJlL5e6Hm5uo6A2LGknt7VjtdK6qTg1b7eIrzChGHdWo98WOatSYqXHznY/Hhm5f9R/j0buMjuDUaV/1q57W8/VynTr26dfelVc+GCRf/fS7DJr0Q+h+ep8be6zITAuPGhFdgTGWGikjBcg1f7q3Oa+Ex/jVEXD2djE3TGbKVcKj+3LEwtZuo0EgPKYOwiMiJirhETIdwiMAACQF4RFyAcJj4sQTHvVYfPoPKN0x6w9YGss0EtoRgBrKNJhpAHzxnT5mxGOLN7qZeOYKj95jPNrwqMc+1OMhem/HPw2qX413OpVqjatqSY9RUwuER42TertW/zEgVQ2Rqr2v3ss0pOr0sd51NG7xsrlf3uWsent3N3nKfPWer8trqLXxUoOqjtDUy3QqVw2dOm1t7XsbybtDx4XCo04lq6Mn9X7o6En9qs+d6l1/EBdvzH/R40RHL7qi4qk9f5VyLYdLqcZdpNRDXeWkFz6T0z5c5Vz2+VkF46NuWxq2XduelfAYvzoCzt4u5oY65aprWwgi4dF9OWJha7fRIBAeUwfhETG7/HbxGvl88uy0+MW388Jui/AImQ7hEQAAkoLwCLkA4TFx4gmPdln9R5Q/YvlDov/06Pm/mZGIep4rPLrUwOgPerHCo19/eGz2cgczfavettUf7ex1dLShf/pUDYgaBj+evDB0/VFzV5og6F3Ou3yk8KjB0q5D75PeN+8yVr2uDY86olSPC6lR96KrbzQRVIOlRl3XdaOpx0eNB9355oyOw/8nJz41UP5Z5SI5+KRz5LCzrsnz6rzvz5ZDT7tMTmo92izjv56OfnTFR9e2ZyU8xq+9TcwtR8qnzu0hloRH9+VBnJP3A7T1W11l2i/rnZf7jXd5VZcf8vUM52VeX+3aW8bOWey8LB51Hbou12WR7DpghNF1WSwXbNgpUxavMer3rmX0eZu5fFPY6SDPoz5vrvultzP153Uyf92OsPP1NnTd9rR+P2HB8gJGu6+q/7UI+hr6tdtoEAiPqYPwiJhdfrtktYz6ZkZa/Hzqd2G3RXiETIfwCAAASUF4hFyA8Jg4QcOjjkTzssY36tE7Vaqqox/HLlwftoxqY54eK9F1udfOg74oMOJRT+v53vOiaUcv2tOuqVb1PO91dBpUOxLRaqdI9Y7M9Oq9Da+6vD5Wf9zUx6EjOr3r8N8Pq15Xn99Yz1c8Llif/0LGQaSRjqUf7yV/K1ZSjnvgLTml60I5rc9vZqRj5XfmS4nbW8nfi58oJ7Ue5byurtMfH6Md75HwGJ8jZHjoNjG3nJT3n2ubiCXh0X15JDUo1a3fWG66o55cf+udUrzkcXLVjXXMaVUDkwax+x5uFjpP1dPj5i+Va2+pa+KVf72PtWwj/zz0MDm6eAljy9c7mfN1+c59h5rvXeu1Qeu2+x6UQV9NM99/8+MquathE5m1YrM57dL7OOz90/XrOnRdruvo+u5s8LCUPP4EKXNSBXnx7W4mwOl9V+1yj7RoLWdWqx7mKWecJVfWuiV0n/R6z73WUU4+5TSpdfvd5j6cdnY1eeKFdjJvzbbQulR9/Hb9/cdMkle69JTzL7os9DzqY7XPm6qn/dfzqoHR9Trosva5VvV7fW3b9+gfZs/hY2X+2u1h1/W+NseXKSsXXXmt+V7Dp/c1jEe7jQaB8Jg6CI+I2aUNj6M1Fk6cnhoJj1BEITwCAEBSEB4hFyA8Jk7Q8OgKPMt9x3rEouHstfkvYBx0XVgwGqqndP1B9i9WQso8+ZFUHfpXgcvPHPKnHHf/G3Lg8ZWkygdLClyu6rq96D/SF29yb4eEx/j8XEaHbhNzy1ky07lNxJLw6L48mhrNhk6YKQ82a2Hi0r0PPW6CmB1Bp181/o2esVAuu6aWWVZPf7t0Q9Tw6IpTuvy5F15sRs35L/Nexxsedf16Pe8owWh6Q1y08Njilbfk0WdfNI9/9sotcl2dO+Sj0RPN/XAFPq+63ouuuCZ0n/Q5ueG2u8Iio36voe+DIaND56nt3u0lt9/fyHyvgU+f15rX1w49j97H7lWfG9f90vtQ/ZKaYcFY1QjqfQ0iXd+lfc2HfTPHROOOHw6WL+f+HHpuXa9tLO02GgTCY+ogPCJml2HhMcUSHqGoQXgEAICkIDxCLkB4TJwg4XGlb0SaF52uU0fPuQIXZpYaHDUWx4vudHMFQ7X4TU/Koadf7rzMekb/DXJwhWpyfMOOzsvVoKMeCY/x+U3ef/Y2Mbf8Oe8/1zYRS8Kj+/Jovv5eH7njgYdMSNTTOiVnoyefkydbvxq2nDfouU579UZEVUPWrJV/mOXbdu5ugpt3edV7nT0RHvX8PiPHh07ryEYb57yBTiOpN+ipOgJQA6q9T59N+95E2alL1oaup9+fV+NSEzPteTZw6nV1lKauW0eaVjrtTGd41PinIyd15KOOIHWFQ70PGh01fuo6rA0efzrsNdDRpP7HodrRod51qoPHT5cLL7vSPEcvtO9ibkPvvz63keJxNO02GgTCY+ogPCJml67w2LXPIPlw6GfSd9jnBXzvo4+l/6djZeSEb0PLR5LwCEUNwiMAACQF4RFyAcJj4gQJj0H+0fS/nbueO90ZjZllstt0pClWdYTjISefL8c36OC83KqjHovXbi5HXlZPqn6y3bmM3oYX3eZ0el//tkh4jM9pef/Z28TccqWscm4TsSQ8ui+P5qAvp8rZ1WuYkKRTb+rXqtUukC79hoUtN2bWT3JsqdKhkKbBS69X7KijQ1OpWvV0xVPPMNHsuBPKSM3rbiowTafGsdLlyoeN1HNNtarL6VSkOiWpf5rQT6fMM8vosuUrVSkQ0/R8nUr1gkuvMHFQl7XqSES9fx9+Ok7e7jXQ3IZOH+sPj977Es2+n31tng+dmlQfs8a53iO+Ch0/UaPd3Y0elaat2poRpedccJH0Gv6ljJr+Q1IjHjUU6zrtY/dqn0997l2XW13xsdUbnaVNx/fN9zN+3Wheu4kLV4a9hvFot9EgEB5TR6LhUbdbPf6nbl+67XbPe794w3q6HfDFZBk5db7zskh+PX9Z3nvuywJTB8djIreLuCd1hcf2XXtIl979pfuAT6Rb3/9n7zwAnKjWNuz1t1zEyxUVr4gg0gQbKFK8oth7Q0QQpQhSFQSR3kF6ld57771K770vLEgREEFAqqLA5fv3PewJk+QkO5PJ7mY37+N9b5KZM2dmktksybPfOVNVhoyfJiOnzJZKX9dWmbpwhcxPQD5SPJKUBsUjIYQQV1A8pg7mzJkjHTt2lEuXLsUvIVYoHkMnIfEYrNqRpH6CVTsWnHJR7sxdWHI1mmhcr1NoxmXJWuUHufelz6TgtD+NbRDfqkdcm9ZrEaF4dBaKx+gNxaP/OQQLzgmEIh4RVCQu3n7AM5Sq77yECORWqS+qyGeVvlLrrZWFvm0RyDVfUdj6h/5qaFGsx3aYL9G0vVW+QXpAnPn2hVjFI7ax9hFsuc6ymMPqHFDtqOdr9BWPJcpW9MxxaJJ1eC4g5HAegQJ5g3PoPmy8ZwjbOet2KVnp+zyiAvLuezNI7sfzKjH6VMFnVVuTeMT+9VyMgYL9oi3243tcCOSSlqPWoAIW5w5xC6nbfeg41Y7iMWWRkHjEz9eQyXOl18hJnkDebfj5d3mu6MsyYPxMWR13nTyZ92mZunyTZzssv/2WWwIm60MPq+2s+9LBdVv924ZSOu79xDftew1WbT6O+zmo37qj37bIiBk/ygclSvvN+4pjwjHjWrcuN6VSjTryfdz7ke9y037R9qEsWQPGdCwMk1gxice+I8bJpHlLZfL8pVK2UjWVqt/UkZlL10rDVu2k15DRUrNeY5mycLmqfISAnLtyo2d7HYpHktKgeCSEEOIKisfk48KFC1K0aFFp3759/BIz165dk7Vr10qNGjWkUqVK0r17dzl3Lu6Jt4A+0Bf6JP5QPIZOQuIRQ16S6CXQ3I4Iqhfvyv+mPPh5S+N6HcjG/7xdVe7/4BspNOuqsQ0y60j8TuPBh3XrtYhQPDoLxWP0huLR/xyCBecEnIpH0zCi1kA2QpqNW7BKVeVtPnpOajZqKXVatAs6xyNiEo/P/Pd5r4pHiDU9RCiqDYdMna9kot0qQx20hSTTMg1VhIOnzFPDhAYTjwhkHo4JAnHdgZNKQloFHyQJ+rTOcYnHGAYVEhFDppatWtPznKHSEfMrWp9HXXmIoNJSV4hCVnzxVW3Vl16PQJzgebcuM4lH3wQTraaqR1SbYn7IQKLG9BoiK3YfNbYPFn2N2oHiMXwkJB4hB3PmfETe+qC4R/41/L6z+lkIJh6DBe2xbSDxaJWdkHyZszwk7XoNUo9RcYg2wcRjIMHoRDwG6t+0HO8BOBdThsa9Z71ume+VYRI7gcQjpOOsZevkh4EjVAVkv5ETlFxs0KKNEo+tOnWXitVrysS5i6Vu01aqQlJvr0PxSFIaFI+EEEJcQfGYfBw9elQeeughadSoUfwSfyAdO3fuLHfffbe0bt1axo4dK6VKlZIHHnhAKlSooEQkkj9/forHIFA8hk5C4tEtcZc4k4QJN4GGWdXJVqO/pM35jBSc+odxPfL0yKOSNvtTkqvJFON6Hd/hVoHvcKsUj85C8Ri9oXj0P4dgwTmBUCoeIcEgw0zrEFTbQbhBDOIxBF2zTj2VIAgmHiHUMDehNbfceqtHPFqr9cpUqSGdB45S61CBp8UjxB6knBaKpuALf6v8+/KbumreSgxzimFhTSIO26GSUB8XhkjFthhatEaD5kbBh/0EO1+dhAQhnrs33i+uhoNEpWS+AoX9JKuWodZlEJEmuYHj0ZWjs1ZvV8fv2wYJRTyiwhXHYpWOVnnsJPoatQPFY/iwIx5NUhHXBCRel/4jZObqbfLY40/aFo9ohz7Rt2m9NahezJ49p6yIf3/RgQCsWb+Z6sNXwrfpMUBy53lM1sT9/KyNe38oHHf9o/Iww70ZbIlH9PfqW+9Jubj3HVTx4hh09WLaNGkCCk9TIFCLxL1/JLRPhglXgonHmUvWSNe+g6V9j37SqfdAmbN8vZr7sfuAYerxN/Ubq/UflfpcDb+qt9eheCQpDYpHQgghrqB4TB6uXr2qRGL69Onl/vvvl3Xr1sWv8ebAgQOSO3duWb58efwSEcjIr776Sp599lmZMGGCTJw4UUqXLk3xGASKx9AJJh6dDrP691WRU3HbH7soEntGZONvTHJk+2mRg+evvxbnXb5/mwShNc+MOyV3PPykmr/RNIwqhOTdz30k6fK+LM9MPOO33ppiS+J3agEVt9afT4pHZ6F4jN5QPPqfQ7DgnEAo4tEkuewEX7QHE3FOqxat0ds6GUrUlGAVgIGC50OLQ7sVodbtA4lHCA5UYb71YQn5tEJV6dB3mJSuWE0afN/ZS+wiTl4TPP/WylFrrDIklNfZ9BpyqNWUhVvxCJmX6cHMck/6u22Lx/HzV0r+AoVV1aRpvQ5+JiD/IPv6jJ7itQ7i8a50/1YyEGJQL0e1JCoMcTxdBo5Sf5wA+YjzgCS1Ix5nr90pD2fNJjly5JIft/6kfoaxPfLeRyWDikffqkocNySm7/sAk7KCPwRBhTeuL991eL/D+57vch38cQz+0AaV9minrw38kQ7+AAZ/sLFgU6xnSOuE+ksoCYlHVDf2HjpG+gwfq6oeUdk4btaPMnv5OmnZsbuU+KycNGrVXvqPmuDZXofikaQ0KB4JIYS4guIx6cEwqdWqVVPVjps2bZIOHTpIhgwZZMGCBUoqWtm4caPkzZtXjh07Fr/kOjNmzPASjRxqNTgUj6ETTDw6GWYVgsskwZjkDyQkpHAomAShb/L23y233Jle0j3+guRuPU+eGXdS8o85IY80myZ3ZMsrt9+fTZ4efti4rW988R1uleLRWSgeozcUj/7nECw4JxCKeDRVwgWSatYEGiZUJ5C0CyYKdVC1h+o90zonCVYBGCioANVDoYYS61Cq1mBoWjwnGK4Wzx2Eqp43EV9K48tp/cW0k9ckmJy1PteB+kSlKCpGrX3qBHoNrUPH2o2+Ru1A8Rg+3IpH36FWce1iTkNdIWgKZGWa225TQ6ia5lHU6T1qsqqkxDCreR59XOZt2O1ZZxryFD8fDVp3kpdee0tGzlwkuXLl9pKSdoZaxc9h0VfeUMPJoq//vvCSrN77q2d9oCFYdXz3gWrQvqOn+rVjUlbwegb6QxqrKMR6q1y0LrOKR+TFN96R6nWbqD84eeXt96VRu25+/YWShMRj2+695fsuPaV15x+UaGzRoZuSjBCPEI6Nv+8gVWp+K9N+XOnZXofikaQ0KB4JIYS4guIxaUCF4+LFi6VKlSqSNm1aef311+XIkesTlkE2jhs3TtKlSyfZs2eXnj17yq+//qrW7d+/X3LkyOFX8dikSRPJly+fGnqVFY8JQ/EYOsHEo50PSxBarG6M/KAKEpWoTvjfNbMc1MF8jY91WS3/yvNfufm2NPKvx5+X/0v777j7/5Sbb71dbkl3j1p28z/Tyl3PvCVP9tkedI5HxIR1uFWKR2eheIzeUDz6n0Ow4JxAKOKRYZIi+hq1A8Vj+LAjHlH9d//9GT3iEJWGNeo1NYpHyD8Mh4xldmIVNDqQl/VadZCMGR+QQRNnqz5RrZghw31q+c7f/vITgBiK9e0PP1ZVilpQYphTbFO1dn1VsRZMPGIfo2YtVtsXL11OHQMq0qp920Ay3HOvDJu2QLWz7hdSv/q3DT1zXyIvvvqm/Oc/98snZSp4LUdQdWzdJ5NygmsGMjBc4hGV4qho139MsmjbfnmneCm1LrHE46R5S2XKgmXSrF1nlebtu0iLDl2VeBw4ZrJaV712PWnatrOMmDxL5q/a5Nleh+KRpDQoHgkhhLiC4jHpQEUj5nOMjY31q2wEly9fVpWMderUkRMnTqhlaIeKSFRHQjLGxMQo6Yg5H8uUKcM5Hm1C8Rg6gcTjYRuSilWOKS9O5aNJDiIFJl+Qhyp1lX9myiUZi9WW/KOOxS8/L3kH7JF8g/Z6hl59ash+yfDaF5Imy6OSo96YuOWXvPqyxsSpv278fFI8OgvFY/SG4tH/HIIF5wQoHplIjb5G7UDxGD4SEo/WoUoRzJsIIacrG1FRiOW+VZGQfr7izZoK1WvJ0gCVtJCIZSt9JXPXx3gtX7L9gExYsErd9xWPS3ceUhWKqBjWyxA8xvHhfkIVjzjmHsMnqHO2Lsfx4Hxx37pfDLuJbXqNnGQrK3cf9eqXSTkxiUdUl0M+BxKPqPxGBbieK9cqHnFtf1Dyc8/QrRjG9d2PP1V9JpZ4hFicu3KjTFm4XN1HBSRk5MS5i2X64lXSZ9gYadWpu1SoVlOmL/KvdkQoHklKg+KREEKIKygeIx9US06aNEkKFSokmTNnlvLly8uePXvi116HQ60Gh+IxdAKJR3xpmxCsdEyZcTLvI+Zd9JWDEIpZq/aQtDmfUUOrFppx2a+NbzDXY/Y6wyVttnySs+EEKTTzil8b0xyPwDrPI8Wjs1A8Rm8oHv3PIVhwToDikYnU6GvUDhSP4SMh8RgolWrU8QyTCjH5ypvvyuw1OzzrIVe0rPQNhh/FEKoJzQkJqWPaXieQQITMgeiDvNSis3HbrrI85rCxvSnoH9vo7dFXzxETPQLSN5CxU5dtlFbd+qr23zRsoaokMXSrqT2TsoJr7dmir8gDD2aRfAUKS+as2eTVdz6Q5p17Se9RU4ziUW9rqnhEpWPzLr0l9+N55fX3PpJHn3zKM0R1YlY8Tl24Qr6o+rVKxeo1pdLXtaXqN3WkY8/+8nWdBvLy62/JsIkzjNWOCMUjSWlQPBJCCHEFxWPS0LdvXyUN7aZIkSKeqkc7zJkzRzp27CiXLl2KX0KsUDyGTqjiEZVzJqmFzNl2VDoMnigffv6ltOozUiaujFHLOw6dLFXrt1L5qnFbWbLvjCw/cF7qfN9dLfuyTlOp3qiNVz+NuwyQkl/WkP5Tl0jdtj1k+cELMmzeWuk1Yb66bd1nlNRs3lF+3HNSxizZKvXa95JFsaekfofeqi36GTJ7lVqH+w079fUsR5p1HyzT1v8k83Yck1a9R8iCmBNqv9+27iadh0+V2i27yOBZKz3trcdbpV5Ltc3i2NPStv9Ydb49xs6RJl0Hqv7QF9bpbfW+cdx4fnBOQ+euUbe6TVIEw67axU88zv6fPNphqaTN8bQ80mKmFJrxt/f6IEGlY/baQ+WOh59Uw676rg8kHnGN6p9PikdnoXiM3lA8+p9DsOCcAMUjE6nR16gdKB7DRyjiEWLv5dfflnJVaniGivQNhjv1rfjTwZyN2bPnTFA8Qm5a54a0Jm2aNMa5FlH5iPkgPy5dTlUjolpx9tqd0qRdNzV0a+vu/fy28Q3mlkTbOs3ayOQl65WEHD1nqXz6RWV5+OHsXoIVgXDMlOlBee+jktJ10GjPeWKYVsxjCRkZ6HliUn4wby/mM8Z9u+JRr4Ow3nDotNf1AQGJ+XP1Y6dJaI5HDKM6fNJMdTtm+jwZO3OBWte4dXv5qk59tUxv5xuKR5LSoHgkhBDiCorHpAGViMeOHfPKvn37pHDhwjJ8+HC/dZCOqHS0gjkhv/zyS7n11lvlpptu8uSBBx6QHj16yJ9/xn3yJUYoHkMnkHjEbSDsDLE6fvkOebdkOekzaaGs//Wq33oIQshCCLqazTrIyIUbVaZv2O9ps/aXy9K02yCp1qC1TFixUyrUaqQEH7bBcog8pEbT9qqvKWv3KsEI4afF44YT15REhMDEfV/x+F2bH2Tqun2qT6zDLfYFMQo5iGOD5NTtrcE+cR7oF8dV9ut68sOY2dKgYx8lSXHuOCfdXu/begxYn9TiETl4Pv7FTIBB+7zlIORhuidfkkwlG3mGUnUSDNGa4bXykr7wB37rsC8TFI+hh+IxekPx6H8OwYJzAuEQj3qYxUGT5ngqNBLKkh0HpVmnnmoYOdN6HbTrMmi0cZ2OnTZMyou+Ru1A8Rg+nIpHCBIMafr4k/kkV67cStKZ2kEKQtLpikHfBBtq1U58h1rVgWB8t9gnak5H33V9Rk8JOtQqgve2F15+XQlE33U492KlyvjtF8dSt0U7r2U6o2YvUc8Vhqg1rWdSTtb8dELyP1tEMmbK7BereHzh1Tel04CRUrdlBylR7kslJk3iEdcahldFBWXBIkU9eeLpAp7+Qkkw8Thj8Wr5pn5jqVmvsdRq0FQNszp/9WYVSMm23XvLuFk/erbzDcUjSWlQPBJCCHEFxWPyARmJ4VExr2NCQEQ++eSTUq1aNTl16lT8UlFzQG7btk3y5csn33zzjXHuSELx6IZA4vH0X/ELDAQbYhUSbuCM5Uqmzd3+i6ru6zpiuhJtkHo6XzdpJwt2HVfViPXa9VRVhEijzv1VxSH6gkDEuuHz1qnKSS3sxi7dJj3GzZVPK38jJb6orsTjjI0HVPUi+usyYppHUn7fd7SSkZCSvScuUBWSKw5dVP2vPnJJOg2b4tk35OTMzYekRc9hnspMBOtQ6YhtUKWpzwH9KsEZtw5yc8SCDaoP7BPr8RzYEY84DzxXul1Sxc6Qq5tOe8vBR9svln8+kEOeGv6z13InyTdon9yS7h7J23en1/JA4EO7/vmkeHQWisfoDcWj/zkEC84JOBWPmIeqx4iJMnL2EiUaMQ/VlGUbpWW3vvJdy/ZqSDhre3zpmjV7TvnPA5nUl7H4khZf1mIbDEunv3BFNQfmvtLRAhPtPq/8tbqP7fDlqx7acNbq7VKjQXOvNjrLdx9R/WTLlVvtP+8zhaTnyEmeKhL0gfXoA49x/Ii1DyZ5o69RO1A8hg+74hHzHqLS7833ikmh515QlYQzVm2VR3I/KmW+rK4korVqC3IOQs7aRzgTSDwOn75QCdFpKzZ7Hc/6g6eUNPy0fCWjlNTBNhXj3nfeL15KbWNdjvPNnecxJTCt29Rq1FKeff5FNQeldTned2rWb6aeMz2XH5P6Yh0aFa8zflfi9+asuJ8XXEMrdh81ikfc4vcifqcF6i+UmMRjzyGjVIUjpOKwSTPVcKqoepwwZ5EaghVSEvcxx+O4mQs92/mG4pGkNCgeCSGEuILiMflwIh43btwoTzzxhKp6NDF58mTO8RgEisfQCUU8miSWDsTjnK1HlFArV6O+kpAYyhSyDzKu5/h50nHIJHUf8g3CDVWF1qFLrf2NXrRZVRC2HzRBuo2aKWuO/q0kZPfRs2TA9GVK4mnxiHbYH8SjlntobxWJOCareISQhMTUxwSxOGnVbq/2LXsN9xyPFo+odFTVlbuOq8pMVEniWHH+fSb/qIZ7hejEsbXpN0baDhinJCqOCRWcOAeIUSxPjopHBMPl2qH1thty8L63KkuGV8tJ4dnXvKSho8Rt+++nXpMs5dt5llVfG7+zAOifT4pHZ6F4jN5QPPqfQ7DgnIBT8YgvRgdPmSefVqiqpF2V2g0SFI/WL1Z1sA2EYOmK1VTFonUd+uk+dJz6shb3S31RRS23Vo7gS1y9zlc8QlC+9Oa7SgroZfjyF6Kx25Cx6rHvF7zoC9HtmeSPvkbtQPEYPuyIR4i6YiU/V5Lxh7ifVVQ963WQa8069pAHM2dR1YZ6OaTg7bfcEjQmcWg3gcQjBOHYuculQOHn1HCsGOr0rnT/VkOnVv+2oecPGYIF7x8tOvdS54Rt0Qf6wryUqPC0Ck0Ez0fLLr3l4azZ5M477lBDwWa4N4NkuOdeNdzq5qPnvNozqSsJicJAQ60mpXjs2newtO/RT7rE3QZKp94DpV33PjLtx5We7XxD8UhSGhSPhBBCXEHxmHyEUvHYpEkTuXjR2wYcOHBAnn/+eVY8BoHiMXQCicezAX7ur8RdgiaJZQ2EHuQcAjlnlYm+Q4uOW7ZdSlepFVA86upB3NcyEf1PWLFLVh3+0yMesRyB8PMdUlWLPj2v4rpjVzz9o92szT+r6kq9TAtDtEf0HJXWWI8LsW4DWWldp6OPCfISwTL9fEBcYm5I320SM6hctQOqHvVcj2mz5ZNcjSbekIgh5qFKXeWugu94HuOLvWDsi//5pHh0ForH6A3Fo/85BAvOCYQy1KoWjRB7ZavW9DyGuLMjHrcd/0MmLV6nJOKPW3/ykhYI+nEjHn0f64xfuFq++PpbdR/iBPIUFZx43HngKGllY643Jumir1E7UDyGj1DmeGQY5kasczyaApGN0QJQ+Wit4sft2x+V9BqyVSfcQ62GKxSPJKVB8UgIIcQVFI/JhxPxCGJjY+Xtt9+Wm2++WdKnTy+ZM2dW8z3eddddUr9+fT8hSW5A8Rg6TsUj3g9MEitQIAcxfKl+vDj2tJfkw2NUKGrJ5ysGIf0CrUNQvYiqRd/l1mUY7lX30WPsHHVMup1pHYZ61csQtNHtdXBO1n6s2/juQ8d0nL7PR1Jm++n4F9UGeq7HW/+dQR7rssojDENNrqZT5Y6HHlf3A83taEX/fFI8OgvFY/SG4tH/HIIF5wRCEY+9Rk1WGTtvhWR/JI/keSKfNPi+s1E8ovrw2aKvSIHnXpDcj+dVQ55WrlVffTFrHWq1RNmK8uq7HwYdahXiEV/KLtyyT91H5eVnlb5SbR598iklQVE9iT7RbtyCVZ7jQIVR8c+/kL5jp3uWVa/bRPWD+zhu32Nnkjf6GrUDxWP4oHhkmNQVikdCbkDxSAghxBUUj8kHqhMxX+OlS5fil9hDb3fs2DEOrWoTisfQCSQeAw21+tufZonFpLw4EY8AVY+3pr9fcjWeLPnHHHeVh7/uq6onExpiFXCOx9BD8Ri9oXj0P4dgwTkBp+IRQwpWqFFHVQp+32OAqkoMVvGIbDh0WvqMmaaqFHW6Dh6jbnW1I+Qi+tHbYB4syENITQhDLNNzZWE/EI2ofNRzTEJcrt533NMfhOfjTz2jtof0TH/PvWoeSeuQiBSPkR19jdqB4jF8UDwyTOqKFo+JEYpHktKgeCSEEOIKikcSDVA8hk4g8YhbE2f+NkssJmXGKbk+rS93ZH1CzdHoydOvB8xd+d/wC5anyfKovPBdr/heg4NrVP98Ujw6C8Vj9Ibi0f8cggXnBJyKR0g+DG+65ZfzSvYt3n4gJPGIti+89pan4lGLx42HzygZiH5RpYhlvsOmYpm1WtLUBuswxKsWi6ZjQ9Um9of7qLDUVZZMZERfo3ageAwfFI8Mk7qy6dBvRmkYjizeuMtrXxSPJNKheCSEEOIKikcSDVA8hk4g8YgvbU1cumoWWNYMmrlCzdvYdsA4Nd9hy17DPUOqYrjU9oMmyA9jZqv7eps+k39UbTsOnSzL9p9T8yFiWFK0CTaEaaB+rUOhYl5F9Ke3mb/zV6nVorM06tRP1v5y2TP3YufhUwMOe4pzwjyUyJytR9Q26B/HhGPDkLDYL+ZsRHt97CW/rCGNuwzwHCO2sQ49q7fRQ77i8dC5a9StbpNYOXg+/kV1wJkzZ6RMr9lqnsecDSeo4H6uxpMc5d3u8+T8eXsHcC7ud5D++aR4dBaKx+gNxaP/OQQLzgk4FY+Tl6yXJTsPKYlXs1FLVUGYkHictXq75HrsCa/5qu6+N4MUKvKiRx6iGlEPs1q6YjXp2G+4EpZWqYgKy4JFikq+AoUly8PZ5aFsOeTtYp9I6x/6e9rs/v2qqnbEcKxvfvCxmocS8hHVjegT97FPHPeibftVFSW2wzYI7jOREX2N2oHiMXxQPDIME2ooHkmkQ/FICCHEFRSPJBqgeAydQOLxcIApRa9cM0ss30Akdho2RaZv2C/f9x2t5JqWaXjcdeQMz+OVP/+hRN76X6/Kt627yaNPFZBPKnzl1Z/ebt6OY17LdL8I+tD96rYQilPX7ZPv2vzg2abbqJmyKPaUDJmzWobMXuURj026DlSSEAIQohBS07ovSMPqjdpIqz4jpVqD1p7lOEecK/arxSMyduk2KV+zgXzbqqsSl59W/kbGLN6ijk230dvoY8Ay63OVmAlFPGpmHbk+9Krv3I0JBdtgWydQPIYeisfoDcWj/zkEC84JhDLHIwJxB8mH+wmJR1NFot3Y2dbaBhWMmENSS0xTMFwrhmWFuMR9bIfqTcTaL5O80deoHSgewwfFI8MwoYbikUQ6FI+EEEJcQfFIogGKx9BxKh4B5gY0iSxkw4lrSupNW/+T1Pm+uwyft05mbzksI+av98i0Bh37yOvFSknP8fM820FUlqn+nbTtP1YJuNZ9RnnWQRAu2XdGCb8Fu457liNW8VijaXtPv8HEI4RgxW+byJd1msrSn84q6bd47++qb2yjg/PA+SATVuySynVbSO+JC9S2FWo1Un1hXbMfhqh9aImo94PqzQHTl0m9dj3VMWE9+rUjHiEp527/xdMuMXIq7rV2CyQi5mk0SUZrWm9zLhw1p/668fNJ8egsFI/RG4pH/3MIFpwTCFU8WoPKRFQYQj4Om77Qb/2SHQelbNWafgIQglAPdRooqJas0aC5cZ2OnTZMyou+Ru1A8Rg+KB4Zhgk1FI8k0qF4JIQQ4gqKRxINUDyGTiDxeCBINVzsGbPIQiDipqzdK2OWbPUIPAxfCvHYqHN/VUkIIWmteEQgKgdMWyrNug9WonHcsu2edVoi9puyWFYfueRZjkDSoQqxXvteXhWPrXqPUFWGGD510qrdap11Oyybsemgup2wYqesOfq3qlzEMKr6uLV4RHsIyl4T5qt91WzWQR0fKjTb9Bsj3UfPUm18xSNkaY9xc9VwrtbnBEPKoqoSx4ThYbENKighViFeMUSt9blJrPwdZnFwJO7ncM3JG9kZd50gqFh0w8ELN34+KR6dheIxekPx6H8OwYJzAuEQjwyTGNHXqB0oHsMHxSPDMKGG4pFEOhSPhBBCXEHxSKIBisfQCSQekUBSB8LKJLJ0INJ8xRnkGwQkbiESfcXj5NV7lNjDsKR12/ZQw55CHD7936KSJ29+yVeoiLqPbb9p0UmmrIn16h+x9ovqQVQwYn+4bxWPasjUht9Lu4HjVRVj4y4DlETUgtPapw4kJOaERDvMEYlj+HHPSSUvdRtf8WiVjKjGRLWkXqejt4GkRLBMP38QongefLcJR44FqWiNNKw/nxSPzkLxGL2hePQ/h2DBOQGKRyZSo69RO1A8hg+KR4ZhQg3FI4l0KB4JIYS4IhzikWGiKRSPN54LVLAFAsN0moQWgrkRUdkI4YZMXBnjtR5zOkLaQUT6btNj7By1HJWHKw5d9NoOWXfsiurTuq2OqV8E26DiUD+GEFy2/5yShrqyEfvCcepjNs3xiLaooIQgNR0b9mvdBoIT56P7nLPtqFd7xHcbBI9N5xeuoGI1pWCd3xGheHQWisfoDcWj/zkEC84JUDwykRp9jdqB4jF8UDwyDBNqKB5JpEPxSAghxBUUjwzjLBSPN54LDHEZjGBDrjKRm/MpqIod8tv680nx6CwUj9Ebikf/cwgWnBOgeGQiNfoatQPFY/igeGSY1JfYE3/I3lN/G9c5zu9XJfbYeeM6ikcS6VA8EkIIcQXFI8M4C8Wj9/MRTOxgyFXKx5QVVKqmJKzXIkLx6CwUj9Ebikf/cwgWnBOgeGQiNfoatQPFY/igeGSYVJjfr8iuDVsl9sjv5vU2E3v8guz4cXFAiUnxSCIdikdCCCGuoHhkGGehePR+Po7/Gb8iAJCPmC/QJLmYyAkEMV6rlITvMKsIxaOzUDxGbyge/c8hWHBOIFTxOH3lFhk0aY7X4zY9B3m18c2WX87L+oOnVLsdcb989fKpyzfJhkOnPY+7DBotS3Yc9DwOFLvtdNAW2+jHer9z18fIgs17ZeKitbL79BW/4zHFty+3wf6w342Hz/g9P9EafY3ageIxfFA8MkzqzJ5j52Rzq3qye+9h4/qEsnvPIdlYv4rs+eWscT1C8UgiHYpHQgghrqB4ZBhnoXj0fj4w3KoducPqx8gNxHBKBNee9VpEKB6dheIxekPx6H8OwYJzAk7FI6TYJ+UqyXMvvSaP58uv7tdr1VG6DxsvH35aVrXZfvxPJSX7jJkm4+avVLcQa9XrNlFyDe22Hrvg6fPzyl/LlGUbjY/X/HRC8j9bRDJmyqyS67EnZNbq7cbtdLBvHJcO9rv56DnVFtvodp9V+koGT5mn1rfs1lfe/qikLNyyT0qUrejpN/bsNek+dJw8nPMRKVHuS1m191e13Lcva75r2V7+fVd6zzHrfPFVbbUeUhHPIyQj0mvUZE9/q2KPeZ4fnDuOCbfbfr2ozkWfezREX6N2oHgMHxSPDJN6E7Nrv6wp/pzsnDdfYk/+ZWzjm9hTf8vOhT/KurJvScz2WGMbHYpHEulQPBJCCHEFxSPDOAvFo/9zgnn27IIPWL//JXI8bpv9cdvujvtnK5O0wXOPXEhBczn6Yqp2RCgenYXiMXpD8eh/DsGCcwJOxSNE2dJdP0u3IWOlXe8hqloQVYx9x073iMfdv19VsgwCb+TsJVK3ZQcl1qziccXuo1K5Vn0vQYhAGlqFolXE4XHxz7+QPE/kk4JFikqWh7N72lmDttgOmbFqq7xXorRa5isLS31RRUlCrId4fOHVN6XTgJHy0pvvevodv3C1lK5YTcnUniMnyWdfVldVkb59WYM++42bYVyH4FhwTvoY8bzo/qzni/s4T9zi8avvfGA839QafY3ageIxfFA8Mkzqzq6FP8qGL4vJttHDJPbYOWMbndhfz8vW/j1kTbHCsn3MSIk9c9XYTofikUQ6FI+EEEJcQfHIMM5C8Wh+XlKS4CEpH1O1I0Lx6CwUj9Ebikf/cwgWnBNwKh4hwFCF17H/CCUVIetmr92pRFumLFmVTIScRFsINUgzVPpBmFnFI/pBm/kb98iX39RVw5ZC7mFZMPFoXWe9Hyhj561Q4hCVi2hrlYV2xGONBs1l2PSF6j6GikVbHJNvX9bYEY9vvF9cvu8xQKV89Vqe/qznu+Hn39X9dQdOKtn5aYWqSvSa+kyN0deoHSgewwfFI8Ok8pz5n2yfNEE2Na4h20YNDTh06p79v8rGupVl1QvZZFPTb4IOsapD8UgiHYpHQgghrqB4ZBhnoXg0Py8QQYQkBaf+Ml+DCMWjs1A8Rm8oHv3PIVhwTsCpeIT4wpCjMacuq8d1mrdVVYoQbZBkuh0kHYQihliFrMtXoLA88XQBL/GIasJ3ipeSH7f+pIZqhdCEfESl5KvvfqiGI/UVj3YqHnUgGyH1Bk2eqx77ykIIUvSPYChTVGni/up9xz3nZ5Wb6A/Ds6KKMph49B3qVQfng/WBxCPOB89TkZdfV22Qat819py7FrnWfaXm6GvUDhSP4YPikWFSf/b89qdsmzRetvbrLjumTpbYI797rd/901FZX72UrCyUUdaWLCp7Dv3mtT5QKB5JpEPxSAghxBUUjwzjLBSP5ucFwfCXhCQm+IBuuvZ0KB6dheIxekPx6H8OwYJzAk7FI+Rbq+79JGeexyRr9pxSoUYdJe18xSNE2lf1mqpqPQg6tPGteLRWBuIxlkOsWWUf5KB1SNayVWvKkh0H1TprO1MwNOqHpcp4JKJVFqLCEvIyUCBBMYQsxCqGkcU2kKk4RohJa1/WWGWmKehT96OXBRpqleLRPhSP4YPikWGiI7G/XpAdc+fFZa7sWrVWYo/+LnvjfsfvOfibbGxcQ9a8mlvWvPOU7N6x17i9KRSPJNKheCSEEOIKikeGcRaKR/PzgqDqkR+gSGKC+URN154OxaOzUDxGbyge/c8hWHBOwKl4RDA/Y48RE/0ycdFatR7DgkIQoqIR1Ya1m36vlvuKx6HTFqg5E1HlOG7BKnn9vY/Ucl+hiP7Qtx6KVSeQeMQck217DVZDpqLiUi/3lYXYl5Z/1kAOQrCizbQVm+XNDz5Wy7sOHiOVatUzDtuqg6pGLUk/+qy8Gn4WFZ96Wb1WHZWMxTJUTiJVajcwiscdcf9A6TVqsrpF37ivh7GNhuhr1A4Uj+GD4pFhoieQj7s2bpOY9ZtVdscckK0Desn6Cu/Lus/fkF0r1hi3CxR+biaRDsUjIYQQV4RDPF64LPJHXD8ME6kJ55cCFI/m50WHQ66SxCIh6YhQPDoLxWP0huLR/xyCBecEQhGPqFKEOLNKRwg5CDOsR3UjhCPkGZYt3LJPLfcVjxB4fUZPledfeUMJyFV7f1XtfIWi7gdSTi9DNh0566lm1IGkxHCoOB5fUekrC1FxiXbW88DQpxgGFfvU7cbNXykfl6kgtZq0Vudm6suUQMeNY8T8mHqfkKom8QiBumBTrLrFc7Vo236/c0rN0deoHSgewwfFI8NEV2J/+0tiYvbLrtXrZcfUKbK5fRPZ+G0F2bl4icSeuWrcJlAoHkmkQ/FICCHEFeESj4REMhSPoeNUPCIQRISEk2DzOlpD8egsFI/RG4pH/3MIFpwTCFU8Qtr5LoMwsy5DINn0fV/xaG1njUk86gpBiDlrdDWgnZjEox7qVccq/qzLfeNGPJpiEo8438xZs6lbDO/6ULYcav5I0/apMfoatQPFY/igeGRSQjDk9ohZi72W+Vbj4486MHcvKs2xHtXm3zRuJVXrNJLlu4+oZTUaNJdZq7d79bPr5N+eqncd/K6xzv+rl6F//HEIHmMd2lh/L+nht3231cF7va6yx3Zoq2P6PYR2+g9g9P50ezcV8arycfU62T5mhGxq/m3c7Ug17KqpbbBQPJJIh+KREEKIKygeSTRA8Rg6oYhHBKKIkHCAa9B0jZlC8egsFI/RG4pH/3MIFpwTCEU8Tl+5xTN0qDUYZtTUXmfm6m2yZOch+eKr2p4vTk3x/SIYX8bii2PTPnEs1m2DBX2ib/0YEs/UJ/Zl/eLYFN++TME54lzxxbRpvTUYEhZSFm0Ten6iJfoatQPFY/igeGRSQjoNGClvF/vETwRCwGGob/zBhpZ++KMXrCtfvZas3POLer/FfVTN+/6hC957Mbw2ttfL8H6PqvfmXXrLa+8VU+/TEJfFP/9C/QHLl9/UlaW7fpZipcup34MvvvGOzF0fo8ThWx+WUMNuW+cn1sFQ3vidAxHatGMPr9+thZ9/ye936uLtB9Ry7BeP0R/6RXsMLY4Kfmt7u4mN+4dAzLbdsmvhQtnS/wfZ8NWnsr7Ce7JryVLZe8b8b6RAoXgkkQ7FIyGEEFdQPJJogOIxdEIVjwjlI3GLE+mIUDw6C8Vj9Ibi0f8cggXnBEIRjwyTFNHXqB0oHsMHxSMTyYEsrNuyg3xdv5kaqhtSD8N56wpFVA8+Xfg5tQ5/XIJq+dIVqykJWK7aN2o97kP2mcSjKehbVzU2atdNDZWNeYSHTV+o1lWuVV9+3PqTpw0q6bEe+6n2XWNj5SKC6kstKCFCN/z8u1qOY8TxmYbW1iLVugzyFctQ/WhdbieodMTcjruWLpMdc+aoOR031akoq19+RNaVeF4Nv2raLlAoHkmkQ/FICCHEFRSPJBqgeAwdN+IRoXwkoXIu7neL6ZoKFopHZ6F4jN5QPPqfQ7DgnADFIxOp0deoHSgewwfFIxOpgeQbOm2BZ95gZPPRc9J//EwlEXEfIhHz8n7x9bfSbchYNfyqFnWYMxfVgiXLV5Y563apZXbEow6GDoe8nL9xj7Ts1teznfU+8m2zNkpOorIS1Y/vfvypukWFop7fVx8XRCK2sd7vPnScZxhwDBeL9hCUeGwSj+MXrpZmnXp6LbOT2GPnZcesWbJj6mQlHXfvOyKxZ/4nu3f9JOvKvyOrCt0va94vILt3/mTc3hSKRxLpUDwSQghxBcUjiQYoHkPHrXhEDl7gByvijOMh/sxSPDoLxWP0huLR/xyCBecEKB6ZSI2+Ru1A8Rg+KB6ZSI11aFHfoLoRYhFSEIISw6FieG9UD/YaNVltj7kbO/QdpioNdarUbuA3BGqg9Bw5SRq26aL6DyQeJy1ep6Sn73yOOIYG33dWxwN5iKFfTeIRfWP7Rdv2q+V6uFhdNWkSjzimsfNWeC1LKHt++1O2jR4uW7q0lm3DBsqe/b96rd+9+6CsK/OGrCr4H1lb8kWJPXq9GjOh8PMxiXQoHgkhhLiC4pFEAxSPoRMO8YhQPhI74Bo54lAIWEPx6CwUj9Ebikf/cwgWnBOgeGQiNfoatQPFY/igeGRSQiD6IPx8l0M+fliqjHQeOEpVPJYoW1ENu4p1qFjUFYc6mBvRWq0IIYiqRvSjlyHjFqxScznq4U+7Dh4jfcdOV31ChmL+RVRilvqiiqp0RBsMvQqRiPsQjxCEuj8E80Ni3xhiFcPBompzyy/n1X5wa22r4yse0T/mdsSck9Z2wRIbd1zbxo2WDVU/kS0/dJA9h34ztovZe1jN97j6hYdlU/NvJfZX8zFZw8/GJNKheCSEEOIKikcSDVA8hk64xCMC+cihV0kgcG2YrhsnoXh0ForH6A3Fo/85BAvOCVA8MpEafY3ageIxfFA8MikhgcQjKh/b9R7iEX4YdvWrek3VfVQNVqz5nRKEEHgI5kW0VidiO1QbWudXxFCmd9+bQd7+qKSnuhIVlZCWr71XTM37iD6z5cqtlqFNm56DlKx84bW35OMyFeSN94v7yUEMn/ps0Vfk1Xc+8FRl4pg+/LSscV5IPWdlrseekHqtOipJinZoj+182wfKzsVLZV3Jl2Rrr06y5+dTxjY6e46ekS3d28naDwvJ9gljJfbM9XksA4XikUQ6FI+EEEJcQfFIogGKx9AJp3jUoYAkVnCN4ZowXStOQ/HoLBSP0RuKR/9zCBacE6B4ZCI1+hq1A8Vj+KB4ZFJCMDzqiFmL/ZajynDAhFmqghACsMug0R6JCFEHYaeHZ9WZvnKLXz92AkmJ4VtN66zBfk3LERyv77CsiZndew7Juo+LyPYpk2Tv8YvGNr6J/e0v2TFrtqwv/7bs3nljfk1TKB5JpEPxSAghxBUUj4nDli1bpH79+nLmzJn4JQlz8OBBtQ1u7XDt2jU5deqUXLhwQe2nZcuWtreNNigeQycxxKMOBWR043ZYVVMoHp2F4jF6Q/Hofw7BgnMCFI9MpEZfo3ageAwfFI8Mk0pz/KJsbFZLyUfj+gSyO+aAbKhVTmJ/9a/G1KF4JJEOxSMhhBBXUDw6Z9CgQVKpUiVjsA7MmDFDsmTJIseOHVOPtSTEY99cunRJtdm4caNkzpxZ3doBwrFo0aLSvn171U/evHmDbgs5CbEJKRptUDyGTmKKRx0IyONxr9E5/hFDqgcfsCGbw1Xh6BuKR2eheIzeUDz6n0Ow4JwAxSMTqdHXqB0oHsMHxSPDpML8fkV2rdmQ4NCqCQXSccfcuRJ7ylzpSfFIIh2KR0IIIa6geHTO2rVrpV69enLXXXfJgAEDZOTIkfLII4+oZVgHfMXjxYsXpWTJkkos6mTMmFFuuukm1RaYxKNpuyeeeEK2b9/uWDyiDY5J7y+aoHgMnaQQj9ZYJST2zQ9kKRe8dghex3DM32gnFI/OQvEYvaF49D+HYME5AYpHJlKjr1E7UDyGD4pHhkl9iT1+UWJP/mVc5zi/X1FzP5rW8XMuiXQoHgkhhLiC4jE0rGJRC0Cr0PMVjyZ8RaBJPOq+hw8frtojx48fl8uXLzsWjzExMXL33XdLo0aN4pdEDxSPoZPU4jFQ8KX2/rhATDKRG7xGeK1Mr2FShOLRWSgeozcUj/7nECw4J0DxyERq9DVqB4rH8EHxyDBMqKF4JJEOxSMhhBBXUDyGRlKLR2vfGifiEUO9NmnSRNKnTy+PPvpo1M0FSfEYOpEiHhnGTigenYXiMXpD8eh/DsGCcwIUj0ykRl+jdqB4DB8UjwzDhBqKRxLpUDwSQghxBcVjaJjEI6oSjxw5IufOnfMTj1euXJElS5bIxIkTPcEwrRiu1Y54tFY8YhmGdNVDvCYkHiEdhw4dKvfff7+sWbNGzUX50ksvyenTp+NbpH4oHkOH4pFJSaF4dBaKx+gNxaP/OQQLzglQPDKRGn2N2oHiMXxQPDIME2ooHkmkQ/FICCHEFRSPzsAwp9myZVNzM1pz8803S6ZMmZT8W7ZsmZ941ALxtddeU+LPmi1btqg2kIZ33HGHp0/0obdDpaKe47Fv375Su3ZttT/sN5h4PHXqlFSrVk1tv3DhQrXs7Nmz8vHHH0v27NllwYIFcvVqhH87GAYoHkMnEsQjvtBGDsTl0AUmkoPXCMHrZXotEzsUj85C8Ri9oXj0P4dgwTkBikcmUqOvUTtQPIYPikeGYUINxSOJdCgeCSGEuILi0RmoHoTMu3TpUvwSM5CJ9evXlzNnzqjHWiDq6kYTwSoeTdvpdSbxiArLypUryz/+8Q8pVqyYqsS0AtmIist06dJJxowZZfPmzfFrUicUj6GT1OIR8wSe+kvkXNz7Cj+MpXzwGuIawmt6xOEX/aGE4tFZKB6jNxSP/ucQLDgnQPHIRGr0NWoHisfwQfHIMEyo4WddEulQPBJCCHEFxWNonDhxQooUKeKpQjQF69EOJLV4BFiGCs1gXL58WbZu3apuUzMUj6GTFOJRy8aUJIlIaOADdmJKSIpHZ6F4jN5QPPqfQ7DgnADFIxOp0deoHSgewwfFI8MwoYbikUQ6FI+EEEJcQfEYGqgYhFSE3DMFczKahlq1ztWIYN7HQYMGybBhw4KKR+t2O3bskLlz58rJkyeDikdyA4rH0ElM8QjhiMpGEp3gw/bxMH9hR/HoLBSP0RuKR/9zCBacE6B4ZCI1+hq1A8Vj+KB4ZBgm1FA8kkiH4pEQQogrKB5DA0OZQhpOnDjRmHr16nmJx4sXL0rJkiW9KiIRyEIMiTpz5kxZt26dn3g0bffII4/Id999p4ZPpXi0B8Vj6CSGeNQVjoQAfOgOVwUkxaOzUDxGbyge/c8hWHBOgOKRidToa9QOFI/hg+KRYZhQQ/FIIh2KR0IIIa6geAwNXYn42muvSaVKlYyxzvFoB1PFYzCCDbXat29fL1mZUKzDwqZGKB5Dx614jD0rsuO0yNaTcdf4b0ykZnvca3TwvMj5ZHw/R/UrpLTpOrIbikdnoXiM3lA8+p9DsOCcAMUjE6nR16gdKB7DB8UjwzChhuKRRDoUj4QQQlxB8RgaWvoFm7PRKeEUjzExMcZKzECZM2eO/Pln3CfnVArFY+i4EY8xZ/0FFxPZgYA8djH+xU4G8AEc1bCm68lOKB6dheIxekPx6H8OwYJzAqGKx+krt8igSXO8HrfpOcirjW+2/HJe1h88pdrtiPvla2rjG7RF36Z11nQZNFqW7DhoXKeD9WhnWmdNOPtCVuw+qoLnK9C5bD/+p0xctFbWHTiZ4PODdWiz8fAZ43rf4FibdeqZ4HPu5JwCZffpK+o8Nvz8u6NjNEVfo3ageAwfFI8Mw4QaikcS6VA8EkIIcQXFY2ho6XfTTTcFDaSgXZyKRz3cKyQjh1oNDsVj6IQqHikdU3ZQ/ZhcuJGPFI/OQvEYvaF49D+HYME5AafiETLpk3KV5LmXXpPH8+VX9+u16ijdh42XDz8tq9pAokGy9RkzTcbNX6luNxw6LdXrNpGpyzepdluPXfDq97uW7eXfd6WXjJkyq7Ts1lctR9t+42ao+5BYlWvVV/vU0SLv88pfy5RlGz39Iehj2PSFnsdYj3a4D8lWtmpNTz84By3mrH2hD31MyBdf1fbryxoIxh4jJqro88bxIzhHfS6IVfStij2mznXB5r2e5wfnZj1XfZyQk2iDbXRf1j58n1sc66vvfOBZjtfG2ideU93Oek44V5zzfx7IJP/3f/8nd9+bQT3O9dgTMmv1dk87vC5almIf1vPwPUYn0deoHSgewwfFI8NEX2LPXlPZc+Z/nuz+/eqNnL6iEnPqsie7Tv6tsvO3vzw5/0fcPyoIiWAoHgkhhLiC4jFyuHz5shruFLdOuXr1qpw8eTKkbaMBisfQCVU8brIMrbr6yCXpOHSyurXKLZ3lBy/IvB3HvIJl1jarDv8pPcbOkQ6DJ3pl4soYr370PsYt2y6t+4zyrPM9hprNO8qCmBPq/uLY0zJ13T5PW7vpM2mhyrpjV6T/1CVex4S+sQ/TdtbjRKzH4hu9D/146U9nZe0vl9X9FYcuyjctOqlbvT5cQeVjcg67CkKRjxSPzkLxGL2hePQ/h2DBOQGn4hGSaemun6XbkLHSrvcQmbs+RlUx9h07XYkmtMGXlGt+OiElylaUkbOXSN2WHZTUSkg8WqWcDtpCcmo5Zo11G5N49O0zkCzUwm7S4nVKGL705ruevqx9YFmWh7NLwSJFJc8T+aT451949YOgLc4TferzxjIk2PHoY7CKR4g8LB88ZZ58XKaCuo/nevPRc6oNHuu+rH2YxGPeZwqp1wwiFOvRVvddvnotTzvT87N633HJkftR6TRgpN86xLpfxHoevsfoJPoatQPFY/jQnzGq1G6gfoYRXH86uO6Rjz4r70mx0uU8weuuUqqMJx+U/Fzl/U8+8+S9EqVV3v34U0/eKV5K5e2PSt5IsU9U3vqwhCdvfvCxyhvvF/fk9fc+UnntvWKevPruhzfyzgcqr7z9vicvv/WeCn7mdV584x2Voq+/7ckLr711Pa++6cnzr7yhUuTl1z3BexXy3xdf9eTZoq+oFH7h5Rt5/iWVQkVe9ATvK0iB517w5Jn/Pq+S/9kinjxd+LnrKfRfT54q+KxKvgKFPcHPvM6T+QuqPPF0AU8ef+qZ68mX35PH8j6t8uiTT3mC9zok9+N5PXnksSdV8EcInjz6uErOPI95gvcNJPsjeTzJliu3ysM5H/Eka45c15M9pycPZcuhgvdcncxZs6k8+NDDnmTKkvVGMj+k8sCDWTzRfzRy/wMPeoI/pkDuy/iAJxnuz3g9/7nfk3vv+4/KPRnu8wR/gIGkv+deT+66+x6Vf6e/+0buSq+S7t93efKvdP/25M5/pVNJe+e/PLkj7Z0qae5IeyNp7lD5Z5o0ntz+z3+q3Hb77Z7cetttKrfceqsn/3fLLdfzf//nyc0336zyj3/8wxPTH5uHmv0Hf45/JyEkMqF4JIQQ4gqKRxINUDyGTijiMeaMt8SCaKtQu7GfTNSBqLPKxBpN20vdtj2MbSEInynykrTqM1I2nLjmWd6y13ApV6O+vFeqvIxZslVGLtwoDTv1VeuadhuklufI84S6xeOK3zZRghPrrW0TCtqhPe53HTlDBcexKPaU6q/n+HlSv0NvdR/78N2+bf+x6rnQx4ll+ljGLN4ixcpUUin4wqvqebHuA4KyeqM28s4nZWXO1iMJPq9uE2t/itpEA9WPcadnvM5MoXh0ForH6A3Fo/85BAvOCTgVjxBLkAEd+49QUhFfwM9eu1MJNXzxi4pEPbymFnConIPUciIeIS+3Hf9Dte3Yb7hxyM6ExGPVOo2k16jJnseBxJoWZ3bEo94+UF9oi21wH9WSaIdlernuC5m8ZL18Vukr9VzMWLVVSRireNTtfPel5Z6v1LMKQOtybG8Vj9Z1nQeO8lSa4st0SCTr+uW7jyhB07bXYCV/UKGJ18a3DaQSKjEXbtmnrg+Kx5SLRzx+29AoFhiGYQLlpwOH4t9JCIlMKB4JIYS4guKRRAMUj6ETinhEtZxVYKEi75OKXyvB9lm1b6VKvZZSs1kHmbv9F692OiYROG39T/Lh51/Kl3WaKnHYZcQ0eb1YKek4ZJIs3vu7ko6oipy+Yb+Sc759QAyiYnL2lsPqsa94hOjT0g+B5DNVaEIqjpi/Xt3XUhDnBxn49LMvyBP5C0ujzv1V348+VUAdi952+YHzUrluC89xvvbBJ0q0vv3x555jQVBBieP7cc9Jzz4gGr9q3FYJyEEzV6jnAvL1o7KVE0084nUMJ9viPqIsPyEy88j1W+TniyJn/o5vEADIR9N1ZgrFo7NQPEZvKB79zyFYcE7AqXhEhWOJcl+qYdbwuE7ztmroTgg1iCbdDvM5fvlNXSW6INRQgYMqm0DiEZIO61HRg2oXSC70i7Za1kFioXoG/elhQgMNtYrhXlGphOUYPg7LrAIP91HNo/sJNNSqr3i0U/GoxWPDtl1VpRUqoPRy3RcC6Ye+ug8dp84Jx2sSj2iHyiTMm4jHwcQjqppQ6YWqIBwjKrww3Kx1qFUdPMbzDHGMx9bnR69D5m/co5bhOW3asYeqdBowYZann7HzVqjXpf/4mUpc4hgoHlMuFI9MYkRX1+mKO8RTiacr8+Kiq/V0BR+iq/p0pR+iq/90RaCKpVJQVw9aKwp1laG18lBXI+oKRZX4qkVdyYjo6kZd8YjoKkhdGYl4KiZ1BWVcdFWlrrREdPWlrshEdJWmrtxUsVR06ipPXfmJ6GpQXSGKeCpHdSVpXHR1qa44RXQVqq5MRXS1qq5gVYmvatWVroiuftUVsQh+p1I8kkiH4pEQQogrKB5JNEDxGDpuKx6t1YCoVixVqaa6xWMst1Yt6kAQdh4+1WsZhkmtWr+Vygtvvq9EI+7X+b67TFm711NdiH5xHzIx12N51f70esjLz6vXkdGLNiu5CEk4eNZKr/0EC4QgJCHkIx5DCD6cK49UrttcylT/Tiav3iO9JsxXVY2Qg/qYdPSx+d7HLR7rdjj2St81U8+NFo9WkarvJ3bFI+KWQftEii0RKTwneKqvFZl15PrPqolzcb9nTNeabygenYXiMXpD8eh/DsGCcwJOxSMkXqvu/dQXk/his0KNOrLt14tKqEE06XaQWF/Va6qq4CCz0CZYxSMycdFaz/yIOq1/6K+q6LAeEguiziSzrLIQGTptgZT6ooraFyoZscwq1qz3dVDNh/7xJa7uy+58iDpW8Ris4hESD0NYYmjIMXOXq3PCsfqKR90OyyAosQzr8Niu1MN8jDh2vAZ6GV5HyNZvm7WRETMXqecax4fnDOuxD/QfKBhKF5WP6AeCGcNkYihWfWwUjykX/Rlj3IJVnoxfuFplwo9rPMHPK4KfLx1U8SJTlm64kbifAQQ/+zrTVmxWwR8O6KDqV2fm6m0quHY9WbNDBaJcZ866XSr4gwideRt2q0CY6yzYFHs9cdelDt5XkB+3/uTJom37VRZvP+AJ5mJV2XnIEww3jSyLOewJKn8RzPOqs3LPLypePz97f1XBEMY6+HnSWbv/NxW8d+pgiGUEf8jhyc+/q6AaXGfTkbMqGI5ZB38EguBnUwfvBSrH//AE7zUI/gBDR8/bp+fyQ/T8fnrOPxXMARgX6/yAeG/Qf/TBRE/wx5WERDIUj4QQQlxB8UiiAYrH0HEqHg9eEPnl4g1x5Tv/oTVYPnPzIc/jsl/XU9GP52w76uln/a9X1TyIEHQQfZjDEfch3RAIRcx/OH75DiUjfUVdq94j1H0ITIg8LftmbDqo5KS12lEHAlTvHxk4Y7nUatFZHSO201LQKlcRHCceY1/W7VEZCWGqjzNP3vzy9H+LqspIbIc283f+Kh98VlE9L3is97Fg13EpX7OBej4xnGvOR5+UfIWKyPOvvxuR4hES0Y5w9A22wbYm7Mz5SPHoLBSP0RuKR/9zCBacE3AqHhF8oe4rCBFICKzHF9Flq9ZUomLQ5LlSu+n3anko4hHzm2lZhy/tUREJMYH7+JJ/yNT5SjZYxSMkBuZbgyCADEEFHiSGVRbq+/gCHV/8oz8tOK19IThf7EM/Rqx9WYNjRfUijr10xWqqna94xJfxmP+xTot2SoBg/jfIR6uww/ODL/LRpmGbLkomYG47zMkYaI5HBIIGlSnWKhoEw59q8Qi5ULNRS/m0QlUlFSA00Bf6xtCvaIPztb4OmMsOx68fQ8iin54jJylZCZGCOfDQh/U8TMdoN/oatQPFY/gI52cMhmGiKxSPJNKheCSEEOIKikcSDVA8ho4T8QjpiA9Q+GLWKq8gyzDkKIYHbdFzmJSuUksq1Goka3+57NVOSzbrMh0MTwoRiGFMIRYxB2SbfmPUPIhY32PcXHnu1bflpbeLKWlnFY/YD4ZofbdkOSUUIf6sVYaYW9FXMvoGovDj8tXUthj29NPK30jrPqM8x4u+MPeklpZvFi+t2vv202fSQq/jxDJ9LFj3+oclldTU7a3PSZOuA9V2b5coo47DWvGIYWERnCsEJ2QohnY1VZTazcHz8S+6Q1C9aJKK+Ucdk9yt50n22kMl+7fDJE/bHyX/2N+MbVtvu/5zawXX1pEEZAHFo7NQPEZvKB79zyFYcE4gFPFolWs6lWrVU6IJ6yG4IBwhz7BMC72ExCPmgvQVZhhyD/vDelT0YA5JVO+VqVJDDUGKdRBnWhZi35CeVlGISiccI6qvtCxEBRPa6UrGr+s384hTX/GopaF+jEBYQgZalyGoEoJsQyA00Q7b6z5wCyGKIWoh7rANjg+S1irs8Pyg2rNK7QaqD7SD3MN2EK5oY5J6JiGKdrpPBMOuNunwg99cjYFkKuL7nCA4/xoNW3jmjcRx4Tm0ngfFY8qD4pFhmFBD8UgiHYpHQgghrgiXePxf3KddhonUUDyGjhPxqNviQ5RVYGGuwvdLV1BVgHgMiQhxhyo+a7tg4hFp3mOo1GvfS0m6EQs2qD6X7T9nbGsVj6ZYxSP2WaNpe782CcV6vOgLfep1vo+DRR8LpCEqO63rgj0nVvEIEdus+2AlYFGRiarLV98v4XnOQ8l5h39Ugp8zo3Sc/T95pNl0uSv/m/KvPP+Vuwq+I3cVeFvuzF1Y0hd8Vx5tv1i18d0OfZnko+na06F4dBaKx+gNxaP/OQQLzgmEKh59RRyWQTRZlyGoftT3ExKPJrllN3a2DSbWrPHtC+eGY9dCUQfC085QgtheP2e4NbVBf1ZhZ3p+dLAukNQznaPuO1ifSLDnx87zi+hjo3hMuVA8MgwTaigeSaRD8UgIIcQV4RCPDBNNoXg0Py+oRLNyyqfqEWINczKiGrDsV3XVfIjW9QgqDxHf5ToQmDWbd1T9VK7bQg05GqiiD1WD/aYsNq5DMAzqkn1n1H0M6aqHd9XBMLCo1PTdzhrr8aIvDKOqKx6Rpt0G+W1jivVYfBPsOUGFI7bFrWm9m8SeiX8hHRCo0jFn/bFy+30PyUOVukje/rsl/5jjKnn77ZIHSzeTNA8+oqofTduaKh+DzfdI8egsFI/RG4pH/3MIFpwTCEU8YihTXSlojZ7/MFAw3Cmq/VDZqIf9tAbbm/rFsJ6+bX1To0FzNcyoaZ0O1qOdaZ01vn0FOl/MkYgKR+u2puj53jDn47DpC41tUP2IakG0C/T86GAd2mA+ON91vpWcTo412PNj5/lFIJpxHpiXLtAx2o2+Ru1A8Rg+KB4Zhgk1FI8k0qF4JIQQ4gqKR4ZxFopH8/NiEjzHLHM9Mikn20/Hv4AOGLTPXxoi+eJWQDrmqDdGCk7/y299wWmX5KEvO0vabPnk6eGH/dYj6NsKPqRjWF/TdUjx6CwUj9Ebikf/cwgWnBMIRTwyTFJEX6N2oHgMHxSPDMOEGopHEulQPBJCCHEFxSPDOAvFo/9zctynIs0KhutE9ZxJcDGRFQhHyGKn4Es3kzBEMpVqrIZYLTz7mnE98szEM/KvR5+Th7/ua1yP2K16pHh0ForH6A3Fo/85BAvOCVA8MpEafY3ageIxfFA8MgwTaigeSaRD8UgIIcQVFI8M4ywUj/7PiZ0PTVevXX/u8GU0E3lxQ6AhVgvNuCzpHn9BHq7ey7heB5WQmT5pKPe9WUkKzbxibIMhV63gmsPwvr7XIsWjs1A8Rm8oHv3PIVhwToDikYnU6GvUDhSP4YPikWFSV9bv/1XW7f0lURJz6m+vfVE8kkiH4pEQQogrKB4ZxlkoHr2fj2DVjiT1E6zaseCUi3Jn7sKSq/Ek43odCMqsVXvIvS99JgWn/Wlsg/hWPeLatF6LCMWjs1A8Rm8oHv3PIVhwTiC5xGPs2Wuy+/erxnUMg+hr1A4Uj+GD4pFhUlcWrtsqC9ZsSZTsPPGn174oHkmkQ/FICCHEFRSPDOMsFI/ezweGvCTRS6C5HRFUL96V/w3JXKaVcb0OZON/3qkm939QUwrNumpsg8w6Er/TePBh3XotIhSPzkLxGL2hePQ/h2DBOYHkEo/LYg5L5Vr1JebUZeN6htHXqB0oHsMHxSPDpK5o8bgwjKF4JCkVikdCCCGuoHhkGGehePR+Ptxi/aKaSfyEm0DDrOpg3sY7cxWQglP/MK5Hnh75i6TN8bTkajzZuF4H+/LFd7hVikdnoXiM3lA8+p9DsOCcQCjicfvxP6Vpxx6S54l8kjlrNnULibjt14ueNi279VWxbrf79BXpMmi0LNgUqx7XbdlBxi9c7dWGYXT0NWoHisfwQfHIMKkrrHgk5AYUj4QQQlxB8cgwzkLxeOO5cDrM6t9XRU7FbX/sokjsGZGNvzFJne2nr+fg+euvxXmXFasmQWjNM+NOyh1Zn1AVjaZhVCEk73m+hKTL+7I8M/GM33prii2J36kFVNxafz4pHp2F4jF6Q/Hofw7BgnMCTsUjhkitWPM7af1Df89QqVjWfeg4KVa6nJKLWPZdy/Yq1m0hLD/6rLwMmDBLPR47b4XUadHOqw3D6Ohr1A4Uj+GD4pFhUlcoHgm5AcUjIYQQV1A8MoyzUDzeeC6cDLMKwWUSYUzyByI4VEyC0Cuzr0nefrvkljvTS7onX5I8bRbKM+NOSf6xv8kjLWZK2hz55fb7H5anhh0yb+8TX3yHW6V4dBaKx+gNxaP/OQQLzgk4FY9bj12QDz8tK6tij3kt33TkrFq+5qcT6nHngaOkVfd+Xm18s3z3ESn1RRXZEfeL2LSeie7oa9QOFI/hI1TxiD9AWH/wlPp5xh8ZDJ++UDYcOm1smxiZtHidzNuw27guUFbuPiqj5yz1/MFEKAllvwyTlDGJxwrVakqLDt2kVafuKq07/6BuG7Zqp9ZNmrfUbxtTKB5JSoPikRBCiCsoHhnGWSgebzwXdj4socqR1Y2RH1RBOhWQ/7tmloOezP6fPN59vfzr0efkH7fcJnc+Ukj+L82d8o//u0Xl/+5IJ3fmLiw33/ZPuavgO0pQQlQa+4qPCetwqxSPzkLxGL2hePQ/h2DBOYFQhlpt2KaLqlTUFY+4bdNzkJSr9o3nC/x+42aoWLfzzboDJ+XTClWVzDStZ6I7+hq1A8Vj+EhIPEIqDpk8V3qNnOQJ5N2Gn3+X54q+LAPGz5TVscfkybxPy9TlmzzbYfntt9wSMFkfelhtZ92XzsbDZ6T6tw2l9BdV/NK+12DV5uPPykv91h39tkVGzPhRPihR2ms4aATHhGO28x5UqUYd+f6H/n7LTftF24eyZA0Y07EwTGLFJB7rNG4uk+cvle4Dh0vHnv2lW/+hMnbmAhk3c6HUrNdYatVvIlMXrvDbzjcUjySlQfFICCHEFRSPDOMsFI/Xn4fDNiQVqxxTXpzKR5McRApOuShZq/wg/3wgh9z/fg15euRRtbzA5POSt3+M5B2wxzPvY75B+yTDK2UlTZZHJWfD8VJw+l9efVlj4tRfN34+KR6dheIxekPx6H8OwYJzAqGIR4jGCjXqSMZMmaVgkaKSLVduefXdD5WQ0G3siEeIivLVa1E8Msboa9QOFI/hIyHxCDmYM+cj8tYHxT3yr+H3ndUfEgQTj8GC9tg2kHi0yk5IvsxZHpJ2vQapx6g4RJtg4jGQYHQiHgP1b1oOUYpzMWXo1Pny+jsf8H2PSbKYxGP95t/LzCVrZOCYydJ76BjpO2KcTFmwTKVRq/YycPQkqV67nkz7caVMX7xKSco5Kzb49UPxSFIaFI+EEEJcQfHIMM5C8Xj9ecCXtgnBSseUGSfzPmLeRV85iLkcH67eW9LmeFpyt5wthWb87dfGN5CQ2WsPlTuy5ZVcTaZIoZlX/NqY5ngE1nkeKR6dheIxekPx6H8OwYJzAqGIRwTzN2qxOGXZRvm88tde66ev3KJiXYZgSNaYU5fVfQzXWvzzL1j5wxijr1E7UDyGDzvi0SQVIdIg8br0HyEzV2+Txx5/0rZ4RDv0ib5N661B9WL27Dllxe4jXsshAGvWb6b68B2+uU2PAZI7z2OyZt9xWfvTCSlcpKiqPMxwbwZb4hH9vfrWe1KuSg01pCyOQVcvpk2TJqDwNAUCtUjRVygemSRLQPG4dK207Nhd6jZrLXWbtpLR0+bKjMWr5bsmLaVx6/ZSoVoNNQQrqh/LV64uI6fM9uuH4pGkNCgeCSGEuILikWGcheLx+vOQkHhE5ZxJaiHjlm2XIXNW+y3vOHSyVK3fSuWrxm1lyb4zavm6Y1ek/9QlUvLLGtK4ywDpMmKaerz2l8uyYNdxWRBzQgbPWinNug9Wyyes2Cmlq9aWFj2HyaLYU9KwU1/PPgbNXOHpf+LKGPm+72i1fMravVKjaXuZv/NXGblwo+oHy9cc/Vv1884nZaVcjfrSqs9IzzqdSat2y4xNB2XejmOe/qo3aiNP/7eovF+6ggyYvsxrm+UHzkud77ur46hSr6W06j1CFseelrb9x8qHn38pPcbOkSZdB6r+cG5Yp7fFuSw/eEGGzVsrHQZPVP0OnbvG75jcBMOu2sVPPM7+nzzacZmSjo80m25LOuoUnHZJsn0zSO54+El5su8Ov/WBxCOuUf3zSfHoLBSP0RuKR/9zCBacE3AqHlHJA2FYvW4T6dhvuLo/eMo8+bhMBXUfc7zhi3nM9ajne7Ru+2T+gtK0Yw/1ePKS9VLtu8ZebRhGR1+jdqB4DB9uxSNkXqYHM8s96e+2LR7Hz18p+QsUVlWTpvU6eG+B/IPs6zN6itc6iMe70v1byUCIQb0c1ZKoMMTxdBk4SlVsQz7iPCBJ7YjH2Wt3ysNZs0mOHLnkx60/KRGJ7ZH3PioZVDz6VlXiuCExObctk1QJJh4nzl0sY2bMV8OsYl5HDK+K2ykLl8vQCdOlYvWaUrnGt/LGux+oqkfffigeSUqD4pEQQogrKB4ZxlkoHq8/D7gNREJDrELsQcxBnCEQgL5t6rXvJT/uOel5DMH4bauu0rrPKCUtOw+fKit//kMth4yEtISUg4Br02+MkpIQlENmr/ISjwjW1WvXU8lGiMER89dL026DlKSEEByxYIOXyOs7eZFU/LaJVG/4vVpe+MXXZfLqPZ71WIZzsopHyERIRchKiMdPK38jc7f/4tlGB+eIc91w4poSj2W/ric/jJktDTr2kbpte0ifSQtV37q9Fo/6FsusojRcOXg+/sVMgEH7vOUg5GG6vC/LA580UJWP1nV2UmDyBbn35TJy93+L+a3DvkxQPIYeisfoDcWj/zkEC84JOBWPmMvxk3KVAqZeq47qC/USZSuq+G6/7fgfnrkhW3XvJ8OmL/RrwzCIvkbtQPEYPtyKR9+hVlHRjDkNdYWgKZCVaW67TQ2happHUaf3qMmqkhLDrOZ59HGZt2G3Z51pyFOIygatO8lLr70lI2cukly5cntJSTtDraJKu+grb6jhZNHXf194SVbv/dWzPtAQrDq++0A1aN/RU/3aMSkrmM944qK1XkOM62A0gA8/Leu3XAd/lPPFV7Vlwea9qp2+NjAawOg5y6THiImyYFOsun6xPKH+Ekow8diiQzdp0KKNNGjZVqVhq3Zxy7rK7OXrlJB89a13pH2PftJn+Fi1zLcfikeS0qB4JIQQ4gqKR4ZxForH68/D6b/iFxgINsSqrl6EcER1HyoIIQgh7az5ukk7JRX1dpByc7YekZa9hkvXkTOUeFQVjzEn5JMKX8lHZSt7xGOfyT9KmerfSf0Ovf0qHiEBqzVorSobtSjUt5B/aOtboQjxCLlZq0Vntdy6DttAokJ8oh+ITFRAYh84t2Y/DPGrkkQlpz7PMUu2quNEFeS3rbsp6Yl96ePCdnbEYyCx6SZ2hlzddNpbDj7aYama1/GpYYe8ljtJvoGxcku6eyRvv11ey/Hlngl8aNc/nxSPzkLxGL2hePQ/h2DBOYFQh1p1G/3Fq+lLW4ZB9DVqB4rH8GFHPKL67/77M3rEISoNa9RrahSPkCeohMYyOzFJQMjLeq06SMaMD8igibNVn6hWzJDhPrV8529/+QlADMX69ocfqypFLSgxzCm2qVq7vhJHwcQj9jFq1mK1ffHS5dQxQAxV+7aBZLjnXhk2bYFqZ90vqrqrf9vQM/cl8uKrb8p//nO/fFKmgtdyZMaqrV77ZFJOcM1ABqLS33edVRRivVUuWpdZxSPy4hvvqNEEMIrAK2+/L43adfPrL5QEEo8YVnXYpJkyYPREr2AZ5n8cMn6qVPq6lnxR9Ws11+P8VZv8+qF4JCkNikdCCCGuoHhkGGeheLz+PAQTjyaJZc36X69KvymLpWazDkpArjh0UVYfuaREW8/x86TjkEnqvhZrCNpAUE5dt89T4YchSCH4ICTxWItHiD0MpYqhTCvXba7EnrUfVCHqIV0x9CpkKKopcUwQnL4VhBB6OFa0x3CvA6YtVcshHVGR2H30LLU9hkjVFY+rDv+pHuP8UIE5fcN+T39aPKLSEeIRghUSFUPEjl60+Xq/k39U0rT3xAVqCFj00XbAOFWpiedFi00cL5ZbjzdcwXC5dqi+9oYc/M/bVVTFYuHZ17ykoaPM/p/8O98rkuWL9p5l2Ecw9M8nxaOzUDxGbyge/c8hWHBOILnEI77AT2hYRSa6o69RO1A8ho+ExKN1qFIE8ybi51lXNqKiEMt9qyIh/XzFmzUVqteSpTsOeu1LBxKxbKWvZO76GK/lS7YfkAkLVqn7vuJx6c5DqkJx89FznmUIHuP4cD+hikccc4/hEzxV2jo4Hj03rXW/+EMKbNNr5CRbWbn7qFe/TMpJuMUj5kouXbGap8px0bb98k7xUmpdolU8LlkjdRq3kOq160m1WnU9wZyO0xetVPM8tunWW3oPHSNzVmzw6wOheCQpDYpHQgghrgiHeDx7mWEiOwl9KeAkFI/Xnwc8ryauXDNLLGsg+7qNmqnuQ7ZpWYcEGjYUok63g6TD3IsQhgiWWcWjta2uDtT94HH5mg38hnlFnxj2FFLU9xhQVfllnaZKPGLIVchCvQ7bQBRiu1mbf/bs13oMgc4J69FOP9aSEccFOWpdp6MrHSEv9RyYun88l5gb0nebUIPKVTug6lHP9Zg2+1OSs+GEGxIxxDxUqYvcVfAdz+NA1Y6affE/nxSPzkLxGL2hePQ/h2DBOYHkEo8Mk1D0NWoHisfwEepnjEo16niGSYWYfOXNd2X2mh2e9RAoWlb6BsOPYgjVhOaEREWhaXsdq9yxBkIQog/yUovOxm27yvKYw8b2pqB/bKO3R189R0z0CEjfQMZOXbZRWnXrq9p/07CFqpLE0K2m9kzKCq41yECreMQw47hGA4nH6Su3qCHJ3ytRWoq+/raXeIRU/6Dk555RADCM67sff6r6TCzxiKFTMcfjuJkLvTJhziI1zGqJz8pJ+crVZfriVcZqR4TikaQ0KB4JIYS4Ihzi8UIAAUFIpEDxGDpOxSPeD0wSyxot9yDYMKwppJ9ehypGiD5re8RaQYgMm7fWaz1EJCoHsW2wttahXk39IL7H4NufaU5K3W7m5kOe+9Zt5mw76tcebdFOP0Yb3R7bWtfpYF5KLVt1Aj1nbrP9dPyLagM91+Otd90nj3VZ5RGGoSZX06lyx0OPq/uB5na0on8+KR6dheIxekPx6H8OwYJzAmcSEDYMk1zR16gdKB7DRyifMSBLXn79bSlXpYanYss3GO7Ut+JPB3M2Zs+eM0HxCLlpnRvSmrRp0hjnWkTlI+aD/Lh0OVWNiGrF2Wt3SpN23dTQra279/PbxjeYWxJt6zRrI5OXrFcScvScpfLpF5Xl4YezewlWBMIxU6YH5b2PSkrXQaM954lhWjGPJWRkoOeJSRmBLHy26CvywINZJF+BwpI5azZ59Z0PpHnnXnHXyxSjeNTbmioecT0079Jbcj+eV15/7yN59MmnlKhE+8QSjxCKmL+xWbvO0rRtXNp0UmnVqbuqcixcpKjU+K5hwGpHhOKRpDQoHgkhhLiC4pFEAxSPoRNIPAYaavW3uOfaJLGYlBcn4hGg6vHW9PcraZh/zAlXyVajv9yRLW+CQ6wCzvEYeigeozcUj/7nECw4J4C5b03rGSa5c01fpDageAwfTj9jQJhgSNPHn8wnuXLlVpLO1A5SEJJOVwz6JthQq3biO9SqDgTju8U+UXM6+q7rM3pK0KFWEVQ0vvDy60og+q7DuRcrVcZvvziWui3aeS3TGTV7iXquMEStaT2T8jNs+kI1hzHu2xWPeh0qZTccOu0lpiEg2/Qc5HnsNIHE46xl62Tg6EnSZ/hY6TdivKpynL96swrmf8TyBi3ayNyVG/2216F4JCkNikdCCCGuoHgk0QDFY+gEEo+4NYFqEJPEYlJmnICfs5yl6sodDz8pd+V/80aeeSt4CrztnbhlabI8Ks/X6RHfc3BwjeqfT4pHZ6F4jN5QPPqfQ7DgnADFIxOpcQLFY/iw+xkD8x6i0u/N94pJoedeUJWEM1ZtlUdyPyplvqyuJKJVnkDOQchZ+whnAonH4dMXKiE6bcVmr+NZf/CUkoaflq9klJI62KbiV7Xl/eKl1DbW5Tjf3HkeUwLTuk2tRi3l2edfVHNQWpdDYtas30w9Z3pITSblZs1PJyT/s0UkY6bMfrGKxxdefVM6DRgpdVt2kBLlvlRi0iQecX1geFVUUBYsUtSTJ54u4OkvlJjEY92mrWTajytVZWOXvoOla78hMmziDJmzfL0SjahyHD1trjRo2ZbikaQqKB4JIYS4guKRRAMUj6ETSDziS1sTl66aBZY1mOOxSr2W8vI7H6k5EzsOnSzLD5yXOt93V4/7TFqohkPFcKyYzxBzHWI+w9Z9RkmjTv285j7EshWHLnr1P3f7L1KzWQc1J2Plus2l5/h5nnXop+OQSWoZhi3V8zCuPnJJHQdu9ZyJ1mOqULux6hN9Y6jTriOme4ZC7TFuriyKPeXZR2rJwfPxL6oDzpw5I5/1mCE564+VHPXGqOB+zgbjAqfheL+803W2nD9v7wDOWUQAxaOzUDxGbyge/c8hWHBOAD+npvUMk9xxAsVj+LDzGQOirljJz5Vk/GHoOFWlpddBnjTr2EMezJxFVRvq5ZCCt99yS9CYxKHdBBKPEIRj5y6XAoWfU8OxYqjTu9L9Ww2dWv3bhgHnaLQGkrBF517qnLAt+kBfmJcSFZ5WoYng+WjZpbc8nDWb3HnHHWoo2Az3ZpAM99yrhlvdfPScV3smdcU6NCqunUGT5kiPERNl1podSl6v2H3UKB5xi+FapyzbGLC/UGISjyXLfCGNW7e/McSqZahVpEmbjlKncXNp2KodxSNJVVA8EkIIcQXFI4kGKB5DJ5B4PHwxfoEPV66ZJZY1o37cJDWbd5S2/ccqMdhn8o9q3kes6zZqppJ9xctV9YjHSat2S6veI6Rhp74qVvFYrUFradVnZMB5ETEfI9bpx5gPcdyy7TJhxS4v8Yj9QC7iVotHvQ0k5betusqGE9fU48mr9ygJOXbpNjWvJO5jrkrdPrUkFPGomXXk+tCrvnM3JhRsg22dQPEYeigeozcUj/7nECw4J41pPcMkZ47H/TvXCRSP4SOcnzEYJhqTkCgMNNRqUorHcIXikaQ0KB4JIYS4guKRRAMUj6HjVDwCzA1oElnImqN/S4uew1Q1og5EI+QiJCSqIdFOVzzi/oBpS+Xj8tWkxBfVvcTjnG1HlVSs0bR93LYt1P2hc9eo6kO0QSANOw+f6hGbg2etlN4TFyjhiH28X7qC2jcE4tslyqhbLR4hMSFH0XbgjOXqOBfu/k0dP7ZpO2CcdB05Q8Ys2aqWrf3lstpHasmpAMPpOgESEfM0miSjNa23OReOmlN/3fj5pHh0ForH6A3Fo/85BAvOSQPJY2rDMMkVp7/rKB7DB8Ujw7iLdY5HU1AFOXHRWlX5iHa66ha3b39UMujQraGE4pGQG1A8EkIIcQXFI4kGKB5DJ5B4PBCkGi72jFlk6UDaaelYrkZ9adlruFo+ZM5qVY1ovQ8JiGpDSD1TxSPuN+4yQElBtEdVohaPXzdpJ1PX7ZMFMSe8xCOGSdXiEbcQjF81bqvW4ZggOrEO28zZekSJSxwPBKPuJxrydxjFweE/rmdVXL86O+KuEwRfgLrh4IUbP58Uj85C8Ri9oXj0P4dgwTlp8EWhqQ3DJEeOBPlDsEBQPIYPikeGSV2heCTkBhSPhBBCXEHxSKIBisfQCSQekUBSB8LKJLJ0IPgwN+OQ2atUhSOGPMXyflMWqwpFSMNOw6Yo6YgKST3Eqa94xDpUOy7bf04Jwe/a/KAko94P2mLoVP0Y0WJSzx2pxSOGYMV6CM7h89Yp8QhBCjH6zidl1dCvJb+soeaBtPaXWnMshC8ykwvrzyfFo7NQPEZvKB79zyFYcE5WWPXIREpC+T1H8Rg+KB4ZJnWF4pGQG1A8EkIIcQXFY2QxZ84c6dixo1y65GyMw1C3ixYoHkMnmHg84iN5rGCYTpPQQvQQqTrD5q31W95lxDSPDNRZceiizNh4wGseR0hEDHeKqsTZWw57tYfQXHfsitcya9DPzM2H/JZjv1aBGW1BxWpKwTq/I0Lx6CwUj9Ebikf/cwgWnJMVfFlorbZmmOSI07kdNRSP4YPikWFSV1bHHJLVOw8kSnad/MtrXxSPJNKheCSEEOIKisek4erVq3LixAk5duyYV44fPy6XL994Atu3by9FixaVCxcuxC+5LhUHDRoU/8iMaTtyA4rH0AkmHvGlazASGnKVicycT0Hv6ZDf1p9PikdnoXiM3lA8+p9DsOCcfOGQq0xyJpQhVjUUj+GD4pFhmFBD8UgiHYpHQgghrqB4TBogHYsUKSKZM2f2JGPGjJIuXTrZuHFjfCuzQMSysmXLxj8yQ/EYHIrH0AkmHpFgYgdDrlI+pqygUjUlYb0WEYpHZ6F4jN5QPPqfQ7DgnEz4Vl0zTFIkoT/8SgiKx/BB8cgwTKiheCSRDsUjIYQQV1A8Jh+oeMybNy/FYxJA8Rg6CYnHhIb5gnzEfIEmycVETrafvv5apSRMX/hTPDoLxWP0huLR/xyCBecUCFY+MkkZN5WOGorH8EHxyDBMqKF4JJEOxSMhhBBXUDwmHxSPSQfFY+gkJB7xV/d25A6rHyM3EMMpEdP8ahSPzkLxGL2hePQ/h2DBOQUDXx5CCJm2ZZhw5fRf8RecSygewwfFI8MwoYbikUQ6FI+EEEJcQfGYNFy5ckWWLFkiEydO9GTAgAGSLVs2WbdunWf+xyZNmjgSj5gfEvNHUjwGh+IxdBISjwjm2bML5Mrvf4kcjrtUf4rbdnfcP1uZpA2ee1SqpuT37kDDG1I8OgvFY/SG4tH/HIIF52QHvDdRQDLhTriEo4biMXxQPDIME2ooHkmkQ/FICCHEFRSPSQOEIMTga6+9JpUqVfKkZs2asnbtWs/8j2nTpjWKx6xZs3q2gYR85JFHJH369HLHHXeoikmKx+BQPIaOHfGIpCTBQ1I+pmpHhOLRWSgeozcUj/7nECw4Jyfgy0QtIQO9XzGMKbheEMjGcAtHDcVj+KB4ZBgm1FA8kkiH4pEQQogrKB6TBi0eZ8yYEb/EjEkgzpkzRzp06OBVLamrJFHtCCgeg0PxGDp2xSO+JCMkKTj1l/kaRCgenYXiMXpD8eh/DsGCcyIktUDxGD4oHhkmdWbPod9kT9wHX9M6J4k99bfsjj0se3+/4reO4pFEOhSPhBBCXEHxmDS4EY++XLp0SQ3Lipw6dUquXbum5GTHjh3VOuIPxWPo2BWPCKseSWKDD+ima0+H4tFZKB6jNxSP/ucQLDgnQlILFI/hg+KRYVJpzl6THVOnSMzmHbL39GVzmwSy+6ejqo89h08b11M8kkiH4pEQQogrKB6TBi0ehw8f7pGGCOZ9HDRokGzfvl21CyYeV65cKQUKFJB//OMfkjFjRs/QrGnSpJEWLVrIn3/GffIlRigeQ8eJeETVIz9AkcQE84marj0dikdnoXiM3lA8+p9DsOCcCEktUDyGD4pHhkm9iT1+UTZ3bC7bp0ySvSf/MrYxJfbsNdm1fJVsrF9Vdm3cpiSmqR0/N5NIh+KREEKIKygekwYtHm+66SbJkCGDkoZI3rx5pXLlyhITE6PaBRKPO3fuVO0HDBggly97P+EHDhyQ559/Xr755htV/Uj8oXgMHSfiEeGQqySxSEg6IhSPzkLxGL2hePQ/h2DBORGSWqB4DB8UjwyTurN72x7ZWPUT2dKrk3G4VN9gaNVtI4fImtfyyI5Zs2TvGfO/mxCKRxLpUDwSQghxBcVjZBFIPGKI1sKFC8vZs2fjl3jDOR6DQ/EYOk7FIwJBREg4CTavozUUj85C8Ri9oXj0P4dgwTkRklqgeAwfFI8Mk/qzY/4C2VC9pGzp1lZij5wOWMEYe+ycbOnUSla/kE02t2tsbGMNxSOJdCgeCSGEuILiMbJIqOKxbdu2cvHixfiloioct2zZItmyZZPmzZvHLyW+UDyGTijiEYEoIiQc4Bo0XWOmUDw6C8Vj9Ibi0f8cggXnREhqgeIxfFA8MkwU5PcrsmPaFNncpqFsHzNC9vx0zE8+YtmmxjVk1XOZZX31UmqYVut6UygeSaRD8UgIIcQVFI+RRbDKxV27dqkhVTFca/r06SVTpkxy8803q6Fbe/bs6TcEK7kBxWPohCoeEcpH4hYn0hGheHQWisfoDcWj/zkEC86JkNQCxWP4oHhkmOhI7Mm/ZOeCBbJtzEjZuWix7Dlw3LNuT+wh2fhdJVldJKusK/2qxGzbreZ5tG5vCsUjiXQoHgkhhLiC4jGygHA8depU0LkasQ5tjh07JpcuXYpfSoJB8Rg6bsQjQvlIQuVc3O8W0zUVLBSPzkLxGL2hePQ/h2DBORGSWqB4DB8Uj0xKypIdB2XErMVey1bsPio9Rkz0ZOKitbLmpxNSr1VHtX7dgZPyTeNWUrVOI1m++4haVqNBc5m1ertXP7tO/u0n23bEfXBcve+4xJy67LUM/e/+/ap6jHVog+W6zcbDZ2RV7DG/bXW2Hrsg6w+eUvvDdmirg3W+7dFu26/XKxD1/nR77Mu3faBg/saY9Vtk1/KVErNuo+z+6ajsPnhCtnRqIeuKF5G17z4tu1asltgg8zpaQ/FIIh2KR0IIIa6geCTRAMVj6LgVj8jBC/xgRZxhd05H31A8OgvFY/SG4tH/HIIF50RIaoHiMXxQPDIpKZ0GjJS3i33iJwIh4MpWrSkzVm31SL/qdZuodeWr15KVe36RDYdOq/ubjpyVzyt/LVOWbfT0Aan35gcfq+31MojJj8tUkOZdestr7xVTshHisvjnX8h3LdvLl9/UlaW7fpZipctJm56D5MU33pG562OUOHzrwxLy0Wfl1TFBluo+kWkrNssn5SopEdq0Yw+ZvnKLeowUfv4l1Ze1/eLtB9Ry7BeP0R/6RfuX3nxXKtWq59U+oaDyMSZmv8Rs3i67liyTbaOGycYG1WV92bdkx9x5xm0ChZ+PSaRD8UgIIcQVFI8kGqB4DJ1wiEeE8pHYAdfIEYdCwBqKR2eheIzeUDz6n0Ow4JwISS1QPIYPikcmJQSysG7LDvJ1/WbSZ/RUJfUWbtnnqVBE9eDThZ9T6wZNmiPvlSgtpStWUxKwXLVv1Hrch+wziUdT0LeuamzUrpuMnL1E2vYaLMOmL1TrKteqLz9u/cnTpt+4GWo99lPtu8bGykUE1ZdaUEKEbvj5d7Ucx4jj2378T79ttEi1LoN8xTJUP1qX2wnk4+6de2XnokWytX9P2dSwumPpiPCzMYl0KB4JIYS4guKRRAMUj6ETLvGIQD5y6FUSCFwbuEZM147dUDw6C8Vj9Ibi0f8cggXnREhqgeIxfFA8MpEeSL6h0xYo0aiXbT56TvqPn6kkIu5DJI6bv1K++Ppb6TZkrBp+VYu6BZtiVbVgyfKVZc66XWqZHfGos/v0FSUv52/cIy279fVsZ72PfNusjZKTqKxE9eO7H3+qblGhiOUYBlYfF0QitrHe7z50nJKXuI/hYtEeghKPTeJx/MLV0qxTT69ldhP725+ye8tO2TF7pmzu3FI2Vi8pOyaMM7YNFopHEulQPBJCCHEFxSOJBigeQyec4lGHApJYwTXmVjjqUDw6C8Vj9Ibi0f8cggXnREhqgeIxfFA8MpEe69CivkF1I8QipCAEJYZDnbl6m6oe7DVqstoeczd26DtMVRrqVKndwG8I1EDpOXKSNGzTRfUfSDxOWrxOSU/f+RxxDA2+76yOB/IQQ7+axCP6xvaLtu1Xy/Vwsbpq0iQecUxj563wWmYrGGp1a4zsXL5Cto0ZKZta15d1HxeRta89KtunTDRvEyAUjyTSoXgkhBDiCopHEg1QPIZOYohHHQrI6MbtsKqmUDw6C8Vj9Ibi0f8cggXnREhqgeIxfFA8MikpEH0Qfr7LIR8/LFVGOg8cpSoeS5StqIZdxTpULOqKQx3MjWitVoQQRFUj+tHLkHELVqm5HPXwp10Hj5G+Y6erPiFDF28/oCoxS31RRVU6og2GXoVIxH2IRwhC3R+C+SGxbwyxiuFgUbW55Zfzaj+4tbbV8RWP6B9zO2LOSWu7hIJKx13LV8nO+fNkx5w5snvHPtkT+7NsrPG5rH7uIVn9am7ZtfBH2fv7FeP2vqF4JJEOxSMhhBBXUDySaIDiMXQSUzzqQEDGfR5NUZKIhAY+YIdjSNVAoXh0ForH6A3Fo/85BAvOiZDUAsVj+KB4ZFJSAolHVD626z3EI/ww7OpX9Zqq+6garFjzOyUIIfAQzItorU7Edqg2tM6viKFM7743g7z9UUlPdSUqKiEtX3uvmJr3EX1my5VbLUObNj0HKVn5wmtvycdlKsgb7xf3k4MYPvXZoq/Iq+984KnKxDF9+GlZ47yQes7KXI89IfVadVSSFO3QHtv5tg+U2BN/yLZJE2Tr4L6yffo02b33sGfd7pj9sqHG57Kq0P2ytsTzsmvDVtkb/1wGC8UjiXQoHgkhhLgiHOIRXzYxTKTHdO2GEopH8/MSrmgJee4yRWRKBx+mEbyOkI2m1zvcoXh0ljVx/+l9MtGVn+P+M10TCYXikZCUD8Vj+KB4ZFJSMDzqiFmL/ZajynDAhFmqghACsMug0R6JCFEHYaeHZ9WZvnKLXz92AkmJ4VtN66zBfk3LERyv77CsiZnYU3/LtkF9ZON3lWRr/56y56df/MTi7oMnZFOzb2XVfx+UdV+8K7HHzNWX1lA8kkiH4pEQQogrwiEeGSaaQvFofl4SM1oeH4gLxCQTucFrFE7R7zQUj87yoyz07JOJrmyTrcZrIqFQPBKS8qF4DB8UjwyT+rN98gRZW/w52dT8W9nzy1ljGyT2t0uytXdnWf18VtnYpIaxjTUUjyTSoXgkhBDiCopHhnEWikfz88IwkRCKR+fR+2SiK0vj/jNdDwmF4pGQlA/FY/igeGSY1J2YTdtlfcUPZEvPTrL3tI0qy7g226dMlLXvPi07Jo4POt8jxSOJdCgeCSGEuILikWGcheLR/LwwTCSE4tF5Lsofnv0y0RPTtWAnFI+EpHwoHsMHxSPDpN7E/npeNrdrIjtmz5LYk38Z2wTKrnWbZFOzWrJr9XqJPWP+txPFI4l0KB4JIYS4guKRYZyF4tH8vIQ7+89fD4bvhExCfv2TSSk5fPF68PrhdTS9xokRikfnOSQ/e/bLREcgm03Xgp1QPBKS8qF4DB8UjwyTOgNZuG3sKInZtT9o1WKw7Dl0UrZPnyZ7Dv5mXE/xSCIdikdCCCGuoHhkGGeheDQ/L24DQXXqr5Qliogz8OEar/ERh1/4OwnFo/MskPmseoyyrJQVxmvBTigeCUn5UDyGD4pHhkmd2bP/14CVio5y9prs/ukXo7ykeCSRDsUjIYQQV1A8MoyzUDyan5dQomUjP3RFH3jNz10Ov4SkeAwtMbLbs28mdec3OWm8BuyG4pGQlA/FY/igeGQYJtTwMzCJdCgeCSGEuILikWGcheLR/Lw4iRaOhAB86A6XgKR4DD2sekz9cTPEqg7FIyEpH4rH8EHxyDBMqKF4JJEOxSMhhBBXUDwyjLNQPJqfFzuhcCTBQAUkrhHTtWM3FI+hh0Oupv64GWJVh+KRkJQPxWP4oHhkGCbUUDySSIfikRBCiCsoHhnGWSgezc9LoOyI+2epymmRLSeZSMuuuNdm31mRn89fF1/JDT6AQ06briU7oXh0n0Pys+c4mNQRDK8aDumIUDwSkvKheAwfFI8Mw4QaikcS6VA8EkIIcQXFI8M4C8Wj+XnxTexZka0nRTb+xqSUbD8d9+HiYvwLnczgujNdVwmF4jE8gaRi9WPqCObvNL3GoYbikZCUD8Vj+KB4ZBgm1FA8kkiH4pEQQogrKB4ZxlkoHs3Pi29MYotJGTl4Pv7FTmbwYdzp0KsUj+ENpBWq5SAhKSJTRvA6oWp1s2wKW5WjNRSPhKR8KB7DB8UjwzChhuKRRDoUj4QQQlxB8cgwzkLxaH5erLFT6VizeUdZEHNC3V937IqMXbpN3c7YdFD6TVnstR5ZfeSSzNtxzJMl+87IuGXbpXWfUZ421gRbh/6HzVur9mFdvvaXy7Li0EWvZdZMXBkjHQZP9AqWYd2YxVukWJlKXmnabZBnWxx/x6GT1S0e+56fPm/cxzGUrlrbaz0yZ9tRFf14cexpmbpun1ebcOX85fgXPJnBB/LjDr7Uo3hM3MySmUyEZoZMN75m4Q7FY/i5Gtf5lbjgOfuTcRU8h3gu8ZySwFA8hg+KR4ZhQg3FI4l0KB4JIYS4guKRYZyF4tH8vOjExsVXYtVt20NqNG2vRF3/qUuUYKz4bRMlECHP2vYfKy++9aG67TVhvjTs1NezXvcB4fbh51+qfl56u5j0GDdXRi7cqNpC5kHkQfahn29bdfWsw7Z9Ji2UR58qIE//t6gMnrVSLe86cobah+4fwTY4Vusya+p36C09x8/zEqDLD15Q6yAtF+w67lk+ZslWKV+zgVoHAfleqfKSI88T6haPfc9v0MwVUq1Ba3Uffb7zSVmv9QiOuVDR1zxiU5+rtU24Ensm/gWPAPCh/IhNSUDxyDCJG4rH8HH6r7j3tovm/THug4p5PMfEH4rH8EHxyDBMqKF4JJEOxSMhhBBXhEM8Xrgs8r9rDBO5gYwwXbuhhOLR/Lzo7D7jL7Eg+iD1rMs+Ll9NSn5ZQxbu/k2mrf9JSlWqqW6HzFltFI+I7kevs8pFHb3Mug7CDtFtsNxXPG44cU3qfN9dCj7/iszcfMiz3BqrQNVB5STWYX81m3VQx6WDqky97aLYU9Jj7ByZveWwemw9P0jLsl/VlQ8+qyhT1u4NKh6t52E6/3AF8z2GkzUnRWYdERm+/3q6xVy/xTJcN6cS+HIYH8ztDLtK8cgwiRuKR/eci/t3s2kfTOKEAtIfisfwQfHIMEyooXgkkQ7FIyGEEFeESzwSEslQPIaOU/GI+QF9JZauFITQgzgbsWCDl3hbvPd3VcWIisdcj+eTWi06+4nHzsOnqnVP5C+sqherN2ojfScvUuINou7V90uoakJUAkLwQcrleiyvEpoQhK8XK6XEIvZR8IVXvcQjpGDZr+tJo0791JCnb3/8uQyZvUrW/3rVs3/foV6twTpsh32hCvHJZ55Vx4EqTKybs/WI2hfE6ufV68joRZvVepxLn8k/ykflqqhzwRCrles2l4EzlhvFI6o+rdIT0UO9JkauurzW8WVc620ixZaIFJ6TcNAW2wQCH85N15w1FI8Mk7iheHSHk6GjmfCG8vEGFI/hg+KRYZhQQ/FIIh2KR0IIIa6geCTRAMVj6DgRjxgO88zf/gILYtBX1FnFIoZC/bTyN1KvXU8lJSETfcUjYppHEZIR/Veo3Vjd6rZ2Kx5R6Yi5FXUlIrLq8J/qmJb+dNazzCT9dEb9uElVO1at30pVcUJy4j6CIVRxLK16j1D9YJ5HvW99ftahYnXK1ajvVTGJIWIxVCwCYQkJqx9jnW4XzqBaOFQgEU1y0U4G7QssIBOqFKJ4ZJjEDcVj6HBY1eQPqh8JxWM4oXhkGCbUUDySSIfikRBCiCsoHkk0QPEYOnbFo/4y79JVs8TyFYkQcBBrE1bsUsOuLtt/Tuq176XmOQwkHn2rDlFFiWpKVAqiQvDpZ19QIu7ld4ureRS1eIRERBXjsy+9oYY0/bZ1N6+KR7vBMKhvlyijKhQhB1FlCRmKdSYpqiseMZTql3Wayrsly6nlEJrW84P8RNWl9dxKV63tWa8DQYrKStMQq9iP3heeD/S5/MB5dWtt5yShgC/gqq81C8WnhhyQ7N8Okwc/ay4Pft5SctQbI0+POGJsiz4CycdgFUMUjwyTuKF4DA1WOkZO8FpEOxSP4YPikWGYUEPxSCIdikdCCCGuoHgk0QDFY+jYFY+oRANXrpkllkkkIhBj1iFNtVQztYcsbNlruEfOIdYqR2tMck4Hy7V41EOk+kpDBNWU1u0gM7uMmOZ53HviAmnQsY9XGx0cG2RooOOznh/alKn+nUxdt89zXgtiTng9LwiOG+el5aJ1HeafbNZ9sPQYN1cNG4vtIUYhNK3t7AZD5joFX76ZJGKhWVfl4a/7Stps+eRfjz8vGV77QjK8Wk7+lee/alnOhhOk8Oz/+W2HIVpN8jHYkKsUjwyTuKF4dA7eh0x9MskX/W+WaIXiMXxQPDIME2ooHkmkQ/FICCHEFRSPJBqgeAwdO+IRQ6xaORXXxldkDZu31m+IUgxf6ttOSzVdEWldZ6oqhAy0ttGBUESFoGkd+l+4+ze1D9P6QIEI7D56lqrQxL6/7ztaDctqaotjx7GhCtG03np+aOM71CpkKM7Bug3mc/R9DvG8WtuEI9tPx7+QDglU6fhQpa5ya/r7JVfjyfLMuJNSYPIFlfxjf5NstQbL7RmyqOpH07aB5GOg6iGKR4ZJ3FA8Oie5h1jdEfeLe+PhM7L79BUZN3+lbDh02tgunJm4aK2s2H3UuM6UuetjVEzrEiPRPuQqxWP4oHhkGCbUUDySSIfikRBCiCsoHkk0QPEYOnbEo0nuHLtollpMZAfS8XwI7+mBpOOTfXfIrf/OII92WGpcX3j2NSUd/5kpl+Qb/JOxDeZ89CVQ1SPFI8MkbigenZHQvLThDMTiyNlLpMeIiZ5A5vUbN0M+/LSsbD12QV595wOZsmyjZxvcT5PmDrnpppuM+a5le6996ExfuUU+KVfJL/VadVSiE/vDfn23W/PTCXn7o5Lq1roc+wm0r8RKNFc9UjyGD4pHhmFCDcUjiXQoHgkhhLiC4pFEAxSPoZOQePStdrSCykeILJPgYiIvsWfiXziH4Es3kzCEVLz/g2/k7mc/NK+PT4FJ5yTdky+qykjTesRU9Wj6Qp/ikWESNxSPzkjKuR0hFl947S0l8OyKx2ApU6VGQBkIubgq9pjKmx98LB37DVf31x88JbFnrwUUj2hTsEhRdWtdnhziEZWo0QrFY/igeGQYJtRQPJJIh+KREEKIKygeSTRA8Rg6CYlHOxUDV+OeM/Rz/m8mEgPh5QYMh2qShQWn/yX/eqyIZKs5wLhep9CMv+XBz1rIfa9XiLt/2dgGFZW+mKoeKR4ZJnFD8egMU1+JlUBiEQLwmf8+L50GjJS8zxSyLR4hD3uNmmxcp7Pll/OS/9ki0qp7P6/l2LZSrXoyaNIc2X78T89y7PueDPfJ2HkrVNUjts2YKbOkuSNtkovHaB5uleIxfFA8MgwTaigeSaRD8UgIIcQVFI8pn4MHD0r9+vXVLTFD8Rg6CYlHEt0ErHaMS8EpF+XO3IUlZ8PxxvU6kI0PVe4m9778uRScdsnYBjFVPaLi1no9UjwyTOKG4tE+/4vbyNRXYsWpeER7XbXomyU7D8kLr74p3YaM9VQxWvvUGTN3uWTOmk0KP/+SaqeXm8Qj+ihX7Rt5uvBzqu9NR8562idHxSNyJZQXNhVA8Rg+KB4Zhgk1FI8k0qF4JIQQ4gqKx6Tn6tWrsnbtWqlbt65UqlRJZdCgQXLq1Kn4Fva4cuX6N+obN26UzJkzq1tihuIxdIKJRwwhR6IbzL9okoRIoVlXJX2h9+SBTxoY1+sUnPanZHitvGT8qI4Unv0/YxvENNej73CrFI8Mk7iheLTP1biNTH0lViASX3rzXRk8ZZ6Sh7PW7JDeo6ZIl0GjjUOtQgqa5mn0jZ630Xd/M1dvkyfzF5SJi+L+Tduyg/z3xVdl+e4jap3vUKu7f7+q2hR5+XVZu/83+bRCVXn13Q9l8fYDaj3FY9JC8Rg+KB4Zhgk1FI8k0qF4JIQQ4gqKx6QlJiZGcufOLdmzZ5cffvhBJk6cKGPHjlXyMU2aNNK6dWu5fNn7CS1btqzcdNNNfmnfvr1aT/GYMBSPoRNMPNoZZjUY+L4PX8wySZtwgiFQTZJQJ0e9MZLmocekwOTzxvXIU8N/ljuyPiG5W88zrtexM9wqxSPDJG4oHu2D91tTX4kVyEFIQi0MS1espqocO/YfYRSPehvfakdrsI11HzqohEx/z71KXuIxxGLXwWOUTEQlo1U8Yt3HZSrIa+8Vk1V7f/Vq36JrH1UJmVzi0e1Q4ykVisfwQfHIMEyooXgkkQ7FIyGEEFdQPCYdZ8+elWeffVbatm2rqh592bdvn5KSffv2jV9iBpWOxYsXp3h0AMVj6AQTj04/LP0dd9kfuyhy8Hzcdfsbk1zZflok9sz11+FU3OvpBpMgtKbA5Avyrzz/VZWPuO+3fuJZSfdEUbn7v8VU5aPvemswl6QJ63CrFI8Mk7iJVvEYiqBKavFoCoY5hRxcuecXo3icvnKLV3WjNY/nyx9QBu4+fUXFtA5BFeSK3Uc9jyEa9XCtMacuy4LNe6XP6KkycvYS2Xj4jMxdH6Oi2ydVKB7NIfaheGQYJtRQPJJIh+KREEKIKygekw6IwTx58sj+/fvjl/jTpk0bVeEYjJMnT0q+fPlk4cKF6jHFY8JQPIZOIPF4+GL8AptAOJokGJP8gYiEFA4FkyD0yuxrqqLxlrR3SZrMeSTHdyPU46eGHJCHv+4nt2XILP/MmF3yjzmu2hr7sMTEqb9u/HxSPDJM4obi0T5JPcejKZCM2R/JI4u27Vfib8Oh00r86fXBKh6r120StAoRfadJc4dxVA7EOtQqgv0379Jb7slwn7xd7BOP4MzzRD4176MepjUpg9coGqF4DB8UjwzDhBqKRxLpUDwSQghxBcVj0rF161bJkSOH7NixI36JP40aNZKKFSvGPzIzd+5cyZkzpxw9elQ9pnhMGIrH0AkkHvGlrR0gtFBdZxJeTOQE8hFy2An4wtYkB3UKTrkojzSbLmlz5JfbM2SRe1/8VP75QE657Z4HVNJkeVTuKVpKbr/vIfnX48/Lo+0XJ1j1aMI6zyPFI8MkbigenXEk7n3V1F9SBNWOEHsPZcuhJKJVOOpADmbKktUjAX2jh1J1Gt85HpHV+45L/meLqGpH63IIyUq16knDNl28lidFEhv8ngxXwslpyx/smELsQ/HIMEyooXgkkQ7FIyGEEFdQPCYdmLuxRIkS8tFHH8np06fjl17n2rVrMn36dLn77rtlwYIF8Uv90X188803ahsA4XjHHTf+4nzGjBlqObkBxWPouBGP5+PeG0ySi4ncQBI7wSQHkWfGnZJMnzSUtNnySZYKHdRjLC849Q95evhheXrEESk4/S+17OmRv0imUo1V24cqdws6H6QJXKP655PikWESN9EqHv8I8b3keDJICQxrOm7BKsn7TCGpUKOOqnIs/vkXav7FOet2eYY8RSAHIQmt24cjJvGIuR8LFimq5nbEMerla346Ic8WfUXNG2ltn9jBaxNONsX9037QvuvDgpt+f4Uj6BtpvU1k1pH4HYcAxWP4oHhkGCbUUDySSIfikRBCiCsoHpOWixcvSpUqVeTmm2+WggULSqVKldTQqg888ICSh6hm1ELRxMiRIyVTpkxqPkgNKx4ThuIxdAKJR9wmBKroTHKLiew4mffR9AUrxGGmT5tIusdfkMc6r5RCM6/4tfFNwWmX5JEWM+XORwpK1qo9pNCMy35tAs3xiA/t+ueT4pFhEjcUj86w/mFEUgRVjcVKl5MX33hHzbOoJSNuR89ZJkVefl2+/KauZ/mw6QslY6bMAfP2RyVl268XvfZhJybxiGA41RLlvpT099wrd9+bQdLe+S/J9dgT0n3YeC8ZmRQJ1+8HyEbf31dJFfxexP4hv5yg/y0XKMQ+FI8Mw4QaikcS6VA8EkIIcQXFY9KDisTChQvL4sWLZeLEiepx//79JUuWLHLs2LH4Vv5MnjxZ0qVLJ5MmTYpfch2Kx4SheAydQOIRfy0fjGDDq87ZdlQ6DJ7oCR5jecehk6Vq/VYqJb+sIQtiTni2adt/rFSo3VjKflVXhs9bJw079ZXFsaely4hpnj6wbPnBCzJs3lq1bMqaWGndZ5RnOfqZsemgTFq129OvTstew6Vcjfpq3zWbdZC5239Ry/2OaddxWRR7Suq17yVjlmyVwbNWSv+pS1S/pSrVVMF9LBuxYIOxLfrtPHyq1/khE1fGqOPGLY67Uad+Mm/HMbUO59e4ywB1DOijbtsennPtNWG+usU2NZt39JxrqHEy52P1tT5fhM7+nzzSfIYaXvWxjsttSUedQjP+VvIRQ7A+1mW133rsywTFI8MkXaJVPGJOvFBJzuFWGXPwmrgFwsn0xzfJES0g7ULxGD4oHhmGCTWqxvRaAAAzZ0lEQVQUjyTSoXgkhBDiCorHpAeisWjRonLhwoX4JdeXBRKPGF61Q4cOqiKyZ8+efhWRFI8JQ/EYOoHE49kgP/dOhlgduXCjR8Z9Waepkn51vu8uzX4YIisOXfRrB4kIGYdb0zpIN32r7+vHaNt2wDgl5zacuObZHmnSdaASexB/kJmQmlherUFradVnpFreY+wcWfnzH0oYQiROWbvXSyYiuF+rRWcpXq6qEo+B2pr2933f0R7RqI9bP177y2Vp2m2QOp4JK3ZKhVqNlIzFeizX7Ws0be9aPCJ2h1zFUG/WLz8xRyOqFrNU6KhEonWdnWD41fs/+EbSPfmi37pgX6rqn0+KRyYSMuDcYpWep5f7ZcSf82Xc5VnG7Zxmwc5esmRxO1nX6yvZ3KysMVi3cnwj1Xb2iRHGfpwkWsXjrw4ryqxY/ziCiYy4/d2AYVV9f0dFQuzKx8MJyHBiH4pHhmFCDcUjiXQoHgkhhLiC4jHpcSIeY2NjJX/+/EosLl26NH6pNxSPCUPxGDqhiEcnQ6xqabj6yCWZsGKXeoxA1qFaEG3W/3pVVSSi4hHCDRV+qO5Du+qN2ih5h4pALeNwC0GHNriFkIMAhBBsN3C8qg6s9F0z+XHPSdW/tXJSB8e07tgV1RYyr3LdFko8rjr8p3QaNkUtR789x8+TTyt/Iz3GzVXHgn5mbj6k2uD4TG1nbf5ZVU5CGurgXHG8MzYeUGL0vVLl1TZaPOL467Xrqao9IUKxDoJx7NJtat/ot8QX1cMmHhEI5ITAF27WLz1zt5gl/8yYXfKPOeG13Ekw/+Mtd6aXJ3ps9FoejH3xP58Uj0xypfWRTfLGkj+8rtmE8snakzL8z/nG/oJl8apOcqjgU/JrxoccBdtgW1OfdhOt4tFthdy5uPdTU79M0gevhRsiVTrq2JGPpufFGmIfikeGYUINxSOJdCgeCSGEuILiMWmYM2eOms8Ree211+Tee++V8uXLey277bbbpHTp0upx/fr15cyZM6raEUOyYm7IQFA8JgzFY+iEIh5NEitQIBhHzF+vxCOEGuRe99GzpOOQSUrC6XbLD5xXlZAY8hSVkZB8WuyNX75DiUI9/Oh3bX5QVYEDZyxXgg5Z+tNZVTWo+4NURPTjZfvPKSmJPnBMqIics/WINOjYR+0XgfgbMnuVEpO6b8hE7FsfC6Qj1mnxaGqL45i+Yb/q3yoeIVchFrEPHAe20eIRGb1oszqe9oMmSLdRM2XN0b/Vc4bna8D0Zap9OMXjMZtftLfeduMLzwyvlJX/vFPN60vQUJK+8PvyYOlmnscJfZGqfz4pHpmkDsQhBKL1+nUaSEtT36bEFn/FKBWdZEPnKjL38GBj/wklWsXjgRt/KxYyGKLc1DeTdDnuonIV+P6xTah5vNtaebT9EptzIP8puVvNUduY1puC0QiCYXpurCH2oXhkGCbUUDySSIfikRBCiCsoHpOGmJgYNZ+j3UBU/vmnvW9HKB4ThuIxdAKJx0BzPF666i+wrIEsa9FzmGfeRARSD2LROqwp5lu0SjfcxzJdkYgqQgg8PeciRCHEG6Tbkn1n1HJUMmIZMurHTV77RDB/o+4fom/2lsPqPqomxy3brvpE31oOahGICkxUIEKWQi5qmYh9IrivZaSpLfZhHVZVB8eut9fHbW3jOxQr2utKUVRiYlk4xaPd4VbxpZue5+qOrE/II82m+30J6jQPV+8l/376dc/jYFiHMaR4ZJIykI7W69ZNvtu327gPa8IhHXUgH037SCjRKh6RcHxByMrH5IvbSkfgN69xkGQsVltuy5DZK3naLFTr8Ec66Z4oKgUmX1CPC067JPlHHfPOmONSaMZldf/2DFnUNtb+gwW/kwNh/Z0ZKMQ+FI8Mw4QaikcS6VA8EkIIcQXFY8qH4jFhKB5DJ5B4xK0JvB+YJJadQCZqsaiHNdXrcB/L9HoIPGvFIoJ5FK3LIA4xT6TvclPQDkO4ou8pa2L95oBEUM1oPSYEchNi0boMwTI9T6SOte3ElTGec7HOKamD40HFp3V/1m1M52/3XO0GQ+baBRWJ+LLzlnT3ymNdVvt9Ceo0jzSbJmmyPKruJ1TtiGtU/3xSPDJJGbeVjr7pcXqFcT/IqnENjQLRTUKRj9EsHsP1foIvGln9mHTBMLnh+HLX6RCrEIX/uOU2uffF0nLfm5VUnui1xbPOKh4faT5DbrrpJq/cfPsdasjxUMQjgtEITJyyce0R+5jE47bjf0j/8TOkWKkyUuzjT6TYR8WlVKlSUrNmTWnTpo30799fhgwZIiNHjpSxY8eqPzqdPHmyJ5MmTWKYFB19HeMW1zeuc1zvuO779esnrVu3lq+//lo+L1NG3njzTfmgeAn5sOTn0qbXINl18m+/n6nEyKZTcZ/NfhWZfkRk1IHr6bPnerAMwXrTtuEKxSOJdCgeCSGEuILiMeWD4VhPnDihbokZisfQCSQe8aWtid/+NEssJmXGCfiS87Z7H5Qc342Qp4YdcpWHKnaStDmfUdUlCWGtIKJ4ZJIqGB7V9GW/m2COSNOcjxgW1SQOwxGnQ65Gs3iEsAknWkBCjJn2x4SegxeuP7fh/FLXSbUjAlEIYQhxaFqnBWOWL9r7rc9cro3cmv5+eWrI/pDFY6CqxyM2rn1iH1/x2G3IWHmmQCFp0qSJ7Ny5U86ePRvfkhASiN9//122bdsmderUkafzPyPVvmvs9XMVrqyO+2zTYafIu4vM75umoG3djSKD95r7dBOKRxLpUDwSQghxBcUjiQYoHkMnkHg8HGD+vzN/mwUWkzLjlDfrdJZ/PpBT7njocTXsqrp9+MnAyZbXmH8+kENe/35cfK/BoXhkkiOmL6fCEdN8j6hMNEnDcASVlL77C5ZoFo8QNomF52c/7v+Y0BP3v0TD9PMaLEbxOPuaFJp1Va1L8+AjkuO7kZK3f4zXdhh29a4Cb6s/vnlmwu8hi0dkq+GrQdO17RtiHy0ed/9+VT4tX1G6dOki587xSSQkVE6dOiXNmjWTPI89LjUatvB7fwolkI2m90ingYREXxCYpv04DcUjiXQoHgkhhLiC4pFEAxSPoRNIPB44H7/Ah4TmeNTzJtZr30vGLNkqg2et9Mx7iGFI2w+aoO7rORL1dphzEUOtYo5D3O84ZJJaXr1RG/myTlOvuSL1NkPmrJb6HXqrIUj1/Ipzth31Gt5Uz5WI+R6t8z/O2HTQ0w/maew6coZUqddSmnQdqPrDcgyDiuFX9fFgDkacH4ZsxXyV9dr1lB/3nPT0k9JyMMBrHIw//vhDms/YIo93W2vJusDpvt6YFjO3yaVLAcbz9eG4pdqA4pFJioy7PNv4hRQCaaDvQzBgjrZA602ptO1nv/1tr1XCKA2tOZwxixzB7f1ZjOsDBX377i9Yolk8IvySMDrZeMr88xosuqrx1rszqvkdcYvHD3/dT62zDrVqDYZXxTCrD37WXD12Ix4774o/gXhw/Zqua98Q+2jx+P4nn8mIESPilxJC3AKJj/fMTFmyhiwgMVyqk+pGu9EC0rRPJ+G/KUikQ/FICCHEFRSPJBqgeAydQOIRMUmdK9f8BZY1EHMQjJCOmI/QKh6Hzl0jJb+sIUt/OusnHnG/07ApSjxi21a9R6jlgcQjhB9EIETjB59VlI/KVZGe4+d5+oPExJyJWjxa509En9Z995uyWAZMW6ruL9h1XNr2H6vu41iwD7TFLYJj0/uBmGzabZASl7qvlJRQxKMGc2FhmDfTh/VgwVB22NYJGFJPX5MUj0xSZNgfC7yuWwjG3K3nqblJc9QbrWRjrqZT5bEuq9Scp5CNWJe71RzJ2XC8kg0Q7492XCZPjzji1ReGW/Xdn0kYWrPlvgel7B3/klbp7pbJ9/xHLRue/j7Z85/Mfm19E1v8Fb/9BUu0i0dUWJPoY8GxGz+jdpPtm0GeuR3/80419RhzOT4z7lRA8Vhg4ln5d75X1HzJefvuVMvciMfvfKZ/tzO/I0LsA/G4aNt+effdd+OXEELCAaaRKVKkiGdYaqcC8ouV5vfFcAYC0k31I8UjiXQoHgkhhLiC4pFEAxSPoRNMPAaa72r7abPI0oFAHDZvrZJ+kHSfVv5G+k5eJK37jFLiEFWPfSb/qCoJ0R6yEpIS1YuQiwhk4PjlO7yqFBFULmIbiETIQkhFyD9d8Yh1EJu1W3aRtb9c9ohHSEOIRH2M1kAmYp9zth6RNv3GSO+JC9TyIbNXyScVv5bv2vwgLXoOuy4649rgOHC8kJhYPnvLYan4bRPpNmqm2sa3/0jNKXsFh0GBRIRMTEhCYn5Ip8IRWIdZRSgemaRIt5OrvK7fglP/UGIxT5sFkrP+WHmy11bJ3Xqu5Pl+vjzZZ/t1MdlqjmQp306y1RwQt2xHXPvp8kTPzVJg8nmvvpCp16Z57c8kDK3Z9p8HZczd90nvu+6V0XG30+65X2bde78MSp9BdtmQj9Z9JZRoF4+JOdwqiVzGH/T+GbUbDKOaq9FEY/CeUHDan562z4w/LXc/95H6gv2hLzt7lrsRj2VWxp9APKZr2hRiH4jHMlVqyKZNm+KXEELCxfLlyz3i0Sogl+w4aHzvQiACk0I66ripfqR4JJEOxSMhhBBXUDySaIDiMXSCiUdUmplApZxJZOlAyA2csdwjHrUQHDRzhUcglq5Sy0s8Qgpi+NOvm7STqev2qcpDDHkKsae3QbUkqimxDWQihkXFsKfYpkbT9koYLtt/Tqo3/F4NkYp21orHxl0GqD5wfKiUxHqd1UcuqX6wXzzGMK3YZ7Pug6VWi86eikesa9VnpDp2CE+rzITwhOzUjyM9f4dZHByPu3aQA3HXjQ5+B7nBOswqQvHIJEX6nl3q98UTKhdR4QjxWGDSOcnVeJJ6DAmJ9aryccpFeaLXFtU2a9Ueku2bgfJk721+ffnu71DBp4zC0JoF92aUVRkyycR7/iNLMjwgnf99j7ofk4B4RN+++wuWaBePCL8ojD5CFY9Zvmivvii/9d8Z1HCr1vzrsSKSf8wJ9YcJOeqNkf+7I53c9I+bJWu1nmouSN1HuMSj3WFWEWKfX/6Ie62efdb28PCEEPtgvsecOXMa5aPpvQtDq5reC5MiochH/nuCRDoUj4QQQlwRLvH4R1w/DBOpoXgMnWDiETGJHQirYFWPGHoUghAyz1qJCDEIQQjxp+dg1NvodqgkXHfsiloGYVi+ZgPVHsHwqRjeVG+D/jGfJMSlZ/s1sUo+6jYQj+izZrMOUq5GfXnnk7JKKEJorjn6t4qWm68XK6WGdUXbWZt/VuvQ9/B56zziERWX6EP3hdtJq3Z79pdSEo5qx6QA8tt6PVI8MkkR36FWrdFzOD4z8YxHKuAxhlSEQMAwi1ap4BvTUKuc4zH8uBGPgar9SerFjXjEfI2Yt9G0XiXu/SBz+baSJnNuNcex7/pwiUe7w6wixD4xv5yWcuXKxT8ihIQbDGPsKx6Rjz4r7/W+lZzSUcepfKR4JJEOxSMhhBBXhEM8Mkw0heLR+/lAxZmJ85fNQss3kIu6ShFVhloiItaqQ7SDjNTrUKEIAQmZqJf5ykprrPuxxioyQw2qGJfsO+OpokzpiT0T/yJGOLg2rdciQvHIJFUgCE1fOrnNd/t2++1r1biGRmkYjmzoXMVvf8FC8cjhVqORUOZ4RCAe//F/t6hb36FWMTwzhldFO/UHCgH+ICEcczw6qXZEiH3mrdooffr0iX9ECAk3TZs2NYpHa9Ujhlc1vQcmRwbv9X9PDRSKRxLpUDwSQghxBcUjwzgLxaP384GKs0AfmhIacpWJzIR7iNXEAl/+W69FhOKRSap8svak8Qsnt+lxeoXfvuYeHmxruFWncTrMKkLxeD2YX5ZED/vj/q1j+nlNKHqoVVMSrISMjxvx2HnX9eN3Uu2IEPt0HzBM5s6dG/+IEBJuBg4caHwPRUbOXqLes5JyTseEgjkfUX3p+75qCsUjiXQoHgkhhLiC4pFhnIXi0f85CVT1CIF17KJZbjGRFwyPi0rVlICp2hGheGSSKsP/nB/2qsdK23427gtBZaJJHrrJ4lWdjPsKForH62HVY3Tx+9/mn9lIz9b4rwZN13CwEPt06z9ENm/eHP+IEBJuFixYYJSOCIZbrbvR/P6XnIF8NL23+obikUQ6FI+EEEJcQfHIMM5C8ej/nKDqMZjgwXyBweZ8ZJI/qE5NSZiqHRGKRyYpg2FRTV84hRLT3I6+iS3+ilEghhL0ZdpHQqF4vBF+YRhdVF9r/tmN5ACn1Y4IsU/LDl1lz5498Y8IIeFmw4YNcssttxjF40NPFTG+90VCIERN76/W8N8RJNKheCSEEOIKikeGcRaKR/PzEqjqUcPqx8hMSqpy1GCIQ9M1iFA8MkkdyEe3lY/Y3jTEqinba5UwikQnQR+mvu2E4vFGWPUYXRyL+3eO6ec3UjPryPXjNl27CYXYp3XHrnLo0KH4R4SQcLNjxw7517/+ZRSPT3VfY3z/i4TYqXqkeCSRDsUjIYQQV1A8MoyzUDyan5eEqh41+ICFnP1b5Nc/RA7HbcckbU7GvYZ/pCAhZwXXDq410zWIUDwyyRFIw1DlY7DhVQMFQ6SGMucjtglleFVrKB69w7keo4vW28w/x5GWYkuuH28o1Y4IsU+jFq3l2LFj8Y8IIeEmNjZWMmTI4Ccd0z35ovH9L5KSUNUjxSOJdCgeCSGEuILikWGcheLR/LwgEEL8AEUSk0BDrOpQPDLJmZ6nV0jdfTFSav1v8tbSi/Lfuf8zpvL2Q/L90Y2qvakfu1mwq7csXdpOVk5sJJtaljdmXZ8aqs3s30YY+3Aaikfv8PdedIGqR0g90xfMkZRNp69fl6Zr1k6IfRq3bC0nT56Mf0QICTcHDhyQBx54wE88Ptp+ifH9L5KSUNUj//1AIh2KR0IIIa6geGQYZ6F4ND8vOvgSlpDEICHpiFA8MkzihuLRP6gqI9FDpA+5CukI7PzODBRinyat2sjvv/M7WEISi59//lkeeughP/Foev+LxEw/Yn6fRSgeSaRD8UgIIcQVFI8M4ywUj+bnxZqE5nskxCnB5nW0huKRYRI3FI/m8MvD6CJSKx/1vI743We6Tu2G2KdZ6zZy9uzZ+EeEkHBz5MgRyZYtm5d0zPBqeeN7YCTmi5Xm91mE/3YgkQ7FIyGEEFdQPDKMs1A8mp8X37AChIQLJ1+gUjwyTOKG4tEcDrkafUA+Vl9r/qI5qQMJqisdcR2arlEnIfZp1rqtnD8f9wZICEkUjh49Kjly5PASj9lrDzW+F0Zigg23yn83kEiH4pEQQogrKB4ZxlkoHs3PiymUj8QtdisddSgeGSZxQ/EYOPydF52gyjC5BCSE46B98QcSj5shVnWIfbr26ivHjx+Pf0QICTf79++Xxx57zEs8PjX0oPE9MZTk7R8jT488alxnjd12psz/xfxeS/FIIh2KR0IIIa4Ih3jEl00ME+kxXbuhhOLR/LwECqtASKhgyF7TNRUsFI8Mk7iheAweysfoBb+zhv8k8u2G6/lsReIEfWM/Ww1f++H6M12XTkPs0/z7dhSPhCQiEI+5cuXySMf/S3uXUe4llIe/7iu3ZcjsFSzL8kV7eaT5DK+2BadclIzFakv+MSc8y0zt7KZvrPm9lp+RSaRD8UgIIcQV4RCPFy7Hd0ZIhILhsEzXbiiheDQ/L8FC+UicgGsl1IoNikeGSdxQPCYc/r4jyQF+35mux1BC7EPxSEji4iseb/9PVqPcsxsIRMT62FcoPjPhd7n7ueKSf9QxVemYq9FEuffF0hSPJOqgeCSEEOIKikcSDVA8hk44xCMC+chKEJIQuEZwrZiuITuheGSYxA3FY8LhH9uQpCac0hEh9okk8Xjx4kUpWbKkLFy4UC5cuCBFixaVGTNmxK+Nu07+/FPmzJkjEydODJglS5bIlSve/3i6du2axMbGSrNmzeSDDz6QzJkzS6FChaRGjRoyf/58uXzZ3pcBOCb0v27dOrl0Ke4DhQUcZ5YsWeTYsWPq8dWrV+XEiRPqsTVnzpxR64HpHDWDBg1S56o5ePCgtGzZUm2P9tgO2wcC7Xz37RscH44zIbZv3y5vvfWWat++fXspW7Zs/Bp/8Fziegp2bNGGr3i8I1s+o9yzk0Izr8g9RUvJPc+XkEIzLqtlEI+33Jle7nmhpKp0xLLHuqxWgjNng3FSYPIFJSAzfdokZPHYdrv5vZb/ViCRDsUjIYQQV1A8kmiA4jF0wiUedSggiQlcZ26Eow7FI8Mkbige7YXykSQVuM5M16CbEPskh3iEyHriiSeUANSBcPz11189Is4k5SDT6tevL5UqVTLmtdde8xNykJBfffWV5MiRQ8aOHStHjhzxiDcIzrffflteeeUVOXv2bPwW/kBcdu7cWW699VZ56aWX1D7SpEkjw4cPV+uAr3iEpCtSpIjXOaZNm9ZL2gUTj2gHyafZuHGj5M2bV/VvRzzWrl3bb98333yzZMqUybMMx4fj9AXb9u3bN/6R975N4hHycvz48ZI9e3a1H/SdPn16ueuuu9TrBaEczYRNPM6+JtlrD5WMxb+TLBU6yIOftZCC0/70q3jE/JF3FXxHHuuySu7+bzHJ1WSKFJp11VgZaTf1Npnfa/nvBBLpUDwSQghxBcUjiQYoHkMn3OJRhwKSAHzgDnVYVVOiRTwuuLqcYZIlFI/2Q/lIEpvEkI4IsU9yiEeIrMcee0y2bt3qkYCnTp2Sc+fOeURcMCkXCJOQQ98QgoH6+fnnn9Wx4JgCgSrHbNmyye7du+OXiKxcuVJy5swpO3fuVI/Rv1U8mtDSDrdaQiH62CBCtRSE5NQSD5J28ODBjsSjFchRyNdnnnlGfv894e/bg0lPX/GIvjt06CB58uSRLVu2eEQswGtaunRpJYTtHmtqxFc8pnuiqFHuJZSsVX6QBz5poGQjRGKOemMkV9OpXkLx6ZG/SIZXy0m+gbHqMSogs9ceIgUmnqV4JFEJxSMhhBBXUDySaIDiMXQSSzzq4IvZ43Gvzzm+j0QN+JAN6Wy6HtwmGsQjw0RiKB7NwR9W8ItFkhgklnREiH2SSzxqkWVFy0aIqvLly8u9994bUBiamDx5sp+QQ8Vj1apVJV++fDJ37ly1T51Vq1bJ+++/r4ScqfJPA9kGgWaVavpY9fH5ikfsF8LSOgws+rBKO98+MHyr9fh08PqsXr06ZPGI84QkfeSRR5QktJ6HCSfi8ejRo0qM4vhMQD5iWFtI1WglnEOt6vkarYFYzDdon1c7iMncLWbJf96pJve9WUke+Liu5B2wx6uNk3CoVZJSoXgkhBDiCopHEg1QPIZOYotHayAh8SUtpBREJPadksQR8QYfpvH64bXEa5pYstEaikeGSZ5QPAYOKx9JuMHvNtO1Fq4Q+0SieKxXr56MHDlSiTIn4rFNmzZeUkyDoUAh3ypXrqz6RBUhKhghAiEEMXdkMDBEK+QZJJpm3759avjWFStWqMe+4lGfCySqdThYzN0YExOj9ms6R8yR2LNnT7UcGTNmjDp+63NmVzzivCAa7777biVlDx06JLlz55Zq1ap5nYsVyE8MPwvBqEXovHnzlFw0iUdUrT766KNKrpnwlavRiK94xNyLJrlnJybxeO+Lpf0qGR8oUV8ert5bCk67pB7nH3Nc7n25jDzafolXO7uheCQpFYpHQgghrqB4JNEAxWPo+IqbxBSPDOM2FI8MkzyheAweykcSLhJbOiLEPpEgHiHbUDkHMaYlla+wwpyDehhSO0F79GmtOEwoEIImMP8j5oHE/I6jRo1SQQUlRCKOHeA4TeLRJNzmzJmjtjVVdeK4X3jhBXUsa9euVaIQ0hDPGWTpgAEDlJgNJh4xZC0k62233abE565du+LXXF9Xo0YNNZTrs88+K3v27Ilfc52TJ08qkYhjmz9/vnouM2TIIA899JBRPOIYXnzxRWnbtq0SpL6gD+uQtNGIr3j8v7R3GeVeqDENoQrxmOO7karyEY8x5Op9b3wZsnjsG2t+r+W/C0ikQ/FICCHEFRSPJBqgeAwdikcmJYXikWGSJxSP9sJhxYkbkmLkAITYJ7nE4x133OERMTfffLNkzZpVSbVA4jEUMOegtdowoUAIBgLVg6NHj1btUDE4a9YsL9EWSDxCEkJqovIQ237yyScycOBArzb6HC9evChvvvmmGhJWA8mJyswNGzZIxowZPXMmBhOPGEp1+/btSpgGAtWMaONb7Yl9Z8qUSQnPAwcOqGVWUewrHgGqPzFPJtK7d291vjjujz/+WFVbBnteo4HEFo8Pf91X8rRZ6LUM80Bmq9Ff7nykkNyWIbPc/VxxebTjMik8+5pXO7sZe9D8XkvxSCIdikdCCCGuoHhMPvCBpWPHjupDHUlcKB5Dh+KRSUmheGSY5AnFo/1gXmN+2UicgOsFQ9GbrqfECLFPcojHQFg/W5rEI+ZhLFKkiF91ozVYb52vERIOw4pCmgUK2puq9XzBMZ05cyb+kTeofES1oO4H59KjRw8l4KxVlagA1MOc+p4jHr/11lue4VsBqh2LFy8ua9assTXUqn4OrUI1WOrXr+85J5xDiRIlpGvXrlKqVClVxYjnLyHxCHBMGBq2ZcuWqt+6desqyWpqG234ikfkqaEHjYIvUjP/F/N7Lf8tQCIdikdCCCGuoHhMOvBhBB9M9Yc0/HVj4cKFZfjw4Z5liO8HMrsfgCgwA0PxGDoUj0xKCsUjwyRPKB6dhUOvErvg95jpGkrMEPtEkniEpILYAqY/cIXUgyS0fu60Bp9JrVWHIKHPoR9++KGaq9G6TSACSTfgO3ysBnJQH1+g4Bg1zZs3l3LlyqlKxNOnT6vhXTHno7X/YOLxypUrsmTJEi/ZiaBS8vnnn/dbjmpE7AuCEVWZTz75pHqOMTQqRO64ceNUtaUd8eh7TMGer2jCJB6z1x5qFHyRGtP7LMJ/B5BIh+KREEKIKygekw4Mx4KJ5fVflGK4F/zDOW3atJ5lSO3ateO3uE6gD0A6GFbnrrvu8vy1J/GH4jF0KB6ZlBSKR4ZJnlA8hhYMnckvHomJpK5ytIbYJ1LEI6oAn3rqKVVph8+OJiDIIMpMnycRDGvqKx4TqnicN2+e+nyL+wkBkYa5Ea2fe3Ws8yBaCTY3JYY0xTCz1s/AGB61ZMmSHkFVsWJFNQSrXfEYiIQkII7z/vvvV5JRs2jRIvn000/lxx9/pHh0gUk8pnvyRaPgi8TU3Wh+n0X4+59EOhSPhBBCXEHxmHzs2LFDCcOvvvpKfagLFXyIwYdEisfAUDyGDsUjk5JC8cgwyROKx9CD6kfO/Uis4HowXStJFWKfNh27JLt4xKg6derUUeIKFXdDhw41frbEZ0ZUJ6JK0VS9iFiHDgUQYeg3ffr0RvmH+A7PGgiINMxbiOPwjROBqdHHZvoM/Pfff6vnRZPY4hH7CjSMbKChVq1zaGLeyXvvvVfKly/vWZY/f341d6d+PGjQILVdtGESj7f/J6tR8kViBu81v88iFI8k0qF4JIQQ4gqKx+Rh27ZtkidPHjW5Pm4xn4Pv5PR2wYcYisfgUDyGDsUjk5JC8cgwyROKR/dBdVtKes8i4QfCESLadH0kZYh9mrVuK+fPx70BJgOQXStXrpQCBQrI66+/roYWjYmJUZ8t33//fTXajnXuRXxmhACDCLNLMLnnlGDyzirn7OLk2BJbPAYjkHg8evSosfI0UNauXau2izbwPOXMmdNLPCKPtl9iFH2RFtN7rA7FI4l0KB4JIYS4guIx6cCHhTZt2qiJ41HpOGbMGPVh8MiRI2oi+jRp0qjJ7zG/Bj442iWUD5HRBsVj6FA8MikpFI8MkzyheAxfKCCjj0gRjjrEPhCP584l/ZOGCkNUN0I6zpo1y0sw4o9ZBw8eLA888ID6jKkr//CZEX+s6itwfGMVeVrumdpZA6GWEGhj2lbHd5jXhHAiHg8ePKj+0BdViUktHvG5fsGCBep1cdNPtILvSrJnz+53vaSEqscOO83vsToUjyTSoXgkhBDiCorHpGPZsmVq0nkIQuuHQw3mpMAHoXbt2jn6ILR+/XolMzEMCTFD8Rg6FI9MSgrFI8MkTygewx8ISM4BmXrB76fjcf8+jSThqEPs06RVm4BDbJLERc8/eelS3IcTB6A9tnMy1Qk+m4fjdQ5XP9HE4cOH1ZCzvuIRyV57qFH4RUpM76/W8Pc7iXQoHgkhhLiC4jFpwET+en4GO9HzawSbUF8Hc27gH94ZM2a0PcdGtEHxGDoUj0xKCsUjwyRPKB4TN5CQqIrjl5Qpn0irbjSF2Kdxy++VxCKEJA6oVs2UKZOfdEQiueox2NyOOvydTiIdikdCCCGuoHhMGjDfhu88DSNHjlSVivXq1fNbB1GJ4VjwV5EYcsaaffv2SeHChdWQrL7rIB1N1ZTRDsVj6FA8MikpFI8MkzyheEy66EpIvL/xS8vIB6IxUisbA4XYp1GLVvLrr7/GPyKEhJu9e/fKfffdZxSPCIYzNYm/5MwXK/3fV03h73AS6VA8EkIIcQXFY/IBqWh3XgoroW4XzVA8hg7FI5OSQvHIMMkTisfkC4QWZCTklhaSOvhSk0nc6OcagtEqGVOSaPQNsU/rjl3l559/jn9ECAk3O3fulHTp0hmlI4L3rLobzQIwOfLuIpHVv5nfW32D3yGERDIUj4QQQlxB8Zh0oCLR6YT+JigenUPxGDr4Ms0KxSMTyaF4ZJjkCcUjw6SeEPu07thNVWQRQhKHTZs2ya233mr83gTBexZEH6oMTSIwqTP9iPl91RSKRxLpUDwSQghxBcVj5GBXKFI8OofiMXR8xQ3kCMNEcqxQPDJM0oTikWFST4h9uvUfLFu3bo1/RAgJN0uXLjUKRx39vgX5iGpDkwxMqjiRjgjFI4l0KB4JIYS4guIxcqB4TDwoHkMnJYkbQnyheGSYpAnFI8OknhD7DJs4XRYtWhT/iBASboYPH24UjjrW967klI9OpSNC8UgiHYpHQgghrqB4jBwoHhMPisfQoXgkKRmKR4ZJmlA8MkzqCbHPnBXrZeDAgfGPCCHhplWrVkbhqOP7/gX5mJRzPkJ0hiIdEYpHEulQPBJCCHEFxWPkcO3aNTl16pRcunQpfokZu+3IDSgeQwfi5n/XGCZl5g+KR4ZJklA8MkzqCbHP8q175Kuvvop/RAgJNyVKlDAKRx3TexjkY4edZlEYzkA6Yl+mY7ATikcS6VA8EkIIcQXFI4kGKB4JIZEOxSOTkpMSxSPDMOYQ+xw+f0Vee/0N+d//+AGBkHBz/vx5eeyxx4zCUcf0bxKdxKp+hHAcvNe8TyeheCSRDsUjIYQQV1A8kmiA4pEQEulQPDIpOSlNPBJCSDjAZ4z3S3wqO3fujF9CCAkX69evN8pGnUxZshr/TeIbCMgvVpolopNAOKKS0rSPUELxSCIdikdCCCGuoHgk0QDFIyEk0qF4ZFJyKB4JIdEIPmMMm7ZAypQpE7+EEBIu3nnnHaNw1Pnos/LGf5MECgQkKhWdSEgtG90MqRooFI8k0qF4JIQQ4gqKRxINUDwSQiIdX/F45CLDpKxQPBJCog39GaN81RqybNmy+KWEELdMnDhRbr31VqNw1GnfZ6jfZ3W72XL6elaeEJl/7Hqm/nw9WIaYtgtnKB5JpEPxSAghxBUUjyQaoHgkhEQ6VvHIMCk9FI+EkGhAf8aYuXqblKnwpcyYMSN+DSEkVEaOHClPPPGEUTZas2THQb/P6ikpFI8k0qF4JIQQ4gqKRxINUDwSQiIdikcmNYXikRASDVg/Y2w9dkHeLfGpvP7667JixQo5ceJEfCtCSEIcO3ZMli5dKi+88IJRMvrG7vyOkRyKRxLpUDwSQghxRTjE47nLDBPZoXgkhEQ6FI9MagrFIyEkGvhf3Bueb1atXiOff15GsmfPLq+88orUqFFDWrRoIYMGDZK5c+cqKbl27VrZtGmTbNmyRbZt2ybbt2+XzZs3M0yqCq5rXN+4zjdu3Kiu++XLl8usWbNkwIAB0qxZM6lWrZoULVpUsmbNahSMgbJ48RLjz19KCyGRDMUjIYQQV4RDPDJMNIXikRCSGPwR9/v4j6sMkzpyIe56JoSQaObgwYPSuHFjefDBB/2kyT/+8Q+5/fbb5c4775S77rpL7r77boZJlcH1nTZtWnW947r3/VkIJRD5hJDEh+KREEKIKygeGcZZKB4JIYQQQgghdoCAHDp0qOOKLoZhvIOfoSVLlsT/ZBFCEhuKR0IIIa6geGQYZ6F4JIQQQgghhDgBAhLSpHz58pSQDGMz+FnBzwyrHAlJeigeCSGEuILikWGcheKREEIIIYQQ4oaTJ0+qrFy50pPp06fL4MGDGSZqgmveN3v27FHBzwchJPmgeCSEEOIKikeGcRaKR0IIIYQQQgghhBCSWqF4JIQQ4gqKR4ZxFopHQgghhBBCCCGEEJJaoXgkhBDiCopHhnEWikdCCCGEEEIIIYQQklqheCSEEOIKikeGcRaKR0IIIYQQQgghhBCSWqF4JIQQ4gqKR4ZxFopHQgghhBBCCCGEEJJaoXgkhBDiCopHhnEWikdCCCGEEEIIIYQQklqheCSEEOIKikeGcRaKR0IIIYQQQgghhBCSWqF4JIQQ4gqKR4ZxFopHQgghhBBCCCGEEJJaoXgkhBDiCopHhnEWikdCCCGEEEIIIYQQklqheCSEEOIKikeGcRaKR0IIIYQQQgghhBCSWqF4JIQQ4gqKR4ZxFopHQgghhBBCCCGEEJJaoXgkhBDiCopHhnEWikdCCCGEEEIIIYQQklqheCSEEOIKikeGcRaKR0IIIYQQQgghhBCSWqF4JIQQ4gqIx3N/MwxjNxSPhBBCCCGEEEIIISS1QvFICCGEEEIIIYQQQgghhBBCCHENxSMhhBBCCCGEEEIIIYQQQgghxDUUj4QQQgghhBBCCCGEEEIIIYQQ11A8EkIIIYQQQgghhBBCCCGEEEJcQ/FICCGEEEIIIYQQQgghhBBCCHENxSMhhBBCCCGEEEIIIYQQQgghxDUUj4QQQgghhBBCCCGEEEIIIYQQ11A8EkIIIYQQQgghhBBCCCGEEEJcQ/FICCGEEEIIIYQQQgghhBBCCHENxSMhhBBCCCGEEEIIIYQQQgghxDUUj4QQQgghhBBCCCGEEEIIIYQQ11A8EkIIIYQQQgghhBBCCCGEEEJcQ/FICCGEEEIIIYQQQgghhBBCCHENxSMhhBBCCCGEEEIIIYQQQgghxDUUj4QQQgghhBBCCCGEEEIIIYQQ11A8EkIIIYQQQgghhBBCCCGEEEJcQ/FICCGEEEIIIYQQQgghhBBCCHENxSMhhBBCCCGEEEIIIYQQQgghxDUUj4QQQgghhBBCCCGEEEIIIYQQ11A8EkIIIYQQQgghhBBCCCGEEEJcQ/FICCGEEEIIIYQQQgghhBBCCHENxSMhhBBCCCGEEEIIIYQQQgghxDUUj4QQQgghhBBCCCGEEEIIIYQQ11A8EkIIIYQQQgghhBBCCCGEEEJcQ/FICCGEEEIIIYQQQgghhBBCCHENxSMhhBBCCCGEEEIIIYQQQgghxDUUj4QQQgghhBBCCCGEEEIIIYQQ11A8EkIIIYQQQgghhBBCCCGEEEJcQ/FICCGEEEIIIYQQQgghhBBCCHENxSMhhBBCCCGEEEIIIYQQQgghxDUUj4QQQgghhBBCCCGEEEIIIYQQ11A8EkIIIYQQQgghhBBCCCGEEEJcQ/FICCGEEEIIIYQQQgghhBBCCHENxSMhhBBCCCGEEEIIIYQQQgghxDUUj4QQQgghhBBCCCGEEEIIIYQQ11A8EkIIIYQQQgghhBBCCCGEEEJcQ/FICCGEEEIIIYQQQgghhBBCCHENxSMhhBBCCCGEEEIIIYQQQgghxDUUj4QQQgghhBBCCCGEEEIIIYQQ11A8EkIIIYQQQgghhBBCCCGEEEJcQ/FICCGEEEIIIYQQQgghhBBCCHENxSMhhBBCCCGEEEIIIYQQQgghxDUUj4QQQgghhBBCCCGEEELI/7d3LzsNAgEUhn3/F1XRaG9eduowUNsyWuDo7vuSQ9Kwgu2fKQDEhEcAAAAAAAAgJjwCAAAAAAAAMeERAAAAAAAAiAmPAAAAAAAAQEx4BAAAAAAAAGLCIwAAAAAAABATHgEAAAAAAICY8AgAAAAAAADEhEcAAAAAAAAgJjwCAAAAAAAAMeERAAAAAAAAiAmPAAAAAAAAQEx4BAAAAAAAAGLCIwAAAAAAABATHgEAAAAAAICY8AgAAAAAAADEhEcAAAAAAAAgJjwCAAAAAAAAMeERAAAAAAAAiAmPAAAAAAAAQEx4BAAAAAAAAGLCIwAAAAAAABATHgEAAAAAAICY8AgAAAAAAADEhEcAAAAAAAAgJjwCAAAAAAAAMeERAAAAAAAAiAmPAAAAAAAAQEx4BAAAAAAAAGLCIwAAAAAAABATHgEAAAAAAICY8AgAAAAAAADEhEcAAAAAAAAgJjwCAAAAAAAAMeERAAAAAAAAiAmPAAAAAAAAQEx4BAAAAAAAAGLCIwAAAAAAABATHgEAAAAAAICY8AgAAAAAAADEhEcAAAAAAAAgJjwCAAAAAAAAMeERAAAAAAAAiAmPAAAAAAAAQEx4BAAAAAAAAGLCIwAAAAAAABATHgEAAAAAAICY8AgAAAAAAADEhEcAAAAAAAAgJjwCAAAAAAAAMeERAAAAAAAAiAmPAAAAAAAAQEx4BAAAAAAAAGJn4fFBeAQAAAAAAABWEB4BAAAAAACAmPAIAAAAAAAAxIRHAAAAAAAAICY8AgAAAAAAADHhEQAAAAAAAIgJjwAAAAAAAEBMeAQAAAAAAABiY3i8f3gWHgEAAAAAAIB1hEcAAAAAAAAgJjwCAAAAAAAAMeERAAAAAAAAiJ2GxzLhEQAAAAAAAFhsEh7vOuERAAAAAAAAWKY0xtIahUcAAAAAAABgNeERAAAAAAAAiAmPAAAAAAAAQKwZHm+75+E2AAAAAAAAwHWlMU7D473wCAAAAAAAAMxXGqPwCAAAAAAAAESERwAAAAAAACAmPAIAAAAAAAAx4REAAAAAAACI/RAen4bbAAAAAAAAANeVxljDY42PN+UiPAIAAAAAAABLlMZYWmPXbyM8AgAAAAAAAMuN4bHGxyE8liOQAAAAAAAAAHOdft9ReAQAAAAAAABWER4BAAAAAACAmPAIAAAAAAAAxCbhsRt+AAAAAAAAAMxVg2ONjscTj8IjAAAAAAAAsMTYGfvw+LgVHgEAAAAAAIDlzsOjE48AAAAAAADACpPwWP9zVXgEAAAAAAAA5jv9vuMxPDrxCAAAAAAAACzxfdpxW8Pjdvf60W9ft9u/TbY/zN17v8PL+u3NzMzMzMzMzMzMzMzM7Me1GtvcjT2v3fqma7XDsSseO+PXNl/7l/CYxMfWyzMzMzMzMzMzMzMzMzOzulZjm7PTltdufdO12uH18Fj2h+GxrPVAv6314szMzMzMzMzMzMzMzMzsfK3W9tsuO1679U3XaoeX0bFss3v9+ASm0J4vc25M3QAAAABJRU5ErkJggg==;" vertex="1" parent="1">
          <mxGeometry x="60" y="170" width="1822" height="1007" as="geometry" />
        </mxCell>
        <mxCell id="pn5O1WWvvQ2LyJvcuWW_-7" style="edgeStyle=orthogonalEdgeStyle;rounded=0;orthogonalLoop=1;jettySize=auto;html=1;exitX=1;exitY=0.5;exitDx=0;exitDy=0;entryX=0;entryY=0.5;entryDx=0;entryDy=0;" edge="1" parent="1" source="pn5O1WWvvQ2LyJvcuWW_-4" target="pn5O1WWvvQ2LyJvcuWW_-6">
          <mxGeometry relative="1" as="geometry" />
        </mxCell>
        <mxCell id="pn5O1WWvvQ2LyJvcuWW_-4" value="" style="rounded=0;whiteSpace=wrap;html=1;fillColor=none;strokeWidth=2;" vertex="1" parent="1">
          <mxGeometry x="1190" y="950" width="100" height="30" as="geometry" />
        </mxCell>
        <mxCell id="pn5O1WWvvQ2LyJvcuWW_-6" value="" style="rounded=0;whiteSpace=wrap;html=1;fillColor=none;strokeWidth=2;" vertex="1" parent="1">
          <mxGeometry x="1430" y="700" width="290" height="340" as="geometry" />
        </mxCell>
        <mxCell id="pn5O1WWvvQ2LyJvcuWW_-8" value="" style="rounded=0;whiteSpace=wrap;html=1;fillColor=none;strokeWidth=2;" vertex="1" parent="1">
          <mxGeometry x="300" y="560" width="40" height="50" as="geometry" />
        </mxCell>
        <mxCell id="pn5O1WWvvQ2LyJvcuWW_-9" value="" style="rounded=0;whiteSpace=wrap;html=1;fillColor=none;strokeWidth=2;" vertex="1" parent="1">
          <mxGeometry x="440" y="650" width="250" height="400" as="geometry" />
        </mxCell>
        <mxCell id="pn5O1WWvvQ2LyJvcuWW_-10" style="edgeStyle=orthogonalEdgeStyle;rounded=0;orthogonalLoop=1;jettySize=auto;html=1;exitX=0.5;exitY=1;exitDx=0;exitDy=0;entryX=0.003;entryY=0.519;entryDx=0;entryDy=0;entryPerimeter=0;" edge="1" parent="1" source="pn5O1WWvvQ2LyJvcuWW_-8" target="pn5O1WWvvQ2LyJvcuWW_-9">
          <mxGeometry relative="1" as="geometry" />
        </mxCell>
        <mxCell id="pn5O1WWvvQ2LyJvcuWW_-11" value="" style="rounded=0;whiteSpace=wrap;html=1;fillColor=none;strokeWidth=2;" vertex="1" parent="1">
          <mxGeometry x="470" y="720" width="180" height="50" as="geometry" />
        </mxCell>
        <mxCell id="pn5O1WWvvQ2LyJvcuWW_-12" value="" style="rounded=0;whiteSpace=wrap;html=1;fillColor=none;strokeWidth=2;" vertex="1" parent="1">
          <mxGeometry x="710" y="650" width="200" height="400" as="geometry" />
        </mxCell>
        <mxCell id="pn5O1WWvvQ2LyJvcuWW_-13" style="edgeStyle=orthogonalEdgeStyle;rounded=0;orthogonalLoop=1;jettySize=auto;html=1;exitX=1;exitY=0.5;exitDx=0;exitDy=0;entryX=0.1;entryY=0.5;entryDx=0;entryDy=0;entryPerimeter=0;" edge="1" parent="1" source="pn5O1WWvvQ2LyJvcuWW_-11" target="pn5O1WWvvQ2LyJvcuWW_-12">
          <mxGeometry relative="1" as="geometry" />
        </mxCell>
        <mxCell id="pn5O1WWvvQ2LyJvcuWW_-16" style="edgeStyle=orthogonalEdgeStyle;rounded=0;orthogonalLoop=1;jettySize=auto;html=1;exitX=1;exitY=0.5;exitDx=0;exitDy=0;" edge="1" parent="1" source="pn5O1WWvvQ2LyJvcuWW_-14" target="pn5O1WWvvQ2LyJvcuWW_-15">
          <mxGeometry relative="1" as="geometry" />
        </mxCell>
        <mxCell id="pn5O1WWvvQ2LyJvcuWW_-14" value="" style="rounded=0;whiteSpace=wrap;html=1;fillColor=none;strokeWidth=2;" vertex="1" parent="1">
          <mxGeometry x="860" y="680" width="40" height="40" as="geometry" />
        </mxCell>
        <mxCell id="pn5O1WWvvQ2LyJvcuWW_-15" value="" style="rounded=0;whiteSpace=wrap;html=1;fillColor=none;strokeWidth=2;" vertex="1" parent="1">
          <mxGeometry x="940" y="650" width="210" height="400" as="geometry" />
        </mxCell>
        <mxCell id="pn5O1WWvvQ2LyJvcuWW_-18" value="" style="rounded=0;whiteSpace=wrap;html=1;fillColor=none;strokeWidth=2;" vertex="1" parent="1">
          <mxGeometry x="1160" y="650" width="220" height="400" as="geometry" />
        </mxCell>
        <mxCell id="pn5O1WWvvQ2LyJvcuWW_-19" value="" style="rounded=0;whiteSpace=wrap;html=1;fillColor=none;strokeWidth=2;" vertex="1" parent="1">
          <mxGeometry x="720" y="750" width="180" height="60" as="geometry" />
        </mxCell>
        <mxCell id="pn5O1WWvvQ2LyJvcuWW_-20" style="edgeStyle=orthogonalEdgeStyle;rounded=0;orthogonalLoop=1;jettySize=auto;html=1;exitX=0.5;exitY=1;exitDx=0;exitDy=0;entryX=0.57;entryY=0.996;entryDx=0;entryDy=0;entryPerimeter=0;" edge="1" parent="1" source="pn5O1WWvvQ2LyJvcuWW_-19" target="pn5O1WWvvQ2LyJvcuWW_-18">
          <mxGeometry relative="1" as="geometry">
            <Array as="points">
              <mxPoint x="810" y="1100" />
              <mxPoint x="1285" y="1100" />
            </Array>
          </mxGeometry>
        </mxCell>
        <mxCell id="pn5O1WWvvQ2LyJvcuWW_-21" value="" style="rounded=0;whiteSpace=wrap;html=1;fillColor=none;strokeWidth=2;" vertex="1" parent="1">
          <mxGeometry x="390" y="560" width="50" height="50" as="geometry" />
        </mxCell>
        <mxCell id="pn5O1WWvvQ2LyJvcuWW_-23" value="" style="rounded=0;whiteSpace=wrap;html=1;fillColor=none;strokeWidth=2;" vertex="1" parent="1">
          <mxGeometry x="540" y="250" width="220" height="350" as="geometry" />
        </mxCell>
        <mxCell id="pn5O1WWvvQ2LyJvcuWW_-25" value="" style="rounded=0;whiteSpace=wrap;html=1;fillColor=none;strokeWidth=2;" vertex="1" parent="1">
          <mxGeometry x="790" y="250" width="230" height="350" as="geometry" />
        </mxCell>
        <mxCell id="pn5O1WWvvQ2LyJvcuWW_-28" value="" style="rounded=0;whiteSpace=wrap;html=1;fillColor=none;strokeWidth=2;" vertex="1" parent="1">
          <mxGeometry x="827" y="540" width="143" height="40" as="geometry" />
        </mxCell>
        <mxCell id="pn5O1WWvvQ2LyJvcuWW_-29" style="edgeStyle=orthogonalEdgeStyle;rounded=0;orthogonalLoop=1;jettySize=auto;html=1;exitX=0.5;exitY=0;exitDx=0;exitDy=0;entryX=0.463;entryY=0.002;entryDx=0;entryDy=0;entryPerimeter=0;" edge="1" parent="1" source="pn5O1WWvvQ2LyJvcuWW_-28" target="pn5O1WWvvQ2LyJvcuWW_-23">
          <mxGeometry relative="1" as="geometry">
            <Array as="points">
              <mxPoint x="899" y="200" />
              <mxPoint x="642" y="200" />
            </Array>
          </mxGeometry>
        </mxCell>
        <mxCell id="pn5O1WWvvQ2LyJvcuWW_-32" value="" style="rounded=0;whiteSpace=wrap;html=1;fillColor=none;strokeWidth=2;" vertex="1" parent="1">
          <mxGeometry x="1340" y="250" width="230" height="390" as="geometry" />
        </mxCell>
        <mxCell id="pn5O1WWvvQ2LyJvcuWW_-34" style="edgeStyle=orthogonalEdgeStyle;rounded=0;orthogonalLoop=1;jettySize=auto;html=1;exitX=0.5;exitY=1;exitDx=0;exitDy=0;entryX=-0.002;entryY=0.925;entryDx=0;entryDy=0;entryPerimeter=0;" edge="1" parent="1" source="pn5O1WWvvQ2LyJvcuWW_-21" target="pn5O1WWvvQ2LyJvcuWW_-32">
          <mxGeometry relative="1" as="geometry" />
        </mxCell>
      </root>
    </mxGraphModel>
  </diagram>
</mxfile>
